<svg width="88" height="54" viewBox="0 0 88 54" fill="none" xmlns="http://www.w3.org/2000/svg">
<g filter="url(#filter0_d_10_3)">
<path d="M7.8 45.3012C6.7 45.3012 5.8 45.0012 5.1 44.6012C4.76502 44.3854 4.48906 44.0895 4.29702 43.7404C4.10498 43.3912 4.0029 42.9997 4 42.6012V42.0012H6.2V42.5012C6.2 42.7012 6.4 42.9012 6.6 43.1012L7.7 43.3012L8.6 43.2012C8.8 43.1012 8.9 42.9012 8.9 42.8012C8.9 42.6012 8.7 42.4012 8.5 42.3012L7.3 41.8012L6.5 41.5012C5.88898 41.2498 5.31663 40.9131 4.8 40.5012L4.3 39.8012C4.1 39.5012 4.1 39.2012 4.1 38.8012C4.1 38.0012 4.4 37.3012 5.1 36.8012C5.79239 36.2819 6.63452 36.0012 7.5 36.0012C8.6 36.0012 9.5 36.3012 10.2 36.8012C10.4981 37.0671 10.7401 37.3897 10.9118 37.7504C11.0835 38.111 11.1815 38.5022 11.2 38.9012V39.5012H9V39.0012C9 38.7012 8.8 38.5012 8.6 38.3012C8.4 38.1012 8 38.0012 7.6 38.0012C7.2 38.0012 7 38.0012 6.8 38.2012C6.6 38.3012 6.5 38.5012 6.5 38.6012C6.5 38.8012 6.6 38.9012 6.8 39.0012C7 39.2012 7.4 39.3012 8 39.5012L8.6 39.7012L9.2 40.0012L9.8 40.3012L10.4 40.7012L10.9 41.2012L11.2 41.9012L11.3 42.6012C11.3 43.5012 11 44.1012 10.3 44.6012C9.7 45.1012 8.8 45.3012 7.8 45.3012ZM12.2 45.1012V36.2012H19.1V38.4012H14.5V39.7012H17.7V41.7012H14.5V43.0012H19.1V45.2012L12.2 45.1012ZM23.6 45.1012L20 36.2012H22.5L24.7 42.2012L26.9 36.2012H29.5L25.9 45.2012L23.6 45.1012ZM30.4 45.1012V36.2012H37.2V38.4012H32.5V39.7012H35.7V41.7012H32.5V43.0012H37.1V45.2012L30.4 45.1012ZM38.1 45.1012V36.2012H40.1L44.1 41.2012V36.2012H46.3V45.2012H44.3L40.3 40.2012V45.2012L38.1 45.1012ZM55 45.3012C53.9 45.3012 53 45.0012 52.3 44.6012C51.965 44.3854 51.6891 44.0895 51.497 43.7404C51.305 43.3912 51.2029 42.9997 51.2 42.6012V42.0012H53.4V42.5012C53.4 42.7012 53.6 42.9012 53.8 43.1012L54.9 43.3012L55.8 43.2012C56 43.1012 56.1 42.9012 56.1 42.8012C56.1 42.6012 56 42.4012 55.7 42.3012L54.5 41.8012L53.7 41.5012C53.089 41.2498 52.5166 40.9131 52 40.5012L51.5 39.8012C51.3 39.5012 51.3 39.2012 51.3 38.8012C51.3 38.0012 51.6 37.3012 52.3 36.8012C53.0196 36.2609 53.9004 35.9791 54.8 36.0012C55.8 36.0012 56.7 36.3012 57.4 36.8012C58.1 37.4012 58.4 38.1012 58.4 38.9012V39.5012H56.2V39.0012C56.2 38.7012 56.1 38.5012 55.8 38.3012C55.6 38.1012 55.2 38.0012 54.8 38.0012C54.4 38.0012 54.2 38.0012 54 38.2012C53.8 38.3012 53.7 38.5012 53.7 38.6012C53.7 38.8012 53.8 38.9012 54 39.0012C54.2 39.2012 54.6 39.3012 55.2 39.5012L55.8 39.7012L56.4 40.0012L57 40.3012L57.6 40.7012L58.1 41.2012L58.4 41.9012L58.5 42.6012C58.5 43.5012 58.2 44.1012 57.5 44.6012C56.9 45.1012 56 45.3012 55 45.3012ZM59.4 45.1012V36.2012H66.3V38.4012H61.7V39.7012H64.9V41.7012H61.7V43.0012H66.3V45.2012L59.4 45.1012ZM67.2 45.1012V36.2012H74V38.4012H69.5V39.7012H72.7V41.7012H69.5V43.0012H74V45.2012L67.2 45.1012ZM74.9 45.1012V36.2012H79.1C80 36.2012 80.7 36.4012 81.4 36.8012C82 37.2012 82.5 37.8012 82.8 38.4012C83.1236 39.1072 83.2911 39.8746 83.2911 40.6512C83.2911 41.4278 83.1236 42.1952 82.8 42.9012C82.5 43.6012 82 44.1012 81.4 44.5012C80.7 44.9012 80 45.1012 79.1 45.1012H74.9ZM77.2 42.9012H78.9C79.178 42.911 79.455 42.8627 79.7133 42.7594C79.9716 42.6561 80.2055 42.5 80.4 42.3012C80.8 41.9012 81 41.3012 81 40.7012C81 40.0012 80.8 39.4012 80.4 39.0012C80.2055 38.8024 79.9716 38.6463 79.7133 38.543C79.455 38.4397 79.178 38.3914 78.9 38.4012H77.2V42.9012Z" fill="#FBFBFF"/>
</g>
<g filter="url(#filter1_d_10_3)">
<path d="M41.7 23L37 25.4C36.1275 25.8196 35.3866 26.4702 34.8577 27.2811C34.3289 28.0921 34.0322 29.0324 34 30V30.3C34.0245 30.4944 34.1195 30.6731 34.2669 30.8021C34.4144 30.9311 34.6041 31.0015 34.8 31H53C53.1959 31.0015 53.3856 30.9311 53.5331 30.8021C53.6805 30.6731 53.7755 30.4944 53.8 30.3V30C53.786 29.0152 53.4979 28.0538 52.968 27.2236C52.4381 26.3934 51.6874 25.7273 50.8 25.3L46.2 23C45.7559 22.7977 45.284 22.6629 44.8 22.6V9C46.7831 8.87708 48.6495 8.02058 50.0359 6.59726C51.4222 5.17394 52.2293 3.28565 52.3 1.3V0.8C52.3015 0.604067 52.2311 0.414384 52.1021 0.266925C51.9731 0.119466 51.7944 0.0244863 51.6 0L51 0C48.9816 0.0743733 47.0659 0.909495 45.6377 2.33772C44.2095 3.76595 43.3744 5.68155 43.3 7.7V11.7C42.6272 10.7505 41.7453 9.96821 40.7224 9.41339C39.6995 8.85858 38.5628 8.54609 37.4 8.5H36.4C36.3076 8.49868 36.2158 8.51567 36.13 8.54999C36.0442 8.58432 35.966 8.6353 35.9 8.7C35.8095 8.77233 35.7359 8.86344 35.6841 8.96704C35.6323 9.07063 35.6036 9.18424 35.6 9.3V10.3C35.6986 12.2213 36.5128 14.036 37.8823 15.3871C39.2519 16.7381 41.0776 17.5276 43 17.6H43.2V22.6C42.716 22.6629 42.2441 22.7977 41.8 23H41.7ZM50.7 1.6C50.5845 3.153 49.9153 4.61293 48.8141 5.7141C47.7129 6.81527 46.253 7.4845 44.7 7.6C44.8155 6.047 45.4847 4.58707 46.5859 3.4859C47.6871 2.38473 49.147 1.7155 50.7 1.6ZM43 16C41.4502 15.9765 39.9674 15.3638 38.853 14.2865C37.7386 13.2093 37.0761 11.7481 37 10.2V10H37.2C38.7481 10.0761 40.2093 10.7386 41.2865 11.853C42.3638 12.9674 42.9765 14.4502 43 16ZM45.4 24.2L50.2 26.6C50.7615 26.888 51.2401 27.3148 51.5901 27.8399C51.9402 28.365 52.1501 28.9709 52.2 29.6H35.6C35.6597 28.9607 35.8846 28.348 36.2528 27.822C36.621 27.296 37.1198 26.8749 37.7 26.6L42.5 24.2C42.9667 23.9705 43.4799 23.8512 44 23.8512C44.5201 23.8512 45.0333 23.9705 45.5 24.2H45.4Z" fill="#FBFBFF"/>
</g>
<defs>
<filter id="filter0_d_10_3" x="0" y="36" width="87.2911" height="17.3012" filterUnits="userSpaceOnUse" color-interpolation-filters="sRGB">
<feFlood flood-opacity="0" result="BackgroundImageFix"/>
<feColorMatrix in="SourceAlpha" type="matrix" values="0 0 0 0 0 0 0 0 0 0 0 0 0 0 0 0 0 0 127 0" result="hardAlpha"/>
<feOffset dy="4"/>
<feGaussianBlur stdDeviation="2"/>
<feComposite in2="hardAlpha" operator="out"/>
<feColorMatrix type="matrix" values="0 0 0 0 0.00392157 0 0 0 0 0.729412 0 0 0 0 0.937255 0 0 0 0.5 0"/>
<feBlend mode="normal" in2="BackgroundImageFix" result="effect1_dropShadow_10_3"/>
<feBlend mode="normal" in="SourceGraphic" in2="effect1_dropShadow_10_3" result="shape"/>
</filter>
<filter id="filter1_d_10_3" x="30" y="0" width="27.8" height="39" filterUnits="userSpaceOnUse" color-interpolation-filters="sRGB">
<feFlood flood-opacity="0" result="BackgroundImageFix"/>
<feColorMatrix in="SourceAlpha" type="matrix" values="0 0 0 0 0 0 0 0 0 0 0 0 0 0 0 0 0 0 127 0" result="hardAlpha"/>
<feOffset dy="4"/>
<feGaussianBlur stdDeviation="2"/>
<feComposite in2="hardAlpha" operator="out"/>
<feColorMatrix type="matrix" values="0 0 0 0 0.00392157 0 0 0 0 0.729412 0 0 0 0 0.937255 0 0 0 0.5 0"/>
<feBlend mode="normal" in2="BackgroundImageFix" result="effect1_dropShadow_10_3"/>
<feBlend mode="normal" in="SourceGraphic" in2="effect1_dropShadow_10_3" result="shape"/>
</filter>
</defs>
</svg>
