<svg width="512" height="512" viewBox="0 0 512 512" fill="none" xmlns="http://www.w3.org/2000/svg">
<path d="M318.789 150.332V164.009L258.44 224.357V285.804L284.735 312.098V352.932H276.976V315.311L250.681 289.017V221.143L311.03 160.795V150.332H318.789Z" fill="#2997CF"/>
<path d="M280.855 351.639C289.664 351.639 296.805 358.779 296.805 367.588C296.805 376.397 289.664 383.537 280.855 383.537C272.047 383.537 264.906 376.397 264.906 367.588C264.906 358.779 272.047 351.639 280.855 351.639ZM281.286 361.122C277.953 361.122 275.251 363.824 275.251 367.157C275.251 370.49 277.953 373.192 281.286 373.192C284.619 373.192 287.321 370.49 287.321 367.157C287.321 363.824 284.619 361.122 281.286 361.122Z" fill="#2997CF"/>
<path d="M315.34 120.588C324.149 120.588 331.29 127.729 331.29 136.538C331.29 145.346 324.149 152.487 315.34 152.487C306.532 152.487 299.391 145.346 299.391 136.538C299.391 127.729 306.532 120.588 315.34 120.588ZM315.771 130.072C312.438 130.072 309.736 132.773 309.736 136.106C309.736 139.439 312.438 142.141 315.771 142.141C319.104 142.141 321.806 139.439 321.806 136.106C321.806 132.773 319.104 130.072 315.771 130.072Z" fill="#2997CF"/>
<path d="M261.888 123.606V193.752L236.338 219.302L241.628 224.592V293.563L251.543 303.476V342.038L226.541 367.039V387.966L252.561 413.986L247.075 419.472L218.782 391.179V363.825L243.784 338.824V306.69L233.869 296.776V281.806H198.835L180.143 300.499L174.657 295.013L195.621 274.047H233.869V253.356H162.743V245.597H219.331L166.466 192.732L171.952 187.246L230.303 245.597H233.869V227.805L204.557 198.494V161.108H212.316V195.28L230.852 213.816L254.129 190.538V123.606H261.888Z" fill="#2997CF"/>
<path d="M257.578 93C266.386 93 273.527 100.141 273.527 108.949C273.527 117.758 266.386 124.899 257.578 124.899C248.769 124.899 241.628 117.758 241.628 108.949C241.628 100.141 248.769 93 257.578 93ZM258.009 102.483C254.676 102.483 251.974 105.185 251.974 108.518C251.974 111.851 254.676 114.553 258.009 114.553C261.342 114.553 264.044 111.851 264.044 108.518C264.044 105.185 261.342 102.483 258.009 102.483Z" fill="#2997CF"/>
<path d="M208.436 130.934C217.245 130.934 224.386 138.074 224.386 146.883C224.386 155.692 217.245 162.832 208.436 162.832C199.628 162.832 192.487 155.692 192.487 146.883C192.487 138.074 199.628 130.934 208.436 130.934ZM208.867 140.417C205.534 140.417 202.832 143.119 202.832 146.452C202.832 149.785 205.534 152.487 208.867 152.487C212.2 152.487 214.902 149.785 214.902 146.452C214.902 143.119 212.2 140.417 208.867 140.417Z" fill="#2997CF"/>
<path d="M159.295 163.695C168.104 163.695 175.244 170.835 175.244 179.644C175.244 188.453 168.104 195.593 159.295 195.593C150.486 195.593 143.346 188.453 143.346 179.644C143.346 170.835 150.486 163.695 159.295 163.695ZM159.726 173.178C156.393 173.178 153.691 175.88 153.691 179.213C153.691 182.546 156.393 185.248 159.726 185.248C163.059 185.248 165.761 182.546 165.761 179.213C165.761 175.88 163.059 173.178 159.726 173.178Z" fill="#2997CF"/>
<path d="M148.949 233.527C157.758 233.527 164.899 240.668 164.899 249.476C164.899 258.285 157.758 265.426 148.949 265.426C140.141 265.426 133 258.285 133 249.476C133 240.668 140.141 233.527 148.949 233.527ZM149.38 243.01C146.047 243.01 143.346 245.712 143.346 249.045C143.346 252.378 146.047 255.08 149.38 255.08C152.713 255.08 155.415 252.378 155.415 249.045C155.415 245.712 152.713 243.01 149.38 243.01Z" fill="#2997CF"/>
<path d="M167.916 291.29C176.725 291.29 183.866 298.43 183.866 307.239C183.866 316.048 176.725 323.188 167.916 323.188C159.108 323.188 151.967 316.048 151.967 307.239C151.967 298.43 159.108 291.29 167.916 291.29ZM168.347 300.773C165.014 300.773 162.312 303.475 162.312 306.808C162.312 310.141 165.014 312.843 168.347 312.843C171.68 312.843 174.382 310.141 174.382 306.808C174.382 303.475 171.68 300.773 168.347 300.773Z" fill="#2997CF"/>
<path d="M354.293 197.474L330.742 221.026H292.376L279.562 233.84V255.629L302.408 278.475L334.855 246.028H351.55V253.787H338.069L307.894 283.961L331.877 307.944L326.391 313.43L271.803 258.843V230.626L289.162 213.267H327.528L348.807 191.988L354.293 197.474Z" fill="#2997CF"/>
<path d="M339.049 303.359C347.857 303.359 354.998 310.5 354.998 319.309C354.998 328.117 347.857 335.258 339.049 335.258C330.24 335.258 323.099 328.117 323.099 319.309C323.099 310.5 330.24 303.359 339.049 303.359ZM339.48 312.843C336.147 312.843 333.445 315.545 333.445 318.878C333.445 322.211 336.147 324.912 339.48 324.912C342.813 324.912 345.515 322.211 345.515 318.878C345.515 315.545 342.813 312.843 339.48 312.843Z" fill="#2997CF"/>
<path d="M364.05 234.389C372.859 234.389 380 241.53 380 250.338C380 259.147 372.859 266.288 364.05 266.288C355.242 266.288 348.101 259.147 348.101 250.338C348.101 241.53 355.242 234.389 364.05 234.389ZM364.482 243.872C361.149 243.872 358.447 246.574 358.447 249.907C358.447 253.24 361.149 255.942 364.482 255.942C367.815 255.942 370.516 253.24 370.516 249.907C370.516 246.574 367.815 243.872 364.482 243.872Z" fill="#2997CF"/>
<path d="M361.464 168.867C370.273 168.867 377.413 176.008 377.413 184.817C377.413 193.625 370.273 200.766 361.464 200.766C352.656 200.766 345.515 193.625 345.515 184.817C345.515 176.008 352.656 168.867 361.464 168.867ZM361.895 178.351C358.562 178.351 355.86 181.053 355.86 184.386C355.86 187.718 358.562 190.42 361.895 190.42C365.228 190.42 367.93 187.718 367.93 184.386C367.93 181.053 365.228 178.351 361.895 178.351Z" fill="#2997CF"/>
<path fill-rule="evenodd" clip-rule="evenodd" d="M432.917 312.658C432.917 372.804 374.097 425.432 256.458 470.542C138.819 425.432 80 372.804 80 312.658C80 252.512 80 177.329 80 87.1096C159.056 57.0365 217.876 42 256.458 42C295.041 42 353.86 57.0365 432.917 87.1096C432.917 177.329 432.917 252.512 432.917 312.658Z" stroke="#2997CF" stroke-width="20"/>
</svg>
