<?xml version="1.0" standalone="no"?>
<!DOCTYPE svg PUBLIC "-//W3C//DTD SVG 20010904//EN"
 "http://www.w3.org/TR/2001/REC-SVG-20010904/DTD/svg10.dtd">
<svg version="1.0" xmlns="http://www.w3.org/2000/svg"
 width="339.000000pt" height="108.000000pt" viewBox="0 0 339.000000 108.000000"
 preserveAspectRatio="xMidYMid meet">

<g transform="translate(0.000000,108.000000) scale(0.100000,-0.100000)"
fill="#000000" stroke="none">
<path d="M2712 1038 c-195 -163 -281 -413 -222 -642 31 -121 82 -208 182 -311
l88 -89 31 42 31 42 -56 62 c-108 121 -146 226 -146 398 0 172 38 277 146 398
l56 62 -30 40 -29 40 -51 -42z"/>
<path d="M3067 1039 l-28 -39 55 -63 c105 -118 146 -228 146 -397 0 -104 -18
-198 -51 -263 -25 -49 -126 -177 -139 -177 -18 0 -10 -24 20 -64 l30 -39 88
89 c72 71 97 106 131 174 79 162 90 317 34 481 -35 101 -80 172 -164 257 -86
87 -89 88 -122 41z"/>
<path d="M249 926 c-200 -71 -301 -322 -221 -549 81 -229 345 -320 527 -182
l45 35 0 -40 0 -40 90 0 90 0 0 385 0 385 -90 0 -90 0 0 -41 0 -41 -32 28
c-61 51 -125 74 -208 73 -41 0 -91 -6 -111 -13z m237 -162 c45 -22 98 -84 112
-133 20 -65 15 -160 -12 -216 -41 -89 -113 -131 -212 -123 -173 15 -255 260
-138 414 52 68 171 95 250 58z"/>
<path d="M1873 926 c-102 -33 -205 -126 -251 -224 -24 -51 -27 -69 -27 -167 0
-105 2 -114 33 -177 54 -111 160 -193 284 -219 69 -15 179 -6 251 21 l57 21 0
79 0 78 -52 -20 c-29 -11 -88 -22 -130 -25 -95 -7 -147 10 -201 65 -120 123
-70 360 88 412 59 19 203 9 249 -18 20 -12 39 -22 42 -22 2 0 4 36 4 81 l0 80
-47 21 c-61 27 -235 35 -300 14z"/>
<path d="M1276 916 c-21 -8 -51 -27 -67 -42 l-29 -28 0 37 0 37 -85 0 c-91 0
-87 2 -87 -55 0 -14 0 -180 1 -370 l1 -345 84 0 84 0 4 242 c3 226 4 246 25
283 34 65 66 88 126 93 35 3 66 -1 91 -12 21 -9 40 -16 42 -16 2 0 19 31 38
69 l35 69 -50 21 c-65 28 -162 36 -213 17z"/>
</g>
</svg>
