<?xml version="1.0" encoding="UTF-8"?><svg id="Calque_1" xmlns="http://www.w3.org/2000/svg" viewBox="0 0 222.4 253.5"><defs><style>.cls-1{fill:#fff;}.cls-2{fill:#001489;}</style></defs><path class="cls-1" d="M0,147.9c0,37.3,13.7,105.6,110.6,105.6s111.8-68.4,111.8-105.6V0H0v147.9Z"/><polygon class="cls-2" points="113.7 77.8 127.3 114.9 121.4 77 156.5 84.9 124.3 71.2 146.6 44.1 118.1 67.5 106.2 30.1 110.5 68.7 74.7 62.8 106.8 74.9 83.9 100.1 113.7 77.8"/><path class="cls-2" d="M66.4,204.2l2.3-.9c.2-.1.3-.2.3-.5v-13.6c0-.3,0-.4-.3-.5l-2.3-.9v-.3h7.2c3,0,5.4,1.5,5.4,4.3s-1.4,3.6-3.2,3.8h0c2.2.3,4,1.8,4,4.2s-2.5,4.7-6.1,4.7h-7.3v-.3h0ZM73.5,195.4c1.8,0,3.3-1,3.3-3.6s-1.3-3.4-3.3-3.4h-2.4c-.2,0-.3.1-.3.3v6.7h2.8-.1ZM71.1,203.6h2.5c2.6,0,4.1-1.3,4.1-3.8s-1.9-3.6-4.1-3.6h-2.8v7c0,.2.1.3.3.3h0v.1Z"/><path class="cls-2" d="M81.6,204.3l1.9-.9c.2-.1.3-.2.3-.5v-8.2c0-.2,0-.3-.2-.5l-2-1.3v-.3h3.8v3.2c1-2.6,2.3-3.5,3.7-3.5s.9,0,1.5.3l-1,3.4h-.3l-.9-2.2c0-.2-.2-.2-.3-.2-.2,0-.5.1-.9.5-.6.6-1.3,1.6-1.7,3.1v5.6c0,.3,0,.4.3.5l2.8,1v.3h-7.1v-.3h.1Z"/><path class="cls-2" d="M93.6,200.3v-5.6c0-2.2,0-.4-.3-.5l-2-1.2v-.3h4v7.5c0,2.3.5,3.4,2.5,3.4s2.4-.9,3.2-2.3v-6.6c0-.3,0-.4-.3-.5l-2-1.2v-.3h4v9.9c0,.2,0,.3.3.5l1.9,1.2v.3h-3.8v-2.4c-.7,1.4-1.8,2.7-3.8,2.7s-3.7-1.4-3.7-4.6h0Z"/><path class="cls-2" d="M106.5,204.1l.8-3.4h.3l.8,2.6c0,.3.2.4.4.5.4.1,1,.2,1.6.2,1.6,0,3-.8,3-2.4s-.8-1.6-2-1.9l-2.1-.7c-1.6-.5-2.7-1.5-2.7-3.2s1.9-3.5,4.3-3.5,2.2.2,3.4.7l-.7,3.1h-.3l-1-2.6c0-.2-.2-.2-.3-.3-.2,0-.7-.1-1.1-.1-1.7,0-2.8.9-2.8,2.2s.9,1.7,2.2,2.1l2.2.7c1.4.5,2.5,1.3,2.5,3s-2.1,3.6-4.6,3.6-2.9-.3-4-.8h0v.2h.1Z"/><path class="cls-2" d="M117.3,204.1l.8-3.4h.3l.8,2.6c0,.3.2.4.4.5.4.1,1,.2,1.6.2,1.6,0,3-.8,3-2.4s-.8-1.6-2-1.9l-2.1-.7c-1.6-.5-2.7-1.5-2.7-3.2s1.9-3.5,4.3-3.5,2.2.2,3.4.7l-.7,3.1h-.3l-1-2.6c0-.2-.2-.2-.3-.3-.2,0-.7-.1-1.1-.1-1.7,0-2.8.9-2.8,2.2s.9,1.7,2.2,2.1l2.2.7c1.4.5,2.5,1.3,2.5,3s-2.1,3.6-4.6,3.6-2.9-.3-4-.8h0v.2h.1Z"/><path class="cls-2" d="M128.1,198.7c0-3.9,2.2-6.3,5.1-6.3s4.7,1.8,4.7,5.3v.4h-7.9v.2c0,4,2.2,5.3,4,5.3s2.8-.7,3.8-2.5h.3c-.8,2.6-2.7,3.8-4.7,3.8s-5.2-2-5.2-6.2h-.1ZM136,197.2c-.1-2.2-1.1-3.9-3-3.9s-2.8,1.4-3.1,3.9h6.1Z"/><path class="cls-2" d="M139.4,204.3l1.9-.9c.2-.1.3-.2.3-.5v-13.8c0-.2,0-.3-.3-.5l-1.6-.9v-.3l3.6-.7v16.1c0,.3,0,.4.3.5l1.9.9v.3h-6.2v-.3h.1v.1Z"/><path class="cls-2" d="M147.2,204.1l.8-3.4h.3l.9,2.6c.1.3.2.4.4.5.4.1,1,.2,1.6.2,1.6,0,3-.8,3-2.4s-.8-1.6-2-1.9l-2.1-.7c-1.6-.5-2.7-1.5-2.7-3.2s1.9-3.5,4.3-3.5,2.2.2,3.4.7l-.7,3.1h-.3l-1-2.6c0-.2-.1-.2-.3-.3-.2,0-.7-.1-1.1-.1-1.6,0-2.8.9-2.8,2.2s.9,1.7,2.2,2.1l2.2.7c1.4.5,2.5,1.3,2.5,3s-2.1,3.6-4.6,3.6-2.9-.3-4-.8h0v.2h0Z"/><path class="cls-2" d="M61.83,113.96c11.86,0,19,4.34,19,12.95,0,7.13-6.05,11.86-14.35,12.71v.23c9.54.39,16.36,5.27,16.36,13.18,0,9.85-7.99,15.43-20.01,15.43h-25.66v-.15l5.97-4.19c.77-.54.85-.77.85-1.71v-42.41c0-.93-.08-1.16-.85-1.7l-5.97-4.19v-.15h24.66ZM54.78,139.47h4.26c6.12,0,10.39-3.95,10.39-12.33,0-7.75-3.88-11.71-10.08-11.71h-3.18c-1.09,0-1.39.31-1.39,1.63v22.41ZM54.78,140.86v24.42c0,1.55.23,1.71,2.32,1.71h2.09c8.45,0,12.1-4.73,12.1-13.18s-3.41-12.95-12.18-12.95h-4.34,0Z"/><path class="cls-2" d="M99.05,146.91v1.24c0,10.31,4.96,15.27,11.17,15.27,4.96,0,9.38-2.32,12.02-8.45h.16c-1.79,9.54-7.44,14.11-15.97,14.11-9,0-17.37-5.89-17.37-19.31,0-14.58,9.07-19.92,17.76-19.92,7.83,0,15.66,4.11,15.66,15.12,0,.7-.08,1.32-.15,1.94h-23.28ZM99.05,145.52h13.88c.08-.62.08-1.16.08-1.47,0-8.84-2.09-12.95-6.36-12.95-4.57,0-7.21,4.88-7.6,14.42Z"/><path class="cls-2" d="M128.43,149.86c0-14.73,9.77-20,19.23-20,3.41,0,7.52.54,12.1,2.17l-4.19,12.25h-.15l-5.2-12.17c-.39-.7-.62-1.01-1.47-1.01h-.77c-6.13,0-9.3,5.58-9.3,15.74,0,12.09,5.12,16.51,10.85,16.51,4.34,0,7.91-2.41,10.31-7.68h.16c-1.4,7.99-6.2,13.41-14.81,13.41s-16.75-5.89-16.75-19.23h-.01Z"/><path class="cls-2" d="M179.83,130.47v32.8c0,.85.08,1.09.85,1.71l4.57,3.33v.15h-20.55v-.15l4.57-3.33c.7-.54.77-.85.77-1.71v-26.98c0-1.01-.08-1.24-.77-1.79l-4.57-3.88v-.15h15.13ZM169.21,120.24c0-3.18,2.4-5.35,5.35-5.35s5.43,2.17,5.43,5.35c0,2.95-2.4,5.12-5.43,5.12s-5.35-2.17-5.35-5.12Z"/></svg>