<svg preserveAspectRatio="xMidYMid meet" data-bbox="0.24 0 342.49 92.52" xmlns="http://www.w3.org/2000/svg" viewBox="0.24 0 342.49 92.52" height="126" width="343" data-type="color" role="img" aria-label="BelDoc Logo">
    <g>
        <g clip-path="url(#dcb60663-cf3a-441f-bcd2-8cb5bfb2e68e_comp-md7jgp96_r_comp-liu7a4zw)">
            <path fill="#1F4633" d="M189.95 34.26c8.52 0 16.09 2.71 16.09 6.75h.02V17.38h15.82v72.57h-15.82v-5.36c0 4.04-7.65 6.75-16.09 6.75s-15.55-1.47-20.56-5.71c6.39-4.62 9.48-8.49 10.48-11.69 2.14 3.74 5.66 5.15 10.07 5.15 10.81 0 16.09-6.1 16.09-12.05v-8.49c0-5.95-5.29-12.05-16.09-12.05-7.4 0-12.34 3.92-12.34 16.3 0 1.19.06 2.27.15 3.31-2.28-2.24-5.65-3.68-8.14-4.45-.03.06-.06.13-.09.19.66.49 15.71 11.91-8.67 25.86-4.61 2.65-10.44 4.81-18.64 4.81-7.77 0-12.65-3.71-15.3-9.64-8.99 5.93-18.78 9.64-28.82 9.64-12.5 0-26.13-6.08-27.82-23.39-3.08 12.03-12.35 23.04-29.51 23.04-10.99 0-17.95-4.02-21.88-10.36C5.82 92.85.24 82.35.24 82.35c5.18-2.68 10.25-6.31 15.08-10.52C10.76 44.69 35 0 51.15 0c17.56 0 14.3 17.99 1.49 39.58 10.99-3.77 17.82 5.67 18.72 17.56 3.98-13.1 16.95-22.81 30.94-22.81 10.36 0 17.38 6.98 17.38 17.71 0 9.42-7.7 22.9-36.92 19.01 1.67 6.79 6.51 11.13 15.34 11.13 9.43 0 18.37-3.95 26.42-9.99C122.68 45.1 143.55.55 159.71.55c23.71 0 6.5 49.24-24.03 75.66 1.39 3.76 4.08 6.05 8.49 6.05 7.59 0 13.76-4.78 18.11-9.71-.59-2.85-.92-6.06-.92-9.75 0-22.59 11.58-28.54 28.59-28.54M51.15 10.58c7.39 0-5.42 28.67-25.44 50.94 1.81-21.04 19.18-50.94 25.44-50.94M27.01 73.57c2.02 5.01 6.3 8.19 13.77 8.19v-.01c23.28 0 26.42-40.45 6.18-33.28-5.71 8.4-12.56 17.02-19.95 25.1m81.82-21.27c0-6.23-4.9-7.76-7.98-7.76-8.73 0-17.08 8.57-18.53 17.74 8.73 1.46 26.51 1.49 26.51-9.98m50.88-41.65c6.59 0-4.86 31.09-24.91 52.28 2.36-21.21 17.42-52.28 24.91-52.28m154.66 68.4v.01c-9.19 0-12.34-3.86-12.34-16.25 0-12.38 3.16-16.24 12.35-16.24 7.55 0 11.14 2.74 12.09 11.02l16.26-1.74c-1.32-16.88-8.32-21.58-28.35-21.58s-28.59 7.01-28.59 28.54 9.43 28.54 28.59 28.54c20.03 0 27.03-4.69 28.35-21.57l-16.26-1.74c-.95 8.28-4.54 11.02-12.09 11.02zm-60.41-44.49c-19.16 0-28.59 7.01-28.59 28.54s9.43 28.54 28.59 28.54 28.59-7.01 28.59-28.54-9.43-28.54-28.59-28.54m0 44.79c-9.19 0-12.34-3.86-12.34-16.25s3.15-16.25 12.34-16.25 12.34 3.86 12.34 16.25-3.15 16.25-12.34 16.25" clip-rule="evenodd" fill-rule="evenodd" data-color="1"></path>
        </g>
        <defs fill="none">
            <clipPath id="dcb60663-cf3a-441f-bcd2-8cb5bfb2e68e_comp-md7jgp96_r_comp-liu7a4zw">
                <path fill="#ffffff" d="M342.72 0v92.52H.24V0z"></path>
            </clipPath>
        </defs>
    </g>
</svg>
