<svg xmlns="http://www.w3.org/2000/svg" xmlns:xlink="http://www.w3.org/1999/xlink" id="Calque_1" x="0px" y="0px" viewBox="0 0 206 88" style="enable-background:new 0 0 206 88;" xml:space="preserve"><style type="text/css">	.st0{fill:#9D9C9C;}	.st1{fill:#00ACAB;}</style><path class="st0" d="M56.6,70.4c1.4,0,2.3-0.7,2.3-2.2c0-1.3-0.5-2.1-2.4-2.1c-1.3,0-2.2,0.6-2.2,2.1C54.3,69.6,55.1,70.4,56.6,70.4 "></path><path class="st0" d="M63.1,70.2c0.9,0,1.5-0.2,1.7-1.1c0.2-1.1,0.2-1.3,0.4-1.3c0.5,0,0.5,2.6,4.9,2.6c3.7,0,6-3.1,6-7.6 c0-4.9-2.2-7.4-5.7-7.4c-3.5,0-4.1,2-4.5,2c-0.2,0-0.3-0.1-0.3-0.6c0-0.5,0.1-0.9,0.1-2.3v-2.9c0-1-0.2-1.6-2-1.6 c-1.6,0-2.1,0.5-2.1,1.6c0,9.5,0,15,0,17.2C61.5,69.7,61.9,70.2,63.1,70.2 M68.8,58.9c2,0,3.2,1,3.2,4c0,2.9-1.4,4.6-3.4,4.6 c-1.9,0-3.3-1.6-3.3-4.4C65.3,59.9,66.8,58.9,68.8,58.9"></path><path class="st0" d="M81.7,68.8v-5.2c0-2.8,1.2-4.2,3.6-4.2c1.4,0,1.6-0.9,1.6-1.9c0-1.2-0.5-1.6-1.6-1.6c-2.9,0-3.4,2.4-3.8,2.4 c-0.2,0-0.3-0.1-0.4-1.1c-0.2-1.1-0.4-1.4-1.6-1.4s-1.5,0.3-1.5,1.2c0,0.9-0.1,4.4-0.1,11.7c0,1,0.5,1.5,2,1.5 C81.3,70.3,81.7,69.8,81.7,68.8"></path><path class="st0" d="M101.5,68.7c0-0.9,0.1-9.9,0.1-11.6c0-1-0.6-1.3-2.1-1.3c-1.5,0-2,0.4-2,1.2c0,0.9,0.1,2.1,0.1,5.5 c0,3.1-1,4.6-2.9,4.6c-1.6,0-2.5-1.2-2.5-3.7c0-1.4,0.1-5.9,0.1-6.4c0-1.1-0.6-1.3-2-1.3c-1.6,0-2,0.5-2,1.4c0,4.9,0,2.9,0,7.3 c0,4.1,1.6,6.1,4.8,6.1c4,0,4.1-2.9,4.6-2.9c0.2,0,0.2,0.5,0.4,1.1c0.2,0.9,0.6,1.4,1.8,1.4C101,70.2,101.5,69.7,101.5,68.7"></path><path class="st0" d="M110.9,62.1c-3.1-0.6-3.6-1.1-3.6-2.1c0-1,0.9-1.5,2.5-1.5c1.3,0,2.2,0.4,2.9,1.5c0.2,0.4,0.7,0.9,1.4,0.9 c1.1,0,1.8-0.5,1.8-1.4c0-2-1.8-3.9-6.1-3.9c-3.1,0-6.2,1.5-6.2,4.7c0,1.9,0.8,3.7,4.8,4.4c3.2,0.5,4.1,0.7,4.1,1.7 c0,0.7-0.5,1.4-2.5,1.4c-3.7,0-3.4-2.4-5.2-2.4c-1,0-1.4,0.5-1.4,1.5c0,1.4,1.6,3.8,6.2,3.8c4.6,0,6.7-2,6.7-4.4 C116.3,64.2,115.5,62.9,110.9,62.1"></path><path class="st0" d="M124.4,67.7c-3.7,0-3.4-2.4-5.2-2.4c-1,0-1.4,0.5-1.4,1.5c0,1.4,1.6,3.8,6.2,3.8c4.6,0,6.7-2,6.7-4.4 c0-2-0.8-3.3-5.4-4.1c-3.1-0.6-3.6-1.1-3.6-2.1c0-1,0.9-1.5,2.5-1.5c1.3,0,2.2,0.4,2.9,1.5c0.2,0.4,0.7,0.9,1.4,0.9 c1.1,0,1.8-0.5,1.8-1.4c0-2-1.8-3.9-6.1-3.9c-3.1,0-6.2,1.5-6.2,4.7c0,1.9,0.8,3.7,4.8,4.4c3.2,0.5,4.1,0.7,4.1,1.7 C126.8,67,126.3,67.7,124.4,67.7"></path><path class="st0" d="M136.5,63.4c0.6,0,7.2,0,7.9,0c1.1,0,1.6-0.3,1.6-2c0-3.8-2.5-5.9-6.8-5.9c-4.6,0-7.2,3-7.2,7.3 c0,4.7,2.7,7.7,7.2,7.7c4.7,0,6.4-2.5,6.4-3.9c0-0.9-0.7-1.4-1.4-1.4c-2,0-1.4,2.2-4.9,2.2c-2.1,0-3.6-1.4-3.6-3.3 C135.9,63.7,135.9,63.4,136.5,63.4 M139.4,58.4c2.4,0,3.3,1.4,3.3,2.4c0,0.4-0.2,0.6-0.7,0.6h-5.4c-0.5,0-0.6-0.2-0.6-0.6 C136,59.9,137,58.4,139.4,58.4"></path><path class="st0" d="M152.9,67.5c-0.3,0-0.4,0.1-0.6,0.1c-0.4,0-0.5-0.2-0.5-0.7c0-1.4,0.1-13.6,0.1-15.3c0-1.2-0.6-1.6-1.9-1.6 c-1.4,0-2,0.5-2,1.5V67c0,2.1,1.1,3.5,3.4,3.5c1.7,0,2.5-0.6,2.5-1.8C154,68,153.6,67.5,152.9,67.5"></path><path class="st0" d="M162,62.1c-3.1-0.6-3.6-1.1-3.6-2.1c0-1,0.9-1.5,2.5-1.5c1.3,0,2.2,0.4,2.9,1.5c0.2,0.4,0.7,0.9,1.4,0.9 c1.1,0,1.8-0.5,1.8-1.4c0-2-1.8-3.9-6.1-3.9c-3.1,0-6.2,1.5-6.2,4.7c0,1.9,0.8,3.7,4.8,4.4c3.2,0.5,4.1,0.7,4.1,1.7 c0,0.7-0.5,1.4-2.5,1.4c-3.7,0-3.4-2.4-5.2-2.4c-1,0-1.4,0.5-1.4,1.5c0,1.4,1.6,3.8,6.2,3.8c4.6,0,6.7-2,6.7-4.4 C167.5,64.2,166.6,62.9,162,62.1"></path><path class="st0" d="M184.9,65.1c-1.7-2.7-5.2-6.4-9.1-6.4c-2.6,0-5.1,1.9-5.1,5.2c0,3.1,2.9,5.1,5.4,5.1c2.8,0,4.1-0.9,6.5-0.4 c1.8,0.4,2.8,1.3,3.3,1.7c0.2,0.2,0.5,0.3,0.7,0.1c0.2-0.1,0.3-0.4,0.2-1C186.5,68,185.7,66.4,184.9,65.1"></path><path class="st0" d="M199.5,58.7c-3.9,0-7.4,3.7-9.1,6.4c-0.9,1.4-1.6,2.9-1.9,4.3c-0.1,0.6,0,0.9,0.2,1c0.2,0.1,0.5,0.1,0.7-0.1 c0.5-0.5,1.5-1.4,3.3-1.7c2.3-0.5,3.7,0.4,6.5,0.4c2.5,0,5.4-2,5.4-5.1C204.7,60.6,202.1,58.7,199.5,58.7"></path><path class="st0" d="M192.5,60.5c1.1-1,1.8-1.7,2.4-2.5c0.5-0.7,1-1.7,1-3c0-3-2.4-5.1-5-5.1c-1.4,0-2.6,0.6-3.3,1.5 c-0.7-0.9-1.9-1.5-3.3-1.5c-2.6,0-5,2.1-5,5.1c0,1.3,0.5,2.3,1,3c0.5,0.8,1.3,1.5,2.4,2.5c1.6,1.4,3,2.8,4.3,5.5 c0.1,0.2,0.3,0.5,0.6,0.5c0.3,0,0.5-0.2,0.6-0.5C189.5,63.3,190.9,61.9,192.5,60.5 M187.7,64.2c-1.8-3.9-4.2-4.7-6-7.1 c-0.5-0.6-0.7-1.3-0.7-2.1c0-2,1.6-3.6,3.6-3.6c1.7,0,2.8,1.3,3.2,2.2c0.4-0.9,1.4-2.2,3.2-2.2c2,0,3.6,1.6,3.6,3.6 c0,0.7-0.3,1.4-0.7,2.1C191.9,59.6,189.4,60.4,187.7,64.2"></path><path class="st0" d="M64.1,79.3c-1.8,0-2.6,1.3-2.6,2.9c0,1.6,0.9,2.9,2.7,2.9c1.9,0,2.7-1.4,2.7-2.9C66.8,80.7,66.2,79.3,64.1,79.3  M64.1,84.2c-1.1,0-1.7-0.9-1.7-2c0-1.5,0.8-2.1,1.7-2.1c1.1,0,1.7,0.7,1.7,2.1C65.9,83.4,65.2,84.2,64.1,84.2"></path><path class="st0" d="M72,79.4c-0.4,0-0.5,0.1-0.5,0.3c0,0.4,0,0.2,0,2.5c0,1.4-0.8,2-1.6,2c-0.7,0-1.1-0.4-1.1-1.5c0-0.5,0-2.8,0-3 c0-0.3,0-0.4-0.5-0.4c-0.4,0-0.5,0.1-0.5,0.3c0,1.9,0,1.6,0,3.3c0,1.7,0.9,2.1,1.9,2.1c1.4,0,1.6-0.9,1.8-0.9c0.1,0,0.1,0,0.1,0.3 c0.1,0.4,0.1,0.4,0.4,0.4c0.3,0,0.4-0.1,0.4-0.4c0-0.4,0-2,0-4.8C72.5,79.5,72.5,79.4,72,79.4"></path><path class="st0" d="M76.3,79.4c-1.2,0-1.5,1.2-1.6,1.2c0,0-0.1-0.1-0.1-0.3l0-0.7c0-0.2-0.2-0.2-0.4-0.2c-0.3,0-0.4,0.1-0.4,0.3 c0,0.7,0,4.4,0,4.7c0,0.4,0,0.4,0.4,0.4c0.3,0,0.5,0,0.5-0.3V82c0-1,0.7-1.7,1.7-1.7c0.3,0,0.5-0.1,0.5-0.4 C76.9,79.6,76.7,79.4,76.3,79.4"></path><path class="st0" d="M83.1,79.3c-1.6,0-1.7,0.8-1.9,0.8c-0.1,0-0.1,0-0.1-0.1c0-0.4,0-1.9,0-2.4c0-0.3-0.1-0.4-0.4-0.4 c-0.4,0-0.5,0.2-0.5,0.4c0,3.7,0,6.1,0,7c0,0.3,0.1,0.3,0.4,0.3c0.3,0,0.3-0.1,0.4-0.4c0.1-0.5,0.1-0.5,0.2-0.5c0.2,0,0.4,1,1.9,1 c1.4,0,2.4-1,2.4-3C85.5,80.2,84.3,79.3,83.1,79.3 M82.8,84.2c-1.1,0-1.7-1-1.7-2.1c0-1.2,0.6-2.1,1.7-2.1c1.1,0,1.7,0.8,1.7,2 C84.5,83.3,84.1,84.2,82.8,84.2"></path><path class="st0" d="M90.7,79.4c-0.4,0-0.5,0.1-0.5,0.3c0,0.4,0,0.2,0,2.5c0,1.4-0.8,2-1.6,2c-0.7,0-1.1-0.4-1.1-1.5 c0-0.5,0-2.8,0-3c0-0.3,0-0.4-0.5-0.4c-0.4,0-0.5,0.1-0.5,0.3c0,1.9,0,1.6,0,3.3c0,1.7,0.9,2.1,1.9,2.1c1.4,0,1.6-0.9,1.8-0.9 c0.1,0,0.1,0,0.1,0.3c0.1,0.4,0.1,0.4,0.4,0.4c0.3,0,0.4-0.1,0.4-0.4c0-0.4,0-2,0-4.8C91.1,79.5,91.1,79.4,90.7,79.4"></path><path class="st0" d="M94.7,81.9c-1.2-0.2-1.4-0.5-1.4-1c0-0.5,0.4-0.8,1.2-0.8c0.7,0,1.2,0.2,1.4,0.6c0.1,0.2,0.3,0.4,0.5,0.4 c0.2,0,0.4-0.1,0.4-0.4c0-0.6-0.6-1.4-2.2-1.4c-1.5,0-2.3,0.7-2.3,1.7c0,0.7,0.5,1.4,1.9,1.6c1.5,0.2,1.7,0.5,1.7,0.9 c0,0.4-0.4,0.7-1.3,0.7c-1.7,0-1.5-1.2-2.2-1.2c-0.2,0-0.4,0.2-0.4,0.3c0,0.7,0.9,1.6,2.5,1.6c1.6,0,2.3-0.8,2.3-1.6 C96.9,82.6,96.3,82.2,94.7,81.9"></path><path class="st0" d="M98.4,79.4c-0.4,0-0.4,0.1-0.4,0.3c0,0.6,0,4.6,0,4.9c0,0.2,0.1,0.3,0.5,0.3c0.4,0,0.5-0.1,0.5-0.3v-4.9 C98.9,79.5,98.8,79.4,98.4,79.4"></path><path class="st0" d="M98.5,77.1c-0.5,0-0.7,0.3-0.7,0.7c0,0.4,0.2,0.7,0.7,0.7c0.4,0,0.7-0.3,0.7-0.7C99.1,77.4,98.9,77.1,98.5,77.1 "></path><path class="st0" d="M103.1,79.3c-1.3,0-1.6,1-1.7,1c-0.1,0-0.1-0.1-0.1-0.5c0-0.3-0.1-0.3-0.4-0.3c-0.3,0-0.4,0.1-0.4,0.4 c0,0.4,0,2.1,0,4.9c0,0.2,0.1,0.3,0.4,0.3c0.5,0,0.5-0.1,0.5-0.3v-2.7c0-1.3,0.8-1.8,1.7-1.8c0.7,0,1.1,0.4,1.1,1.3 c0,0.6,0,2.9,0,3.1c0,0.3,0,0.3,0.4,0.3c0.4,0,0.5-0.1,0.5-0.2c0-1.9,0-1.6,0-3.3C105,79.7,104,79.3,103.1,79.3"></path><path class="st0" d="M108.7,79.3c-1.5,0-2.4,0.9-2.6,2.1c0,0.3-0.1,0.5-0.1,0.7c0,1.7,0.8,2.9,2.6,2.9c1.6,0,2.2-1,2.2-1.4 c0-0.3-0.1-0.4-0.4-0.4c-0.5,0-0.5,1-1.8,1c-1,0-1.7-0.8-1.7-1.8c0-0.2,0-0.3,0.2-0.3c0.2,0,3,0,3.3,0c0.4,0,0.6-0.2,0.6-0.7 C111.1,80.4,110.3,79.3,108.7,79.3 M109.9,81.6h-2.5c-0.2,0-0.3,0-0.3-0.3c0-0.5,0.5-1.3,1.6-1.3c1.1,0,1.5,0.7,1.5,1.2 C110.2,81.5,110.1,81.6,109.9,81.6"></path><path class="st0" d="M114.4,81.9c-1.2-0.2-1.4-0.5-1.4-1c0-0.5,0.4-0.8,1.2-0.8c0.7,0,1.2,0.2,1.4,0.6c0.1,0.2,0.3,0.4,0.5,0.4 c0.2,0,0.4-0.1,0.4-0.4c0-0.6-0.6-1.4-2.2-1.4c-1.5,0-2.3,0.7-2.3,1.7c0,0.7,0.5,1.4,1.9,1.6c1.5,0.2,1.7,0.5,1.7,0.9 c0,0.4-0.4,0.7-1.3,0.7c-1.7,0-1.5-1.2-2.2-1.2c-0.2,0-0.4,0.2-0.4,0.3c0,0.7,0.9,1.6,2.5,1.6c1.6,0,2.3-0.8,2.3-1.6 C116.5,82.6,116,82.2,114.4,81.9"></path><path class="st0" d="M119.8,81.9c-1.2-0.2-1.4-0.5-1.4-1c0-0.5,0.4-0.8,1.2-0.8c0.7,0,1.2,0.2,1.4,0.6c0.1,0.2,0.3,0.4,0.5,0.4 c0.2,0,0.4-0.1,0.4-0.4c0-0.6-0.6-1.4-2.2-1.4c-1.5,0-2.3,0.7-2.3,1.7c0,0.7,0.5,1.4,1.9,1.6c1.5,0.2,1.7,0.5,1.7,0.9 c0,0.4-0.4,0.7-1.3,0.7c-1.7,0-1.5-1.2-2.2-1.2c-0.2,0-0.4,0.2-0.4,0.3c0,0.7,0.9,1.6,2.5,1.6c1.6,0,2.3-0.8,2.3-1.6 C121.9,82.6,121.4,82.2,119.8,81.9"></path><path class="st0" d="M126,77.1c-0.5,0-0.7,0.3-0.7,0.7c0,0.4,0.2,0.7,0.7,0.7c0.4,0,0.7-0.3,0.7-0.7C126.7,77.4,126.5,77.1,126,77.1 "></path><path class="st0" d="M126,79.4c-0.4,0-0.4,0.1-0.4,0.3c0,0.6,0,4.6,0,4.9c0,0.2,0.1,0.3,0.5,0.3c0.4,0,0.5-0.1,0.5-0.3v-4.9 C126.5,79.5,126.3,79.4,126,79.4"></path><path class="st0" d="M130.2,81.9c-1.2-0.2-1.4-0.5-1.4-1c0-0.5,0.4-0.8,1.2-0.8c0.7,0,1.2,0.2,1.4,0.6c0.1,0.2,0.3,0.4,0.5,0.4 c0.2,0,0.4-0.1,0.4-0.4c0-0.6-0.6-1.4-2.2-1.4c-1.5,0-2.3,0.7-2.3,1.7c0,0.7,0.5,1.4,1.9,1.6c1.5,0.2,1.7,0.5,1.7,0.9 c0,0.4-0.4,0.7-1.3,0.7c-1.7,0-1.5-1.2-2.2-1.2c-0.2,0-0.4,0.2-0.4,0.3c0,0.7,0.9,1.6,2.5,1.6c1.6,0,2.3-0.8,2.3-1.6 C132.3,82.6,131.8,82.2,130.2,81.9"></path><path class="st0" d="M137.5,80.2h1.2c0.2,0,0.3-0.1,0.3-0.4c0-0.3-0.2-0.4-0.3-0.4c-0.3,0-1.1,0-1.2,0c-0.1,0-0.2,0-0.2-0.2V78 c0-0.2-0.1-0.4-0.4-0.4c-0.4,0-0.4,0.2-0.4,0.4v1.3c0,0.2-0.1,0.2-0.7,0.3c-0.3,0.1-0.3,0.1-0.3,0.3c0,0.2,0.1,0.3,0.3,0.3h0.5 c0.1,0,0.2,0.1,0.2,0.2c0,0.9,0,2.3,0,2.9c0,1,0.4,1.6,1.5,1.6c0.7,0,1-0.3,1-0.6c0-0.2-0.1-0.4-0.3-0.4c-0.2,0-0.4,0.1-0.6,0.1 c-0.4,0-0.6-0.2-0.6-0.6v-3.1C137.3,80.2,137.3,80.2,137.5,80.2"></path><path class="st0" d="M142.3,79.3c-1.8,0-2.6,1.3-2.6,2.9c0,1.6,0.9,2.9,2.7,2.9c1.9,0,2.7-1.4,2.7-2.9 C145,80.7,144.3,79.3,142.3,79.3 M142.3,84.2c-1.1,0-1.7-0.9-1.7-2c0-1.5,0.8-2.1,1.7-2.1c1.1,0,1.7,0.7,1.7,2.1 C144,83.4,143.4,84.2,142.3,84.2"></path><path class="st0" d="M151.2,79.3c-1.3,0-1.5,0.8-1.6,0.8c0,0-0.1,0-0.1-0.2c0-1.2,0-1.6,0-2.4c0-0.3-0.1-0.4-0.4-0.4 c-0.4,0-0.5,0.2-0.5,0.4v6.9c0,0.3,0.1,0.5,0.4,0.5c0.2,0,0.1,0,0.3,0c0.2,0,0.3-0.1,0.3-0.2c0-0.4,0-1.8,0-3.1 c0-1.1,0.8-1.5,1.6-1.5c0.7,0,1.2,0.5,1.2,1.4c0,0.5,0,2.8,0,3.1c0,0.3,0,0.4,0.5,0.4c0.3,0,0.4-0.1,0.4-0.4c0-1.9,0-2.5,0-3.1 C153.1,79.7,152.2,79.3,151.2,79.3"></path><path class="st0" d="M156.8,79.3c-1.5,0-2.4,0.9-2.6,2.1c0,0.3-0.1,0.5-0.1,0.7c0,1.7,0.8,2.9,2.6,2.9c1.6,0,2.2-1,2.2-1.4 c0-0.3-0.1-0.4-0.4-0.4c-0.5,0-0.5,1-1.8,1c-1,0-1.7-0.8-1.7-1.8c0-0.2,0-0.3,0.2-0.3c0.2,0,3,0,3.3,0c0.4,0,0.6-0.2,0.6-0.7 C159.2,80.4,158.4,79.3,156.8,79.3 M158.1,81.6h-2.5c-0.2,0-0.3,0-0.3-0.3c0-0.5,0.5-1.3,1.6-1.3c1.1,0,1.5,0.7,1.5,1.2 C158.3,81.5,158.3,81.6,158.1,81.6"></path><path class="st0" d="M162,84.1c-0.2,0-0.2,0.1-0.4,0.1c-0.3,0-0.3-0.2-0.3-0.6v-6c0-0.3-0.1-0.4-0.5-0.4c-0.4,0-0.5,0.2-0.5,0.4 c0,0.4,0,5.9,0,6.1c0,0.8,0.2,1.2,1.1,1.2c0.5,0,0.8-0.2,0.8-0.4C162.3,84.3,162.2,84.1,162,84.1"></path><path class="st0" d="M165.8,79.3c-1.6,0-1.7,0.9-1.9,0.9c-0.1,0-0.1-0.1-0.1-0.5c0-0.2-0.1-0.3-0.4-0.3c-0.3,0-0.4,0.1-0.4,0.3v2 c0,1.9,0,4.3,0,4.5c0,0.4,0.1,0.4,0.4,0.4c0.3,0,0.5,0,0.5-0.3c0-1.6,0-1.8,0-2c0-0.1,0-0.1,0.1-0.1c0.2,0,0.3,0.7,1.8,0.7 c1.3,0,2.4-1.1,2.4-2.8C168.2,80.4,167.3,79.3,165.8,79.3 M165.5,84.2c-1,0-1.7-0.7-1.7-2c0-1.4,0.7-2.1,1.7-2.1 c1.1,0,1.6,0.8,1.6,2C167.2,83.2,166.7,84.2,165.5,84.2"></path><path class="st0" d="M175.9,79.4h-0.4c-0.2,0-0.3,0.1-0.4,0.3l-1.1,4c0,0.1-0.1,0.2-0.2,0.2c-0.1,0-0.2-0.1-0.2-0.2l-1.3-4.1 c-0.1-0.2-0.1-0.2-0.4-0.2h-0.3c-0.2,0-0.3,0.1-0.3,0.2c0,0.1,0,0.2,0.1,0.4c0.2,0.5,0.3,1,0.9,2.5c0.3,0.7,0.6,1.5,0.7,1.9 c0.2,0.6,0.6,0.5,0.6,0.6c0,0.3-0.3,0.8-0.9,0.8c-0.3,0-0.5,0.2-0.5,0.4c0,0.3,0.1,0.5,0.6,0.5c0.9,0,1.4-0.6,1.7-1.5l1.7-5.1 c0-0.1,0.1-0.3,0.1-0.5C176.2,79.5,176.1,79.4,175.9,79.4"></path><path class="st0" d="M179.4,79.3c-1.8,0-2.6,1.3-2.6,2.9c0,1.6,0.9,2.9,2.7,2.9c1.9,0,2.7-1.4,2.7-2.9 C182.1,80.7,181.5,79.3,179.4,79.3 M179.4,84.2c-1.1,0-1.7-0.9-1.7-2c0-1.5,0.8-2.1,1.7-2.1c1.1,0,1.7,0.7,1.7,2.1 C181.1,83.4,180.5,84.2,179.4,84.2"></path><path class="st0" d="M187.3,79.4c-0.4,0-0.5,0.1-0.5,0.3c0,0.4,0,0.2,0,2.5c0,1.4-0.8,2-1.6,2c-0.7,0-1.1-0.4-1.1-1.5 c0-0.5,0-2.8,0-3c0-0.3,0-0.4-0.5-0.4c-0.4,0-0.5,0.1-0.5,0.3c0,1.9,0,1.6,0,3.3c0,1.7,0.9,2.1,1.9,2.1c1.4,0,1.6-0.9,1.8-0.9 c0.1,0,0.1,0,0.1,0.3c0.1,0.4,0.1,0.4,0.4,0.4c0.3,0,0.4-0.1,0.4-0.4c0-0.4,0-2,0-4.8C187.8,79.5,187.8,79.4,187.3,79.4"></path><path class="st0" d="M191.6,79.4c-1.2,0-1.5,1.2-1.6,1.2c0,0-0.1-0.1-0.1-0.3l0-0.7c0-0.2-0.2-0.2-0.4-0.2c-0.3,0-0.4,0.1-0.4,0.3 c0,0.7,0,4.4,0,4.7c0,0.4,0,0.4,0.4,0.4c0.3,0,0.5,0,0.5-0.3V82c0-1,0.7-1.7,1.7-1.7c0.3,0,0.5-0.1,0.5-0.4 C192.2,79.6,192,79.4,191.6,79.4"></path><path class="st0" d="M195.2,81.9c-1.2-0.2-1.4-0.5-1.4-1c0-0.5,0.4-0.8,1.2-0.8c0.7,0,1.2,0.2,1.4,0.6c0.1,0.2,0.3,0.4,0.5,0.4 c0.2,0,0.4-0.1,0.4-0.4c0-0.6-0.6-1.4-2.2-1.4c-1.5,0-2.3,0.7-2.3,1.7c0,0.7,0.5,1.4,1.9,1.6c1.5,0.2,1.7,0.5,1.7,0.9 c0,0.4-0.4,0.7-1.3,0.7c-1.7,0-1.5-1.2-2.2-1.2c-0.2,0-0.4,0.2-0.4,0.3c0,0.7,0.9,1.6,2.5,1.6c1.6,0,2.3-0.8,2.3-1.6 C197.4,82.6,196.8,82.2,195.2,81.9"></path><path class="st1" d="M69.7,31.2c-3.4,0-3.8,2-4.2,2c-0.2,0-0.3-0.1-0.3-0.8v-5.6c0-0.9-0.5-1.2-1.9-1.2c-1.4,0-1.8,0.4-1.8,1.3 c0,0.9,0,10.4,0,17.7c0,1.1,1,1.2,2.1,1.2c1.4,0,1.8-0.4,1.8-1.2v-6.1c0-2.5,1.2-3.9,2.8-3.9c1.9,0,2.6,1.2,2.6,3.7 c0,1.4-0.1,5.6-0.1,6.2c0,1.1,0.6,1.4,2.1,1.4c1.5,0,1.9-0.5,1.9-1.4l0-7.3C74.7,32.5,72.2,31.2,69.7,31.2"></path><path class="st1" d="M88.3,31.5c-1.5,0-2,0.4-2,1.2c0,0.9,0.1,2.1,0.1,5.5c0,3.1-1,4.6-2.9,4.6c-1.6,0-2.5-1.2-2.5-3.7 c0-1.4,0.1-5.9,0.1-6.4c0-1.1-0.6-1.3-2-1.3c-1.6,0-2,0.5-2,1.4c0,4.9,0,2.9,0,7.3c0,4.1,1.6,6.1,4.8,6.1c4,0,4.1-2.9,4.6-2.9 c0.2,0,0.2,0.5,0.4,1.1c0.2,0.9,0.6,1.4,1.8,1.4c1.2,0,1.7-0.6,1.7-1.5c0-0.9,0.1-9.9,0.1-11.6C90.3,31.7,89.7,31.5,88.3,31.5"></path><path class="st1" d="M101.6,31c-3.5,0-4.1,2-4.5,2c-0.2,0-0.3-0.1-0.3-0.6c0-0.5,0.1-0.9,0.1-2.3v-2.9c0-1-0.2-1.6-2-1.6 c-1.6,0-2.1,0.5-2.1,1.6c0,9.5,0,15,0,17.2c0,0.9,0.4,1.4,1.6,1.4c0.9,0,1.5-0.2,1.7-1.1c0.2-1.1,0.2-1.3,0.4-1.3 c0.5,0,0.5,2.6,4.9,2.6c3.7,0,6-3.1,6-7.6C107.3,33.6,105.1,31,101.6,31 M99.9,43.1c-1.9,0-3.3-1.6-3.3-4.4c0-3.2,1.5-4.2,3.4-4.2 c2,0,3.2,1,3.2,4C103.3,41.5,102,43.1,99.9,43.1"></path><path class="st1" d="M34.4,37.4c-1.4-1.4-3-2.5-4.8-3.2c-1.9-0.8-3.8-1.2-5.9-1.2c-2,0-4,0.4-5.9,1.2C16,34.9,14.4,36,13,37.4 c-1.4,1.4-2.5,3-3.2,4.8C9,44,8.6,46,8.6,48v14.5c0,0.3,0.2,0.5,0.5,0.5c0.3,0,0.5-0.2,0.5-0.5V48c0-1.9,0.4-3.7,1.1-5.4 c0.7-1.7,1.7-3.2,3-4.4c1.3-1.3,2.8-2.3,4.4-3c1.7-0.7,3.6-1.1,5.5-1.1c1.9,0,3.7,0.4,5.4,1.1c1.7,0.7,3.2,1.7,4.4,3 c1.3,1.3,2.3,2.8,3,4.4c0.7,1.7,1.1,3.6,1.1,5.4v14.5c0,0.3,0.2,0.5,0.5,0.5c0.3,0,0.5-0.2,0.5-0.5V48c0-2-0.4-4-1.2-5.9 C36.8,40.4,35.8,38.8,34.4,37.4"></path><path class="st1" d="M36.9,34.8c-1.7-1.7-3.7-3.1-6-4c-2.3-1-4.8-1.5-7.3-1.5c-2.5,0-5,0.5-7.3,1.5c-2.2,0.9-4.2,2.3-5.9,4 c-1.7,1.7-3.1,3.7-4,5.9C5.5,43.1,5,45.5,5,48v14.5c0,2.3,1.9,4.2,4.2,4.2c2.3,0,4.2-1.9,4.2-4.2V48c0-2.8,1.1-5.4,3-7.3 c2-2,4.6-3,7.3-3s5.4,1.1,7.3,3s3,4.6,3,7.3v14.5c0,2.3,1.9,4.2,4.2,4.2s4.2-1.9,4.2-4.2V48c0-2.5-0.5-5-1.5-7.3 C40,38.5,38.7,36.5,36.9,34.8 M41.3,62.6c0,1.7-1.4,3.1-3.1,3.1s-3.1-1.4-3.1-3.1V48c0-3.1-1.2-5.9-3.4-8.1c-2.2-2.2-5-3.4-8.1-3.4 c-3.1,0-5.9,1.2-8.1,3.4c-2.2,2.2-3.4,5-3.4,8.1v14.5c0,1.7-1.4,3.1-3.1,3.1c-1.7,0-3.1-1.4-3.1-3.1V48c0-2.4,0.5-4.7,1.4-6.9 c0.9-2.1,2.2-4,3.8-5.6c1.6-1.6,3.5-2.9,5.6-3.8c2.2-0.9,4.5-1.4,6.9-1.4s4.7,0.5,6.9,1.4c2.1,0.9,4,2.2,5.6,3.8 c1.6,1.6,2.9,3.5,3.8,5.6c0.9,2.2,1.4,4.5,1.4,6.9V62.6z"></path><path class="st1" d="M46.1,48c0-3-0.6-5.9-1.8-8.7c-1.1-2.7-2.7-5.1-4.8-7.1c-2.1-2.1-4.4-3.7-7.1-4.8c-2.8-1.2-5.7-1.8-8.7-1.8 c-2.3,0-4.6,0.3-6.7,1V9.1c0-2.1-0.8-4-2.3-5.5c-1.5-1.5-3.4-2.3-5.5-2.3c-2.1,0-4.1,0.8-5.5,2.3C2.2,5.1,1.3,7,1.3,9.1V48v0v14.5 c0,2.1,0.8,4.1,2.3,5.5c1.5,1.5,3.4,2.3,5.5,2.3c2.1,0,4-0.8,5.5-2.3c1.5-1.5,2.3-3.4,2.3-5.5V48c0-3.7,3-6.7,6.7-6.7 c3.7,0,6.7,3,6.7,6.7v14.5c0,2.1,0.8,4,2.3,5.5c1.5,1.5,3.4,2.3,5.5,2.3c2.1,0,4-0.8,5.5-2.3c1.5-1.5,2.3-3.4,2.3-5.5V48z M2.4,9.1 c0-3.7,3-6.7,6.7-6.7c3.7,0,6.7,3,6.7,6.7v18c-0.3,0.1-0.6,0.2-0.9,0.3c-0.6,0.2-1.1,0.5-1.7,0.8V9.1c0-2.3-1.9-4.2-4.2-4.2 C6.9,4.9,5,6.8,5,9.1v26.6c0,0,0,0,0,0.1c-0.7,1.1-1.4,2.3-1.9,3.5c-0.3,0.6-0.5,1.2-0.7,1.8V9.1z M9.2,8.6c-0.3,0-0.5,0.2-0.5,0.5 v22.4c-0.2,0.2-0.5,0.5-0.7,0.7c-0.7,0.7-1.3,1.3-1.8,2.1V9.1C6.1,7.4,7.5,6,9.2,6c1.7,0,3.1,1.4,3.1,3.1v19.7 c-0.9,0.5-1.7,1.1-2.5,1.8V9.1C9.7,8.8,9.5,8.6,9.2,8.6 M38.2,69.3c-3.7,0-6.7-3-6.7-6.7V48c0-2.1-0.8-4.1-2.3-5.5 c-1.5-1.5-3.4-2.3-5.5-2.3c-2.1,0-4.1,0.8-5.5,2.3c-1.5,1.5-2.3,3.4-2.3,5.5v14.5c0,3.7-3,6.7-6.7,6.7c-3.7,0-6.7-3-6.7-6.7V49.8V48 c0-2.9,0.6-5.7,1.7-8.3C5.2,37.2,6.7,35,8.7,33c2-2,4.2-3.5,6.8-4.6c2.6-1.1,5.4-1.7,8.3-1.7c2.9,0,5.7,0.6,8.3,1.7 c2.5,1.1,4.8,2.6,6.8,4.6c2,2,3.5,4.2,4.6,6.8c1.1,2.6,1.7,5.4,1.7,8.3v14.5C45,66.3,41.9,69.3,38.2,69.3"></path></svg>