<svg xmlns="http://www.w3.org/2000/svg" viewBox="0 0 746 128">
  <path fill="#2a2e30" d="M29.7 127.5V0H0v127.5Zm223.4 0c40 0 63.3-27 62.8-69.6h-64v22.6h32.5c-3.4 13.3-15.3 21-31.5 21-19.7 0-36.2-13.5-36.2-37.7 0-23.6 16.5-37.9 36.2-37.9 15 0 26.6 7 32.5 19h28.8C309.2 16.3 279.3 0 253.8 0a64.3 64.3 0 0 0-65.2 63.8 64.2 64.2 0 0 0 64.5 63.7zm120.6 0V84.8h19.1l22.4 42.7h34l-27.4-47.2a39.2 39.2 0 0 0 24.1-37.4C446 17.5 427 0 400 0h-56v127.5Zm0-101H399c9.7 0 17.5 7.5 17.5 16.4 0 10-7.6 17-17.5 17h-25.2Zm224.3 101L545.6 0h-28l-52.3 127.5h31.5l8.1-20.8h53.2l8.1 20.8zm-67.4-85 .8-3.9h.2l.8 3.8 15.8 39.9h-33.6zm113.2 85V47.2L676 93.5h7.4l32.8-45.7V128H746V0h-26l-40 55-39.8-55H614v127.5ZM139.2 72.7 59 0v33.5L163.8 128V3.3h-24.6z"/>
  <path fill="#ff5757" d="M96.7 125.2H59l18.7-44.3Z"/>
</svg>