<svg xmlns="http://www.w3.org/2000/svg" width="199" height="147" viewBox="0 0 199 147" fill="none"><path d="M85.9533 114.639L71.994 84.4825C74.7449 63.9493 77.0788 42.4144 75.7545 39.1019C74.6132 36.25 69.587 34.3415 66.6752 33.4494C63.7706 32.5646 58.5249 31.3361 55.9862 33.0691C53.0378 35.0727 42.9342 54.2385 33.7377 72.8046L5.29975 90.0179C4.80225 90.3251 4.43644 90.8077 4.26817 91.3634L0.105261 104.986C-0.27518 106.244 0.427173 107.568 1.68555 107.948L15.9521 112.306C16.1643 115.246 16.7715 118.134 17.7738 120.905C18.0665 121.71 18.5859 122.412 19.2663 122.924L16.2521 132.781C15.5643 135.026 16.83 137.402 19.0761 138.09L26.8459 140.459C29.092 141.146 31.4697 139.881 32.1574 137.636L35.0766 128.079L39.9857 129.578L37.0666 139.135C36.3935 141.387 37.6665 143.764 39.9126 144.451L47.6604 146.813C49.9065 147.501 52.2842 146.235 52.972 143.991L55.9862 134.134C56.8422 134.09 57.6616 133.797 58.3567 133.293C60.7344 131.552 62.8561 129.497 64.6705 127.179L78.9371 131.538C80.1954 131.918 81.5197 131.216 81.9001 129.958L86.063 116.335C86.2386 115.772 86.1947 115.173 85.9533 114.639ZM16.8593 107.619L5.34364 104.102L8.54813 93.6083L29.8675 80.7532C23.5829 93.1915 18.4908 104.145 16.8593 107.619ZM27.7531 135.771L20.9344 133.687L23.7072 124.605L30.5259 126.69L27.7531 135.771ZM48.5676 142.126L41.7489 140.042L44.5218 130.96L51.3404 133.044L48.5676 142.126ZM55.6424 129.388L22.1928 119.18C20.9856 116.343 20.532 113.249 20.8686 110.185C22.0977 106.164 54.3254 40.7837 58.5761 37.0398C60.6466 36.2062 69.9016 39.0068 71.3209 40.9299C72.7037 47.2844 62.9878 118.675 61.766 122.668C60.332 125.395 58.225 127.713 55.6424 129.388ZM78.0445 126.302L66.5288 122.785C67.1141 118.99 68.8627 107.012 70.8088 93.2573L81.3002 115.823L78.0445 126.302ZM65.5924 50.5019L58.0494 48.1985C56.4325 47.7963 54.7571 48.6372 54.1133 50.1728L51.0844 56.2713C50.543 57.3609 50.4918 58.6259 50.9381 59.752C51.2892 60.6002 52.0062 61.2437 52.8842 61.5143L62.5196 64.4539C63.3975 64.7244 64.3486 64.5855 65.1168 64.0809C66.1191 63.3936 66.7776 62.3187 66.9459 61.1121L67.7506 54.3335C68.0799 52.7029 67.158 51.0722 65.5924 50.5019ZM55.796 57.4413L57.9323 53.127L62.9293 54.6553L62.2928 59.423L55.796 57.4413Z" fill="#003360"></path><path d="M60.173 19.044C59.6216 19.044 59.0915 18.7579 58.8052 18.2492L51.3087 4.90678C50.8846 4.15435 51.1497 3.20056 51.9025 2.77666C52.6553 2.35275 53.6096 2.61769 54.0338 3.37013L61.5408 16.702C61.9649 17.4544 61.6998 18.4082 60.947 18.8321C60.7031 18.9805 60.4381 19.044 60.173 19.044Z" fill="#003360"></path><path d="M71.9425 17.7616C71.794 17.7616 71.635 17.7404 71.4865 17.698C70.6595 17.4436 70.1929 16.5746 70.4474 15.748L74.9113 1.11266C75.1658 0.286042 76.0353 -0.180255 76.8623 0.0740891C77.6894 0.328433 78.1559 1.19744 77.9014 2.02406L73.4375 16.6594C73.2254 17.3271 72.6105 17.7616 71.9425 17.7616Z" fill="#003360"></path><path d="M80.9869 25.3814C80.4143 25.3814 79.8629 25.0634 79.5872 24.5229C79.1949 23.7493 79.5024 22.8061 80.2764 22.4246L93.9439 15.5361C94.7179 15.144 95.6616 15.462 96.0433 16.225C96.4357 16.9986 96.1282 17.9418 95.3541 18.3233L81.6867 25.2118C81.464 25.3284 81.2307 25.3814 80.9869 25.3814Z" fill="#003360"></path><path d="M114.981 52.543L122.53 50.9003C122.816 50.8367 123.082 51.0593 123.082 51.3454V77.1931L125.011 79.8107C125.234 80.1075 125.022 80.5314 124.651 80.5314H117.038C116.783 80.5314 116.582 80.33 116.582 80.0757V78.0303C115.659 79.0371 114.631 79.7789 113.507 80.2664C112.383 80.7539 111.227 80.9977 110.04 80.9977C108.767 80.9977 107.622 80.7433 106.604 80.224C105.586 79.7047 104.717 78.9841 103.985 78.0409C103.254 77.0977 102.692 75.9744 102.299 74.6709C101.907 73.3673 101.706 71.9261 101.706 70.3682C101.706 68.7574 101.907 67.2949 102.299 65.9808C102.702 64.6773 103.275 63.5645 104.028 62.6531C104.78 61.7417 105.692 61.0317 106.763 60.5336C107.834 60.0355 109.032 59.7812 110.358 59.7812C111.439 59.7812 112.51 59.9507 113.549 60.3004C114.599 60.6396 115.606 61.1695 116.582 61.8901V55.9448L114.705 53.2424C114.514 52.9775 114.663 52.6066 114.981 52.543ZM113.242 77.1507C114.376 77.1507 115.49 76.7056 116.571 75.8048V64.7833C115.935 64.2852 115.32 63.9248 114.705 63.7129C114.101 63.5009 113.528 63.395 112.998 63.395C111.673 63.395 110.602 63.999 109.764 65.2178C108.926 66.4365 108.513 68.1427 108.513 70.3364C108.513 72.5301 108.937 74.2152 109.785 75.3915C110.644 76.5678 111.789 77.1507 113.242 77.1507Z" fill="#003360"></path><path d="M149.833 60.5549V77.2674L151.689 79.8002C151.912 80.097 151.7 80.5209 151.328 80.5209H143.79C143.535 80.5209 143.334 80.3195 143.334 80.0652V77.9033C142.326 79.016 141.266 79.8108 140.163 80.2983C139.061 80.7858 137.831 81.019 136.473 80.9872C135.339 80.9872 134.363 80.807 133.536 80.4573C132.709 80.097 132.01 79.5353 131.448 78.7723C130.886 78.0092 130.461 77.0237 130.186 75.8367C129.91 74.6498 129.762 73.1979 129.73 71.4705L129.772 63.3421L127.917 60.8093C127.694 60.5125 127.917 60.0886 128.277 60.0886H137.64C138 60.0886 138.223 60.5019 138.011 60.7987L136.24 63.3421V71.0784C136.24 72.2653 136.293 73.2615 136.399 74.0563C136.505 74.8511 136.675 75.4764 136.919 75.9427C137.163 76.409 137.46 76.7375 137.82 76.9389C138.181 77.1402 138.615 77.2356 139.114 77.2356C139.856 77.2356 140.587 77.0449 141.287 76.6633C141.987 76.2818 142.676 75.7625 143.344 75.0949V63.3527L141.489 60.8199C141.266 60.5231 141.489 60.0992 141.849 60.0992H149.388C149.621 60.0992 149.833 60.3006 149.833 60.5549Z" fill="#003360"></path><path d="M162.886 61.6463C164.763 60.1415 166.883 59.389 169.237 59.389C170.478 59.389 171.612 59.6116 172.63 60.0461C173.648 60.4806 174.517 61.1165 175.249 61.9537C175.981 62.7909 176.532 63.8083 176.914 65.027C177.296 66.2457 177.486 67.6234 177.486 69.1495C177.486 70.8663 177.221 72.4559 176.691 73.9078C176.161 75.3597 175.44 76.6102 174.507 77.6594C173.584 78.7086 172.492 79.514 171.231 80.0968C169.969 80.6797 168.601 80.9659 167.127 80.9659C165.674 80.9659 164.254 80.6479 162.886 80.0121V87.0701L164.847 89.7195C165.07 90.0163 164.858 90.4401 164.487 90.4401H154.902C154.541 90.4401 154.318 90.0268 154.531 89.7301L156.375 87.0701V64.2216L154.562 61.5192C154.382 61.2542 154.531 60.8939 154.838 60.8303L162.324 59.1877C162.61 59.1241 162.875 59.3466 162.875 59.6328V61.6463H162.886ZM165.537 77.9031C167.148 77.8501 168.41 77.0977 169.322 75.6458C170.234 74.194 170.69 72.297 170.69 69.9761C170.69 67.8566 170.276 66.1715 169.439 64.8998C168.601 63.6281 167.509 62.9922 166.162 62.9922C165.685 62.9922 165.165 63.0876 164.614 63.2678C164.063 63.4479 163.48 63.7553 162.865 64.1792V77.2673C163.755 77.6912 164.646 77.9031 165.537 77.9031Z" fill="#003360"></path><path d="M197.643 67.2207L192.002 62.2822C191.61 62.1762 191.133 62.1233 190.571 62.1233C189.701 62.1233 188.97 62.261 188.386 62.5366C187.803 62.8121 187.485 63.2466 187.432 63.8295C187.4 63.8825 187.39 63.9461 187.39 64.0308C187.39 64.4759 187.517 64.8786 187.771 65.2178C188.026 65.5569 188.365 65.8854 188.8 66.1928C189.235 66.5001 189.733 66.7756 190.284 67.03C190.836 67.2843 191.44 67.5387 192.066 67.8036C192.861 68.1427 193.656 68.5136 194.462 68.9164C195.268 69.3085 195.999 69.7642 196.667 70.2834C197.325 70.8027 197.876 71.4068 198.29 72.1062C198.714 72.8057 198.937 73.6429 198.968 74.6285C199.021 75.9532 198.714 77.0236 198.056 77.8608C197.399 78.698 196.551 79.3444 195.533 79.8001C194.515 80.2664 193.402 80.5844 192.204 80.7539C190.995 80.9235 189.881 81.0083 188.853 81.0083C187.824 81.0083 186.626 80.9235 185.258 80.7539C184.018 80.595 182.777 80.383 181.547 80.0969C181.335 80.0545 181.187 79.8637 181.187 79.6412V73.5157C181.187 73.1236 181.653 72.9223 181.94 73.1766L187.57 78.2635C187.856 78.2953 188.132 78.3059 188.386 78.3059C188.641 78.3059 188.895 78.3059 189.16 78.3059C189.956 78.1999 190.645 77.9985 191.228 77.6912C191.811 77.3839 192.14 76.9812 192.225 76.4831C192.246 76.4301 192.267 76.3665 192.267 76.2817C192.267 75.879 192.14 75.5293 191.885 75.2114C191.631 74.8934 191.292 74.5967 190.857 74.3212C190.422 74.0456 189.934 73.7807 189.394 73.5263C188.853 73.272 188.302 73.0282 187.75 72.7951C186.934 72.4454 186.096 72.0745 185.248 71.6611C184.4 71.2478 183.626 70.7709 182.926 70.2305C182.226 69.69 181.653 69.0541 181.219 68.3229C180.784 67.5916 180.561 66.7226 180.561 65.7159C180.561 63.7553 181.441 62.208 183.201 61.0847C184.962 59.9613 187.453 59.3997 190.677 59.3997C191.949 59.3997 193.253 59.495 194.589 59.6858C195.798 59.8554 196.954 60.0885 198.046 60.3958C198.247 60.4488 198.385 60.6396 198.385 60.8409V66.8922C198.396 67.2631 197.94 67.4751 197.643 67.2207Z" fill="#003360"></path><path d="M139.474 105.976C140.481 105.234 141.542 104.683 142.665 104.312C143.789 103.942 144.924 103.761 146.058 103.761C147.331 103.761 148.476 103.984 149.494 104.418C150.512 104.853 151.381 105.489 152.092 106.305C152.802 107.121 153.353 108.128 153.735 109.325C154.117 110.512 154.308 111.847 154.308 113.331C154.308 115.027 154.053 116.585 153.534 117.994C153.014 119.414 152.304 120.622 151.392 121.629C150.48 122.636 149.388 123.42 148.115 123.992C146.843 124.565 145.454 124.851 143.948 124.851C142.178 124.851 140.524 124.437 138.986 123.621L133.685 124.734C133.303 124.819 132.953 124.522 132.953 124.141V99.9039L131.235 97.3922C130.991 97.0319 131.182 96.5444 131.606 96.449L138.721 94.9018C139.103 94.817 139.463 95.1137 139.463 95.4952V105.976H139.474ZM141.849 121.936C143.599 121.915 144.977 121.258 145.984 119.986C146.992 118.715 147.49 116.85 147.49 114.391C147.49 112.218 147.098 110.512 146.324 109.251C145.539 107.99 144.479 107.365 143.121 107.365C142.591 107.365 142.019 107.481 141.393 107.704C140.767 107.926 140.131 108.297 139.463 108.795V121.534C140.099 121.724 140.757 121.841 141.446 121.894C141.542 121.926 141.669 121.936 141.849 121.936Z" fill="#003360"></path><path d="M164.211 115.387C164.423 117.379 165.027 118.958 166.035 120.103C167.042 121.248 168.314 121.82 169.852 121.82C170.933 121.82 172.015 121.534 173.065 120.951C173.987 120.442 174.878 119.711 175.726 118.757C175.938 118.524 176.277 118.471 176.542 118.651L176.786 118.821C177.062 119.011 177.136 119.393 176.945 119.668C175.694 121.47 174.39 122.784 173.012 123.632C171.517 124.543 169.746 124.999 167.71 124.999C166.151 124.999 164.731 124.755 163.458 124.268C162.186 123.78 161.104 123.07 160.224 122.148C159.334 121.226 158.644 120.103 158.135 118.799C157.637 117.485 157.383 116.012 157.383 114.37C157.383 112.706 157.626 111.19 158.114 109.844C158.602 108.499 159.323 107.354 160.256 106.411C161.2 105.468 162.345 104.747 163.691 104.228C165.038 103.708 166.575 103.454 168.293 103.454C170.17 103.454 171.75 103.761 173.043 104.387C174.326 105.012 175.334 105.86 176.065 106.93C176.797 108 177.253 109.262 177.454 110.724C177.656 112.176 177.624 113.744 177.359 115.408H164.211V115.387ZM168.378 106.178C167.19 106.178 166.204 106.803 165.441 108.053C164.678 109.304 164.253 111.084 164.169 113.405H171.474C171.495 112.822 171.506 112.112 171.495 111.275C171.485 110.438 171.379 109.643 171.177 108.901C170.976 108.159 170.658 107.513 170.223 106.983C169.788 106.443 169.173 106.178 168.378 106.178Z" fill="#003360"></path><path d="M116.401 124.809C120.413 124.809 123.665 121.558 123.665 117.549C123.665 113.54 120.413 110.29 116.401 110.29C112.39 110.29 109.138 113.54 109.138 117.549C109.138 121.558 112.39 124.809 116.401 124.809Z" fill="#0022FF"></path></svg>