<?xml version="1.0" encoding="utf-8"?>
<!-- Generator: Adobe Illustrator 19.2.1, SVG Export Plug-In . SVG Version: 6.00 Build 0)  -->
<svg version="1.1" id="layer" xmlns="http://www.w3.org/2000/svg" xmlns:xlink="http://www.w3.org/1999/xlink" x="0px" y="0px"
	 viewBox="0 0 652 652" style="enable-background:new 0 0 652 652;" xml:space="preserve">
<style type="text/css">
	.st0{fill:#090B17;}
</style>
<path class="st0" d="M69.6,274.8l36,20.9c5.8,3.4,9.4,9.6,9.4,16.3l0.1,70.7l43.1-24.2v-70.2c0-6.8-3.6-13-9.4-16.4l-36.9-21.4
	L69.6,274.8z M106.3,358.6l-36-20.9c-5.8-3.4-9.4-9.6-9.4-16.3l-0.1-70.7l-43.1,24.2v70.2c0,6.8,3.6,13,9.4,16.4L64,382.8
	L106.3,358.6L106.3,358.6z M370.5,328.9c0,23.9-17.3,41.3-40.1,41.3c-22.9,0-40.1-17.4-40.1-41.3c0-24,17.3-41.3,40.1-41.3
	C353.2,287.7,370.5,304.9,370.5,328.9z M349.8,328.9c0-14.7-9.3-22.1-19.4-22.1c-10.1,0-19.4,7.4-19.4,22.1
	c0,14.5,9.3,22.1,19.4,22.1C340.5,351.1,349.8,343.6,349.8,328.9z M459.7,328.9c0,23.9-17.3,41.3-40.1,41.3
	c-22.9,0-40.1-17.4-40.1-41.3c0-24,17.3-41.3,40.1-41.3C442.4,287.7,459.7,304.9,459.7,328.9z M439,328.9c0-14.7-9.3-22.1-19.4-22.1
	c-10.1,0-19.4,7.4-19.4,22.1c0,14.5,9.3,22.1,19.4,22.1C429.7,351.1,439,343.6,439,328.9z M212.3,368V263.2h21.9v83.9h50.1V368
	H212.3L212.3,368z M515.2,322.8L547,368h-25.8l-20.6-29.8l-8.7,9.2V368h-21.1V263.2h21.1V319l26.9-29h27.6L515.2,322.8L515.2,322.8z
	 M571.1,323.1l19.2-2.9c4.4-0.6,5.9-2.9,5.9-5.5c0-5.5-4.3-10.1-13.1-10.1c-9.2,0-14.3,2.9-14.9,9.7l-19,0.2
	c1.3-12.2,12.9-26.9,33.8-26.9c24.7,0,33.9,13.9,33.9,29.6v38.3c0,4.1,0.5,9.7,0.9,12.4h-19.3c-0.5-2.1-0.8-6.3-0.8-9.3
	c-4,6.2-11.4,11.6-23,11.6c-16.6,0-26.8-11.2-26.8-23.4C547.8,332.8,558.1,325,571.1,323.1L571.1,323.1z M596.1,336.5V333l-17.6,2.7
	c-5.4,0.8-9.7,3.8-9.7,9.8c0,4.6,3.3,9,10.1,9C587.9,354.5,596.1,350.2,596.1,336.5z"/>
</svg>
