<?xml version="1.0" standalone="no"?>
<!DOCTYPE svg PUBLIC "-//W3C//DTD SVG 20010904//EN"
 "http://www.w3.org/TR/2001/REC-SVG-20010904/DTD/svg10.dtd">
<svg version="1.0" xmlns="http://www.w3.org/2000/svg"
 width="300.000000pt" height="76.000000pt" viewBox="0 0 300.000000 76.000000"
 preserveAspectRatio="xMidYMid meet">

<g transform="translate(0.000000,76.000000) scale(0.100000,-0.100000)"
fill="#000000" stroke="none">
<path d="M2352 698 c-21 -21 -14 -57 12 -64 32 -8 46 2 46 30 0 24 -17 46 -35
46 -6 0 -16 -5 -23 -12z"/>
<path d="M2122 668 c-6 -6 -12 -33 -12 -58 0 -42 -3 -47 -31 -57 -37 -14 -34
-37 4 -41 l27 -3 0 -90 c0 -99 14 -147 51 -173 31 -21 95 -21 103 0 9 22 -11
44 -40 44 -39 0 -54 35 -54 127 0 81 1 83 24 83 37 0 56 10 56 30 0 20 -19 30
-55 30 -22 0 -24 5 -27 57 -3 60 -19 78 -46 51z"/>
<path d="M1312 562 c-9 -7 -12 -47 -10 -168 l3 -159 25 0 c25 0 25 0 30 116 5
127 12 143 65 158 44 12 79 4 107 -26 20 -22 24 -37 28 -136 5 -111 5 -112 30
-112 25 0 25 1 28 100 4 118 -7 160 -48 200 -28 27 -38 30 -100 30 -51 0 -73
-4 -88 -18 -19 -17 -20 -17 -25 3 -5 21 -23 25 -45 12z"/>
<path d="M1795 556 c-75 -33 -115 -141 -84 -223 36 -97 174 -138 264 -79 46
30 22 67 -26 40 -29 -16 -102 -18 -132 -3 -29 15 -56 50 -57 72 0 15 13 17
130 17 l130 0 0 38 c0 113 -117 185 -225 138z m126 -46 c16 -9 49 -58 49 -75
0 -3 -47 -5 -105 -5 -58 0 -105 3 -105 8 1 18 29 56 51 68 29 16 83 18 110 4z"/>
<path d="M2350 551 c-11 -21 -14 -278 -4 -305 8 -21 50 -21 58 0 10 27 7 284
-4 305 -6 10 -17 19 -25 19 -8 0 -19 -9 -25 -19z"/>
<path d="M2524 557 c-2 -7 -3 -82 -2 -167 3 -142 5 -155 22 -158 29 -6 36 16
36 126 0 57 5 112 11 123 23 43 98 47 122 5 6 -11 14 -73 17 -136 5 -115 5
-115 30 -115 l25 0 5 120 c3 66 9 126 13 133 13 20 55 33 83 26 38 -10 48 -40
54 -164 5 -115 5 -115 30 -115 25 0 25 0 28 110 4 168 -26 225 -120 225 -25 0
-56 -8 -75 -20 -33 -20 -33 -20 -65 0 -39 24 -105 26 -135 5 -18 -13 -22 -13
-33 0 -15 18 -39 19 -46 2z"/>
</g>
</svg>
