<svg width="1394" height="238" viewBox="0 0 1394 238" fill="none" xmlns="http://www.w3.org/2000/svg">
<g clip-path="url(#clip0_7_2)">
<path d="M183.3 199C183.3 207 181.3 213.8 177.5 219.7C173.378 225.804 167.529 230.54 160.7 233.3C152.185 236.704 143.067 238.337 133.9 238.1C124.974 238.055 116.094 236.811 107.5 234.4C103.5 233.2 99.5 231.8 95.9 230V203.6C102.3 206.4 108.9 208.9 115.7 211.2C122.273 213.421 129.162 214.569 136.1 214.6C140.7 214.6 144.5 214 147.3 212.8C150.1 211.5 152.2 209.8 153.5 207.8C154.842 205.567 155.535 203.005 155.5 200.4C155.517 198.806 155.216 197.224 154.615 195.748C154.015 194.271 153.125 192.929 152 191.8C149.282 189.079 146.142 186.816 142.7 185.1L129.4 178.4C126.3 176.9 122.9 175.1 119.2 173C115.455 170.833 111.966 168.25 108.8 165.3C105.5 162.3 102.8 158.5 100.6 154.1C98.3985 149.166 97.3389 143.8 97.5 138.4C97.3116 131.21 99.2228 124.121 103 118C106.828 112.205 112.293 107.68 118.7 105C126.353 101.781 134.6 100.213 142.9 100.4C149.9 100.4 156.5 101.2 162.8 102.8C169.1 104.4 175.8 106.8 182.7 109.8L173.5 131.9C167.3 129.4 161.8 127.5 156.9 126.1C152 124.7 147 124.1 141.9 124.1C138.821 123.997 135.755 124.542 132.9 125.7C130.556 126.683 128.568 128.358 127.2 130.5C125.9 132.5 125.2 134.9 125.2 137.6C125.2 140.8 126.2 143.5 128.1 145.6C130.461 148.229 133.315 150.37 136.5 151.9C140.3 153.9 145 156.3 150.5 158.9C157.5 162.2 163.3 165.6 168.1 169.1C172.743 172.34 176.604 176.576 179.4 181.5C182.172 186.941 183.514 192.997 183.3 199.1V199ZM284.8 236.2H207.6V102.2H284.8V125.5H236V154.9H281.4V178.2H236V212.8H284.8V236.2ZM417.9 102.2L372.3 236.2H341.3L295.9 102.2H324.6L349.8 182C353.631 191.422 356.025 201.366 356.9 211.5C358.915 201.602 361.216 191.765 363.8 182L389.2 102.2H417.9ZM512 236.2H434.8V102.2H512V125.5H463.2V154.9H508.6V178.2H463.2V212.8H512V236.2ZM658.8 236.2H622.8L564.4 134.8H563.6L564.2 147.6L564.8 160.4L565.3 173.1V236.2H540V102.2H575.9L634.1 202.6H634.7C634.49 194.362 634.157 186.128 633.7 177.9C633.7 173.9 633.5 169.7 633.3 165.6V102.2H658.9V236.2H658.8ZM751.3 114C743.9 114 737.3 115.3 731.4 117.8C725.5 120.3 720.4 124 716.4 128.8C712.102 133.906 708.871 139.823 706.9 146.2C704.608 153.613 703.494 161.341 703.6 169.1C703.6 180.4 705.3 190.1 708.8 198.4C711.98 206.264 717.495 212.965 724.6 217.6C731.6 222.1 740.4 224.4 750.9 224.4C756.9 224.4 762.5 223.9 767.8 222.9C773.1 221.9 778.2 220.6 783.2 219.1V232.6C778.212 234.463 773.054 235.836 767.8 236.7C762.5 237.7 756.1 238 748.7 238C735.1 238 723.7 235.2 714.5 229.6C705.349 223.912 698.187 215.527 694 205.6C689.213 194.005 686.897 181.54 687.2 169C687.2 158.9 688.6 149.6 691.4 141.2C694.035 133.156 698.289 125.737 703.9 119.4C709.483 113.236 716.389 108.415 724.1 105.3C732.1 101.9 741.2 100.3 751.5 100.3C758.3 100.3 764.8 100.9 771.1 102.3C777.4 103.6 783.1 105.6 788.2 108.1L782 121.3C777.7 119.3 773 117.6 767.9 116.2C762.495 114.701 756.909 113.96 751.3 114ZM896.4 236.2L879.9 193.7H826.2L809.8 236.2H794L846.4 101.6H860.4L912.5 236.2H896.4ZM875.2 179.8L859.5 137.6L857.7 132.2C856.108 127.452 854.575 122.685 853.1 117.9C851.498 124.56 849.562 131.134 847.3 137.6L831.3 179.8H875.2ZM966 102.2C983.4 102.2 996 105.6 1004 112.3C1008.06 115.914 1011.25 120.401 1013.33 125.423C1015.4 130.446 1016.32 135.874 1016 141.3C1016.02 146.83 1015.03 152.318 1013.1 157.5C1011.22 162.651 1008.13 167.279 1004.1 171C1000 174.9 994.5 178 987.7 180.2C981 182.4 972.7 183.5 962.9 183.5H946.6V236.2H931V102.2H966ZM964.6 115.5H946.6V170.1H961.2C968.428 170.28 975.643 169.369 982.6 167.4C987.789 165.934 992.333 162.764 995.5 158.4C998.594 153.509 1000.1 147.78 999.8 142C999.8 133 997 126.4 991.3 122C985.6 117.7 976.7 115.5 964.6 115.5ZM1044 236.2V102.2H1059.6V236.2H1044ZM1137.6 236.2H1121.9V116H1079.7V102.3H1179.6V116H1137.6V236.3V236.2ZM1284 236.2L1267.4 193.7H1213.7L1197.3 236.2H1181.5L1233.9 101.6H1247.9L1300 236.2H1284ZM1262.7 179.8L1247 137.6L1245.3 132.2C1243.67 127.453 1242.11 122.686 1240.6 117.9C1239.03 124.558 1237.13 131.133 1234.9 137.6L1218.9 179.8H1262.7ZM1318.6 236.2V102.2H1334.2V222.2H1393.7V236.2H1318.6ZM196.8 56.3999C196.8 56.3999 176.5 48.3999 161 56.4999C145.4 64.6999 140.5 85.8999 140.5 85.8999C140.5 85.8999 160.8 93.9999 176.4 85.8999C191.9 77.6999 196.8 56.3999 196.8 56.3999ZM151.5 10.4999C151.5 10.4999 130.3 15.8999 122.5 31.5999C114.7 47.2999 123.3 67.3999 123.3 67.3999C123.3 67.3999 144.5 61.9999 152.3 46.2999C160 30.5999 151.5 10.4999 151.5 10.4999ZM76.8 33.9999C79.8 51.3999 98.5 62.5999 98.5 62.5999C98.5 62.5999 112.5 45.7999 109.5 28.4999C106.5 11.1999 87.7 -0.100098 87.7 -0.100098C87.7 -0.100098 73.8 16.7999 76.7 34.0999L76.8 33.9999ZM75.5 73.2999C75.5 73.2999 76.9 51.4999 64.3 39.2999C51.8 26.9999 30 28.7999 30 28.7999C30 28.7999 28.6 50.5999 41.2 62.7999C53.8 75.0999 75.5 73.1999 75.5 73.1999V73.2999ZM34.2 74.3999C16.8 71.8999 0.299988 86.1999 0.299988 86.1999C0.299988 86.1999 12 104.7 29.4 107.2C46.8 109.8 63.3 95.3999 63.3 95.3999C63.3 95.3999 51.6 76.9999 34.2 74.3999ZM66.3 120.5C66.3 120.5 46 112.5 30.5 120.6C15 128.7 10 150.1 10 150.1C10 150.1 30.3 158.1 45.9 150C61.4 141.8 66.3 120.5 66.3 120.5ZM84.4 174.9C92.1 159.2 83.6 139.1 83.6 139.1C83.6 139.1 62.4 144.5 54.6 160.2C46.9 175.9 55.4 196 55.4 196C55.4 196 76.6 190.6 84.4 174.9Z" fill="#C83A52"/>
</g>
<defs>
<clipPath id="clip0_7_2">
<rect width="1394" height="238" fill="white"/>
</clipPath>
</defs>
</svg>
