<svg xmlns="http://www.w3.org/2000/svg" viewBox="0 0 300.6 68.1">
  <path
    d="M37.6 58c0 3.2-1.1 5.6-3.4 7.4S29 68.1 25 68.1a23 23 0 0 1-9.7-2v-6.8a41.4 41.4 0 0 0 5.9 2.2c1.6.4 3 .6 4.4.6 1.6 0 2.8-.3 3.7-1 .8-.5 1.2-1.4 1.2-2.7a3 3 0 0 0-.5-1.8 6.2 6.2 0 0 0-1.7-1.5 42 42 0 0 0-4.4-2.3 21.2 21.2 0 0 1-4.8-2.9 10.7 10.7 0 0 1-2.5-3.1 9 9 0 0 1-1-4.3c0-3 1.1-5.4 3.2-7.1 2-1.8 4.9-2.6 8.5-2.6 1.8 0 3.5.2 5.1.6 1.6.4 3.3 1 5.1 1.8l-2.3 5.7a35 35 0 0 0-4.6-1.6c-1.2-.3-2.4-.5-3.5-.5-1.4 0-2.5.3-3.2 1a3.2 3.2 0 0 0-1.1 2.5c0 .6.1 1.2.4 1.7.3.5.8 1 1.5 1.4l4.6 2.4c3.2 1.5 5.4 3 6.6 4.6a9 9 0 0 1 1.8 5.7z"
    fill="#2f9e5c" />
  <path d="M64.3 67.6H44.5V33.3h19.8v6H51.8v7.5h11.7v6H51.8v8.8h12.6z" fill="#2f9e5c" />
  <path
    d="M91.9 33.2h7.3L87.5 67.6h-8L68 33.2h7.4l6.4 20.5a86 86 0 0 1 1.9 7.6c.2-1.5.7-4 1.7-7.6L92 33.2z"
    fill="#2f9e5c" />
  <path d="M124 67.6h-19.7V33.3H124v6h-12.5v7.5h11.6v6h-11.6v8.8H124z" fill="#2f9e5c" />
  <path
    d="M162.5 67.6h-9.3l-15-26h-.2l.5 9.8v16.2H132V33.3h9.2L156 59h.2c-.3-4.5-.4-7.6-.4-9.5V33.2h6.6v34.4z"
    fill="#2f9e5c" />
  <path
    d="M187 36.3c-3.8 0-6.8 1.3-9 3.8s-3.3 6-3.3 10.3 1.1 8 3.2 10.5c2.1 2.4 5.1 3.6 9 3.6 2.4 0 5.2-.4 8.2-1.2v3.5a25.3 25.3 0 0 1-8.8 1.3c-5 0-9-1.5-11.7-4.6a19 19 0 0 1-4.1-13.1c0-3.6.6-6.7 2-9.3a14.2 14.2 0 0 1 5.7-6.2 17.4 17.4 0 0 1 8.8-2.2c3.6 0 6.8.7 9.5 2l-1.7 3.5a18.3 18.3 0 0 0-7.8-1.9z"
    fill="#55b472" />
  <path
    d="m225 67.6-4.3-11h-13.8l-4.2 11h-4l13.5-34.5h3.4L229 67.6h-4zm-5.6-14.5-4-10.7-1.6-5a43.6 43.6 0 0 1-1.4 5l-4 10.7h11z"
    fill="#55b472" />
  <path
    d="M249.8 67.6 238 37.2h-.2c.2 2.4.4 5.2.4 8.6v21.8h-3.7V33.3h6l10.9 28.3h.2l11-28.4h6v34.4h-4V45.5c0-2.6 0-5.3.2-8.3h-.1L253 67.6h-3.2z"
    fill="#55b472" />
  <path
    d="M300.6 43.3c0 3.4-1.2 6.1-3.6 8a16.2 16.2 0 0 1-10.2 2.8h-4v13.5h-4V33.2h8.9c8.6 0 12.9 3.4 12.9 10zm-17.8 7.4h3.6c3.5 0 6-.6 7.7-1.8s2.3-3 2.3-5.4c0-2.3-.7-4-2.2-5.1-1.5-1.1-3.8-1.7-7-1.7h-4.4v14z"
    fill="#55b472" />
  <path stroke="#2f9e5c" stroke-width="5"
    d="M26.4 4.4 2.3 59.8" />
  <path d="m10.5 2 3-2 19.8 30.8s-2.1-.6-5-.7L10.5 2" fill="#55b472" />
</svg>
