<?xml version="1.0" encoding="utf-8"?>
<!-- Generator: Adobe Illustrator 19.2.1, SVG Export Plug-In . SVG Version: 6.00 Build 0)  -->
<svg version="1.1" id="layer" xmlns="http://www.w3.org/2000/svg" xmlns:xlink="http://www.w3.org/1999/xlink" x="0px" y="0px"
	 viewBox="0 0 652 652" style="enable-background:new 0 0 652 652;" xml:space="preserve">
<style type="text/css">
	.st0{fill:#1396E4;}
	.st1{fill:#272E3A;}
</style>
<g id="Shape" transform="translate(36.472000, 9.870370)">
	<path class="st0" d="M438.8,292.9c-1.9-2.1-4.1-3.8-6.7-5.1c-2.6-1.3-5.4-1.9-8.5-1.9h-25.2h-3.4v68.8h10.8v-23.9h18.4
		c3.1,0,5.9-0.6,8.4-1.9c2.5-1.3,4.7-2.9,6.5-5c1.8-2.1,3.2-4.5,4.2-7.2c1-2.7,1.5-5.5,1.5-8.4c0-2.8-0.5-5.5-1.6-8.2
		C442.2,297.4,440.7,295,438.8,292.9L438.8,292.9z M433.1,313.4c-0.5,1.6-1.2,2.9-2.1,4.1c-0.9,1.2-2,2.1-3.2,2.7
		c-1.2,0.6-2.6,1-4.2,1h-17.8v-25.7H423c1.4,0,2.8,0.3,4.1,0.9c1.3,0.6,2.5,1.5,3.5,2.6c1,1.1,1.8,2.5,2.4,4
		c0.6,1.6,0.9,3.3,0.9,5.2C433.9,310.1,433.6,311.8,433.1,313.4L433.1,313.4z"/>
	<path class="st0" d="M524.1,303.8c-1.5,0.8-3.2,2.2-5.2,4.2v-4.1h-10.5v50.8h10.5v-28.6c0-8.8,2.9-13.2,8.6-13.2
		c1.9,0,3.9,0.7,5.9,2.2l4.8-9.7c-3-1.8-5.9-2.7-8.7-2.7C527.4,302.6,525.6,303,524.1,303.8L524.1,303.8z"/>
	<path class="st0" d="M589.4,304.1h-13.4l-21.1,22.6v-0.8v-42h-10.6v70.8h10.6v-15.4l8.4-7.9l16,23.4h11.3L570,325.3L589.4,304.1z"
		/>
	<path class="st0" d="M497.3,317.2c-1.1-2.5-2.6-4.8-4.4-6.8c-2.2-2.4-4.9-4.3-8.1-5.8c-3.1-1.5-6.7-2.2-10.5-2.2
		c-3.9,0-7.5,0.7-10.7,2.1c-3.2,1.4-5.9,3.4-8.2,5.9c-1.9,2.1-3.4,4.4-4.6,7c-0.3,0.6-0.6,1.2-0.8,1.8c-1.2,3.2-1.9,6.6-1.9,10.1
		c0,3.6,0.6,6.9,1.9,10.1c0.2,0.6,0.5,1.1,0.7,1.6c1.2,2.7,2.7,5.1,4.7,7.2c2.3,2.4,5,4.4,8.2,5.8c3.2,1.4,6.7,2.1,10.6,2.1
		c5.3,0,9.9-1.2,13.9-3.7c4-2.5,6.8-5.7,8.5-9.6l0.1-0.3l-9-2.6c-0.5,1.2-1.2,2.2-2.1,3.2c-0.9,1-1.9,1.8-3.1,2.5
		c-1.2,0.7-2.4,1.2-3.8,1.6c-1.4,0.4-2.8,0.5-4.2,0.5c-1.9,0-3.8-0.4-5.5-1.1c-1.8-0.7-3.3-1.7-4.7-3.1c-1.4-1.3-2.5-2.9-3.4-4.7
		c-0.9-1.8-1.4-3.8-1.6-6.1h36.9h3.3c0.1-0.5,0.1-1,0.2-1.7c0.1-0.7,0.1-1.4,0.1-2.2c0-3.4-0.6-6.7-1.8-9.8
		C497.9,318.5,497.6,317.9,497.3,317.2L497.3,317.2z M459.2,324.7c0.2-1.8,0.7-3.5,1.4-5.1c0.8-1.8,1.9-3.3,3.3-4.6
		c1.3-1.3,2.9-2.2,4.7-3c1.8-0.7,3.6-1.1,5.6-1.1c2,0,3.9,0.4,5.7,1.1c1.8,0.7,3.4,1.7,4.7,3c1.3,1.3,2.4,2.8,3.3,4.6
		c0.8,1.6,1.3,3.3,1.5,5.1H459.2L459.2,324.7z"/>
	<path class="st0" d="M107.9,295.4h22.8v59.2h10.8v-59.2h22.7v-9.6h-56.2V295.4z"/>
	<path class="st0" d="M281.5,345.7L267.2,304h-11.8l19.2,50.7h13.1L307,304H296L281.5,345.7z"/>
	<path class="st0" d="M365.5,343.9c0,3.7,1,6.5,3.1,8.5c1.8,1.8,4.3,2.8,7.5,3v-15.7v-29.6v-24.3h-10.6V343.9L365.5,343.9z"/>
	<path class="st0" d="M356.6,319.1c-0.2-0.7-0.5-1.3-0.8-1.9c-1.1-2.5-2.6-4.8-4.4-6.8c-2.2-2.4-4.9-4.3-8.1-5.8
		c-3.1-1.5-6.7-2.2-10.5-2.2c-3.9,0-7.5,0.7-10.7,2.1c-3.2,1.4-5.9,3.4-8.2,5.9c-1.9,2.1-3.4,4.4-4.6,7c-0.3,0.6-0.6,1.2-0.8,1.8
		c-1.2,3.2-1.9,6.6-1.9,10.1c0,3.6,0.6,6.9,1.9,10.1c0.2,0.6,0.5,1.1,0.7,1.6c1.2,2.7,2.7,5.1,4.7,7.2c2.3,2.4,5,4.4,8.2,5.8
		c3.2,1.4,6.7,2.1,10.6,2.1c5.3,0,9.9-1.2,13.9-3.7c4-2.5,6.8-5.7,8.5-9.6l0.1-0.3l-9-2.6c-0.5,1.2-1.2,2.2-2.1,3.2
		c-0.9,1-1.9,1.8-3.1,2.5c-1.2,0.7-2.4,1.2-3.8,1.6c-1.4,0.4-2.8,0.5-4.2,0.5c-1.9,0-3.8-0.4-5.5-1.1c-1.8-0.7-3.3-1.7-4.7-3.1
		c-1.4-1.3-2.5-2.9-3.4-4.7c-0.9-1.8-1.4-3.8-1.6-6.1h36.9h3.3c0.1-0.5,0.1-1,0.2-1.7c0.1-0.7,0.1-1.4,0.1-2.2
		C358.4,325.6,357.8,322.3,356.6,319.1L356.6,319.1z M322.4,315c1.3-1.3,2.9-2.2,4.7-3c1.8-0.7,3.6-1.1,5.6-1.1c2,0,3.9,0.4,5.7,1.1
		c1.8,0.7,3.4,1.7,4.7,3c1.3,1.3,2.4,2.8,3.3,4.6c0.8,1.6,1.3,3.3,1.5,5.1h-30.2c0.2-1.8,0.7-3.5,1.4-5.1
		C320,317.8,321.1,316.2,322.4,315L322.4,315z"/>
	<path class="st0" d="M167.1,303.9h10.5v4.1c1.9-2.1,3.7-3.5,5.2-4.2c1.5-0.8,3.3-1.2,5.4-1.2c2.8,0,5.7,0.9,8.7,2.7l-4.8,9.7
		c-2-1.5-4-2.2-5.9-2.2c-5.8,0-8.6,4.4-8.6,13.2v28.6h-10.5L167.1,303.9L167.1,303.9z"/>
	<path class="st0" d="M236.9,304.6h11.4v49.5h-11.4v-5.2c-4.7,4.4-9.7,6.6-15.1,6.6c-6.8,0-12.4-2.5-16.8-7.4
		c-4.4-5.1-6.6-11.4-6.6-18.9c0-7.4,2.2-13.6,6.6-18.6c4.4-5,9.9-7.4,16.5-7.4c5.7,0,10.8,2.4,15.4,7.1V304.6L236.9,304.6z
		 M209.2,329.2c0,5.1,1.3,9.2,3.9,12.3c2.7,3.2,6.1,4.8,10.2,4.8c4.4,0,7.9-1.6,10.6-4.7c2.7-3.2,4-7.3,4-12.2c0-4.9-1.3-9-4-12.2
		c-2.7-3.1-6.2-4.7-10.5-4.7c-4.1,0-7.5,1.6-10.2,4.8C210.6,320.5,209.2,324.5,209.2,329.2L209.2,329.2z"/>
</g>
<g id="Shape_1_">
	<path class="st1" d="M98.6,361.4c-7.4,3.5-15.3,5.2-23.6,5.2c-8.2,0-16.2-1.8-23.6-5.2c-2.1-1-4.6-0.1-5.6,2.1
		c-1,2.1-0.1,4.6,2.1,5.6c8.5,4,17.7,6,27.1,6c9.5,0,18.6-2,27.1-6c2.1-1,3-3.5,2.1-5.6C103.2,361.3,100.7,360.4,98.6,361.4
		L98.6,361.4z"/>
	<path class="st1" d="M108.9,275.3c-18.7-18.9-49.1-18.9-67.9,0c-18.7,18.9-18.7,49.6,0,68.5c18.7,18.9,49.1,18.9,67.9,0
		C127.7,324.9,127.7,294.2,108.9,275.3L108.9,275.3z M103,337.9c-15.5,15.6-40.5,15.6-56,0c-15.5-15.6-15.5-40.9,0-56.5
		c15.5-15.6,40.5-15.6,56,0C118.5,296.9,118.5,322.2,103,337.9L103,337.9z"/>
	<path class="st1" d="M75,391.9c-7.5,0-14.8-1.1-21.9-3.4c-2.2-0.7-3.4-3.1-2.8-5.3c0.7-2.2,3-3.5,5.3-2.8c6.2,2,12.8,3,19.4,3
		c6.6,0,13-1,19.3-2.9c2.2-0.7,4.6,0.6,5.3,2.8c0.7,2.2-0.5,4.6-2.8,5.3C89.7,390.8,82.4,391.9,75,391.9L75,391.9z"/>
	<path class="st1" d="M95.8,288.6L95.8,288.6L95.8,288.6c-1.6-1.6-9.2,3.4-11,5.2c-1.7,1.7-3,3-3.9,4l-28.8-2.9l-3.2,3.2l22,9.7
		l-0.1,0.1l0,0l0,0l0,0l0,0l-0.1,0.1l-0.1,0.1l-0.1,0.1l0,0c-0.5,0.5-1.4,1.4-3.3,3.3c-2.8,2.8-5.6,6.8-7.6,10.1l-9.9-0.5l-1.5,1.5
		c0,0,8.8,4.8,8.9,5c0.2,0.2,4.9,9,4.9,9l1.5-1.5l-0.5-10c3.3-2,7.3-4.9,10-7.7l3.3-3.3l0.4-0.4l0.1-0.1l9.6,22.2l3.2-3.2l-2.8-29
		c0.9-0.9,2.2-2.2,3.9-4C92.4,297.9,97.3,290.2,95.8,288.6L95.8,288.6L95.8,288.6z"/>
</g>
</svg>
