<svg xmlns="http://www.w3.org/2000/svg" viewBox="0 0 321.61 80.69">
  <path fill="#305cb7"
    d="M9.86 62.48A42.8 42.8 0 0 1 2.55 49.4 43.79 43.79 0 0 1 .12 34.6C.12 19.94 6.94 7.1 17.13.05c10.21 7.06 17.03 19.89 17.03 34.56 0 .6-.02 1.21-.04 1.81-.3-12.74-6.1-23.83-14.67-30.01-8.8 6.34-14.7 17.86-14.7 31.04a39.9 39.9 0 0 0 2.09 13.23 39.63 39.63 0 0 0 6.33 11.81h-3.3Z" />
  <path fill="#305cb7"
    d="M46.97 69.15c0 3.58-1.29 6.41-3.88 8.46-2.57 2.06-6.15 3.08-10.73 3.08a25.2 25.2 0 0 1-11.21-2.38V70.5a44.83 44.83 0 0 0 6.79 2.52c1.84.49 3.53.73 5.06.73 1.84 0 3.26-.34 4.25-1.04a3.65 3.65 0 0 0 1.48-3.15c0-.78-.22-1.46-.67-2.06a7.05 7.05 0 0 0-1.92-1.75 46.83 46.83 0 0 0-5.1-2.69 24.64 24.64 0 0 1-5.46-3.27 12.36 12.36 0 0 1-2.9-3.67 10.45 10.45 0 0 1-1.08-4.88c0-3.5 1.19-6.25 3.56-8.25 2.38-2.01 5.66-3.02 9.85-3.02 2.05 0 4.01.25 5.88.75 1.88.49 3.83 1.17 5.88 2.04l-2.71 6.54a35.6 35.6 0 0 0-5.25-1.81 16.93 16.93 0 0 0-4.06-.52c-1.6 0-2.82.37-3.67 1.1a3.65 3.65 0 0 0-1.27 2.9c0 .74.17 1.39.52 1.94.34.56.89 1.09 1.63 1.6.75.52 2.53 1.44 5.33 2.77 3.69 1.77 6.23 3.54 7.6 5.31a10.35 10.35 0 0 1 2.06 6.54Zm29.99 11H54.15V40.57h22.81v6.88H62.54v8.69h13.42v6.88H62.54v10.21h14.42v6.94Zm30.83-39.58h8.48l-13.46 39.58h-9.15L80.22 40.57h8.48l7.44 23.56a96.45 96.45 0 0 1 2.12 8.7c.19-1.67.86-4.57 2.02-8.71l7.5-23.56Zm36.28 39.58h-22.81V40.57h22.81v6.88h-14.42v8.69h13.42v6.88h-13.42v10.21h14.42v6.94Zm43.37 0h-10.67l-17.23-29.96h-.23c.33 5.29.5 9.07.5 11.33v18.63h-7.5V40.57h10.58l17.21 29.65h.19c-.28-5.14-.42-8.78-.42-10.92V40.57h7.56v39.58Zm32.79-10.54c0 3.49-1.27 6.21-3.79 8.17-2.53 1.95-5.96 2.92-10.29 2.92-4.7 0-8.31-.6-10.83-1.81v-4.44a28.6 28.6 0 0 0 11 2.21c3.05 0 5.36-.57 6.92-1.73a5.76 5.76 0 0 0 2.33-4.88c0-1.38-.28-2.5-.83-3.38a7.5 7.5 0 0 0-2.75-2.42 40.9 40.9 0 0 0-5.9-2.52c-3.68-1.32-6.31-2.88-7.9-4.69-1.58-1.8-2.38-4.16-2.38-7.06a8.82 8.82 0 0 1 3.44-7.29c2.3-1.8 5.34-2.71 9.1-2.71s7.57.72 10.88 2.17l-1.44 4.02a24.51 24.51 0 0 0-9.54-2.06c-2.43 0-4.33.53-5.71 1.58a5.13 5.13 0 0 0-2.06 4.35c0 1.36.25 2.48.75 3.35a7.24 7.24 0 0 0 2.56 2.42 31.4 31.4 0 0 0 5.52 2.42c4.15 1.49 7.01 3.08 8.56 4.77 1.57 1.7 2.35 3.9 2.35 6.6Zm30.17 10.54h-22.08V40.57h22.08v4.08h-17.48V57.4h16.42v4.06h-16.42v14.56h17.48v4.13Zm30.84 0h-22.08V40.57h22.08v4.08h-17.48V57.4h16.42v4.06h-16.42v14.56h17.48v4.13Zm40.37-20.16c0 6.53-1.78 11.52-5.33 14.98-3.54 3.46-8.64 5.19-15.29 5.19h-10.98V40.58h12.15c6.15 0 10.93 1.71 14.33 5.13 3.42 3.41 5.13 8.17 5.13 14.29Zm-4.88.15c0-5.15-1.3-9.03-3.9-11.65-2.58-2.63-6.43-3.94-11.54-3.94h-6.69v31.63h5.6c5.48 0 9.61-1.34 12.38-4.04 2.76-2.71 4.15-6.71 4.15-12Z" />
</svg>
