<svg xmlns="http://www.w3.org/2000/svg" xml:space="preserve" viewBox="0 0 2475 1650"><linearGradient id="a" x1="-4975.3" x2="-2858.2" y1="809.5" y2="809.5" gradientTransform="matrix(-1 0 0 1 -2681.2 0)" gradientUnits="userSpaceOnUse"><stop offset="0" stop-color="#dae3fe"/><stop offset="1" stop-color="#e9effd"/></linearGradient><path fill="url(#a)" d="M1938.1 187c202.2 77.2-75.8 285.2 38 364.3s584.7 233.2 110.4 539.2c-474.3 305.9-487.4 508.6-826 314.9-338.6-193.7-314.2-228.5-592.9-97.6-278.6 131-569.9-72.8-470.8-314.6 99-241.7 162-238.7 49-393.1s97.7-643.6 486.9-313.4c389.2 330.2 598.9 145.6 641.6 22C1417 185.4 1628.1 68.5 1938.1 187z"/><linearGradient id="b" x1="2962.3" x2="2284.4" y1="1199.2" y2="2089.1" gradientTransform="rotate(-1 -20764 40605.4)" gradientUnits="userSpaceOnUse"><stop offset="0" stop-color="#fe7062"/><stop offset="1" stop-color="#ff928e"/></linearGradient><path fill="url(#b)" d="m2252.2 961.5 24.3 1.2a22.6 22.6 0 0 1 21.5 22.7l-1.8 500.9a23.7 23.7 0 0 1-24 23.6l-167.2-1.6 147.2-546.8z"/><path fill="#91b3fa" d="m1960 965.4 308.7-18.5a11 11 0 0 1 11.6 11.1l-12.2 518.6a22.9 22.9 0 0 1-23.5 22.4l-217.1-6.2-67.4-527.4z"/><path fill="#bdd0fb" d="m1976.7 977.7 271.2-37.8a11.5 11.5 0 0 1 13 11.5l-6.2 523.7a16 16 0 0 1-15.2 15.7l-199.7 8.2-63.1-521.3z"/><linearGradient id="c" x1="2294.6" x2="1900.2" y1="1185.6" y2="1260.2" gradientUnits="userSpaceOnUse"><stop offset="0" stop-color="#fe7062"/><stop offset="1" stop-color="#ff928e"/></linearGradient><path fill="url(#c)" d="m1905 948.7 297.5-22a25.8 25.8 0 0 1 27.7 25.4l7.1 536.2a22.5 22.5 0 0 1-22.3 22.8l-274.5 3.2a24.4 24.4 0 0 1-24.6-22.8l-38.5-511.1a29.9 29.9 0 0 1 27.6-31.7z"/><linearGradient id="d" x1="2273.9" x2="1866.6" y1="1068.4" y2="1145.5" gradientUnits="userSpaceOnUse"><stop offset="0" stop-color="#fe7062"/><stop offset="1" stop-color="#ff928e"/></linearGradient><path fill="url(#d)" d="m2246.3 1167.8-27.2.3a9.5 9.5 0 0 1-9.7-9.4l-1.9-164a9.5 9.5 0 0 1 9.4-9.7l27.3-.3a9.5 9.5 0 0 1 9.6 9.4l2 164a9.5 9.5 0 0 1-9.5 9.7z"/><linearGradient id="e" x1="2846.1" x2="1991.6" y1="1045.5" y2="2167.3" gradientTransform="rotate(-1 -20764 40605.4)" gradientUnits="userSpaceOnUse"><stop offset="0" stop-color="#4042e2"/><stop offset="1" stop-color="#4f52ff"/></linearGradient><path fill="url(#e)" d="m2070 818.5 30.6 1.6a28.5 28.5 0 0 1 27 28.5l-2.1 631.4a29.9 29.9 0 0 1-30.2 29.9l-211-2L2070 818.4z"/><path fill="#91b3fa" d="m1701.7 823.4 389-23.4c8-.4 14.8 6 14.6 14.1l-15.2 653.8a28.9 28.9 0 0 1-29.7 28.2l-273.7-7.8-85-664.9z"/><path fill="#bdd0fb" d="m1722.6 839 341.9-47.7a14.5 14.5 0 0 1 16.5 14.5l-7.8 660.1a20 20 0 0 1-19.3 19.9l-251.8 10.3-79.5-657.2z"/><linearGradient id="f" x1="2123.5" x2="1626.3" y1="1101" y2="1195.1" gradientUnits="userSpaceOnUse"><stop offset="0" stop-color="#4042e2"/><stop offset="1" stop-color="#4f52ff"/></linearGradient><path fill="url(#f)" d="m1632.2 802.3 375.1-27.7a32.5 32.5 0 0 1 34.9 32l9 676a28.4 28.4 0 0 1-28 28.8l-346.1 4a30.7 30.7 0 0 1-31-28.7l-48.6-644.4a37.6 37.6 0 0 1 34.7-40z"/><linearGradient id="g" x1="2097.7" x2="1580" y1="953.2" y2="1051.2" gradientUnits="userSpaceOnUse"><stop offset="0" stop-color="#4042e2"/><stop offset="1" stop-color="#4f52ff"/></linearGradient><path fill="url(#g)" d="m2065 1078.5-39.3.5a9.5 9.5 0 0 1-9.6-9.4l-2.5-211.8a9.5 9.5 0 0 1 9.4-9.6l39.3-.4a9.5 9.5 0 0 1 9.7 9.4l2.4 211.7a9.5 9.5 0 0 1-9.4 9.6z"/><linearGradient id="h" x1="-2034.2" x2="-2667.3" y1="5306.6" y2="6138.1" gradientTransform="translate(2854 -4866.8)" gradientUnits="userSpaceOnUse"><stop offset="0" stop-color="#09005d"/><stop offset="1" stop-color="#1a0f91"/></linearGradient><path fill="url(#h)" d="m338.8 414.8 399.4 2a41.4 41.4 0 0 1 41 39.5l26.6 579.2a30.5 30.5 0 0 1-30 32l-457.8 6a29 29 0 0 1-29.3-29.2l2.9-582.7a47 47 0 0 1 47.2-46.8z"/><linearGradient id="i" x1="301.9" x2="386.9" y1="1008.4" y2="1008.4" gradientUnits="userSpaceOnUse"><stop offset="0" stop-color="#dae3fe"/><stop offset="1" stop-color="#e9effd"/></linearGradient><path fill="url(#i)" d="m385 1064.8-51.3-1a32.5 32.5 0 0 1-31.8-32.4l.4-77.4a2 2 0 0 1 4 0l-.4 77.4a28.5 28.5 0 0 0 27.9 28.5l51.2 1a2 2 0 0 1 0 3.9z"/><linearGradient id="j" x1="302.4" x2="306.4" y1="923.8" y2="923.8" gradientUnits="userSpaceOnUse"><stop offset="0" stop-color="#dae3fe"/><stop offset="1" stop-color="#e9effd"/></linearGradient><path fill="url(#j)" d="M304.4 932a2 2 0 0 1-2-2l.1-12.4a2 2 0 0 1 2-2c1 0 2 1 2 2l-.1 12.5c0 1-1 2-2 2z"/><linearGradient id="k" x1="387.1" x2="-435.5" y1="693.4" y2="447.6" gradientUnits="userSpaceOnUse"><stop offset="0" stop-color="#4042e2"/><stop offset="1" stop-color="#4f52ff"/></linearGradient><path fill="url(#k)" d="M340 410.2c54.6 7.6 242 31.5 397 20.3a12.6 12.6 0 0 1 13.6 12l28 581.8a14.5 14.5 0 0 1-13.7 15.2c-65.3 3.5-334 17-429.7 6.5a11.5 11.5 0 0 1-10.2-11.4l-.5-611a13.6 13.6 0 0 1 15.5-13.4z"/><path fill="#91b3fa" d="M345.8 425.3c52.5 7.4 232.8 30.3 382.1 19.6 6.8-.5 12.7 4.7 13 11.5l27 559.8a14 14 0 0 1-13.3 14.7c-62.7 3.4-321.3 16.4-413.4 6.3a11 11 0 0 1-9.9-11l-.4-588a13.1 13.1 0 0 1 15-13z"/><linearGradient id="l" x1="560" x2="712.4" y1="488.1" y2="488.1" gradientUnits="userSpaceOnUse"><stop offset="0" stop-color="#dae3fe"/><stop offset="1" stop-color="#e9effd"/></linearGradient><path fill="url(#l)" d="M708.5 493.8a3.9 3.9 0 0 0 3.9-4 4.3 4.3 0 0 0-4.1-4.1l-145.4-3.4c-2.2 0-3.4 1.6-2.7 3.7l1.1 3.3a6 6 0 0 0 5.3 3.8l141.9.7z"/><linearGradient id="m" x1="559.9" x2="712.3" y1="510.4" y2="510.4" gradientUnits="userSpaceOnUse"><stop offset="0" stop-color="#dae3fe"/><stop offset="1" stop-color="#e9effd"/></linearGradient><path fill="url(#m)" d="M562.8 504.7c-2.2 0-3.4 1.6-2.7 3.7l1.1 3.3a6 6 0 0 0 5.3 3.8l141.9.7a3.9 3.9 0 0 0 3.9-4 4.3 4.3 0 0 0-4.1-4.2l-145.4-3.3z"/><linearGradient id="n" x1="559.8" x2="712.1" y1="533.1" y2="533.1" gradientUnits="userSpaceOnUse"><stop offset="0" stop-color="#dae3fe"/><stop offset="1" stop-color="#e9effd"/></linearGradient><path fill="url(#n)" d="M562.7 527.4c-2.2 0-3.4 1.6-2.7 3.7l1.1 3.2a6 6 0 0 0 5.3 3.9l141.8.7a3.9 3.9 0 0 0 4-4 4.3 4.3 0 0 0-4.2-4.2l-145.3-3.3z"/><linearGradient id="o" x1="380.5" x2="725.8" y1="579.5" y2="579.5" gradientUnits="userSpaceOnUse"><stop offset="0" stop-color="#dae3fe"/><stop offset="1" stop-color="#e9effd"/></linearGradient><path fill="url(#o)" d="M722 585.8a3.7 3.7 0 0 0 3.8-4 4.4 4.4 0 0 0-4.3-4l-338.8-4.5c-2.2 0-2.9 1.4-1.5 3.1l3.6 4.6a9.4 9.4 0 0 0 6.4 3.1l330.8 1.7z"/><linearGradient id="p" x1="380.4" x2="725.6" y1="601.9" y2="601.9" gradientUnits="userSpaceOnUse"><stop offset="0" stop-color="#dae3fe"/><stop offset="1" stop-color="#e9effd"/></linearGradient><path fill="url(#p)" d="M382.6 595.7c-2.2 0-2.9 1.4-1.5 3l3.6 4.6a9.4 9.4 0 0 0 6.4 3.2l330.8 1.7a3.7 3.7 0 0 0 3.7-4 4.4 4.4 0 0 0-4.2-4.1l-338.8-4.4z"/><path fill="#fff" d="M441.2 707.5h-.1l-45 .8c-6.4.1-11.9-4.2-12.7-10l-5-37.6a8.3 8.3 0 0 1 1.9-6.3 10 10 0 0 1 6.8-3.6l14.7-1.6c12.5-1.4 26.7-3 35-3.3h.2c6-.2 11.1 3.3 12.7 8.5 2.6 8.6 2.8 25 2.9 42.5 0 5.7-5.1 10.4-11.4 10.6zm-53.7-53a6.3 6.3 0 0 0-4.4 2.2 4.7 4.7 0 0 0-1 3.5l5 37.6c.5 4 4.4 7 9 6.9l45-.8c4.3-.2 7.8-3.3 7.8-7 0-17.2-.3-33.3-2.7-41.4-1.1-3.6-5-6.2-9.3-6-8.2.4-22.9 2-34.7 3.3-5.7.7-11 1.3-14.7 1.6z"/><linearGradient id="q" x1="386.8" x2="443.1" y1="677.6" y2="677.6" gradientUnits="userSpaceOnUse"><stop offset="0" stop-color="#dae3fe"/><stop offset="1" stop-color="#e9effd"/></linearGradient><path fill="url(#q)" d="M392.4 658.1c9.4-1 29.9-3.6 39.6-4 4.1-.1 7.8 2.3 8.9 5.8 2 7 2.2 20.8 2.2 33.5 0 3.9-3.4 7-7.7 7.1l-36 .6c-4.4.1-8.1-2.8-8.6-6.7l-4-30c-.4-3.1 2-6 5.6-6.3z"/><linearGradient id="r" x1="476.9" x2="715.9" y1="678" y2="678" gradientUnits="userSpaceOnUse"><stop offset="0" stop-color="#dae3fe"/><stop offset="1" stop-color="#e9effd"/></linearGradient><path fill="url(#r)" d="M479.9 667.3c-2.2 0-3.5 1.8-2.9 3.9l4.3 14.6a5.5 5.5 0 0 0 5.1 3.7l225.6-6.1a3.9 3.9 0 0 0 3.8-4.1l-.4-8.8c0-2.2-2-4-4.2-4l-231.3.8z"/><linearGradient id="s" x1="-2466.6" x2="-2696.1" y1="5394.3" y2="5786" gradientTransform="rotate(-2 -181703.8 -107092.5)" gradientUnits="userSpaceOnUse"><stop offset="0" stop-color="#fe7062"/><stop offset="1" stop-color="#ff928e"/></linearGradient><path fill="url(#s)" d="M394.5 664a6.9 6.9 0 0 1 9.5 2.3l9.3 15.6a2.2 2.2 0 0 0 4-.3l20.6-49.5c1-2.5 4.7-1.7 4.7 1 .2 15-3 43.5-26.2 68 0 0-13.3-4.8-24.6-27.8a7.2 7.2 0 0 1 2.7-9.3z"/><path fill="#fff" d="M443.9 803.8h-.2l-45 .8c-6.4.1-11.9-4.2-12.6-10l-5-37.6a8.3 8.3 0 0 1 1.8-6.3 10 10 0 0 1 6.9-3.6l14.7-1.6c12.5-1.4 26.6-3 35-3.3 6-.2 11.3 3.3 12.8 8.5 2.6 8.6 2.9 25 2.9 42.5 0 5.7-5 10.4-11.3 10.6zm-53.8-53a6.3 6.3 0 0 0-4.3 2.2 4.7 4.7 0 0 0-1 3.5l5 37.6c.4 4 4.3 7 9 6.8l44.9-.7c4.4-.2 7.8-3.3 7.8-7 0-17.2-.2-33.3-2.7-41.4-1-3.6-5-6.2-9.2-6-8.2.4-23 2-34.7 3.3-5.8.7-11 1.3-14.8 1.6z"/><linearGradient id="t" x1="389.4" x2="445.7" y1="774" y2="774" gradientUnits="userSpaceOnUse"><stop offset="0" stop-color="#dae3fe"/><stop offset="1" stop-color="#e9effd"/></linearGradient><path fill="url(#t)" d="M395 754.4c9.4-1 29.9-3.6 39.6-4 4.1-.1 7.8 2.3 8.9 5.8 2 7 2.2 20.8 2.2 33.5 0 3.9-3.4 7-7.7 7.1l-36 .6c-4.3.1-8-2.8-8.6-6.7l-4-30c-.4-3.1 2.1-6 5.6-6.3z"/><linearGradient id="u" x1="479.5" x2="718.5" y1="774.3" y2="774.3" gradientUnits="userSpaceOnUse"><stop offset="0" stop-color="#dae3fe"/><stop offset="1" stop-color="#e9effd"/></linearGradient><path fill="url(#u)" d="M482.5 763.6c-2.2 0-3.5 1.8-2.8 3.9l4.2 14.6a5.5 5.5 0 0 0 5.2 3.7l225.6-6.1a3.9 3.9 0 0 0 3.8-4.1l-.4-8.8c-.1-2.2-2-4-4.2-4l-231.4.8z"/><linearGradient id="v" x1="-2424.6" x2="-2654.1" y1="5418.9" y2="5810.6" gradientTransform="rotate(-2 -181703.8 -107092.5)" gradientUnits="userSpaceOnUse"><stop offset="0" stop-color="#fe7062"/><stop offset="1" stop-color="#ff928e"/></linearGradient><path fill="url(#v)" d="M397.1 760.3a6.9 6.9 0 0 1 9.6 2.3l9.3 15.6a2.2 2.2 0 0 0 4-.3l20.6-49.5c1-2.5 4.7-1.7 4.7 1 .2 15-3 43.5-26.3 68 0 0-13.3-4.8-24.6-27.8a7.2 7.2 0 0 1 2.7-9.3z"/><path fill="#fff" d="M442.2 896.4h-.1l-45 .8c-6.5.1-12-4.2-12.7-10l-5-37.6a8.3 8.3 0 0 1 1.8-6.3 10 10 0 0 1 6.9-3.6l14.7-1.6a615 615 0 0 1 35-3.4c5.8-.2 11.3 3.3 12.9 8.6 2.5 8.6 2.8 25 2.8 42.4 0 5.8-5 10.5-11.3 10.7zm-53.8-53a6.3 6.3 0 0 0-4.3 2.2 4.7 4.7 0 0 0-1 3.5l5 37.6c.5 4 4.3 7 9 6.8l44.9-.8c4.2-.2 7.9-3.2 7.8-7 0-17.1-.2-33.2-2.7-41.4-1-3.6-5-6-9.2-5.9-8.2.3-23 2-34.7 3.3-5.8.7-11 1.3-14.8 1.6z"/><linearGradient id="w" x1="387.7" x2="444" y1="866.5" y2="866.5" gradientUnits="userSpaceOnUse"><stop offset="0" stop-color="#dae3fe"/><stop offset="1" stop-color="#e9effd"/></linearGradient><path fill="url(#w)" d="M393.3 847c9.5-1 30-3.6 39.6-4 4.2-.1 7.9 2.3 9 5.8 2 7 2.1 20.8 2.1 33.5 0 3.9-3.4 7-7.7 7l-35.9.7c-4.4.1-8.2-2.8-8.7-6.7l-4-30c-.4-3.2 2.1-6 5.6-6.3z"/><linearGradient id="x" x1="477.8" x2="716.8" y1="866.9" y2="866.9" gradientUnits="userSpaceOnUse"><stop offset="0" stop-color="#dae3fe"/><stop offset="1" stop-color="#e9effd"/></linearGradient><path fill="url(#x)" d="M480.9 856.2c-2.2 0-3.5 1.8-3 3.9l4.4 14.6a5.5 5.5 0 0 0 5 3.7l225.7-6.2a3.9 3.9 0 0 0 3.8-4l-.4-8.8c-.1-2.2-2-4-4.2-4l-231.3.8z"/><linearGradient id="y" x1="-2393.5" x2="-2695.5" y1="5511.7" y2="5932.7" gradientTransform="rotate(-2 -181703.8 -107092.5)" gradientUnits="userSpaceOnUse"><stop offset="0" stop-color="#fe7062"/><stop offset="1" stop-color="#ff928e"/></linearGradient><path fill="url(#y)" d="M395.4 852.8a6.9 6.9 0 0 1 9.6 2.4l9.3 15.6a2.2 2.2 0 0 0 4-.3l20.6-49.5c1-2.5 4.7-1.8 4.7 1 .2 14.9-3 43.5-26.3 68 0 0-13.3-4.8-24.5-27.9a7.2 7.2 0 0 1 2.6-9.3z"/><path fill="#fff" d="M439.7 991.9h-.1l-45 .8c-6.5.1-12-4.2-12.7-10l-5-37.6a8.3 8.3 0 0 1 1.8-6.3 10 10 0 0 1 6.9-3.6l14.7-1.6c12.5-1.4 26.6-3 35-3.4 6 0 11.3 3.3 12.9 8.6 2.5 8.6 2.8 25 2.8 42.4 0 5.8-5 10.5-11.3 10.7zm-53.8-53a6.3 6.3 0 0 0-4.3 2.2 4.7 4.7 0 0 0-1 3.5l5 37.6c.5 4 4.3 7 9 6.8l44.9-.8c4.4 0 7.9-3.2 7.8-7 0-17.1-.2-33.3-2.7-41.4-1-3.6-5-6-9.2-5.9-8.2.3-22.9 2-34.7 3.3l-14.8 1.6z"/><linearGradient id="z" x1="385.2" x2="441.5" y1="962" y2="962" gradientUnits="userSpaceOnUse"><stop offset="0" stop-color="#dae3fe"/><stop offset="1" stop-color="#e9effd"/></linearGradient><path fill="url(#z)" d="M390.8 942.5c9.5-1 30-3.6 39.6-4 4.2-.1 7.9 2.3 9 5.8 2 7 2.1 20.7 2.1 33.5 0 3.9-3.4 7-7.7 7l-35.9.7c-4.4.1-8.1-2.8-8.7-6.7l-4-30c-.4-3.2 2.2-6 5.7-6.3z"/><linearGradient id="A" x1="475.3" x2="714.3" y1="962.4" y2="962.4" gradientUnits="userSpaceOnUse"><stop offset="0" stop-color="#dae3fe"/><stop offset="1" stop-color="#e9effd"/></linearGradient><path fill="url(#A)" d="M478.4 951.7c-2.2 0-3.5 1.7-3 3.9l4.4 14.6a5.5 5.5 0 0 0 5 3.7l225.7-6.2a3.9 3.9 0 0 0 3.8-4l-.4-8.8c-.1-2.2-2-4-4.2-4l-231.3.8z"/><linearGradient id="B" x1="-2349.8" x2="-2579.4" y1="5463.4" y2="5855.1" gradientTransform="rotate(-2 -181703.8 -107092.5)" gradientUnits="userSpaceOnUse"><stop offset="0" stop-color="#fe7062"/><stop offset="1" stop-color="#ff928e"/></linearGradient><path fill="url(#B)" d="M393 948.3a6.9 6.9 0 0 1 9.5 2.4l9.3 15.6a2.2 2.2 0 0 0 4-.3l20.6-49.5c1-2.5 4.7-1.8 4.7 1 .2 14.9-3 43.5-26.3 68 0 0-13.3-4.8-24.5-27.9a7.2 7.2 0 0 1 2.6-9.3z"/><linearGradient id="C" x1="-607" x2="-789.2" y1="4381.1" y2="4620.9" gradientTransform="rotate(20 11334.4 5789.5)" gradientUnits="userSpaceOnUse"><stop offset="0" stop-color="#09005d"/><stop offset="1" stop-color="#1a0f91"/></linearGradient><path fill="url(#C)" d="M563.6 337a40.6 40.6 0 0 0-35.7-7.4 17.6 17.6 0 0 0-12.6 18.5l3.6 41.6 45.3 4.2s27.6-37-.6-56.9zm-20 33.5a11.3 11.3 0 1 1 0-22.6 11.3 11.3 0 0 1 0 22.6z"/><linearGradient id="D" x1="519.6" x2="551.5" y1="353.2" y2="353.2" gradientUnits="userSpaceOnUse"><stop offset="0" stop-color="#dae3fe"/><stop offset="1" stop-color="#e9effd"/></linearGradient><path fill="url(#D)" d="M522.7 373.2a2.2 2.2 0 0 1-1.4-1.9l-.6-6.6a2.2 2.2 0 1 1 4.5-.4l.5 6.6a2.2 2.2 0 0 1-3 2.3zm-1.1-13a2.2 2.2 0 0 1-1.5-1.9l-.4-5a18 18 0 0 1 12.8-18.8 35 35 0 0 1 17.2-.6 2.3 2.3 0 0 1-1 4.4 30.6 30.6 0 0 0-15 .5 13.5 13.5 0 0 0-9.5 14.1l.4 5a2.2 2.2 0 0 1-3 2.3z"/><linearGradient id="E" x1="-2199.1" x2="-2382.8" y1="5171.1" y2="5412.7" gradientTransform="translate(2854 -4866.8)" gradientUnits="userSpaceOnUse"><stop offset="0" stop-color="#09005d"/><stop offset="1" stop-color="#1a0f91"/></linearGradient><path fill="url(#E)" d="m456.9 416.2.1-20.9a12.8 12.8 0 0 1 13.3-12.7l144 5.7a12.4 12.4 0 0 1 12 11.7l1 20-170.4-3.8z"/><linearGradient id="F" x1="502.6" x2="512.7" y1="389.6" y2="389.6" gradientUnits="userSpaceOnUse"><stop offset="0" stop-color="#dae3fe"/><stop offset="1" stop-color="#e9effd"/></linearGradient><path fill="url(#F)" d="M510.8 391.6h-6.3a2 2 0 0 1 0-4h6.3a2 2 0 0 1 0 4z"/><linearGradient id="G" x1="462.5" x2="500.6" y1="399" y2="399" gradientUnits="userSpaceOnUse"><stop offset="0" stop-color="#dae3fe"/><stop offset="1" stop-color="#e9effd"/></linearGradient><path fill="url(#G)" d="M464 410.7a2.3 2.3 0 0 1-1.5-2.1V400a12.9 12.9 0 0 1 3.9-9.2 13 13 0 0 1 9.2-3.7l22.8.1a2.3 2.3 0 0 1 0 4.5l-22.8-.1a8.5 8.5 0 0 0-8.6 8.5v8.4a2.3 2.3 0 0 1-3 2.1z"/><linearGradient id="H" x1="-2222.3" x2="-2349.1" y1="5185.9" y2="5418.8" gradientTransform="translate(2854 -4866.8)" gradientUnits="userSpaceOnUse"><stop offset="0" stop-color="#4042e2"/><stop offset="1" stop-color="#4f52ff"/></linearGradient><path fill="url(#H)" d="m411.8 408.3 252 1.3c9 0 16.7 6.6 18.2 15.5l.2 1.3a16 16 0 0 1-15.8 18.6l-258.5-1.3a10.4 10.4 0 0 1-10.3-11l.6-11.5a13.6 13.6 0 0 1 13.6-12.9z"/><linearGradient id="I" x1="1691.3" x2="609.2" y1="510" y2="1663.5" gradientUnits="userSpaceOnUse"><stop offset="0" stop-color="#fe7062"/><stop offset="1" stop-color="#ff928e"/></linearGradient><path fill="url(#I)" d="M1772.2 1519.4H900.3a52.7 52.7 0 0 1-52.1-52.3L826.5 335a52.8 52.8 0 0 1 51-54.3l893.6-20a52.7 52.7 0 0 1 53.3 53.4V1466a52.7 52.7 0 0 1-52.2 53.4z"/><linearGradient id="J" x1="1607.5" x2="1295" y1="100.6" y2="1057.3" gradientUnits="userSpaceOnUse"><stop offset="0" stop-color="#ff928e"/><stop offset="1" stop-color="#feb3b1"/></linearGradient><path fill="url(#J)" d="M1745 1463.9H920.6a19.8 19.8 0 0 1-19.8-19.8V439a19.8 19.8 0 0 1 19.8-19.7h824.6a19.8 19.8 0 0 1 19.8 19.8V1444a19.8 19.8 0 0 1-19.8 19.8z"/><path fill="#fff" d="M1253.5 465h477.7v37.6h-477.7zm0 53.5h477.7v21.8h-477.7zm0 37.6h477.7V578h-477.7zm0 37.7h477.7v21.8h-477.7zM962.2 936.7h273.5v37.6H962.2zm0 53.5h273.5v21.8H962.2zm0 37.6h273.5v21.8H962.2zm0 37.7h273.5v21.8H962.2z" opacity=".6"/><linearGradient id="K" x1="1508.4" x2="1154.2" y1="516.3" y2="937.3" gradientUnits="userSpaceOnUse"><stop offset="0" stop-color="#e1473d"/><stop offset="1" stop-color="#e9605a"/></linearGradient><path fill="url(#K)" d="M1253.5 747.8h24.7v113.6h-24.7z"/><linearGradient id="L" x1="1540.2" x2="1187.4" y1="547" y2="966.3" gradientUnits="userSpaceOnUse"><stop offset="0" stop-color="#e1473d"/><stop offset="1" stop-color="#e9605a"/></linearGradient><path fill="url(#L)" d="M1294.7 786.8h24.7v74.6h-24.7z"/><linearGradient id="M" x1="1541.4" x2="1186.1" y1="546.3" y2="968.5" gradientUnits="userSpaceOnUse"><stop offset="0" stop-color="#e1473d"/><stop offset="1" stop-color="#e9605a"/></linearGradient><path fill="url(#M)" d="M1335.9 690.4h24.6v171H1336z"/><linearGradient id="N" x1="1593.3" x2="1243.2" y1="598.5" y2="1014.6" gradientUnits="userSpaceOnUse"><stop offset="0" stop-color="#e1473d"/><stop offset="1" stop-color="#e9605a"/></linearGradient><path fill="url(#N)" d="M1377 820.3h24.7v41h-24.6z"/><linearGradient id="O" x1="1593.1" x2="1238.2" y1="594.2" y2="1016" gradientUnits="userSpaceOnUse"><stop offset="0" stop-color="#e1473d"/><stop offset="1" stop-color="#e9605a"/></linearGradient><path fill="url(#O)" d="M1418.3 713.3h24.6v148h-24.6z"/><linearGradient id="P" x1="1622.3" x2="1267.9" y1="621.2" y2="1042.5" gradientUnits="userSpaceOnUse"><stop offset="0" stop-color="#e1473d"/><stop offset="1" stop-color="#e9605a"/></linearGradient><path fill="url(#P)" d="M1459.5 738.9h24.6v122.5h-24.6z"/><linearGradient id="Q" x1="1652" x2="1298.4" y1="648.8" y2="1069.1" gradientUnits="userSpaceOnUse"><stop offset="0" stop-color="#e1473d"/><stop offset="1" stop-color="#e9605a"/></linearGradient><path fill="url(#Q)" d="M1500.6 766.8h24.7v94.6h-24.7z"/><linearGradient id="R" x1="1648.7" x2="1293.1" y1="646.2" y2="1068.9" gradientUnits="userSpaceOnUse"><stop offset="0" stop-color="#e1473d"/><stop offset="1" stop-color="#e9605a"/></linearGradient><path fill="url(#R)" d="M1541.8 655.8h24.7v205.6h-24.7z"/><linearGradient id="S" x1="1677.1" x2="1321.7" y1="672.3" y2="1094.7" gradientUnits="userSpaceOnUse"><stop offset="0" stop-color="#e1473d"/><stop offset="1" stop-color="#e9605a"/></linearGradient><path fill="url(#S)" d="M1583 677.6h24.6v183.8H1583z"/><linearGradient id="T" x1="1708.2" x2="1353.2" y1="700.7" y2="1122.6" gradientUnits="userSpaceOnUse"><stop offset="0" stop-color="#e1473d"/><stop offset="1" stop-color="#e9605a"/></linearGradient><path fill="url(#T)" d="M1624.2 710.5h24.6v150.9h-24.6z"/><linearGradient id="U" x1="1757.9" x2="1408.3" y1="747.4" y2="1163" gradientUnits="userSpaceOnUse"><stop offset="0" stop-color="#e1473d"/><stop offset="1" stop-color="#e9605a"/></linearGradient><path fill="url(#U)" d="M1665.4 824.1h24.6v37.3h-24.6z"/><linearGradient id="V" x1="1764.5" x2="1410.4" y1="752.3" y2="1173.2" gradientUnits="userSpaceOnUse"><stop offset="0" stop-color="#e1473d"/><stop offset="1" stop-color="#e9605a"/></linearGradient><path fill="url(#V)" d="M1706.5 751.7h24.7v109.6h-24.6z"/><path fill="#fff" d="M962.2 1394.5h769v21.8h-769z" opacity=".6"/><linearGradient id="W" x1="1128" x2="1258.1" y1="556" y2="156.9" gradientUnits="userSpaceOnUse"><stop offset="0" stop-color="#fe7062"/><stop offset="1" stop-color="#ff928e"/></linearGradient><path fill="url(#W)" d="M1204.3 861.4H981.7a19.6 19.6 0 0 1-19.5-19.6V484.5a19.5 19.5 0 0 1 19.5-19.5h222.6c10.8 0 19.5 8.7 19.5 19.5v357.3c0 10.8-8.7 19.6-19.5 19.6z"/><path fill="#fff" d="M1218.7 1360.8H981.2a17 17 0 0 1-17-17v-199.9a17 17 0 0 1 17-17h237.5a17 17 0 0 1 17 17v200a17 17 0 0 1-17 17z" opacity=".6"/><linearGradient id="X" x1="1426" x2="2119.7" y1="1204.7" y2="570.5" gradientUnits="userSpaceOnUse"><stop offset="0" stop-color="#e1473d"/><stop offset="1" stop-color="#e9605a"/></linearGradient><path fill="url(#X)" d="M1507.1 1147.6a11.3 11.3 0 0 1-11.1-13.3l34-188.4a11.3 11.3 0 0 1 13.2-9 205 205 0 0 1 164.6 170.2 11.3 11.3 0 0 1-9.6 12.9l-189.5 27.4-1.6.2z"/><linearGradient id="Y" x1="1497.4" x2="1688.4" y1="1098" y2="663.9" gradientUnits="userSpaceOnUse"><stop offset="0" stop-color="#fe7062"/><stop offset="1" stop-color="#ff928e"/></linearGradient><path fill="url(#Y)" d="M1457.2 1356.8a167.6 167.6 0 0 1-167.4-167.4c0-92.3 75-167.4 167.4-167.4a169 169 0 0 1 31 3 11.3 11.3 0 0 1 9 13l-24.5 136.4 137.2-19.9a11.3 11.3 0 0 1 12.8 9.5 169.3 169.3 0 0 1 2 25.4c0 92.3-75.2 167.4-167.5 167.4z"/><path fill="#bdd0fb" d="M626.1 1515.1s78.3-98.4 65.6-191.4c-12.7-93-76.3-81.9-104.5-26.9-28.3 55-53.7 47.5-37-4.3 16.9-51.7 38-85.3 3.1-136.8-34.8-51.5-38.4-73.3-18.8-119.3 19.5-45.9 44-111-33.7-134.2-77.9-23.2-155.4 48.1-137.2 141.5 18.1 93.4 29 103.5 4 138.1-25 34.6-14.6 48.8-11 71.3 3.5 22.5-34.7 27.8-33.8-3.9.8-31.7 49.3-106.5 16.2-141.5-33.2-34.9-98.1-35.2-114.8 45.5-16.6 80.7 36.7 117 34 146.2-2.6 29.2-31.3-15-56.2 14.7-25 29.8 8.6 53.1 33.4 69.3 24.7 16 62 45 26.5 66s-69 .9-47.3 65.7H626z"/><path fill="#dce5fe" d="M465.2 969.5a40.8 40.8 0 0 0-7 5 54.2 54.2 0 0 0-6 6 67.9 67.9 0 0 0-9.6 14.2 89.5 89.5 0 0 0-9 33.2l-.2 4.3-.1 4.3v4.3l.2 4.3.1 2.1.2 2.2.5 4.2c.4 2.9.7 5.7 1.2 8.5.6 2.8 1 5.6 1.7 8.4l1 4.2 1 4 4 16a1141 1141 0 0 1 14.4 64.4 309 309 0 0 1 6 64.8c-.1 5.3-.5 10.7-1.2 16a119 119 0 0 1-3 15.6 100.5 100.5 0 0 1-5 14.8 112.7 112.7 0 0 0-5.5 16.6 265.7 265.7 0 0 0-5.5 33.5 841.6 841.6 0 0 0-2.8 33.2c-1.5 22.1-2.8 44.2-6 66a204 204 0 0 1-1.4 8c-.4 2.7-1 5.4-1.6 8-.5 2.8-1.2 5.4-1.8 8l-1.1 4-1.2 4-1.3 3.8-1.5 3.8c-1 2.6-2.2 5-3.4 7.5a68 68 0 0 1-9.1 13.5l.9.9c4-3.9 7.4-8.4 10.4-13.2a102 102 0 0 0 7.4-15.1 191 191 0 0 0 9.2-32.3c4.5-22 6.6-44.1 9-66.1 1.3-11 2.4-22 3.9-32.9 1.5-10.8 3.3-21.6 6.1-31.9a108.4 108.4 0 0 1 5.3-14.8 111.6 111.6 0 0 0 6-16.4 130.1 130.1 0 0 0 3.5-17 165 165 0 0 0 1.5-17c1-23-1.8-45.4-5.7-67.5a713.9 713.9 0 0 0-19.5-81.2l-1.2-4-1-3.9c-.8-2.5-1.4-5.2-2-7.8-.7-2.6-1-5.2-1.6-7.9l-.6-4c-.3-1.2-.4-2.6-.6-3.9a124 124 0 0 1-1-16 91.2 91.2 0 0 1 5.5-31.3 75.2 75.2 0 0 1 7.3-14.2c3-4.5 6.6-8.7 10.8-12l-.6-1.2z"/><path fill="#fff" d="M631.9 1302.8a523.8 523.8 0 0 1-16.5 77l-2 6.3-2 6.2c-1.3 4.2-2.8 8.3-4.2 12.4-1.6 4-3.1 8.2-4.8 12.2-1.6 4-3.4 8-5.2 12a315.8 315.8 0 0 1-11.9 23.2 254.8 254.8 0 0 1-14.1 22 240.4 240.4 0 0 1-16.8 20.1l.9 1a152 152 0 0 0 19-18.6 201.4 201.4 0 0 0 28.7-45c1.8-4 3.7-8.1 5.4-12.2 1.7-4.1 3.2-8.3 4.8-12.5l4.2-12.6a156.2 156.2 0 0 0 2-6.4l1.7-6.4a336.8 336.8 0 0 0 6-26 321 321 0 0 0 6-52.6H632z" opacity=".6"/><path fill="#91b3fa" d="M1258.3 1521.3s115.6-144.8 123.4-279c7.8-134.4-21-45-39.1 18.9-18.1 63.8-41 106.4-57.5 118-16.5 11.7 40.7-84.1 57.7-185.2s15.5-164.2-11.1-106.6c-26.6 57.6-44.3 161.3-73.4 218.7-29 57.4-8.6-10.5-5.8-46.6 2.8-36.2 6.7-105.3-22.2-105.6-29-.4-21 92.9-52.7 167-31.6 74-167.8 200.5-167.8 200.5h248.5z"/><path fill="#fff" d="M1370.6 1208.5a1025.1 1025.1 0 0 1-10.3 40.6l-2.8 10-2.8 10-6 20a1305.9 1305.9 0 0 1-26.7 78.5 1047 1047 0 0 1-32 75.8l-8.9 18.5a82 82 0 0 1-2.3 4.5l-2.4 4.5-4.7 9.1-4.7 9-5 9a1591.6 1591.6 0 0 0-10 17.6c-.2.4-.1.8.2 1 .2.3.6.2.8-.1l11-17 5.6-8.5 5-8.9 5.1-8.9 2.5-4.4a81.2 81.2 0 0 0 2.5-4.5l9.4-18.3c3.1-6 5.9-12.4 8.8-18.6l4.3-9.4 2.1-4.7 2-4.8 8-19.2 7.4-19.4a1034 1034 0 0 0 26-79.3l5.4-20.2c1.7-6.8 3.5-13.6 5-20.4l2.4-10.2 2.3-10.3a527.6 527.6 0 0 0 4-20.6c.1-.4-.1-.8-.4-.9-.4 0-.7.2-.8.5zm-35.4-87.5a11765 11765 0 0 1-30.5 100.3 5092.9 5092.9 0 0 1-31.8 99.7 3250.4 3250.4 0 0 1-16.8 49.4l-4.3 12.3a806 806 0 0 1-4.5 12.2l-4.4 12.2-4.5 12.2c-3 8.1-6 16.3-9.2 24.3a556.7 556.7 0 0 1-4.8 12c-1.6 4-3.1 8.1-4.8 12a712.9 712.9 0 0 1-21.2 47.2c-.2.3-.1.8.2 1 .3.2.7 0 .8-.2a381.6 381.6 0 0 0 25.2-45 571 571 0 0 0 11-23.5 771 771 0 0 0 10.2-24 1427 1427 0 0 0 35.3-98.6 2379.7 2379.7 0 0 0 30-100.8c9.1-33.9 17.9-68 25.4-102.3 0-.4-.1-.8-.5-1-.3 0-.6.2-.8.6zm-103 87.6c-3 13.7-4.2 27.7-5.7 41.3l-2.3 20.4-1.4 10-.8 5-1 5c-.9 6.7-2.5 13.3-3.9 19.9l-.6 2.5-.6 2.4-1.3 4.9-2.6 9.8-6.1 19.3-6.8 19a1083 1083 0 0 1-32 74.1c-2.8 6.2-6 12.1-8.9 18.2l-8.8 18.1-18.2 36v.1c-.2.4 0 .8.3 1 .2.2.6 0 .8-.2a2078.2 2078.2 0 0 0 21-34.1c6.5-11.7 13.3-23.2 19.6-35.1l9.4-18 2.3-4.5 2.2-4.6 4.4-9.1c6-12.2 11.3-24.8 16.6-37.4a395 395 0 0 0 23.6-80l.8-5.2.8-5.2 1-10.6c.4-3.5.5-7 .7-10.5l.3-10.5c0-14-.7-27.9-1.5-41.8 0-.4-.4-.7-.7-.7-.3 0-.5.2-.6.6z" opacity=".6"/><linearGradient id="Z" x1="511" x2="1145.5" y1="1150.5" y2="1150.5" gradientUnits="userSpaceOnUse"><stop offset="0" stop-color="#09005d"/><stop offset="1" stop-color="#1a0f91"/></linearGradient><path fill="url(#Z)" d="M521.4 814.3c-3.3 119.3-14.2 530.8-9 676.6.6 15.5 14.5 27.9 32 28.4 86.3 2.5 402.7 8.8 543.9 3.6 29.4-1.1 52.8-22.2 53.4-48.2 2.9-125.3 9.4-477.5-6-638.8-1.9-19.3-19-34.7-40.8-36.7-94-8.3-411.7-28.6-533.7-21.6-22 1.2-39.2 17.2-39.8 36.7z"/><linearGradient id="aa" x1="781.3" x2="840.4" y1="1089.7" y2="844.5" gradientUnits="userSpaceOnUse"><stop offset="0" stop-color="#4042e2"/><stop offset="1" stop-color="#4f52ff"/></linearGradient><path fill="url(#aa)" d="M546.2 866.9V968a35.1 35.1 0 0 0 35.1 35.1h483a35.1 35.1 0 0 0 35.2-35.1V866.9a35.1 35.1 0 0 0-35.1-35.1H581.3a35.1 35.1 0 0 0-35.1 35z"/><path fill="#fff" d="M1074.8 866.3a23.1 23.1 0 0 0-16.2-7l-452-7.2a23.1 23.1 0 0 0-23.4 21l-9.4 100.2c-.8 8.2 12.7 15.2 30 15.4L1048 994c17.2.2 31.4-6.4 31.6-14.6l1.6-96.7a23.1 23.1 0 0 0-6.5-16.5z" opacity=".2"/><linearGradient id="ab" x1="563.1" x2="667" y1="1105.6" y2="1105.6" gradientUnits="userSpaceOnUse"><stop offset="0" stop-color="#4042e2"/><stop offset="1" stop-color="#4f52ff"/></linearGradient><path fill="url(#ab)" d="M667 1105.6a32.3 32.3 0 0 1-32.3 32.3h-39.3a32.3 32.3 0 0 1 0-64.6h39.3a32.3 32.3 0 0 1 32.3 32.3z"/><linearGradient id="ac" x1="709.1" x2="813" y1="1105.6" y2="1105.6" gradientUnits="userSpaceOnUse"><stop offset="0" stop-color="#4042e2"/><stop offset="1" stop-color="#4f52ff"/></linearGradient><path fill="url(#ac)" d="M813 1105.6a32.3 32.3 0 0 1-32.3 32.3h-39.3a32.3 32.3 0 0 1 0-64.6h39.3a32.3 32.3 0 0 1 32.3 32.3z"/><linearGradient id="ad" x1="849.5" x2="953.4" y1="1105.6" y2="1105.6" gradientUnits="userSpaceOnUse"><stop offset="0" stop-color="#4042e2"/><stop offset="1" stop-color="#4f52ff"/></linearGradient><path fill="url(#ad)" d="M953.4 1105.6a32.3 32.3 0 0 1-32.3 32.3h-39.3a32.3 32.3 0 0 1 0-64.6h39.3a32.3 32.3 0 0 1 32.3 32.3z"/><linearGradient id="ae" x1="1076" x2="844.5" y1="1072.5" y2="1345.5" gradientUnits="userSpaceOnUse"><stop offset="0" stop-color="#e1473d"/><stop offset="1" stop-color="#e9605a"/></linearGradient><path fill="url(#ae)" d="M1095.8 1110.3a32.8 32.8 0 0 1-32.8 32.9h-38a32.8 32.8 0 1 1 0-65.7h38a32.8 32.8 0 0 1 32.8 32.8z"/><linearGradient id="af" x1="563.1" x2="667" y1="1206.7" y2="1206.7" gradientUnits="userSpaceOnUse"><stop offset="0" stop-color="#4042e2"/><stop offset="1" stop-color="#4f52ff"/></linearGradient><path fill="url(#af)" d="M667 1206.7a32.3 32.3 0 0 1-32.3 32.3h-39.3a32.3 32.3 0 1 1 0-64.6h39.3a32.3 32.3 0 0 1 32.3 32.3z"/><linearGradient id="ag" x1="709.1" x2="813" y1="1206.7" y2="1206.7" gradientUnits="userSpaceOnUse"><stop offset="0" stop-color="#4042e2"/><stop offset="1" stop-color="#4f52ff"/></linearGradient><path fill="url(#ag)" d="M813 1206.7a32.3 32.3 0 0 1-32.3 32.3h-39.3a32.3 32.3 0 1 1 0-64.6h39.3a32.3 32.3 0 0 1 32.3 32.3z"/><linearGradient id="ah" x1="849.5" x2="953.4" y1="1206.7" y2="1206.7" gradientUnits="userSpaceOnUse"><stop offset="0" stop-color="#4042e2"/><stop offset="1" stop-color="#4f52ff"/></linearGradient><path fill="url(#ah)" d="M953.4 1206.7a32.3 32.3 0 0 1-32.3 32.3h-39.3a32.3 32.3 0 1 1 0-64.6h39.3a32.3 32.3 0 0 1 32.3 32.3z"/><linearGradient id="ai" x1="995.6" x2="1099.5" y1="1206.7" y2="1206.7" gradientUnits="userSpaceOnUse"><stop offset="0" stop-color="#4042e2"/><stop offset="1" stop-color="#4f52ff"/></linearGradient><path fill="url(#ai)" d="M1099.5 1206.7a32.3 32.3 0 0 1-32.3 32.3h-39.3a32.3 32.3 0 1 1 0-64.6h39.3a32.3 32.3 0 0 1 32.3 32.3z"/><linearGradient id="aj" x1="563.1" x2="667" y1="1296.3" y2="1296.3" gradientUnits="userSpaceOnUse"><stop offset="0" stop-color="#4042e2"/><stop offset="1" stop-color="#4f52ff"/></linearGradient><path fill="url(#aj)" d="M667 1296.3a32.3 32.3 0 0 1-32.3 32.3h-39.3a32.3 32.3 0 0 1 0-64.6h39.3a32.3 32.3 0 0 1 32.3 32.3z"/><linearGradient id="ak" x1="709.1" x2="813" y1="1296.3" y2="1296.3" gradientUnits="userSpaceOnUse"><stop offset="0" stop-color="#4042e2"/><stop offset="1" stop-color="#4f52ff"/></linearGradient><path fill="url(#ak)" d="M813 1296.3a32.3 32.3 0 0 1-32.3 32.3h-39.3a32.3 32.3 0 0 1 0-64.6h39.3a32.3 32.3 0 0 1 32.3 32.3z"/><linearGradient id="al" x1="849.5" x2="953.4" y1="1296.3" y2="1296.3" gradientUnits="userSpaceOnUse"><stop offset="0" stop-color="#4042e2"/><stop offset="1" stop-color="#4f52ff"/></linearGradient><path fill="url(#al)" d="M953.4 1296.3a32.3 32.3 0 0 1-32.3 32.3h-39.3a32.3 32.3 0 0 1 0-64.6h39.3a32.3 32.3 0 0 1 32.3 32.3z"/><linearGradient id="am" x1="563.1" x2="667" y1="1394.6" y2="1394.6" gradientUnits="userSpaceOnUse"><stop offset="0" stop-color="#4042e2"/><stop offset="1" stop-color="#4f52ff"/></linearGradient><path fill="url(#am)" d="M667 1394.6a32.3 32.3 0 0 1-32.3 32.3h-39.3a32.3 32.3 0 0 1 0-64.6h39.3a32.3 32.3 0 0 1 32.3 32.3z"/><linearGradient id="an" x1="709.1" x2="813" y1="1394.6" y2="1394.6" gradientUnits="userSpaceOnUse"><stop offset="0" stop-color="#4042e2"/><stop offset="1" stop-color="#4f52ff"/></linearGradient><path fill="url(#an)" d="M813 1394.6a32.3 32.3 0 0 1-32.3 32.3h-39.3a32.3 32.3 0 0 1 0-64.6h39.3a32.3 32.3 0 0 1 32.3 32.3z"/><linearGradient id="ao" x1="849.5" x2="953.4" y1="1394.6" y2="1394.6" gradientUnits="userSpaceOnUse"><stop offset="0" stop-color="#4042e2"/><stop offset="1" stop-color="#4f52ff"/></linearGradient><path fill="url(#ao)" d="M953.4 1394.6a32.3 32.3 0 0 1-32.3 32.3h-39.3a32.3 32.3 0 0 1 0-64.6h39.3a32.3 32.3 0 0 1 32.3 32.3z"/><linearGradient id="ap" x1="1001.2" x2="1085.4" y1="1352.8" y2="1352.8" gradientUnits="userSpaceOnUse"><stop offset="0" stop-color="#4042e2"/><stop offset="1" stop-color="#4f52ff"/></linearGradient><path fill="url(#ap)" d="M1085.4 1392a40.9 40.9 0 0 1-40.9 40.8h-2.5a40.9 40.9 0 0 1-40.8-40.9v-78.3a40.9 40.9 0 0 1 40.9-40.9h2.5a40.9 40.9 0 0 1 40.8 40.9v78.3z"/><path fill="#fff" d="M1029.3 881a7 7 0 0 1-7 7h-19.7a7 7 0 0 1 0-14h19.6a7 7 0 0 1 7 7zm0 95.4a7 7 0 0 1-7 7h-19.7a7 7 0 0 1 0-14h19.6a7 7 0 0 1 7 7zm-31-56.1a7 7 0 1 1-14 0v-19.7a7 7 0 1 1 14 0v19.6zm0 39.3a7 7 0 0 1-14 0v-19.7a7 7 0 1 1 14 0v19.7zm47.8-39.3a7 7 0 1 1-14 0v-19.7a7 7 0 1 1 14 0v19.6zm0 39.3a7 7 0 0 1-14 0v-19.7a7 7 0 1 1 14 0v19.7z" opacity=".7"/><linearGradient id="aq" x1="1493.3" x2="1543.5" y1="1516.8" y2="1516.8" gradientTransform="translate(-1140.7)" gradientUnits="userSpaceOnUse"><stop offset="0" stop-color="#4042e2"/><stop offset="1" stop-color="#4f52ff"/></linearGradient><path fill="url(#aq)" d="M401.3 1514.3a920.1 920.1 0 0 1-35.2 2.5c-7 .3-11.1-.4-13.5-1.3v.7a2.4 2.4 0 0 0 2.3 2.3 415 415 0 0 0 46.2 0 1.7 1.7 0 0 0 1.4-2.5 13.2 13.2 0 0 0-1.2-1.7z"/><linearGradient id="ar" x1="1493.3" x2="1542" y1="1506.9" y2="1506.9" gradientTransform="translate(-1140.7)" gradientUnits="userSpaceOnUse"><stop offset="0" stop-color="#09005d"/><stop offset="1" stop-color="#1a0f91"/></linearGradient><path fill="url(#ar)" d="M366 1516.8a932.2 932.2 0 0 0 35.3-2.5c-8.4-10.3-35.2-17.3-35.2-17.3h-7.6a31.7 31.7 0 0 0-5.9 18.5 33 33 0 0 0 13.5 1.3z"/><linearGradient id="as" x1="1498" x2="1512.1" y1="1493.2" y2="1493.2" gradientTransform="translate(-1140.7)" gradientUnits="userSpaceOnUse"><stop offset="0" stop-color="#ff928e"/><stop offset="1" stop-color="#feb3b1"/></linearGradient><path fill="url(#as)" d="m357.2 1484.6.7 14a3.2 3.2 0 0 0 2.8 3c1.5.3 3.5.3 5.7-.4a3.8 3.8 0 0 0 2.5-3l2.5-13.6h-14.2z"/><linearGradient id="at" x1="1393.5" x2="1412.7" y1="1515.7" y2="1515.7" gradientTransform="translate(-1140.7)" gradientUnits="userSpaceOnUse"><stop offset="0" stop-color="#4042e2"/><stop offset="1" stop-color="#4f52ff"/></linearGradient><path fill="url(#at)" d="M259 1516.7c-3.7-.5-5.4-2.5-6.1-4.5-.6 2.2.7 4.5 3.2 5.5a21.3 21.3 0 0 0 9 1.4 9 9 0 0 0 6.8-3v-.1c-2.8 1.4-6.7 1.6-13 .7z"/><linearGradient id="au" x1="1393.6" x2="1421.8" y1="1500.9" y2="1500.9" gradientTransform="translate(-1140.7)" gradientUnits="userSpaceOnUse"><stop offset="0" stop-color="#09005d"/><stop offset="1" stop-color="#1a0f91"/></linearGradient><path fill="url(#au)" d="M276.5 1484.5h-6.2c-9.5-.2-15.5 19.9-17.4 27.7.7 2 2.3 4 6 4.5 6.3.8 10.2.7 13-.7a59.6 59.6 0 0 0 9-22.4c1.3-6.6-4.4-9-4.4-9z"/><linearGradient id="av" x1="1408.2" x2="1425.1" y1="1481.5" y2="1481.5" gradientTransform="translate(-1140.7)" gradientUnits="userSpaceOnUse"><stop offset="0" stop-color="#ff928e"/><stop offset="1" stop-color="#feb3b1"/></linearGradient><path fill="url(#av)" d="m271 1471.5-3.4 13.8a3.7 3.7 0 0 0 2 4.3c1.9 1 4.6 2 7.1 1.7a3.1 3.1 0 0 0 2.6-2l5-14.6-13.2-3.2z"/><linearGradient id="aw" x1="1369.2" x2="1590.8" y1="1530.8" y2="1280.1" gradientTransform="translate(-1140.7)" gradientUnits="userSpaceOnUse"><stop offset="0" stop-color="#09005d"/><stop offset="1" stop-color="#1a0f91"/></linearGradient><path fill="url(#aw)" d="M267 1475.5c4.3 3.8 18.3 4.4 18.3 4.4 50.5-121.3 71.1-138.5 71.1-138.5-7.2 45.8-1.1 147-1.1 147 8.3 3.7 19 0 19 0a780.7 780.7 0 0 1 25.8-191.7c-34-.7-52.3-12.4-58.2-17.1-28.4 45.9-75 196-75 196z"/><linearGradient id="ax" x1="1053.2" x2="941.3" y1="1718.9" y2="1839.5" gradientTransform="translate(-1140.7)" gradientUnits="userSpaceOnUse"><stop offset="0" stop-color="#4042e2"/><stop offset="1" stop-color="#4f52ff"/></linearGradient><path fill="url(#ax)" d="M350.6 1140.2c-6.5 32.2-4.2 90-2.6 116.2.4 7.4-4.8 17.7-9 24.7a2.2 2.2 0 0 0 1 3c7 3.7 30.6 14.8 58 16.2a4 4 0 0 0 4-3c20.3-76 44-124.5 44-124.5-26.1-41.7-95.4-32.6-95.4-32.6z"/><linearGradient id="ay" x1="1465.1" x2="1473.2" y1="1419" y2="1402.8" gradientTransform="translate(-1140.7)" gradientUnits="userSpaceOnUse"><stop offset="0" stop-color="#4042e2"/><stop offset="1" stop-color="#4f52ff"/></linearGradient><path fill="url(#ay)" d="M359.9 1338.5a1.6 1.6 0 0 1-1.4-2.4c.3-.4 6.8-11 20-17.4a1.6 1.6 0 0 1 1.4 3 48.4 48.4 0 0 0-18.6 16c-.3.6-.9.8-1.4.8z"/><linearGradient id="az" x1="1485.5" x2="1425.5" y1="1235.6" y2="1288.8" gradientTransform="translate(-1140.7)" gradientUnits="userSpaceOnUse"><stop offset="0" stop-color="#ff928e"/><stop offset="1" stop-color="#feb3b1"/></linearGradient><path fill="url(#az)" d="M310 1232.7c2.1 15 8.3 31.4 20.5 48.8l4.7-3.8s-5.4-21.9-2.3-46.6c-7.6-1.5-16.5 0-22.8 1.6z"/><linearGradient id="aA" x1="1017.5" x2="905.6" y1="1685.9" y2="1806.4" gradientTransform="translate(-1140.7)" gradientUnits="userSpaceOnUse"><stop offset="0" stop-color="#4042e2"/><stop offset="1" stop-color="#4f52ff"/></linearGradient><path fill="url(#aA)" d="m357.8 1180-7.2-39.8s-48.2 36.9-40.5 92.5a55.6 55.6 0 0 1 22.8-1.6 78 78 0 0 1 25-51.1z"/><linearGradient id="aB" x1="1090.2" x2="978.3" y1="1753.3" y2="1873.9" gradientTransform="translate(-1140.7)" gradientUnits="userSpaceOnUse"><stop offset="0" stop-color="#4042e2"/><stop offset="1" stop-color="#4f52ff"/></linearGradient><path fill="url(#aB)" d="m446 1172.8-18.7 40.1c3 24.2 16 34.7 30 38.7a85 85 0 0 1 6.3-26.1c-17.9-18.5-17.7-52.7-17.7-52.7z"/><linearGradient id="aC" x1="1598.1" x2="1645.4" y1="1240.6" y2="1240.6" gradientTransform="translate(-1140.7)" gradientUnits="userSpaceOnUse"><stop offset="0" stop-color="#ff928e"/><stop offset="1" stop-color="#feb3b1"/></linearGradient><path fill="url(#aC)" d="M463.6 1225.5a85 85 0 0 0-6.2 26c37.4 14.6 47.3-13.6 47.3-13.6l-7-1.2a39.2 39.2 0 0 1-34-11.2z"/><linearGradient id="aD" x1="1552.1" x2="1551.6" y1="1114.2" y2="1202.5" gradientTransform="translate(-1140.7)" gradientUnits="userSpaceOnUse"><stop offset="0" stop-color="#ff928e"/><stop offset="1" stop-color="#feb3b1"/></linearGradient><path fill="url(#aD)" d="m428.8 1123.3-9 33a6.4 6.4 0 0 1-8.6 4.3 130.3 130.3 0 0 1-13-5.9 8.7 8.7 0 0 1-3-12.4l18.7-27.9 14.9 9z"/><linearGradient id="aE" x1="1420.7" x2="1668.3" y1="1275.3" y2="1275.3" gradientTransform="translate(-1140.7)" gradientUnits="userSpaceOnUse"><stop offset="0" stop-color="#fe7062"/><stop offset="1" stop-color="#ff928e"/></linearGradient><path fill="url(#aE)" d="m521.8 1215.8-230.3 83.8a17.6 17.6 0 0 0-10 23.9l.7 1.5a16.4 16.4 0 0 0 21.8 8.1l223.6-103.4-5.8-13.9z"/><linearGradient id="aF" x1="1654.7" x2="1882" y1="1165.4" y2="1165.4" gradientTransform="translate(-1140.7)" gradientUnits="userSpaceOnUse"><stop offset="0" stop-color="#dae3fe"/><stop offset="1" stop-color="#e9effd"/></linearGradient><ellipse cx="627.6" cy="1165.4" fill="url(#aF)" opacity=".3" rx="113.7" ry="111.6"/><linearGradient id="aG" x1="568.3" x2="919.8" y1="1235" y2="822.7" gradientUnits="userSpaceOnUse"><stop offset="0" stop-color="#fe7062"/><stop offset="1" stop-color="#ff928e"/></linearGradient><path fill="url(#aG)" d="M627.6 1041.3a125.3 125.3 0 0 0-126.5 124.1c0 68.6 56.7 124.2 126.5 124.2s126.5-55.6 126.5-124.2-56.6-124.2-126.5-124.2zm0 230c-59.6 0-107.9-47.3-107.9-105.9s48.3-106 108-106 107.8 47.5 107.8 106a107 107 0 0 1-107.9 106z"/><path fill="#fff" d="M510.8 1181a1 1 0 0 1-1-.9c-.4-3-.7-6-.8-9a1 1 0 0 1 1-1c.5 0 1 .5 1 1 .1 3 .4 5.9.7 8.8a1 1 0 0 1-1 1zm.8-34.8h-.1a1 1 0 0 1-.8-1.1 114.5 114.5 0 0 1 6.8-23.4 118.3 118.3 0 0 1 110.1-72.9 120 120 0 0 1 63.8 18.2 1 1 0 0 1-1 1.7 118 118 0 0 0-62.8-18c-47.8 0-90.4 28.2-108.3 71.7a112.4 112.4 0 0 0-6.7 23c0 .5-.5.8-1 .8z" opacity=".7"/><linearGradient id="aH" x1="1180.3" x2="1136.9" y1="2877.7" y2="2935.2" gradientTransform="rotate(-8 -11578.1 7141.6)" gradientUnits="userSpaceOnUse"><stop offset="0" stop-color="#ff928e"/><stop offset="1" stop-color="#feb3b1"/></linearGradient><path fill="url(#aH)" d="M448.4 1098.2c.1.6-7.4 37.7-7.4 37.7l-21.2-4.8 2-36.2s25.3-6.2 26.6 3.3z"/><linearGradient id="aI" x1="400.4" x2="551.2" y1="1109.2" y2="1128.2" gradientUnits="userSpaceOnUse"><stop offset="0" stop-color="#09005d"/><stop offset="1" stop-color="#1a0f91"/></linearGradient><path fill="url(#aI)" d="m426.6 1103-2.6 19v.7c.3 1.5 1.4 6.6 6.5 5.1 4.6-1.3 8.9-2.4 11.8-1.5a2.7 2.7 0 0 1 1.9 3c-.7 3.4-2.4 11-4.9 17.4a2.7 2.7 0 0 1-3.2 1.5 80 80 0 0 1-18.6-7.6 2.7 2.7 0 0 1-1.4-2.4c.2-4.8.8-19.4.3-23.5-.4-3.8-5.1-6-7.2-7-.6-.2-1.2-.7-1.4-1.4-1-2.4-2.3-7.9 4.6-10.1a2.7 2.7 0 0 0 1.7-3.5c-1-2.8-1.4-7.2 4-9.6 5.4-2.4 9.4.5 11.6 2.8 1 1 2.4 1.1 3.5.4.6-.4 1.4-.5 2.4.1 1.3.8 3 .3 3.7-1.1a8 8 0 0 1 9.3-4.6c9.5 1.6 10.5 12 8 18.2-2.5 6.1-12.6 3.8-17.7.7-3.9-2.3-9 .1-11 1.4a2.7 2.7 0 0 0-1.3 2z"/><linearGradient id="aJ" x1="1116.7" x2="1151.5" y1="2923.2" y2="2887.5" gradientTransform="rotate(-8 -11578.1 7141.6)" gradientUnits="userSpaceOnUse"><stop offset="0" stop-color="#ff928e"/><stop offset="1" stop-color="#feb3b1"/></linearGradient><path fill="url(#aJ)" d="M415.6 1121.7s3.9-11-.1-13.6c-4-2.6-10-1.2-8.6 6.6 1.6 9.8 8.7 7 8.7 7z"/><linearGradient id="aK" x1="1509.2" x2="1449.2" y1="1262.3" y2="1315.5" gradientTransform="translate(-1140.7)" gradientUnits="userSpaceOnUse"><stop offset="0" stop-color="#ff928e"/><stop offset="1" stop-color="#feb3b1"/></linearGradient><path fill="url(#aK)" d="m333.3 1277 21.7-1.8 9.5 8.7s-2.3 3.1-9.2 1.3c-7-1.7-16.6-2.2-16.6-2.2s-9.6 4.4-9.7-3.7l4.3-2.3z"/><linearGradient id="aL" x1="1640.4" x2="1657.3" y1="1235" y2="1235" gradientTransform="translate(-1140.7)" gradientUnits="userSpaceOnUse"><stop offset="0" stop-color="#ff928e"/><stop offset="1" stop-color="#feb3b1"/></linearGradient><path fill="url(#aL)" d="M501.9 1243.1c1.9 1.5 8.3-1.6 12.3-3.7a4.5 4.5 0 0 0 2.1-5.4c-.9-3-2.5-6.9-4.4-7.3-3.3-.8-17.8 10.3-10 16.4z"/><path fill="#fff" d="M296.1 1330a1 1 0 0 1-.3 0c-9-3.1-11.2-8.5-11.4-12.5a13.8 13.8 0 0 1 9-13.3l27.7-10.8a1 1 0 0 1 .7 1.9l-27.6 10.7c-5 2-8 6.5-7.8 11.4.2 5 3.6 8.5 10 10.7a1 1 0 0 1-.3 2zm33.9-38a1 1 0 0 1-.4-1.9l3.6-1.4a1 1 0 0 1 .7 1.8l-3.6 1.4a1 1 0 0 1-.3.1z" opacity=".7"/><linearGradient id="aM" x1="-661.1" x2="-817.3" y1="1014" y2="1184" gradientTransform="matrix(-1 0 0 1 1183 0)" gradientUnits="userSpaceOnUse"><stop offset="0" stop-color="#09005d"/><stop offset="1" stop-color="#1a0f91"/></linearGradient><path fill="url(#aM)" d="M1893.5 1026.7s1.6 9.2 2.4 18.2a6.3 6.3 0 0 1-6 6.8 787 787 0 0 1-47.2 1 2 2 0 0 1-1.8-2.7 4.5 4.5 0 0 1 2.4-2.5l42.6-19.6 7.6-1.2z"/><linearGradient id="aN" x1="-711.8" x2="-697.9" y1="1026.7" y2="1026.7" gradientTransform="matrix(-1 0 0 1 1183 0)" gradientUnits="userSpaceOnUse"><stop offset="0" stop-color="#ff928e"/><stop offset="1" stop-color="#feb3b1"/></linearGradient><path fill="url(#aN)" d="m1894.8 1021.3-1.3 11s-7.5 3.5-12.6-.5l3.1-12.2 10.8 1.7z"/><linearGradient id="aO" x1="-773.2" x2="-549.1" y1="984.2" y2="707.2" gradientTransform="matrix(-1 0 0 1 1183 0)" gradientUnits="userSpaceOnUse"><stop offset="0" stop-color="#09005d"/><stop offset="1" stop-color="#1a0f91"/></linearGradient><path fill="url(#aO)" d="M1893.8 815.4c.6 2.8 3 142.7-12 205.4a2.1 2.1 0 0 0 1.3 2.5 36 36 0 0 0 12.2 2.5 3.7 3.7 0 0 0 3.6-2.7c4.3-14.5 24.8-87.4 27.5-157 3-77.8 0-2.7 0-2.7l-1.8-48h-30.8z"/><linearGradient id="aP" x1="-696.1" x2="-852.4" y1="981.8" y2="1151.8" gradientTransform="matrix(-1 0 0 1 1183 0)" gradientUnits="userSpaceOnUse"><stop offset="0" stop-color="#09005d"/><stop offset="1" stop-color="#1a0f91"/></linearGradient><path fill="url(#aP)" d="M1942.5 1031.5s2.6 4.6 5.1 16.9a3.8 3.8 0 0 1-3.4 4.6c-4 .4-10 .9-15 .8a3.8 3.8 0 0 1-3.8-4.2c.6-4.5 2.3-11.9 7.5-17.6l9.6-.5z"/><linearGradient id="aQ" x1="-761.8" x2="-749.8" y1="1026" y2="1026" gradientTransform="matrix(-1 0 0 1 1183 0)" gradientUnits="userSpaceOnUse"><stop offset="0" stop-color="#ff928e"/><stop offset="1" stop-color="#feb3b1"/></linearGradient><path fill="url(#aQ)" d="m1944.8 1017.4-3 16.6s-3 2.2-9 .6l1.5-17.8 10.5.6z"/><linearGradient id="aR" x1="-795.2" x2="-571.1" y1="966.4" y2="689.4" gradientTransform="matrix(-1 0 0 1 1183 0)" gradientUnits="userSpaceOnUse"><stop offset="0" stop-color="#09005d"/><stop offset="1" stop-color="#1a0f91"/></linearGradient><path fill="url(#aR)" d="M1953 819.6c12.2 73.9-2.6 182.5-7.7 203.7a3.3 3.3 0 0 1-2.6 2.6c-2.3.3-6 .6-9.6-.4a3 3 0 0 1-2.2-2.8c-.7-17.2.5-122.7-10.9-164.4a9.5 9.5 0 0 0-3.6-5.3l-22.1-15.7-1.7-25.4 60.4 7.7z"/><linearGradient id="aS" x1="1904.5" x2="1993.2" y1="728.4" y2="885.3" gradientUnits="userSpaceOnUse"><stop offset="0" stop-color="#fe7062"/><stop offset="1" stop-color="#ff928e"/></linearGradient><path fill="url(#aS)" d="M1875 679.8c36.7-.6 77.2 9.6 77.2 9.6 10.9 63.8 1.9 137.3 1.9 137.3-28.4 7.4-60.4-4.6-60.4-4.6-4.7-26.6-26.7-101.6-26.7-101.6a120 120 0 0 1-44.8-14.2 78.6 78.6 0 0 0 15.5-32.5c13 4 26 6.2 37.4 6z"/><linearGradient id="aT" x1="-1042.9" x2="-964.5" y1="1.7" y2="122.6" gradientTransform="matrix(-1 0 0 1 1183 0)" gradientUnits="userSpaceOnUse"><stop offset="0" stop-color="#ff928e"/><stop offset="1" stop-color="#feb3b1"/></linearGradient><path fill="url(#aT)" d="M1766.8 625.8c3.6-4.4 8.2-2.3 8.2-2.3 5.4 22.8 33.6 41.3 62.7 50.3-2 8-6.3 21.7-15.5 32.5-48.3-27.1-55.4-80.5-55.4-80.5z"/><linearGradient id="aU" x1="7494.7" x2="7573.1" y1="-2929.9" y2="-2809" gradientTransform="translate(-8028.8)" gradientUnits="userSpaceOnUse"><stop offset="0" stop-color="#ff928e"/><stop offset="1" stop-color="#feb3b1"/></linearGradient><path fill="url(#aU)" d="M1767.7 626.9c-.4 1.2 4 3 6.5-1.9.1-2.3 1.5-12.4.1-14.3-7.4-10.2-22-23-22-23-2.4 2.5-.4 4.8-.4 4.8l7 7.4c-1.4 2.6-3.2 4.9-4 8a9.8 9.8 0 0 0 1 7.3 87.6 87.6 0 0 0 4.5 7.4c3 4.3 7.3 4.3 7.3 4.3z"/><linearGradient id="aV" x1="1757.6" x2="1779.5" y1="595.3" y2="645.5" gradientUnits="userSpaceOnUse"><stop offset="0" stop-color="#ff928e"/><stop offset="1" stop-color="#feb3b1"/></linearGradient><path fill="url(#aV)" d="m1762 604.6 6.4 5.4 2 5.4-5.6 6.4s-2-10.7-3.4-13c-1.4-2.4-.7-3.5.6-4.2z"/><linearGradient id="aW" x1="1949.4" x2="2038.2" y1="703" y2="859.9" gradientUnits="userSpaceOnUse"><stop offset="0" stop-color="#fe7062"/><stop offset="1" stop-color="#ff928e"/></linearGradient><path fill="url(#aW)" d="m1938.1 724.9 14-35.5s34.3 23.3 40 52.8a81 81 0 0 0-29.8 8c-2.6-14-24.2-25.3-24.2-25.3z"/><linearGradient id="aX" x1="-809.8" x2="-720.1" y1="765.1" y2="765.1" gradientTransform="matrix(-1 0 0 1 1183 0)" gradientUnits="userSpaceOnUse"><stop offset="0" stop-color="#ff928e"/><stop offset="1" stop-color="#feb3b1"/></linearGradient><path fill="url(#aX)" d="M1908.2 758.3s38.4 21.7 51.4 3.2a15 15 0 0 0 2.7-11.4 80.8 80.8 0 0 1 29.7-8 40.7 40.7 0 0 1-4.4 28c-22.7 41.5-84.5-2.3-84.5-2.3l5-9.5z"/><linearGradient id="aY" x1="-603.3" x2="-706.5" y1="742.3" y2="750.8" gradientTransform="matrix(-1 0 0 1 1183 0)" gradientUnits="userSpaceOnUse"><stop offset="0" stop-color="#09005d"/><stop offset="1" stop-color="#1a0f91"/></linearGradient><path fill="url(#aY)" d="m1912.8 785.8-21-73.3a2.1 2.1 0 0 0-1.8-1.5 921.3 921.3 0 0 0-27.5-2.8 312.2 312.2 0 0 0-43.7-1.4 2.1 2.1 0 0 0-1.8 3c6 12.3 30.9 62 43.4 78.3.4.6 1 .9 1.7.9l48.7-.5a2.1 2.1 0 0 0 2-2.7z"/><linearGradient id="aZ" x1="-662.1" x2="-672.6" y1="668.9" y2="715" gradientTransform="matrix(-1 0 0 1 1183 0)" gradientUnits="userSpaceOnUse"><stop offset="0" stop-color="#4042e2"/><stop offset="1" stop-color="#4f52ff"/></linearGradient><path fill="url(#aZ)" d="m1860.3 701.9-15.2-2.6a1.1 1.1 0 0 0-1.2 1.5l1.5 4.5c.1.4.5.7.9.7l14.6 2a1.1 1.1 0 0 0 1.2-1.3l-.9-4a1.1 1.1 0 0 0-.9-.8z"/><linearGradient id="ba" x1="-667.6" x2="-672.6" y1="688.2" y2="718.4" gradientTransform="matrix(-1 0 0 1 1183 0)" gradientUnits="userSpaceOnUse"><stop offset="0" stop-color="#4042e2"/><stop offset="1" stop-color="#4f52ff"/></linearGradient><path fill="url(#ba)" d="m1871.7 714.7-1.3-6.5a1.5 1.5 0 0 0-1.3-1.2l-30.7-3.1a1.5 1.5 0 0 0-1.6 1.8l2 8.2a1.5 1.5 0 0 0 1.3 1.1l30 1.5a1.5 1.5 0 0 0 1.6-1.8z"/><linearGradient id="bb" x1="-726.8" x2="-698.8" y1="755.7" y2="755.7" gradientTransform="matrix(-1 0 0 1 1183 0)" gradientUnits="userSpaceOnUse"><stop offset="0" stop-color="#ff928e"/><stop offset="1" stop-color="#feb3b1"/></linearGradient><path fill="url(#bb)" d="M1907.7 768s3-12 1.8-16.2c-1.2-4.3-3.5-9.7-11.1-8.5-7.6 1.2-16.6 4.4-16.6 4.4s.5 5.5 6.3 3.8l-3.6 2.7s.5 4.5 5.4 2.1l-3.4 3.7s2.1 3.6 5.7 1.3 5.3 8.2 15.5 6.8z"/><linearGradient id="bc" x1="1901.7" x2="1913.9" y1="641.4" y2="718.6" gradientUnits="userSpaceOnUse"><stop offset="0" stop-color="#ff928e"/><stop offset="1" stop-color="#feb3b1"/></linearGradient><path fill="url(#bc)" d="m1912.2 650 11.7 33.7c.2.6 0 1.2-.6 1.5a27.4 27.4 0 0 1-28.4-1.9 5.7 5.7 0 0 1-2.7-4l-3.7-29.3h23.7z"/><linearGradient id="bd" x1="1919.7" x2="1883" y1="599.9" y2="658.5" gradientUnits="userSpaceOnUse"><stop offset="0" stop-color="#ff928e"/><stop offset="1" stop-color="#feb3b1"/></linearGradient><path fill="url(#bd)" d="M1886.8 618.8s-12.8 24.1-11.2 33.8c1.7 9.8 17.6 9 31.4 1.2l9.7-26-29.9-9z"/><linearGradient id="be" x1="-6164.8" x2="-6153.7" y1="-2722.6" y2="-2659.4" gradientTransform="matrix(-1 -1 -1 1 -4494.4 -1494.4)" gradientUnits="userSpaceOnUse"><stop offset="0" stop-color="#09005d"/><stop offset="1" stop-color="#1a0f91"/></linearGradient><path fill="url(#be)" d="M1906.4 641a1 1 0 0 1-.4-1.5c1-1.5 3-4.7 3.5-7.5 0 0 2.3-1.5-5.8-3.5-8.2-2-20.3-5-23-11.9-2.4-6.8 4.1-23.8 14.6-10.2a1 1 0 0 0 1.6 0c1.7-2.2 6.2-6.9 12.5-4 5.8 2.6 6.5 6.8 6.4 9a1 1 0 0 0 1.2 1c3-.5 10-1 13.3 6.3 2.8 6 1 9.4-.6 11a1 1 0 0 0 .4 1.7c2 .6 4.5 2.2 4.2 6.8-.3 6.3-7.4 5.7-9.4 5.4a1 1 0 0 0-.9.3c-1.7 2-9.4 10-17.8 11a1 1 0 0 1-1-1.3l3.6-10.6a1 1 0 0 0-.6-1.2l-1.8-.8z"/><linearGradient id="bf" x1="-6166.4" x2="-6178.3" y1="-2646.7" y2="-2686" gradientTransform="matrix(-1 -1 -1 1 -4494.4 -1494.4)" gradientUnits="userSpaceOnUse"><stop offset="0" stop-color="#f9b776"/><stop offset="1" stop-color="#f47960"/></linearGradient><path fill="url(#bf)" d="M1905 642.5s9-6.3 9.7-1c.7 5.3-8.2 7.6-12.6 5.7l2.9-4.7z"/><linearGradient id="bg" x1="1788.8" x2="1797.6" y1="1291.8" y2="1291.8" gradientUnits="userSpaceOnUse"><stop offset="0" stop-color="#09005d"/><stop offset="1" stop-color="#1a0f91"/></linearGradient><path fill="url(#bg)" d="M1793.2 1531.3c2.4 0 4.4-1.7 4.4-3.9v-471.2c0-2.2-2-4-4.4-4-2.4 0-4.4 1.8-4.4 4v471.2c0 2.2 2 4 4.4 4z"/><linearGradient id="bh" x1="1908.3" x2="1917.2" y1="1291.8" y2="1291.8" gradientUnits="userSpaceOnUse"><stop offset="0" stop-color="#09005d"/><stop offset="1" stop-color="#1a0f91"/></linearGradient><path fill="url(#bh)" d="M1912.8 1531.3c2.4 0 4.4-1.7 4.4-3.9v-471.2c0-2.2-2-4-4.4-4-2.5 0-4.5 1.8-4.5 4v471.2c0 2.2 2 4 4.4 4z"/><path fill="#7d97f4" d="M2206.4 1534.3c.6 0 1.2 0 1.7-.3a3.8 3.8 0 0 0 2.4-5.2l-225.6-474.2c-1-2-3.5-2.9-5.8-2-2.2.8-3.2 3.1-2.3 5.1l225.6 474.2a4.5 4.5 0 0 0 4 2.4zm-139.3 0c.6 0 1.1 0 1.7-.3 2.3-.8 3.3-3.2 2.3-5.2l-225.5-474.2c-1-2-3.6-2.9-5.8-2-2.2.8-3.3 3.1-2.3 5.1L2063 1532a4.5 4.5 0 0 0 4 2.4z"/><path fill="#7d97f4" d="M1783 1060.5h213.4a2.8 2.8 0 0 0 2.8-2.8v-5.5a2.8 2.8 0 0 0-2.8-2.8H1783a2.8 2.8 0 0 0-2.8 2.8v5.5a2.8 2.8 0 0 0 2.8 2.8zm92.6 72.1h139.8c2.4 0 4.4-1.7 4.4-3.9s-2-4-4.4-4h-139.8c-2.4 0-4.4 1.8-4.4 4s2 4 4.4 4zm42.9 81.8h139.7v8h-139.7zm41.5 89.7h139.7v7.9H1960zm43.5 97.6h139.8c2.4 0 4.4-1.8 4.4-4 0-2.1-2-3.9-4.4-3.9h-139.8c-2.4 0-4.4 1.8-4.4 4 0 2.1 2 3.9 4.4 3.9zm42.1 89.7h139.8c2.4 0 4.4-1.8 4.4-4s-2-4-4.4-4h-139.8c-2.4 0-4.4 1.8-4.4 4s2 4 4.4 4z"/><linearGradient id="bi" x1="-1339" x2="-934.7" y1="311.9" y2="499.1" gradientTransform="matrix(-1 0 0 1 552.2 0)" gradientUnits="userSpaceOnUse"><stop offset="0" stop-color="#4042e2"/><stop offset="1" stop-color="#4f52ff"/></linearGradient><path fill="url(#bi)" d="m1485.8 380.6 55.2-45.9a29.6 29.6 0 0 1 19-6.8h267.2a29.6 29.6 0 0 1 29.6 29.7v91.6a29.6 29.6 0 0 1-29.6 29.7h-267.3a29.6 29.6 0 0 1-19-6.9l-55.1-45.8a29.6 29.6 0 0 1 0-45.6z"/><linearGradient id="bj" x1="1723.4" x2="1816.4" y1="400.4" y2="400.4" gradientUnits="userSpaceOnUse"><stop offset="0" stop-color="#dae3fe"/><stop offset="1" stop-color="#e9effd"/></linearGradient><path fill="url(#bj)" d="M1746 354h47.7a22.7 22.7 0 0 1 22.7 22.6v47.7a22.7 22.7 0 0 1-22.7 22.6h-47.6a22.7 22.7 0 0 1-22.7-22.6v-47.7a22.7 22.7 0 0 1 22.7-22.7z"/><linearGradient id="bk" x1="948.3" x2="1000.2" y1="400.4" y2="400.4" gradientTransform="translate(795.7)" gradientUnits="userSpaceOnUse"><stop offset="0" stop-color="#fe7062"/><stop offset="1" stop-color="#ff928e"/></linearGradient><path fill="url(#bk)" d="m1744 388.6 25 45.3 26.8-67-29.3 35.3z"/><linearGradient id="bl" x1="690" x2="812.2" y1="693.7" y2="664.8" gradientUnits="userSpaceOnUse"><stop offset="0" stop-color="#ff928e"/><stop offset="1" stop-color="#feb3b1"/></linearGradient><path fill="url(#bl)" d="m712.9 601.2-26.7 6.7 6.7 50s-10 10-13.3 23.2c-3.4 13.3-6.5 69.3-6.5 69.3l-6.3 3.8-.7 3.2 18.4 24.7-3.1-19.6c-.5-3.2.4-9.5.1-9.6 10-26.7 31.4-101.7 31.4-101.7v-50z"/><linearGradient id="bm" x1="602.4" x2="724.6" y1="727.4" y2="670.8" gradientUnits="userSpaceOnUse"><stop offset="0" stop-color="#ff928e"/><stop offset="1" stop-color="#feb3b1"/></linearGradient><path fill="url(#bm)" d="M720.6 757.7h-.8c1.3-16 7.2-86.7 13-113.2 6.7-30-10-90-10-90l-30 30 16.7 56.7c-11.4 17 1.9 117.3 1.6 117.3v.2l-4.3 6 .5 3.2 26.5 15.7-10.4-17a19 19 0 0 1-2.8-8.9z"/><linearGradient id="bn" x1="1156.3" x2="1188.2" y1="471.4" y2="471.4" gradientTransform="translate(-495.4)" gradientUnits="userSpaceOnUse"><stop offset="0" stop-color="#ff928e"/><stop offset="1" stop-color="#feb3b1"/></linearGradient><path fill="url(#bn)" d="M687 421.6s-58.4 65.8 0 99.5l5.9-4.3s-29-27.7 0-61.7l-6-33.5z"/><linearGradient id="bo" x1="-2192.3" x2="-2220.2" y1="724.3" y2="771.5" gradientTransform="matrix(-1 0 0 1 -1505.3 0)" gradientUnits="userSpaceOnUse"><stop offset="0" stop-color="#4042e2"/><stop offset="1" stop-color="#4f52ff"/></linearGradient><path fill="url(#bo)" d="M735.6 786h-8.5a5.1 5.1 0 0 1-4-2c-2.7-3.4-8.1-10-10.7-10.3-3.6-.2-3.1 12.3-3.1 12.3h-2l-2.5-15.5a9.2 9.2 0 0 1 4.8-9.6s.8 6 5.2 8.6c4.4 2.6 17.8 12 17.8 12s1.6-.2 3.4.1c2.7.5 2.3 4.4-.4 4.4z"/><linearGradient id="bp" x1="-3226.2" x2="-3254.1" y1="-206.1" y2="-158.8" gradientTransform="matrix(-1 0 0 1 -2407.9 -358.5)" gradientUnits="userSpaceOnUse"><stop offset="0" stop-color="#4042e2"/><stop offset="1" stop-color="#4f52ff"/></linearGradient><path fill="url(#bp)" d="m685.1 785-7.8-3.2a5.1 5.1 0 0 1-3-3.4c-1-4.2-3.5-12.5-5.9-13.7-3.1-1.5-7.5 10.2-7.5 10.2l-1.9-.8 3.8-15.3a9.2 9.2 0 0 1 8.2-7s-1.6 5.8 1.4 10c3 4 11.7 18 11.7 18s1.6.3 3.1 1.3c2.3 1.5.4 5-2 4z"/><linearGradient id="bq" x1="1242.5" x2="1170.1" y1="481.2" y2="650.7" gradientTransform="translate(-495.4)" gradientUnits="userSpaceOnUse"><stop offset="0" stop-color="#09005d"/><stop offset="1" stop-color="#1a0f91"/></linearGradient><path fill="url(#bq)" d="M730.5 503.9s-1 6 .4 22.5c1.5 16.5 8.3 55.3 7 92.3 0 0-19.6 4.6-53.4 2.4 0 0-14.3-57.9-10.9-79.9 3.5-22 22.4-37.8 22.4-37.8l34.5.5z"/><linearGradient id="br" x1="705.9" x2="707.8" y1="383.9" y2="441.8" gradientUnits="userSpaceOnUse"><stop offset="0" stop-color="#ff928e"/><stop offset="1" stop-color="#feb3b1"/></linearGradient><path fill="url(#br)" d="m716 393.6 2.5 28h-22.7l5.6-42.7z"/><linearGradient id="bs" x1="691.6" x2="589.3" y1="485.9" y2="638.3" gradientUnits="userSpaceOnUse"><stop offset="0" stop-color="#fe7062"/><stop offset="1" stop-color="#ff928e"/></linearGradient><path fill="url(#bs)" d="M689.1 417.8c7.8-.5 25.3-1.3 37.7-.6a14.4 14.4 0 0 1 13.3 11.4l3 14.5a34.8 34.8 0 0 1-.5 16.3l-12.1 44.5s-10.8 6.5-34.5-.5c0 0-20.8-49.5-12.3-81.3a5.9 5.9 0 0 1 5.4-4.3z"/><linearGradient id="bt" x1="1324" x2="1128.2" y1="413.2" y2="525.4" gradientTransform="translate(-495.4)" gradientUnits="userSpaceOnUse"><stop offset="0" stop-color="#ff928e"/><stop offset="1" stop-color="#feb3b1"/></linearGradient><path fill="url(#bt)" d="M739.5 426c3.3 8.8 6.3 18 9.6 26.7 1.6 4.3 3.3 8.5 5 12.4a76.9 76.9 0 0 0 2.9 5.3c.9 1.6 2 3 2.5 3.6l-.4.1 3 .5h2.8c4-.2 8.5-.9 13-1.8 9.2-1.7 18.7-4 28.4-5.9h.1a3.4 3.4 0 0 1 3 6 100 100 0 0 1-12.5 9l-6.7 4-7 3.4c-4.8 2.1-9.8 4-15.5 5.3l-4.6.7c-1.7 0-3.3.2-5.2.1a67.2 67.2 0 0 1-3-.3l-1.6-.3a38.4 38.4 0 0 1-2-.7c-1.5-.5-2.4-1.2-3.6-1.8-1-.6-1.8-1.3-2.7-2a36.4 36.4 0 0 1-6.8-7.9 62.2 62.2 0 0 1-4.3-7.5c-2.4-5-4.3-10-5.9-15a139.2 139.2 0 0 1-6.1-30.2 9 9 0 0 1 17.5-4v.3z"/><linearGradient id="bu" x1="1343.5" x2="1147.7" y1="447.1" y2="559.3" gradientTransform="translate(-495.4)" gradientUnits="userSpaceOnUse"><stop offset="0" stop-color="#ff928e"/><stop offset="1" stop-color="#feb3b1"/></linearGradient><path fill="url(#bu)" d="m803.3 471.4 4-9.6 21.3-5.3s1.7 3.7-7.3 5.3c0 0 3.2 3.5 1.5 7.7s-19.7 8.3-19.5 1.9z"/><linearGradient id="bv" x1="702.5" x2="724.4" y1="326.9" y2="411.1" gradientUnits="userSpaceOnUse"><stop offset="0" stop-color="#ff928e"/><stop offset="1" stop-color="#feb3b1"/></linearGradient><path fill="url(#bv)" d="M725.7 361.3c.8.4 7.1 22.9 1.8 32.3-5.3 9.4-21.6-1.1-26-14.7-4.5-13.6 2.6-30.3 24.2-17.6z"/><linearGradient id="bw" x1="1084.7" x2="1228" y1="418" y2="418" gradientTransform="translate(-495.4)" gradientUnits="userSpaceOnUse"><stop offset="0" stop-color="#09005d"/><stop offset="1" stop-color="#1a0f91"/></linearGradient><path fill="url(#bw)" d="M683.4 378.9c-3.6 17.9-15.8 13-24.4 21-13.9 12.9-33.8-.4-53 11.8-14 8.8-20.8 31.4-14 49.7 9.2 25.3 41 35.7 57.3 28 15.8-7.4 13.5-29.4 34.6-38 9-3.6 13.5-1.2 18.8-6.6 9.4-9.3 6.9-27.6 6-34.6-2.2-15.2-7.3-18-4.9-24.6 4.8-13 27-10.4 28.8-19.6 1.6-8.3-14.4-24.2-29.5-21.7-23.4 3.9-18 26.6-19.7 34.6z"/><path fill="#91b3fa" d="M598.9 457.1a.6.6 0 0 1-.6-.5c-3-12.4-1.6-22.6 4-30.2 9.4-12.7 27.7-14 27.9-14 .3 0 .6.2.6.6a.6.6 0 0 1-.5.6c-.2 0-18 1.3-27 13.5-5.4 7.4-6.7 17.2-3.8 29.3a.6.6 0 0 1-.6.7zm59.9 11.4h-.1a.3.3 0 0 1-.2-.4c2.9-11.2 8-19 15.1-23a30 30 0 0 1 14.4-3.6c4.2-.2 7.8-.4 10.7-3 6-5.3 5.6-18-1-38a.3.3 0 1 1 .5-.1c6.8 20 7 33 .9 38.5-3 2.7-6.7 3-11 3.2-4.3.3-9 .5-14.1 3.5-7 4-12 11.6-15 22.7a.3.3 0 0 1-.2.2zm33.3-94h-.1a.3.3 0 0 1-.2-.5c2.3-6.9 9-5.8 16-4.8a31 31 0 0 0 13 .3c3-.9 4.7-2.2 5.2-4 .9-3-2.1-6.4-2.2-6.5a.3.3 0 0 1 .5-.4c.1.2 3.2 3.7 2.3 7-.6 2-2.4 3.5-5.6 4.5-4 1.2-8.7.4-13.3-.2-7-1.1-13.2-2-15.4 4.3a.3.3 0 0 1-.3.2zm1282.7 249.7c-3.1-.2-3.6-4.5-.7-5.4 17-5.4 45-17.7 58.4-42.9a9.7 9.7 0 0 0-6.3-13.8c-30-7.5-110.6-35.7-103.2-120.5 9-104 125.7-110.8 200-90.2 74.5 20.7 112.2 71.7 95 149.9-16.2 73.7-157.8 129-243.2 123z"/><path fill="#91b3fa" d="m2076.8 567.3-4.7-.1a4 4 0 0 1 .4-7.8c.1 0 7.2.3 17.7-.5a4 4 0 0 1 .6 7.8c-6 .5-10.8.6-14 .6zm48.2-7.1a4 4 0 0 1-1.2-7.7c32-9.8 52.8-28.5 61.6-55.6 21.8-66.7-19.7-97.3-21.5-98.6a4 4 0 0 1 4.5-6.4c.5.4 48 35 24.5 107.4-9.6 29.3-32.7 50.2-66.8 60.7l-1.1.2z"/><g fill="#bdd0fb"><path d="M2131.1 416.5H1958a6.7 6.7 0 0 1 0-13.4h173a6.7 6.7 0 0 1 0 13.4z" opacity=".6"/><path d="M2152 442.8h-173.2a6.7 6.7 0 0 1 0-13.4h173.1a6.7 6.7 0 0 1 0 13.4zm-49.3 52.5h-124a6.7 6.7 0 0 1 0-13.4h124a6.7 6.7 0 0 1 0 13.4z" opacity=".5"/><path d="M2171.4 469h-173.2a6.7 6.7 0 0 1 0-13.4h173.2a6.7 6.7 0 0 1 0 13.4z" opacity=".6"/></g><linearGradient id="bx" x1="850.1" x2="853.5" y1="456.5" y2="456.5" gradientUnits="userSpaceOnUse"><stop offset="0" stop-color="#dae3fe"/><stop offset="1" stop-color="#e9effd"/></linearGradient><path fill="url(#bx)" d="m850.1 459.2 1.4-5.8a1 1 0 1 1 2 .5l-1.5 5.7a1 1 0 0 1-1.9-.4z"/><linearGradient id="by" x1="855.3" x2="859.5" y1="437.8" y2="437.8" gradientUnits="userSpaceOnUse"><stop offset="0" stop-color="#dae3fe"/><stop offset="1" stop-color="#e9effd"/></linearGradient><path fill="url(#by)" d="m855.4 440.2 2-5.6a1 1 0 1 1 2 .8l-2 5.5a1 1 0 0 1-2-.7z"/><linearGradient id="bz" x1="862.7" x2="867.6" y1="419.8" y2="419.8" gradientUnits="userSpaceOnUse"><stop offset="0" stop-color="#dae3fe"/><stop offset="1" stop-color="#e9effd"/></linearGradient><path fill="url(#bz)" d="m862.8 422 2.6-5.4a1.1 1.1 0 0 1 2 1l-2.6 5.3a1.1 1.1 0 0 1-2-1z"/><linearGradient id="bA" x1="872.1" x2="877.7" y1="402.8" y2="402.8" gradientUnits="userSpaceOnUse"><stop offset="0" stop-color="#dae3fe"/><stop offset="1" stop-color="#e9effd"/></linearGradient><path fill="url(#bA)" d="m872.3 404.6 3.2-5a1.2 1.2 0 1 1 2 1.4l-3.2 4.9a1.2 1.2 0 0 1-2-1.3z"/><linearGradient id="bB" x1="883.4" x2="889.8" y1="387.1" y2="387.1" gradientUnits="userSpaceOnUse"><stop offset="0" stop-color="#dae3fe"/><stop offset="1" stop-color="#e9effd"/></linearGradient><path fill="url(#bB)" d="m883.7 388.5 3.8-4.5a1.3 1.3 0 0 1 2 1.6l-3.8 4.5a1.3 1.3 0 0 1-2-1.6z"/><linearGradient id="bC" x1="896.6" x2="903.6" y1="372.9" y2="372.9" gradientUnits="userSpaceOnUse"><stop offset="0" stop-color="#dae3fe"/><stop offset="1" stop-color="#e9effd"/></linearGradient><path fill="url(#bC)" d="m897 374 4.4-4a1.4 1.4 0 1 1 1.8 2l-4.3 3.9a1.3 1.3 0 0 1-1.9-2z"/><linearGradient id="bD" x1="911.5" x2="919.2" y1="360.7" y2="360.7" gradientUnits="userSpaceOnUse"><stop offset="0" stop-color="#dae3fe"/><stop offset="1" stop-color="#e9effd"/></linearGradient><path fill="url(#bD)" d="m912.1 361.3 4.9-3.5a1.4 1.4 0 0 1 1.6 2.4l-4.8 3.3a1.4 1.4 0 0 1-1.7-2.2z"/><linearGradient id="bE" x1="928.1" x2="936.4" y1="350.7" y2="350.7" gradientUnits="userSpaceOnUse"><stop offset="0" stop-color="#dae3fe"/><stop offset="1" stop-color="#e9effd"/></linearGradient><path fill="url(#bE)" d="m928.9 350.7 5.3-2.7a1.5 1.5 0 1 1 1.3 2.7l-5.2 2.6a1.5 1.5 0 0 1-1.4-2.6z"/><linearGradient id="bF" x1="945.9" x2="954.7" y1="343.2" y2="343.2" gradientUnits="userSpaceOnUse"><stop offset="0" stop-color="#dae3fe"/><stop offset="1" stop-color="#e9effd"/></linearGradient><path fill="url(#bF)" d="m947 342.7 5.6-2a1.6 1.6 0 0 1 1 3l-5.6 1.9a1.5 1.5 0 0 1-1-3z"/><linearGradient id="bG" x1="964.7" x2="973.8" y1="338.2" y2="338.2" gradientUnits="userSpaceOnUse"><stop offset="0" stop-color="#dae3fe"/><stop offset="1" stop-color="#e9effd"/></linearGradient><path fill="url(#bG)" d="m966 337.2 5.8-1.1a1.6 1.6 0 1 1 .7 3.2h-.1l-5.7 1h-.1a1.6 1.6 0 0 1-.6-3.1z"/><linearGradient id="bH" x1="984" x2="993.4" y1="336" y2="336" gradientUnits="userSpaceOnUse"><stop offset="0" stop-color="#dae3fe"/><stop offset="1" stop-color="#e9effd"/></linearGradient><path fill="url(#bH)" d="m985.6 334.5 6-.3a1.7 1.7 0 0 1 .1 3.4l-5.9.2a1.7 1.7 0 0 1-.2-3.3z"/><linearGradient id="bI" x1="1003.5" x2="1013" y1="336.8" y2="336.8" gradientUnits="userSpaceOnUse"><stop offset="0" stop-color="#dae3fe"/><stop offset="1" stop-color="#e9effd"/></linearGradient><path fill="url(#bI)" d="m1005.5 334.7 5.9.6a1.8 1.8 0 1 1-.4 3.5l-5.8-.6h-.1a1.8 1.8 0 0 1 .4-3.5z"/><linearGradient id="bJ" x1="1022.8" x2="1032.2" y1="340.5" y2="340.5" gradientUnits="userSpaceOnUse"><stop offset="0" stop-color="#dae3fe"/><stop offset="1" stop-color="#e9effd"/></linearGradient><path fill="url(#bJ)" d="m1025 338 5.8 1.5a1.9 1.9 0 0 1-1 3.6l-5.6-1.6h-.1a1.8 1.8 0 0 1 1-3.6z"/><linearGradient id="bK" x1="1041.2" x2="1050.4" y1="347.4" y2="347.4" gradientUnits="userSpaceOnUse"><stop offset="0" stop-color="#dae3fe"/><stop offset="1" stop-color="#e9effd"/></linearGradient><path fill="url(#bK)" d="m1043.9 344.4 5.4 2.5a2 2 0 1 1-1.6 3.5h-.1l-5.2-2.6h-.1a1.9 1.9 0 0 1 1.6-3.4z"/><linearGradient id="bL" x1="1058.3" x2="1067.2" y1="357.1" y2="357.1" gradientUnits="userSpaceOnUse"><stop offset="0" stop-color="#dae3fe"/><stop offset="1" stop-color="#e9effd"/></linearGradient><path fill="url(#bL)" d="m1061.4 353.8 5 3.4a2 2 0 0 1-2.3 3.3l-.1-.1-4.8-3.3a2 2 0 0 1 2.2-3.3z"/><linearGradient id="bM" x1="1073.8" x2="1082.2" y1="369.4" y2="369.4" gradientUnits="userSpaceOnUse"><stop offset="0" stop-color="#dae3fe"/><stop offset="1" stop-color="#e9effd"/></linearGradient><path fill="url(#bM)" d="m1077.2 365.9 4.4 4a2 2 0 1 1-2.8 3h-.1l-4.2-4h-.1a2 2 0 0 1 2.8-3z"/><linearGradient id="bN" x1="1087.3" x2="1095.3" y1="383.7" y2="383.7" gradientUnits="userSpaceOnUse"><stop offset="0" stop-color="#dae3fe"/><stop offset="1" stop-color="#e9effd"/></linearGradient><path fill="url(#bN)" d="m1091 380.1 3.8 4.6a2.1 2.1 0 0 1-3.3 2.7l-3.6-4.6h-.1a2.1 2.1 0 0 1 3.3-2.7z"/><linearGradient id="bO" x1="1098.9" x2="1106.4" y1="399.7" y2="399.7" gradientUnits="userSpaceOnUse"><stop offset="0" stop-color="#dae3fe"/><stop offset="1" stop-color="#e9effd"/></linearGradient><path fill="url(#bO)" d="m1102.9 396 3.1 5.1a2.1 2.1 0 1 1-3.6 2.3v-.1l-3.1-5a2.1 2.1 0 0 1 3.6-2.3z"/><linearGradient id="bP" x1="1108.5" x2="1115.4" y1="416.9" y2="416.9" gradientUnits="userSpaceOnUse"><stop offset="0" stop-color="#dae3fe"/><stop offset="1" stop-color="#e9effd"/></linearGradient><path fill="url(#bP)" d="m1112.7 413.3 2.5 5.4a2.2 2.2 0 1 1-4 1.9v-.1l-2.5-5.3a2.2 2.2 0 0 1 4-1.9z"/><linearGradient id="bQ" x1="1116" x2="1122.3" y1="435.2" y2="435.2" gradientUnits="userSpaceOnUse"><stop offset="0" stop-color="#dae3fe"/><stop offset="1" stop-color="#e9effd"/></linearGradient><path fill="url(#bQ)" d="m1120.3 431.6 1.9 5.7a2.2 2.2 0 0 1-4.2 1.4l-1.9-5.6a2.2 2.2 0 0 1 4.2-1.5z"/><linearGradient id="bR" x1="1121.4" x2="1127.1" y1="454.1" y2="454.1" gradientUnits="userSpaceOnUse"><stop offset="0" stop-color="#dae3fe"/><stop offset="1" stop-color="#e9effd"/></linearGradient><path fill="url(#bR)" d="m1125.8 450.7 1.3 5.8a2.3 2.3 0 1 1-4.5 1v-.1l-1.2-5.7a2.3 2.3 0 0 1 4.4-1z"/><linearGradient id="bS" x1="1124.5" x2="1129.7" y1="473.4" y2="473.4" gradientUnits="userSpaceOnUse"><stop offset="0" stop-color="#dae3fe"/><stop offset="1" stop-color="#e9effd"/></linearGradient><path fill="url(#bS)" d="m1129.1 470.3.6 6a2.3 2.3 0 1 1-4.6.3l-.5-5.8v-.1a2.3 2.3 0 0 1 4.5-.4z"/><linearGradient id="bT" x1="1125.3" x2="1130.1" y1="493" y2="493" gradientUnits="userSpaceOnUse"><stop offset="0" stop-color="#dae3fe"/><stop offset="1" stop-color="#e9effd"/></linearGradient><path fill="url(#bT)" d="M1130.1 490.1v6a2.4 2.4 0 0 1-4.8-.1v-.1l.2-5.8v-.1a2.3 2.3 0 0 1 4.6.1z"/><linearGradient id="bU" x1="1123.7" x2="1129.1" y1="512.6" y2="512.6" gradientUnits="userSpaceOnUse"><stop offset="0" stop-color="#dae3fe"/><stop offset="1" stop-color="#e9effd"/></linearGradient><path fill="url(#bU)" d="m1129.1 509.9-.7 5.9a2.4 2.4 0 1 1-4.7-.5v-.1l.7-5.8a2.4 2.4 0 0 1 4.7.5z"/><linearGradient id="bV" x1="1120.2" x2="1126.3" y1="531.9" y2="531.9" gradientUnits="userSpaceOnUse"><stop offset="0" stop-color="#dae3fe"/><stop offset="1" stop-color="#e9effd"/></linearGradient><path fill="url(#bV)" d="m1126.2 529.5-1.2 5.8a2.4 2.4 0 1 1-4.8-1l1.3-5.7v-.1a2.4 2.4 0 0 1 4.7 1z"/><linearGradient id="bW" x1="1115.1" x2="1121.7" y1="550.9" y2="550.9" gradientUnits="userSpaceOnUse"><stop offset="0" stop-color="#dae3fe"/><stop offset="1" stop-color="#e9effd"/></linearGradient><path fill="url(#bW)" d="m1121.6 548.7-1.6 5.7a2.5 2.5 0 0 1-4.8-1.4l1.7-5.6a2.5 2.5 0 0 1 4.7 1.3z"/><linearGradient id="bX" x1="1108.6" x2="1115.7" y1="569.5" y2="569.5" gradientUnits="userSpaceOnUse"><stop offset="0" stop-color="#dae3fe"/><stop offset="1" stop-color="#e9effd"/></linearGradient><path fill="url(#bX)" d="m1115.5 567.6-2 5.5a2.5 2.5 0 1 1-4.7-1.8l2-5.5a2.5 2.5 0 0 1 4.7 1.8z"/><linearGradient id="bY" x1="1100.8" x2="1108.4" y1="587.5" y2="587.5" gradientUnits="userSpaceOnUse"><stop offset="0" stop-color="#dae3fe"/><stop offset="1" stop-color="#e9effd"/></linearGradient><path fill="url(#bY)" d="m1108.1 585.9-2.4 5.4a2.5 2.5 0 1 1-4.6-2.1l2.4-5.4a2.5 2.5 0 0 1 4.6 2z"/><linearGradient id="bZ" x1="1091.9" x2="1099.9" y1="605.1" y2="605.1" gradientUnits="userSpaceOnUse"><stop offset="0" stop-color="#dae3fe"/><stop offset="1" stop-color="#e9effd"/></linearGradient><path fill="url(#bZ)" d="m1099.5 603.7-2.7 5.2a2.6 2.6 0 1 1-4.6-2.4l2.8-5.2a2.6 2.6 0 0 1 4.5 2.4z"/><linearGradient id="ca" x1="1082" x2="1090.3" y1="622.1" y2="622.1" gradientUnits="userSpaceOnUse"><stop offset="0" stop-color="#dae3fe"/><stop offset="1" stop-color="#e9effd"/></linearGradient><path fill="url(#ca)" d="m1090 621-3.1 5a2.6 2.6 0 1 1-4.5-2.7l3-5v-.1a2.6 2.6 0 0 1 4.5 2.7z"/><linearGradient id="cb" x1="1071.2" x2="1079.9" y1="638.6" y2="638.6" gradientUnits="userSpaceOnUse"><stop offset="0" stop-color="#dae3fe"/><stop offset="1" stop-color="#e9effd"/></linearGradient><path fill="url(#cb)" d="m1079.4 637.6-3.3 5a2.7 2.7 0 1 1-4.4-3v-.1l3.3-4.8a2.6 2.6 0 0 1 4.4 3z"/><linearGradient id="cc" x1="1059.7" x2="1068.6" y1="654.5" y2="654.5" gradientUnits="userSpaceOnUse"><stop offset="0" stop-color="#dae3fe"/><stop offset="1" stop-color="#e9effd"/></linearGradient><path fill="url(#cc)" d="m1068 653.8-3.5 4.7a2.7 2.7 0 0 1-4.3-3.2l3.5-4.7a2.7 2.7 0 0 1 4.4 3.2z"/><linearGradient id="cd" x1="1047.5" x2="1056.7" y1="670" y2="670" gradientUnits="userSpaceOnUse"><stop offset="0" stop-color="#dae3fe"/><stop offset="1" stop-color="#e9effd"/></linearGradient><path fill="url(#cd)" d="m1056.1 669.4-3.7 4.6a2.8 2.8 0 0 1-4.3-3.4l3.7-4.6a2.7 2.7 0 0 1 4.3 3.4z"/><linearGradient id="ce" x1="1034.9" x2="1044.3" y1="685" y2="685" gradientUnits="userSpaceOnUse"><stop offset="0" stop-color="#dae3fe"/><stop offset="1" stop-color="#e9effd"/></linearGradient><path fill="url(#ce)" d="m1043.6 684.6-3.8 4.5a2.8 2.8 0 0 1-4.3-3.6l3.9-4.5a2.8 2.8 0 0 1 4.2 3.6z"/><linearGradient id="cf" x1="1021.8" x2="1031.4" y1="699.7" y2="699.7" gradientUnits="userSpaceOnUse"><stop offset="0" stop-color="#dae3fe"/><stop offset="1" stop-color="#e9effd"/></linearGradient><path fill="url(#cf)" d="m1030.7 699.4-4 4.4a2.8 2.8 0 0 1-4.1-3.8l3.9-4.3a2.8 2.8 0 0 1 4.2 3.7z"/><linearGradient id="cg" x1="1008.5" x2="1018.3" y1="714.2" y2="714.2" gradientUnits="userSpaceOnUse"><stop offset="0" stop-color="#dae3fe"/><stop offset="1" stop-color="#e9effd"/></linearGradient><path fill="url(#cg)" d="m1017.5 714-4 4.3a2.9 2.9 0 1 1-4.2-4l4-4.2a2.8 2.8 0 0 1 4.2 3.9z"/><linearGradient id="ch" x1="995.1" x2="1004.8" y1="728.4" y2="728.4" gradientUnits="userSpaceOnUse"><stop offset="0" stop-color="#dae3fe"/><stop offset="1" stop-color="#e9effd"/></linearGradient><path fill="url(#ch)" d="m1004 728.3-4 4.2a2.9 2.9 0 1 1-4.2-4l4.1-4.2a2.9 2.9 0 1 1 4.2 4z"/><linearGradient id="ci" x1="981.5" x2="991.3" y1="742.6" y2="742.6" gradientUnits="userSpaceOnUse"><stop offset="0" stop-color="#dae3fe"/><stop offset="1" stop-color="#e9effd"/></linearGradient><path fill="url(#ci)" d="m990.5 742.5-4 4.2a2.9 2.9 0 0 1-4.2-4l4-4.2a2.9 2.9 0 0 1 4.2 4z"/><linearGradient id="cj" x1="967.9" x2="977.8" y1="756.8" y2="756.8" gradientUnits="userSpaceOnUse"><stop offset="0" stop-color="#dae3fe"/><stop offset="1" stop-color="#e9effd"/></linearGradient><path fill="url(#cj)" d="m977 756.6-4.1 4.3a2.9 2.9 0 1 1-4.2-4l4-4.3a2.9 2.9 0 0 1 4.3 4z"/><linearGradient id="ck" x1="954.4" x2="964.3" y1="771" y2="771" gradientUnits="userSpaceOnUse"><stop offset="0" stop-color="#dae3fe"/><stop offset="1" stop-color="#e9effd"/></linearGradient><path fill="url(#ck)" d="m963.5 770.8-4 4.3a2.9 2.9 0 1 1-4.3-4l4-4.3a2.9 2.9 0 0 1 4.3 4z"/><linearGradient id="cl" x1="941.1" x2="950.9" y1="785.4" y2="785.4" gradientUnits="userSpaceOnUse"><stop offset="0" stop-color="#dae3fe"/><stop offset="1" stop-color="#e9effd"/></linearGradient><path fill="url(#cl)" d="m950.2 785.2-4 4.3a3 3 0 1 1-4.3-3.9l4-4.4a3 3 0 0 1 4.3 4z"/><linearGradient id="cm" x1="928.2" x2="937.9" y1="800" y2="800" gradientUnits="userSpaceOnUse"><stop offset="0" stop-color="#dae3fe"/><stop offset="1" stop-color="#e9effd"/></linearGradient><path fill="url(#cm)" d="m937.2 799.7-3.8 4.5a3 3 0 1 1-4.5-3.8l3.9-4.5a3 3 0 1 1 4.4 3.8z"/><linearGradient id="cn" x1="915.7" x2="925.3" y1="815.1" y2="815.1" gradientUnits="userSpaceOnUse"><stop offset="0" stop-color="#dae3fe"/><stop offset="1" stop-color="#e9effd"/></linearGradient><path fill="url(#cn)" d="m924.6 814.6-3.7 4.6a3 3 0 0 1-4.6-3.7l3.8-4.6a3 3 0 0 1 4.5 3.7z"/><linearGradient id="co" x1="903.8" x2="913.2" y1="830.6" y2="830.6" gradientUnits="userSpaceOnUse"><stop offset="0" stop-color="#dae3fe"/><stop offset="1" stop-color="#e9effd"/></linearGradient><path fill="url(#co)" d="m912.6 830-3.5 4.7a3 3 0 0 1-4.8-3.5l3.6-4.8a3 3 0 1 1 4.7 3.5z"/><linearGradient id="cp" x1="892.6" x2="901.8" y1="846.6" y2="846.6" gradientUnits="userSpaceOnUse"><stop offset="0" stop-color="#dae3fe"/><stop offset="1" stop-color="#e9effd"/></linearGradient><path fill="url(#cp)" d="m901.3 845.8-3.2 4.8a3 3 0 1 1-5-3.2l3.3-5a3 3 0 1 1 4.9 3.4z"/><linearGradient id="cq" x1="882.3" x2="891.3" y1="863.2" y2="863.2" gradientUnits="userSpaceOnUse"><stop offset="0" stop-color="#dae3fe"/><stop offset="1" stop-color="#e9effd"/></linearGradient><path fill="url(#cq)" d="m890.8 862.2-2.9 5a3 3 0 0 1-5.2-3l3-5a3 3 0 1 1 5.2 3z"/><linearGradient id="cr" x1="873.2" x2="881.8" y1="880.4" y2="880.4" gradientUnits="userSpaceOnUse"><stop offset="0" stop-color="#dae3fe"/><stop offset="1" stop-color="#e9effd"/></linearGradient><path fill="url(#cr)" d="m881.4 879.1-2.5 5.2v.1a3 3 0 0 1-5.4-2.7l2.6-5.3a3 3 0 0 1 5.4 2.7z"/><linearGradient id="cs" x1="865.3" x2="873.6" y1="898.3" y2="898.3" gradientUnits="userSpaceOnUse"><stop offset="0" stop-color="#dae3fe"/><stop offset="1" stop-color="#e9effd"/></linearGradient><path fill="url(#cs)" d="m873.3 896.7-2.1 5.4a3 3 0 1 1-5.6-2.2l2.2-5.5a3 3 0 0 1 5.5 2.3z"/><linearGradient id="ct" x1="859" x2="866.8" y1="916.8" y2="916.8" gradientUnits="userSpaceOnUse"><stop offset="0" stop-color="#dae3fe"/><stop offset="1" stop-color="#e9effd"/></linearGradient><path fill="url(#ct)" d="m866.7 914.9-1.7 5.5a3 3 0 1 1-5.8-1.7l1.7-5.7a3 3 0 0 1 5.8 1.8z"/><linearGradient id="cu" x1="854.5" x2="861.8" y1="935.8" y2="935.8" gradientUnits="userSpaceOnUse"><stop offset="0" stop-color="#dae3fe"/><stop offset="1" stop-color="#e9effd"/></linearGradient><path fill="url(#cu)" d="m861.7 933.5-1.2 5.7a3 3 0 1 1-6-1.1l1.3-5.9a3 3 0 0 1 5.9 1.2v.1z"/><linearGradient id="cv" x1="851.8" x2="858.5" y1="955.1" y2="955.1" gradientUnits="userSpaceOnUse"><stop offset="0" stop-color="#dae3fe"/><stop offset="1" stop-color="#e9effd"/></linearGradient><path fill="url(#cv)" d="m858.5 952.5-.6 5.8a3 3 0 1 1-6-.5l.6-6a3 3 0 1 1 6 .7z"/><linearGradient id="cw" x1="851" x2="857.2" y1="974.7" y2="974.7" gradientUnits="userSpaceOnUse"><stop offset="0" stop-color="#dae3fe"/><stop offset="1" stop-color="#e9effd"/></linearGradient><path fill="url(#cw)" d="M857.2 971.8v5.8a3 3 0 0 1-6.2 0v-6a3 3 0 1 1 6.2.1v.1z"/><linearGradient id="cx" x1="851.5" x2="858.1" y1="994.3" y2="994.3" gradientUnits="userSpaceOnUse"><stop offset="0" stop-color="#dae3fe"/><stop offset="1" stop-color="#e9effd"/></linearGradient><path fill="url(#cx)" d="m857.6 991.1.5 5.8a3 3 0 1 1-6.2.6l-.4-6a3 3 0 1 1 6-.5l.1.1z"/><linearGradient id="cy" x1="853.6" x2="860.8" y1="1013.7" y2="1013.7" gradientUnits="userSpaceOnUse"><stop offset="0" stop-color="#dae3fe"/><stop offset="1" stop-color="#e9effd"/></linearGradient><path fill="url(#cy)" d="m859.7 1010.3 1 5.7v.1a3 3 0 1 1-6 1l-1-5.8a3 3 0 0 1 6-1z"/><linearGradient id="cz" x1="857.4" x2="865.1" y1="1032.8" y2="1032.8" gradientUnits="userSpaceOnUse"><stop offset="0" stop-color="#dae3fe"/><stop offset="1" stop-color="#e9effd"/></linearGradient><path fill="url(#cz)" d="m863.5 1029.3 1.4 5.6a3.1 3.1 0 1 1-6 1.6l-1.4-5.8a3.1 3.1 0 0 1 6-1.5z"/><linearGradient id="cA" x1="862.8" x2="871" y1="1051.6" y2="1051.6" gradientUnits="userSpaceOnUse"><stop offset="0" stop-color="#dae3fe"/><stop offset="1" stop-color="#e9effd"/></linearGradient><path fill="url(#cA)" d="m868.9 1047.8 1.9 5.5a3.1 3.1 0 1 1-5.9 2.1l-2-5.6a3.1 3.1 0 1 1 6-2z"/><linearGradient id="cB" x1="869.8" x2="878.4" y1="1069.8" y2="1069.8" gradientUnits="userSpaceOnUse"><stop offset="0" stop-color="#dae3fe"/><stop offset="1" stop-color="#e9effd"/></linearGradient><path fill="url(#cB)" d="m875.8 1066 2.3 5.2a3.1 3.1 0 0 1-5.6 2.6l-2.5-5.4a3.1 3.1 0 1 1 5.7-2.6v.1z"/><linearGradient id="cC" x1="878.2" x2="887.4" y1="1087.4" y2="1087.4" gradientUnits="userSpaceOnUse"><stop offset="0" stop-color="#dae3fe"/><stop offset="1" stop-color="#e9effd"/></linearGradient><path fill="url(#cC)" d="m884.1 1083.3 2.8 5.1v.1a3.1 3.1 0 0 1-5.4 3l-2.9-5.2a3.1 3.1 0 0 1 5.5-3z"/><linearGradient id="cD" x1="888.1" x2="897.7" y1="1104.2" y2="1104.2" gradientUnits="userSpaceOnUse"><stop offset="0" stop-color="#dae3fe"/><stop offset="1" stop-color="#e9effd"/></linearGradient><path fill="url(#cD)" d="m894 1100 3.2 4.8v.1a3.1 3.1 0 1 1-5.2 3.5l-3.3-5a3.1 3.1 0 0 1 5.2-3.5v.1z"/><linearGradient id="cE" x1="899.5" x2="909.5" y1="1120" y2="1120" gradientUnits="userSpaceOnUse"><stop offset="0" stop-color="#dae3fe"/><stop offset="1" stop-color="#e9effd"/></linearGradient><path fill="url(#cE)" d="m905.1 1115.8 3.6 4.5a3.2 3.2 0 1 1-4.9 4l-3.7-4.7a3.2 3.2 0 1 1 5-3.9z"/><linearGradient id="cF" x1="912" x2="922.5" y1="1134.8" y2="1134.8" gradientUnits="userSpaceOnUse"><stop offset="0" stop-color="#dae3fe"/><stop offset="1" stop-color="#e9effd"/></linearGradient><path fill="url(#cF)" d="m917.6 1130.6 4 4.2a3.2 3.2 0 0 1-4.6 4.4l-4.1-4.4a3.2 3.2 0 0 1 4.6-4.3z"/><linearGradient id="cG" x1="925.8" x2="936.5" y1="1148.6" y2="1148.6" gradientUnits="userSpaceOnUse"><stop offset="0" stop-color="#dae3fe"/><stop offset="1" stop-color="#e9effd"/></linearGradient><path fill="url(#cG)" d="m931.2 1144.3 4.2 4h.1a3.2 3.2 0 0 1-4.3 4.7l-4.4-4a3.2 3.2 0 0 1 4.3-4.7z"/><linearGradient id="cH" x1="940.6" x2="951.6" y1="1161.3" y2="1161.3" gradientUnits="userSpaceOnUse"><stop offset="0" stop-color="#dae3fe"/><stop offset="1" stop-color="#e9effd"/></linearGradient><path fill="url(#cH)" d="m945.8 1157 4.6 3.6a3.2 3.2 0 0 1-4 5l-4.6-3.6a3.2 3.2 0 1 1 4-5z"/><linearGradient id="cI" x1="956.3" x2="967.6" y1="1172.8" y2="1172.8" gradientUnits="userSpaceOnUse"><stop offset="0" stop-color="#dae3fe"/><stop offset="1" stop-color="#e9effd"/></linearGradient><path fill="url(#cI)" d="m961.3 1168.6 4.8 3.2a3.1 3.1 0 0 1-3.4 5.3l-5-3.3a3.2 3.2 0 0 1 3.5-5.2h.1z"/><linearGradient id="cJ" x1="972.9" x2="984.3" y1="1183.2" y2="1183.2" gradientUnits="userSpaceOnUse"><stop offset="0" stop-color="#dae3fe"/><stop offset="1" stop-color="#e9effd"/></linearGradient><path fill="url(#cJ)" d="m977.6 1179 5 3h.1a3.1 3.1 0 0 1-3.1 5.4l-5.2-3a3.1 3.1 0 1 1 3.2-5.4z"/><linearGradient id="cK" x1="990.1" x2="1001.7" y1="1192.3" y2="1192.3" gradientUnits="userSpaceOnUse"><stop offset="0" stop-color="#dae3fe"/><stop offset="1" stop-color="#e9effd"/></linearGradient><path fill="url(#cK)" d="m994.6 1188.2 5.3 2.6a3.1 3.1 0 0 1-2.7 5.6l-5.3-2.6a3.1 3.1 0 0 1 2.7-5.6z"/><linearGradient id="cL" x1="1008" x2="1019.7" y1="1200.2" y2="1200.2" gradientUnits="userSpaceOnUse"><stop offset="0" stop-color="#dae3fe"/><stop offset="1" stop-color="#e9effd"/></linearGradient><path fill="url(#cL)" d="m1012.3 1196.3 5.4 2.1a3.1 3.1 0 0 1-2.3 5.8l-5.5-2.2a3.1 3.1 0 1 1 2.3-5.8z"/><linearGradient id="cM" x1="1026.3" x2="1038.2" y1="1206.9" y2="1206.9" gradientUnits="userSpaceOnUse"><stop offset="0" stop-color="#dae3fe"/><stop offset="1" stop-color="#e9effd"/></linearGradient><path fill="url(#cM)" d="m1030.5 1203 5.5 1.8a3 3 0 0 1-1.9 6l-5.6-1.9a3.1 3.1 0 1 1 1.9-5.9z"/><linearGradient id="cN" x1="1045.2" x2="1057.1" y1="1212.3" y2="1212.3" gradientUnits="userSpaceOnUse"><stop offset="0" stop-color="#dae3fe"/><stop offset="1" stop-color="#e9effd"/></linearGradient><path fill="url(#cN)" d="m1049 1208.6 5.7 1.4a3 3 0 0 1-1.4 6l-5.8-1.5a3 3 0 1 1 1.5-6z"/><linearGradient id="cO" x1="1064.3" x2="1076.3" y1="1216.3" y2="1216.3" gradientUnits="userSpaceOnUse"><stop offset="0" stop-color="#dae3fe"/><stop offset="1" stop-color="#e9effd"/></linearGradient><path fill="url(#cO)" d="m1068 1212.8 5.7 1a3 3 0 0 1-1 6l-5.9-1a3 3 0 0 1 1.1-6z"/><linearGradient id="cP" x1="1083.7" x2="1095.7" y1="1219.1" y2="1219.1" gradientUnits="userSpaceOnUse"><stop offset="0" stop-color="#dae3fe"/><stop offset="1" stop-color="#e9effd"/></linearGradient><path fill="url(#cP)" d="m1087.1 1215.8 5.8.6a3 3 0 0 1-.6 6l-6-.6a3 3 0 0 1 .8-6z"/><linearGradient id="cQ" x1="1103.2" x2="1115.2" y1="1220.6" y2="1220.6" gradientUnits="userSpaceOnUse"><stop offset="0" stop-color="#dae3fe"/><stop offset="1" stop-color="#e9effd"/></linearGradient><path fill="url(#cQ)" d="m1106.5 1217.5 5.8.3a3 3 0 0 1-.3 6l-5.9-.3a3 3 0 1 1 .3-6z"/><linearGradient id="cR" x1="1122.8" x2="1134.8" y1="1221" y2="1221" gradientUnits="userSpaceOnUse"><stop offset="0" stop-color="#dae3fe"/><stop offset="1" stop-color="#e9effd"/></linearGradient><path fill="url(#cR)" d="M1125.8 1218h5.9a3 3 0 0 1 .1 6h-6a3 3 0 1 1 0-6z"/><linearGradient id="cS" x1="1142.4" x2="1154.3" y1="1220.2" y2="1220.2" gradientUnits="userSpaceOnUse"><stop offset="0" stop-color="#dae3fe"/><stop offset="1" stop-color="#e9effd"/></linearGradient><path fill="url(#cS)" d="m1145.3 1217.4 5.8-.4a3 3 0 0 1 .4 6l-5.9.4a3 3 0 1 1-.4-6z"/><linearGradient id="cT" x1="1162" x2="1173.8" y1="1218.3" y2="1218.3" gradientUnits="userSpaceOnUse"><stop offset="0" stop-color="#dae3fe"/><stop offset="1" stop-color="#e9effd"/></linearGradient><path fill="url(#cT)" d="m1164.6 1215.7 5.8-.7a3 3 0 0 1 .8 6l-5.9.7a3 3 0 0 1-.7-6z"/><linearGradient id="cU" x1="1181.4" x2="1193.2" y1="1215.5" y2="1215.5" gradientUnits="userSpaceOnUse"><stop offset="0" stop-color="#dae3fe"/><stop offset="1" stop-color="#e9effd"/></linearGradient><path fill="url(#cU)" d="m1183.9 1213 5.7-1a3 3 0 0 1 1 5.9l-5.7 1a3 3 0 0 1-1-5.9z"/><linearGradient id="cV" x1="1200.6" x2="1212.3" y1="1211.6" y2="1211.6" gradientUnits="userSpaceOnUse"><stop offset="0" stop-color="#dae3fe"/><stop offset="1" stop-color="#e9effd"/></linearGradient><path fill="url(#cV)" d="m1203 1209.4 5.7-1.3a3 3 0 0 1 1.3 5.7l-5.8 1.3a3 3 0 1 1-1.3-5.7z"/><linearGradient id="cW" x1="1219.7" x2="1231.3" y1="1206.8" y2="1206.8" gradientUnits="userSpaceOnUse"><stop offset="0" stop-color="#dae3fe"/><stop offset="1" stop-color="#e9effd"/></linearGradient><path fill="url(#cW)" d="m1221.9 1204.8 5.6-1.6a3 3 0 0 1 1.6 5.7l-5.7 1.5a3 3 0 0 1-1.6-5.6z"/><linearGradient id="cX" x1="1238.5" x2="1250" y1="1201.2" y2="1201.2" gradientUnits="userSpaceOnUse"><stop offset="0" stop-color="#dae3fe"/><stop offset="1" stop-color="#e9effd"/></linearGradient><path fill="url(#cX)" d="m1240.6 1199.3 5.5-1.8a3 3 0 0 1 1.9 5.5l-5.7 1.9a3 3 0 0 1-1.8-5.6z"/><linearGradient id="cY" x1="1257.1" x2="1268.4" y1="1194.7" y2="1194.7" gradientUnits="userSpaceOnUse"><stop offset="0" stop-color="#dae3fe"/><stop offset="1" stop-color="#e9effd"/></linearGradient><path fill="url(#cY)" d="m1259 1193 5.5-2a2.9 2.9 0 0 1 2 5.4l-5.5 2a3 3 0 0 1-2-5.4z"/><linearGradient id="cZ" x1="1275.3" x2="1286.6" y1="1187.4" y2="1187.4" gradientUnits="userSpaceOnUse"><stop offset="0" stop-color="#dae3fe"/><stop offset="1" stop-color="#e9effd"/></linearGradient><path fill="url(#cZ)" d="m1277.2 1186 5.3-2.4a2.9 2.9 0 0 1 2.3 5.4l-5.4 2.3a2.9 2.9 0 1 1-2.3-5.4z"/><linearGradient id="da" x1="1293.3" x2="1304.4" y1="1179.5" y2="1179.5" gradientUnits="userSpaceOnUse"><stop offset="0" stop-color="#dae3fe"/><stop offset="1" stop-color="#e9effd"/></linearGradient><path fill="url(#da)" d="m1295 1178 5.3-2.4a2.9 2.9 0 0 1 2.5 5.2l-5.4 2.5a2.9 2.9 0 1 1-2.5-5.2z"/><linearGradient id="db" x1="1310.9" x2="1321.9" y1="1170.8" y2="1170.8" gradientUnits="userSpaceOnUse"><stop offset="0" stop-color="#dae3fe"/><stop offset="1" stop-color="#e9effd"/></linearGradient><path fill="url(#db)" d="m1312.5 1169.6 5.2-2.7a2.9 2.9 0 0 1 2.7 5l-5.3 2.8a2.9 2.9 0 1 1-2.6-5.1z"/><linearGradient id="dc" x1="1328.3" x2="1339.1" y1="1161.5" y2="1161.5" gradientUnits="userSpaceOnUse"><stop offset="0" stop-color="#dae3fe"/><stop offset="1" stop-color="#e9effd"/></linearGradient><path fill="url(#dc)" d="m1329.8 1160.5 5-2.9a2.8 2.8 0 0 1 2.9 5l-5.2 2.9a2.9 2.9 0 1 1-2.8-5z"/><linearGradient id="dd" x1="1345.3" x2="1356" y1="1151.7" y2="1151.7" gradientUnits="userSpaceOnUse"><stop offset="0" stop-color="#dae3fe"/><stop offset="1" stop-color="#e9effd"/></linearGradient><path fill="url(#dd)" d="m1346.7 1150.8 5-3a2.8 2.8 0 0 1 3 4.8l-5.1 3a2.8 2.8 0 0 1-3-4.8z"/><linearGradient id="de" x1="1362" x2="1372.5" y1="1141.3" y2="1141.3" gradientUnits="userSpaceOnUse"><stop offset="0" stop-color="#dae3fe"/><stop offset="1" stop-color="#e9effd"/></linearGradient><path fill="url(#de)" d="m1363.3 1140.6 5-3.2a2.8 2.8 0 0 1 3 4.7l-5 3.2a2.8 2.8 0 0 1-3-4.7z"/><linearGradient id="df" x1="1378.5" x2="1388.8" y1="1130.5" y2="1130.5" gradientUnits="userSpaceOnUse"><stop offset="0" stop-color="#dae3fe"/><stop offset="1" stop-color="#e9effd"/></linearGradient><path fill="url(#df)" d="m1379.7 1129.9 4.8-3.3a2.7 2.7 0 0 1 3 4.5l-4.8 3.3a2.7 2.7 0 1 1-3-4.5z"/><linearGradient id="dg" x1="1394.6" x2="1404.7" y1="1119.3" y2="1119.3" gradientUnits="userSpaceOnUse"><stop offset="0" stop-color="#dae3fe"/><stop offset="1" stop-color="#e9effd"/></linearGradient><path fill="url(#dg)" d="m1395.7 1118.8 4.8-3.4a2.7 2.7 0 0 1 3.1 4.3l-4.8 3.5a2.7 2.7 0 1 1-3.1-4.4z"/><linearGradient id="dh" x1="1410.5" x2="1420.4" y1="1107.7" y2="1107.7" gradientUnits="userSpaceOnUse"><stop offset="0" stop-color="#dae3fe"/><stop offset="1" stop-color="#e9effd"/></linearGradient><path fill="url(#dh)" d="m1411.5 1107.3 4.7-3.5a2.6 2.6 0 0 1 3.2 4.2l-4.7 3.6a2.6 2.6 0 0 1-3.2-4.2z"/><linearGradient id="di" x1="1426.1" x2="1435.9" y1="1095.8" y2="1095.8" gradientUnits="userSpaceOnUse"><stop offset="0" stop-color="#dae3fe"/><stop offset="1" stop-color="#e9effd"/></linearGradient><path fill="url(#di)" d="m1427.1 1095.5 4.6-3.6a2.6 2.6 0 0 1 3.2 4l-4.6 3.7a2.6 2.6 0 1 1-3.2-4z"/><linearGradient id="dj" x1="1441.5" x2="1451.2" y1="1083.5" y2="1083.5" gradientUnits="userSpaceOnUse"><stop offset="0" stop-color="#dae3fe"/><stop offset="1" stop-color="#e9effd"/></linearGradient><path fill="url(#dj)" d="m1442.5 1083.4 4.5-3.7a2.5 2.5 0 0 1 3.2 4l-4.6 3.7a2.5 2.5 0 0 1-3.2-4z"/><linearGradient id="dk" x1="1456.7" x2="1466.2" y1="1071" y2="1071" gradientUnits="userSpaceOnUse"><stop offset="0" stop-color="#dae3fe"/><stop offset="1" stop-color="#e9effd"/></linearGradient><path fill="url(#dk)" d="m1457.6 1071 4.5-3.8a2.5 2.5 0 0 1 3.2 3.8l-4.5 3.8a2.5 2.5 0 0 1-3.2-3.8z"/><linearGradient id="dl" x1="1471.7" x2="1481" y1="1058.3" y2="1058.3" gradientUnits="userSpaceOnUse"><stop offset="0" stop-color="#dae3fe"/><stop offset="1" stop-color="#e9effd"/></linearGradient><path fill="url(#dl)" d="m1472.5 1058.4 4.5-3.8a2.4 2.4 0 0 1 3.2 3.7l-4.5 3.8a2.5 2.5 0 0 1-3.2-3.7z"/><linearGradient id="dm" x1="1486.5" x2="1495.8" y1="1045.5" y2="1045.5" gradientUnits="userSpaceOnUse"><stop offset="0" stop-color="#dae3fe"/><stop offset="1" stop-color="#e9effd"/></linearGradient><path fill="url(#dm)" d="m1487.4 1045.6 4.4-3.9a2.4 2.4 0 0 1 3.2 3.6l-4.5 4a2.4 2.4 0 1 1-3.1-3.7z"/><linearGradient id="dn" x1="1501.3" x2="1510.5" y1="1032.5" y2="1032.5" gradientUnits="userSpaceOnUse"><stop offset="0" stop-color="#dae3fe"/><stop offset="1" stop-color="#e9effd"/></linearGradient><path fill="url(#dn)" d="m1502.1 1032.7 4.5-3.9a2.4 2.4 0 0 1 3 3.6l-4.3 3.9a2.4 2.4 0 0 1-3.2-3.6z"/><linearGradient id="do" x1="1516.2" x2="1525.2" y1="1019.7" y2="1019.7" gradientUnits="userSpaceOnUse"><stop offset="0" stop-color="#dae3fe"/><stop offset="1" stop-color="#e9effd"/></linearGradient><path fill="url(#do)" d="m1517 1019.9 4.5-3.9a2.3 2.3 0 1 1 3 3.5l-4.5 3.9a2.3 2.3 0 0 1-3-3.5z"/><linearGradient id="dp" x1="1531.2" x2="1540.2" y1="1007.1" y2="1007.1" gradientUnits="userSpaceOnUse"><stop offset="0" stop-color="#dae3fe"/><stop offset="1" stop-color="#e9effd"/></linearGradient><path fill="url(#dp)" d="m1532 1007.2 4.6-3.7a2.3 2.3 0 0 1 2.8 3.5l-4.5 3.7a2.3 2.3 0 1 1-3-3.5z"/><linearGradient id="dq" x1="1546.5" x2="1555.6" y1="994.8" y2="994.8" gradientUnits="userSpaceOnUse"><stop offset="0" stop-color="#dae3fe"/><stop offset="1" stop-color="#e9effd"/></linearGradient><path fill="url(#dq)" d="m1547.3 994.9 4.7-3.6a2.2 2.2 0 0 1 2.7 3.5l-4.6 3.6a2.2 2.2 0 0 1-2.8-3.5z"/><linearGradient id="dr" x1="1562.1" x2="1571.3" y1="983.1" y2="983.1" gradientUnits="userSpaceOnUse"><stop offset="0" stop-color="#dae3fe"/><stop offset="1" stop-color="#e9effd"/></linearGradient><path fill="url(#dr)" d="m1563 983 4.9-3.3a2.2 2.2 0 0 1 2.5 3.5l-4.8 3.4a2.2 2.2 0 0 1-2.5-3.5z"/><linearGradient id="ds" x1="1578.3" x2="1587.5" y1="972.1" y2="972.1" gradientUnits="userSpaceOnUse"><stop offset="0" stop-color="#dae3fe"/><stop offset="1" stop-color="#e9effd"/></linearGradient><path fill="url(#ds)" d="m1579.3 972 5-3.3a2.1 2.1 0 0 1 2.3 3.6l-5 3.2a2.1 2.1 0 0 1-2.3-3.6z"/><linearGradient id="dt" x1="1595" x2="1604.3" y1="962" y2="962" gradientUnits="userSpaceOnUse"><stop offset="0" stop-color="#dae3fe"/><stop offset="1" stop-color="#e9effd"/></linearGradient><path fill="url(#dt)" d="m1596.1 961.6 5.2-2.9a2 2 0 0 1 2 3.6l-5.1 3a2 2 0 0 1-2.1-3.7z"/><linearGradient id="du" x1="1612.4" x2="1621.7" y1="952.9" y2="952.9" gradientUnits="userSpaceOnUse"><stop offset="0" stop-color="#dae3fe"/><stop offset="1" stop-color="#e9effd"/></linearGradient><path fill="url(#du)" d="m1613.5 952.4 5.4-2.5a2 2 0 0 1 1.7 3.5l-5.3 2.6a2 2 0 1 1-1.8-3.6z"/><linearGradient id="dv" x1="1630.4" x2="1639.7" y1="945.1" y2="945.1" gradientUnits="userSpaceOnUse"><stop offset="0" stop-color="#dae3fe"/><stop offset="1" stop-color="#e9effd"/></linearGradient><path fill="url(#dv)" d="m1631.6 944.4 5.5-2.1a1.9 1.9 0 0 1 1.4 3.5l-5.5 2.2a2 2 0 0 1-1.4-3.6z"/><linearGradient id="dw" x1="1648.9" x2="1658.2" y1="938.8" y2="938.8" gradientUnits="userSpaceOnUse"><stop offset="0" stop-color="#dae3fe"/><stop offset="1" stop-color="#e9effd"/></linearGradient><path fill="url(#dw)" d="m1650.2 937.9 5.7-1.7a1.8 1.8 0 0 1 1 3.5l-5.6 1.7a1.8 1.8 0 1 1-1-3.5z"/><linearGradient id="dx" x1="1667.9" x2="1677.2" y1="934.1" y2="934.1" gradientUnits="userSpaceOnUse"><stop offset="0" stop-color="#dae3fe"/><stop offset="1" stop-color="#e9effd"/></linearGradient><path fill="url(#dx)" d="m1669.4 933 5.8-1.1a1.7 1.7 0 0 1 .6 3.4l-5.7 1.1a1.8 1.8 0 0 1-.8-3.4z"/><linearGradient id="dy" x1="1687.4" x2="1696.6" y1="931.4" y2="931.4" gradientUnits="userSpaceOnUse"><stop offset="0" stop-color="#dae3fe"/><stop offset="1" stop-color="#e9effd"/></linearGradient><path fill="url(#dy)" d="m1688.9 930 6-.5a1.6 1.6 0 0 1 .2 3.3l-5.8.5h-.1a1.7 1.7 0 0 1-.3-3.3z"/><linearGradient id="dz" x1="1707" x2="1716.1" y1="930.8" y2="930.8" gradientUnits="userSpaceOnUse"><stop offset="0" stop-color="#dae3fe"/><stop offset="1" stop-color="#e9effd"/></linearGradient><path fill="url(#dz)" d="m1708.7 929.1 5.9.2a1.6 1.6 0 0 1-.1 3.1l-5.9-.1a1.6 1.6 0 0 1 0-3.2z"/><linearGradient id="dA" x1="1726.6" x2="1735.5" y1="932.6" y2="932.6" gradientUnits="userSpaceOnUse"><stop offset="0" stop-color="#dae3fe"/><stop offset="1" stop-color="#e9effd"/></linearGradient><path fill="url(#dA)" d="m1728.4 930.6 5.8 1a1.5 1.5 0 0 1-.4 3l-5.8-1h-.1a1.5 1.5 0 0 1 .5-3z"/><linearGradient id="dB" x1="1745.9" x2="1754.4" y1="937" y2="937" gradientUnits="userSpaceOnUse"><stop offset="0" stop-color="#dae3fe"/><stop offset="1" stop-color="#e9effd"/></linearGradient><path fill="url(#dB)" d="m1747.7 934.8 5.7 1.8a1.4 1.4 0 0 1-.8 2.7l-5.7-1.7a1.4 1.4 0 1 1 .8-2.8z"/><linearGradient id="dC" x1="1764.4" x2="1772.5" y1="944" y2="944" gradientUnits="userSpaceOnUse"><stop offset="0" stop-color="#dae3fe"/><stop offset="1" stop-color="#e9effd"/></linearGradient><path fill="url(#dC)" d="m1766.3 941.5 5.4 2.5a1.3 1.3 0 0 1-1.1 2.4l-5.4-2.4a1.3 1.3 0 1 1 1.1-2.5z"/><linearGradient id="dD" x1="1781.8" x2="1789.3" y1="953.4" y2="953.4" gradientUnits="userSpaceOnUse"><stop offset="0" stop-color="#dae3fe"/><stop offset="1" stop-color="#e9effd"/></linearGradient><path fill="url(#dD)" d="m1783.8 950.8 5 3.2a1.2 1.2 0 0 1-1.4 2.1l-5-3.2a1.3 1.3 0 0 1 1.4-2.1z"/><linearGradient id="dE" x1="1797.8" x2="1804.5" y1="965.3" y2="965.3" gradientUnits="userSpaceOnUse"><stop offset="0" stop-color="#dae3fe"/><stop offset="1" stop-color="#e9effd"/></linearGradient><path fill="url(#dE)" d="m1799.7 962.5 4.4 4a1.1 1.1 0 0 1-1.5 1.7l-4.4-4a1.2 1.2 0 0 1 1.5-1.7z"/><linearGradient id="dF" x1="1811.6" x2="1817.4" y1="979.6" y2="979.6" gradientUnits="userSpaceOnUse"><stop offset="0" stop-color="#dae3fe"/><stop offset="1" stop-color="#e9effd"/></linearGradient><path fill="url(#dF)" d="m1813.6 976.6 3.6 4.7a1 1 0 0 1-1.7 1.3l-3.6-4.6a1.1 1.1 0 0 1 1.7-1.4z"/><linearGradient id="dG" x1="1822.8" x2="1827.5" y1="996" y2="996" gradientUnits="userSpaceOnUse"><stop offset="0" stop-color="#dae3fe"/><stop offset="1" stop-color="#e9effd"/></linearGradient><path fill="url(#dG)" d="m1824.7 993 2.7 5.2a1 1 0 0 1-1.8 1v-.1l-2.7-5.2a1 1 0 1 1 1.8-1z"/></svg>