<svg width="3483" height="3483" viewBox="0 0 3483 3483" fill="none" xmlns="http://www.w3.org/2000/svg">
<g clip-path="url(#clip0_11_2)">
<path d="M479.867 2695.63C473.868 2677.14 467.933 2657.98 462.226 2638.69L476.29 2634.48C481.959 2653.65 487.856 2672.68 493.815 2691.05L479.867 2695.63ZM2995.85 2671.75L2981.28 2669.94C2983.7 2650.26 2986 2630.44 2988.11 2611.03L3002.69 2612.64C3000.58 2632.11 2998.27 2652 2995.85 2671.75ZM446.028 2581.34C440.893 2562.27 435.912 2542.85 431.225 2523.61L445.476 2520.1C450.136 2539.22 455.086 2558.52 460.192 2577.48L446.028 2581.34ZM3008.7 2553.42L2994.1 2552.04C2995.95 2532.28 2997.67 2512.4 2999.2 2492.96L3013.83 2494.12C3012.29 2513.64 3010.57 2533.59 3008.7 2553.42ZM417.819 2465.54C413.582 2446.11 409.549 2426.47 405.834 2407.16L420.24 2404.36C423.932 2423.55 427.939 2443.07 432.15 2462.38L417.819 2465.54ZM3018.04 2434.74L3003.4 2433.81C3004.64 2414.06 3005.73 2394.15 3006.63 2374.61L3021.29 2375.3C3020.38 2394.92 3019.29 2414.92 3018.04 2434.74ZM395.319 2348.49C392.057 2328.82 389.036 2308.99 386.342 2289.55L400.873 2287.51C403.55 2306.83 406.55 2326.52 409.791 2346.06L395.319 2348.49ZM3023.53 2315.8L3008.86 2315.37C3009.44 2295.54 3009.83 2275.6 3010.04 2256.11L3024.71 2256.26C3024.5 2275.85 3024.11 2295.88 3023.53 2315.8ZM378.977 2230.38C376.79 2210.51 374.886 2190.54 373.317 2171.01L387.942 2169.82C389.499 2189.21 391.389 2209.04 393.56 2228.75L378.977 2230.38ZM3010.1 2196.84C3009.93 2176.99 3009.55 2157.06 3008.98 2137.59L3023.65 2137.16C3024.22 2156.72 3024.6 2176.76 3024.77 2196.71L3010.1 2196.84ZM369.472 2111.48C368.498 2091.5 367.854 2071.44 367.553 2051.86L382.223 2051.63C382.519 2071.05 383.16 2090.94 384.125 2110.75L369.472 2111.48ZM3006.63 2078.4C3005.62 2058.58 3004.38 2038.69 3002.94 2019.28L3017.57 2018.19C3019.02 2037.7 3020.26 2057.71 3021.28 2077.64L3006.63 2078.4ZM382.362 1992.48L367.692 1992.18C368.101 1972.15 368.888 1952.08 370.034 1932.55L384.682 1933.41C383.547 1952.77 382.767 1972.64 382.362 1992.48ZM2997.85 1960.28C2995.9 1940.47 2993.68 1920.67 2991.26 1901.45L3005.82 1899.6C3008.25 1918.95 3010.48 1938.88 3012.46 1958.82L2997.85 1960.28ZM389.335 1874.5L374.736 1873.03C376.73 1853.07 379.16 1833.13 381.958 1813.74L396.479 1815.86C393.71 1835.03 391.307 1854.76 389.335 1874.5ZM2983.04 1842.84C2979.99 1823.14 2976.64 1803.53 2973.08 1784.53L2987.5 1781.8C2991.09 1800.95 2994.47 1820.72 2997.54 1840.57L2983.04 1842.84ZM1247.76 1840.76C1227.37 1837.52 1212.62 1828.19 1192.19 1812.07L1201.47 1800.63C1219.36 1814.72 1232.29 1823.17 1249.32 1826.08L1247.76 1840.76ZM1298.66 1805.65L1285.59 1798.93C1292.31 1785.71 1298.25 1767.35 1303.24 1744.37L1317.58 1747.52C1312.24 1772.08 1306.05 1791.09 1298.66 1805.65ZM1149.13 1769.74C1137.44 1756.65 1124.95 1741.59 1110.94 1723.68L1122.47 1714.56C1136.28 1732.21 1148.57 1747.03 1160.05 1759.88L1149.13 1769.74ZM406.278 1757.64L391.875 1754.83C395.676 1735.13 399.976 1715.49 404.657 1696.45L418.901 1700C414.279 1718.79 410.031 1738.19 406.278 1757.64ZM2961.22 1726.6C2956.88 1707.1 2952.19 1687.78 2947.29 1669.16L2961.48 1665.39C2966.43 1684.19 2971.16 1703.69 2975.54 1723.37L2961.22 1726.6ZM1327.45 1688.13L1312.9 1686.25C1315.15 1668.63 1317.17 1649.34 1319.07 1627.28L1333.69 1628.55C1331.77 1650.82 1329.73 1670.31 1327.45 1688.13ZM1075.01 1676.14C1063.08 1659.94 1050.71 1642.81 1040.05 1628.03L1051.93 1619.37C1062.57 1634.12 1074.91 1651.21 1086.8 1667.36L1075.01 1676.14ZM2149.22 1674.92C2137.79 1674.92 2126.58 1671.49 2115.9 1664.72L2123.72 1652.23C2139.77 1662.42 2155.56 1662.45 2172.6 1654.32L2178.92 1667.64C2168.84 1672.47 2158.84 1674.92 2149.22 1674.92ZM434.508 1643.13L420.477 1638.81C426.307 1619.64 432.702 1600.57 439.487 1582.13L453.247 1587.25C446.561 1605.42 440.257 1624.22 434.508 1643.13ZM2226.9 1629.06L2216.12 1619.05C2227.24 1606.93 2239.17 1591.98 2252.58 1573.35L2264.46 1582C2250.71 1601.11 2238.42 1616.5 2226.9 1629.06ZM2074.18 1618.91C2064.68 1604.18 2055.27 1586.83 2045.41 1565.87L2058.67 1559.56C2068.25 1579.92 2077.35 1596.71 2086.49 1610.88L2074.18 1618.91ZM2931.08 1612.38C2925.17 1593.26 2918.87 1574.43 2912.34 1556.43L2926.12 1551.37C2932.73 1569.6 2939.11 1588.65 2945.09 1607.99L2931.08 1612.38ZM1005.28 1579.92C991.856 1561.47 980.669 1546.32 970.072 1532.25L981.769 1523.34C992.415 1537.48 1003.65 1552.69 1017.12 1571.21L1005.28 1579.92ZM1338.1 1568.95L1323.46 1568C1324.57 1550.71 1325.71 1531.28 1326.92 1508.59L1341.57 1509.38C1340.35 1532.13 1339.22 1551.61 1338.1 1568.95ZM475.242 1532.63L461.818 1526.67C469.873 1508.32 478.457 1490.3 487.577 1472.68L500.588 1479.51C491.612 1496.84 483.167 1514.57 475.242 1532.63ZM2298.08 1532.62L2285.81 1524.51C2296.24 1508.57 2307.01 1491.68 2317.91 1474.61L2330.26 1482.59C2319.33 1499.7 2308.55 1516.61 2298.08 1532.62ZM2021.79 1510.8C2015.14 1494.03 2008.28 1475.74 2000.79 1454.87L2014.6 1449.87C2022.02 1470.58 2028.83 1488.72 2035.42 1505.33L2021.79 1510.8ZM2890.75 1501.59C2882.87 1483.11 2874.52 1465.16 2865.95 1448.24L2879.03 1441.54C2887.74 1458.75 2896.22 1477 2904.24 1495.77L2890.75 1501.59ZM933.845 1485.49C920.531 1468.87 908.139 1454.07 895.959 1440.26L906.935 1430.47C919.27 1444.45 931.811 1459.42 945.271 1476.23L933.845 1485.49ZM1344.62 1449.86L1329.97 1449.11C1330.96 1429.4 1331.94 1409.67 1332.99 1389.6L1347.64 1390.37C1346.59 1410.43 1345.61 1430.15 1344.62 1449.86ZM2362.43 1432.75L2350.18 1424.61C2362.44 1405.96 2373.41 1389.82 2383.7 1375.28L2395.65 1383.84C2385.46 1398.24 2374.59 1414.23 2362.43 1432.75ZM529.685 1428.58L517.318 1420.64C528.849 1402.48 540.736 1386.08 552.653 1371.89L563.862 1381.41C552.364 1395.1 540.865 1410.97 529.685 1428.58ZM1981.2 1398.56C1974.47 1378.73 1967.87 1358.88 1962.3 1342.09L1976.22 1337.42C1981.78 1354.19 1988.37 1374 1995.09 1393.79L1981.2 1398.56ZM855.617 1397.53C840.621 1382.84 825.875 1369.87 811.79 1358.97L820.738 1347.27C835.271 1358.52 850.45 1371.87 865.852 1386.95L855.617 1397.53ZM2837.46 1396.9C2826.95 1379.64 2815.93 1363.32 2804.7 1348.39L2816.4 1339.49C2827.91 1354.8 2839.21 1371.52 2849.97 1389.18L2837.46 1396.9ZM605.015 1341.26L596.116 1329.53C613.637 1316.09 631.874 1306.39 650.318 1300.71L654.611 1314.83C637.835 1319.99 621.15 1328.88 605.015 1341.26ZM2431.04 1336.75L2419.65 1327.46C2433.41 1310.38 2446.44 1295.69 2459.51 1282.54L2469.89 1292.97C2457.19 1305.75 2444.48 1320.07 2431.04 1336.75ZM1350.93 1330.95L1336.28 1330.07C1337.55 1308.62 1338.82 1289.14 1340.14 1270.52L1354.78 1271.57C1353.45 1290.13 1352.2 1309.55 1350.93 1330.95ZM763.281 1327.86C744.972 1318.69 726.963 1312.84 709.756 1310.47L711.748 1295.85C730.541 1298.44 750.078 1304.76 769.818 1314.64L763.281 1327.86ZM2766.95 1304C2752.83 1289.45 2738.2 1276.6 2723.49 1265.82L2732.12 1253.89C2747.51 1265.15 2762.76 1278.55 2777.46 1293.69L2766.95 1304ZM1943.59 1285.62C1936.29 1263.66 1930.27 1245.76 1924.66 1229.28L1938.54 1224.49C1944.17 1241.01 1950.19 1258.95 1957.5 1280.94L1943.59 1285.62ZM2513.8 1255.29L2505.39 1243.2C2523.43 1230.51 2541.66 1221.1 2559.56 1215.26L2564.09 1229.29C2547.58 1234.69 2530.65 1243.44 2513.8 1255.29ZM2673.89 1237.22C2655.72 1229.51 2637.33 1224.73 2619.22 1223.04L2620.59 1208.34C2640.19 1210.18 2660.04 1215.32 2679.59 1223.62L2673.89 1237.22ZM1359.47 1212.32L1344.85 1211.02C1346.68 1190.31 1348.67 1170.31 1350.77 1151.58L1365.35 1153.23C1363.26 1171.85 1361.29 1191.73 1359.47 1212.32ZM1905.14 1173.15C1898.05 1153.24 1891.37 1135.05 1884.71 1117.53L1898.42 1112.26C1905.11 1129.88 1911.82 1148.17 1918.95 1168.17L1905.14 1173.15ZM1372.82 1094.39L1358.29 1092.28C1361.26 1071.62 1364.52 1051.74 1367.99 1033.22L1382.41 1035.95C1378.98 1054.27 1375.75 1073.93 1372.82 1094.39ZM1862.91 1062.43C1855.03 1043.35 1847.08 1025.11 1839.29 1008.19L1852.6 1001.98C1860.47 1019.08 1868.5 1037.51 1876.46 1056.76L1862.91 1062.43ZM1394.87 978.199L1380.63 974.622C1385.75 954.015 1391.39 934.605 1397.4 916.93L1411.29 921.705C1405.41 938.986 1399.89 957.993 1394.87 978.199ZM1813.23 955.226C1803.58 936.945 1793.72 919.784 1783.93 904.221L1796.33 896.33C1806.32 912.209 1816.37 929.695 1826.19 948.305L1813.23 955.226ZM1433.32 867.637L1420.16 861.104C1429.8 841.471 1440.48 824.112 1451.92 809.506L1463.44 818.636C1452.64 832.438 1442.5 848.923 1433.32 867.637ZM1750.3 856.357C1737.48 840.193 1724.25 825.872 1710.97 813.797L1720.82 802.851C1734.68 815.461 1748.46 830.367 1761.77 847.155L1750.3 856.357ZM1504.38 780.389L1496.47 767.96C1513.85 756.771 1533 749.495 1553.39 746.338L1555.62 760.923C1537.27 763.767 1520.03 770.315 1504.38 780.389ZM1664.68 780.381C1647.59 771.112 1629.78 764.777 1611.76 761.55L1614.34 747.021C1633.9 750.524 1653.18 757.377 1671.64 767.391L1664.68 780.381Z" fill="#DCE6FF"/>
<path d="M226.052 2775.68C226.052 2775.68 204.757 2888.01 292.978 2916.13C413.647 2954.6 1095.91 3057.81 923.835 3134.61C826.699 3177.96 999.472 3234.7 1472.59 3256.38C1945.72 3278.05 2757.56 3193.12 2484.55 3067.44C2211.54 2941.76 3323.85 3037.09 3256.1 2775.68L226.052 2775.68Z" fill="#C3D6F4"/>
<path d="M759.47 2775.37C759.47 2775.37 416.494 1801.9 673.658 1594.79C845.547 1456.35 1013.36 1804.89 1230.82 1643.44C1424.42 1499.71 1300.49 1163.89 1488.98 1001.99C1720.82 802.853 2108.07 1791.51 2380.13 1638.15C2808.08 1396.9 3069.71 1777.48 2772.53 2777.15L759.47 2775.37Z" fill="#D4E1FC"/>
<path d="M3097.81 2362.89C2976.05 2344.74 2987.07 2617.53 2813.51 2617.53C2654.83 2617.53 2569.92 2008.05 2395.78 2132.01C1695.73 2630.36 2240.42 1782.33 1769.69 1765.75C1556.84 1758.26 1415.01 1986.53 1362.71 2390.69C1286.89 2756.07 1111.07 2112.01 930.126 2171.89C815.126 2209.95 828.297 2617.54 669.615 2617.54C496.057 2617.54 507.492 2388.14 385.733 2406.3C254.642 2425.84 223.92 2781.5 223.92 2781.5H3259.2C3259.21 2781.5 3228.9 2382.43 3097.81 2362.89Z" fill="#EEF7FF"/>
<path d="M2981.01 2649.08C2868.99 2641.32 2887.27 2711.42 2727.6 2711.42C2581.62 2711.42 2585.63 2554.33 2487.94 2520.94C2308.04 2459.46 2159.72 2770.63 2089.97 2614.46C1957.5 2200.07 1571.14 1992.26 1392.9 2614.46C1323.16 2770.63 1160.05 2491.97 994.935 2520.94C893.301 2538.78 901.254 2711.42 755.27 2711.42C595.6 2711.42 613.879 2641.32 501.866 2649.08C381.263 2657.44 345.242 2781.5 345.242 2781.5H3137.63C3137.63 2781.5 3101.61 2657.44 2981.01 2649.08Z" fill="#D4E1FC"/>
<path d="M1010.48 2690.75H1498.37V2628.83H1010.48V2690.75Z" fill="#FF857D"/>
<path d="M1060.24 2752.68H1548.13V2690.75H1060.24V2752.68Z" fill="#FF857D"/>
<path d="M1566.79 2504.97H1078.9V2566.9H1566.79V2504.97Z" fill="#FF857D"/>
<path d="M1517.03 2566.9H1029.14V2628.82H1517.03V2566.9Z" fill="#FF857D"/>
<path d="M1047.8 2814.61H1535.69V2752.68H1047.8V2814.61Z" fill="#FF857D"/>
<path d="M1010.48 2876.54H1498.37V2814.61H1010.48V2876.54Z" fill="#FF857D"/>
<path d="M998.039 2938.47H1485.93V2876.54H998.039V2938.47Z" fill="#FF857D"/>
<path d="M1060.24 3000.4H1548.13V2938.47H1060.24V3000.4Z" fill="#FF857D"/>
<path d="M1406.94 2690.75H1436.16V2628.83H1406.94V2690.75Z" fill="#F9B233"/>
<path d="M1295.52 2690.75H1324.74V2628.83H1295.52V2690.75Z" fill="#F9B233"/>
<path d="M1184.1 2690.75H1213.32V2628.83H1184.1V2690.75Z" fill="#F9B233"/>
<path d="M1072.68 2690.75H1101.91V2628.83H1072.68V2690.75Z" fill="#F9B233"/>
<path d="M1456.7 2752.68H1485.92V2690.75H1456.7V2752.68Z" fill="#F9B233"/>
<path d="M1345.28 2752.68H1374.51V2690.75H1345.28V2752.68Z" fill="#F9B233"/>
<path d="M1233.86 2752.68H1263.09V2690.75H1233.86V2752.68Z" fill="#F9B233"/>
<path d="M1122.45 2752.68H1151.67V2690.75H1122.45V2752.68Z" fill="#F9B233"/>
<path d="M1170.33 2504.97H1141.11V2566.9H1170.33V2504.97Z" fill="#F9B233"/>
<path d="M1281.75 2504.97H1252.53V2566.9H1281.75V2504.97Z" fill="#F9B233"/>
<path d="M1393.17 2504.97H1363.95V2566.9H1393.17V2504.97Z" fill="#F9B233"/>
<path d="M1504.59 2504.97H1475.36V2566.9H1504.59V2504.97Z" fill="#F9B233"/>
<path d="M1120.57 2566.9H1091.35V2628.82H1120.57V2566.9Z" fill="#F9B233"/>
<path d="M1231.98 2566.9H1202.76V2628.82H1231.98V2566.9Z" fill="#F9B233"/>
<path d="M1343.4 2566.9H1314.18V2628.82H1343.4V2566.9Z" fill="#F9B233"/>
<path d="M1454.82 2566.9H1425.6V2628.82H1454.82V2566.9Z" fill="#F9B233"/>
<path d="M1444.26 2814.61H1473.48V2752.68H1444.26V2814.61Z" fill="#F9B233"/>
<path d="M1332.84 2814.61H1362.06V2752.68H1332.84V2814.61Z" fill="#F9B233"/>
<path d="M1221.42 2814.61H1250.65V2752.68H1221.42V2814.61Z" fill="#F9B233"/>
<path d="M1110.01 2814.61H1139.23V2752.68H1110.01V2814.61Z" fill="#F9B233"/>
<path d="M1406.94 2876.54H1436.16V2814.61H1406.94V2876.54Z" fill="#F9B233"/>
<path d="M1295.52 2876.54H1324.74V2814.61H1295.52V2876.54Z" fill="#F9B233"/>
<path d="M1184.1 2876.54H1213.32V2814.61H1184.1V2876.54Z" fill="#F9B233"/>
<path d="M1072.68 2876.54H1101.91V2814.61H1072.68V2876.54Z" fill="#F9B233"/>
<path d="M1394.5 2938.47H1423.72V2876.54H1394.5V2938.47Z" fill="#F9B233"/>
<path d="M1283.08 2938.47H1312.3V2876.54H1283.08V2938.47Z" fill="#F9B233"/>
<path d="M1171.66 2938.47H1200.88V2876.54H1171.66V2938.47Z" fill="#F9B233"/>
<path d="M1060.24 2938.47H1089.46V2876.54H1060.24V2938.47Z" fill="#F9B233"/>
<path d="M1456.7 3000.4H1485.92V2938.47H1456.7V3000.4Z" fill="#F9B233"/>
<path d="M1345.28 3000.4H1374.51V2938.47H1345.28V3000.4Z" fill="#F9B233"/>
<path d="M1233.86 3000.4H1263.09V2938.47H1233.86V3000.4Z" fill="#F9B233"/>
<path d="M1122.45 3000.4H1151.67V2938.47H1122.45V3000.4Z" fill="#F9B233"/>
<path d="M1264.53 1382.01C1264.53 1382.01 1283.35 1359.85 1311.79 1384.18C1340.23 1408.5 1328.88 1416.12 1366.42 1440.71C1403.95 1465.3 1376.46 1522.2 1350.19 1534.83C1323.92 1547.47 1360.6 1575.18 1306.89 1592.22C1253.18 1609.26 1093.77 1487.32 1264.53 1382.01Z" fill="#8C4225"/>
<path d="M1557.78 1932.25C1557.09 1934.07 1555 1934.91 1553.23 1934.11C1548 1931.99 1542.53 1930.31 1536.96 1929.45C1541.26 1938.75 1548.28 1946.88 1548.27 1946.95C1558.16 1954.89 1568.47 1962.28 1579.11 1969.2C1582.57 1971.34 1579.47 1976.93 1575.8 1975.04C1564.67 1969.62 1553.73 1963.69 1543.15 1957.24C1543.1 1957.29 1543.06 1957.33 1543.01 1957.38C1551.41 1967.67 1560.39 1977.53 1570.14 1986.56C1576.13 2006.67 1537.37 1966.48 1534.19 1963.51C1534.17 1963.53 1534.14 1963.54 1534.11 1963.55C1540.36 1974.55 1547.95 1984.79 1556.54 1994.09C1560.5 2014.79 1524.9 1971.26 1522.67 1967.04C1522.62 1967.05 1522.57 1967.06 1522.53 1967.07C1526.18 1976.44 1531.04 1985.34 1536.3 1993.93C1537.1 2013.39 1512.2 1972.32 1510.47 1968.34C1507.32 1964.59 1497.07 1951.33 1490.66 1928.39C1488.66 1921.24 1507.9 1910.06 1514.99 1911.78C1521.64 1913.38 1530.11 1917.31 1533.09 1918.87C1538.46 1920.39 1559.26 1925.5 1557.78 1932.25Z" fill="#F99370"/>
<path d="M1308.77 1664.75C1308.23 1664.71 1307.13 1664.59 1306.62 1664.54C1346.72 1678.47 1365.74 1722.76 1380.77 1759.52C1391.67 1786.01 1404.53 1811.68 1418.94 1836.43C1439.81 1871.52 1463.56 1905.19 1492.49 1934.14C1507.77 1947.67 1526.76 1930.67 1518.77 1912.9C1488.05 1855.34 1466.3 1792.98 1452.58 1729.28C1437.11 1661.87 1393.79 1586.93 1318.95 1574.38C1257.64 1566.83 1247.22 1658.53 1308.77 1664.75Z" fill="#F99370"/>
<path d="M1329.54 1650.87C1331.03 1656.87 1332.67 1662.94 1334.39 1669.09C1348.13 1718.01 1368.25 1770.34 1387.49 1812.15C1403.24 1846.35 1418.4 1873.49 1429.02 1886.01C1441.93 1901.24 1452.84 1910.28 1461.33 1915.63C1474.73 1924.07 1482.17 1923.37 1482.17 1923.37C1491.94 1901.28 1511.79 1899.43 1511.79 1899.43C1513.83 1894.27 1514.57 1888.72 1514.34 1882.85C1513.06 1851.22 1483.32 1810.57 1475.49 1776.6C1466.18 1736.33 1453.01 1666.64 1412.74 1620.94C1384.17 1588.52 1348.06 1576.96 1329.51 1572.99C1321.91 1571.35 1317.26 1570.99 1317.26 1570.99C1317.26 1570.99 1332.29 1594.16 1336.35 1611.35C1340.43 1626.64 1338.31 1642.43 1329.54 1650.87Z" fill="#3A72AA"/>
<path d="M1267.47 1564.86C1202.08 1568.99 1119.21 1610.32 1079.17 1662.12C1017.23 1742.23 1075.38 1844.09 1132.38 1864.17C1160.08 1873.93 1167.71 1860.96 1147.34 1840.45C1083.32 1775.99 1142.67 1712.03 1198.89 1692.97C1218.49 1686.32 1261.32 1565.28 1267.47 1564.86Z" fill="#F99370"/>
<path d="M1250.49 2485.36V2487.87H1176.99C1175.35 2466.96 1192.72 2452.76 1189.29 2431.72C1189.29 2431.72 1141.34 2208.2 1177 2170.43C1192.75 2153.74 1264 2158.41 1272.96 2183.54C1285.29 2218.13 1238.38 2432.58 1238.38 2432.58C1235.19 2452.56 1250.94 2465.71 1250.49 2485.36Z" fill="#F99370"/>
<path d="M1482.98 2487.87L1347.12 2491.66C1347.74 2478.21 1349.82 2442.47 1347.67 2425.31C1347.67 2425.31 1293.23 2231.93 1324.69 2191.89C1340.09 2172.29 1390.49 2141.19 1406.12 2160.6C1439.06 2201.47 1398.91 2426.13 1398.91 2426.13C1397.74 2474.66 1482.79 2440.63 1482.98 2487.87Z" fill="#F99370"/>
<path d="M1482.98 2487.87L1352.81 2492.52C1352.81 2492.52 1345.54 2493.12 1345.68 2487.87C1344.63 2477.64 1348.82 2452.54 1348.52 2439.49C1348.51 2439.5 1371.07 2476.56 1458.83 2461.37C1473.39 2465.05 1483.46 2473.08 1482.98 2487.87Z" fill="#EB5648"/>
<path d="M1250.49 2485.36V2487.87H1177C1176.66 2478.82 1178.74 2469.11 1183.15 2461.61C1183.15 2461.61 1211.26 2438.77 1244.31 2461.57C1248.3 2468.37 1250.52 2477.05 1250.49 2485.36Z" fill="#EB5648"/>
<path d="M1389.67 1884.17C1143.17 1871.28 1218.79 1939.3 1221.69 1746.58C1226.9 1684.75 1186.23 1590.03 1267.47 1564.86C1269.96 1546.75 1268.06 1514.02 1264.48 1497.89C1256.75 1469.07 1303.24 1457.68 1309.57 1487.02C1311.12 1492.51 1314.05 1522.82 1314.93 1549.12C1315.19 1559.4 1313.3 1569.81 1321.89 1576.82C1401.37 1660.1 1387.23 1776.25 1389.67 1884.17Z" fill="#F99370"/>
<path d="M1314.87 1549.13C1305.33 1551.1 1285.46 1553.71 1268.54 1546.22C1268.54 1544.83 1268.52 1543.4 1268.48 1541.95C1268.78 1528.06 1267.28 1515.95 1266.25 1508.18C1263.87 1493.6 1261.2 1488.15 1269.26 1477.51C1275.08 1470.24 1286.52 1467.25 1295.16 1470.79C1317.64 1480.4 1310.98 1511.93 1314.87 1549.13Z" fill="#E57D61"/>
<path d="M1397.1 1666.65C1397.1 1666.65 1421.3 1694.86 1413.12 1731.2C1403.26 1774.99 1400.89 1801.87 1408.15 1843.24C1415.42 1884.6 1355.04 1852.54 1355.04 1852.54L1397.1 1666.65Z" fill="#23659B"/>
<path d="M1190.82 1884.49C1231.29 1893.99 1308.35 1831.97 1393.92 1810.41C1398.51 1678.22 1443.14 1699.08 1317.26 1570.99C1317.26 1570.99 1332.29 1594.16 1336.35 1611.35C1342.94 1636.11 1333.35 1662.49 1305.04 1656.08C1274.4 1647.74 1269.66 1574.57 1267.47 1564.85C1250.08 1580.78 1197.49 1647.02 1198.89 1688.07C1196.97 1712.58 1204.2 1734.4 1205.48 1761.02C1214.06 1817.33 1159.9 1828.95 1190.82 1884.49Z" fill="#3A72AA"/>
<path d="M1341.85 1519.52C1328.83 1537.98 1305.46 1546.36 1285.51 1545.36C1284.38 1545.3 1283.23 1545.25 1282.13 1545.13C1238.74 1541.07 1216.2 1478.23 1227.88 1441.74C1234.5 1417.08 1261.35 1398.39 1286.55 1406.13C1304.19 1412.13 1313.02 1427.69 1323.1 1443.93C1326.01 1448.11 1331.16 1453.34 1335.91 1456.71C1354.24 1470.03 1358.3 1494.94 1341.85 1519.52Z" fill="#F99370"/>
<path d="M1205.48 1761.02C1205.98 1767.07 1206.59 1772.55 1206.26 1777.56C1209.46 1767.75 1210.96 1755.34 1208.53 1741.81C1202.84 1710.02 1208.53 1683.8 1208.53 1683.8L1199.14 1685.47C1199.03 1686.33 1198.96 1687.19 1198.89 1688.07C1196.86 1710.94 1204.13 1734.36 1205.48 1761.02Z" fill="#23659B"/>
<path d="M1267.37 1447.55C1235.58 1463.89 1243.78 1490.41 1243.78 1490.41L1228.17 1478.41L1248.14 1422.71L1274 1404.37C1281.18 1404.1 1288.06 1405.98 1294.26 1409.66C1294.26 1409.66 1299.16 1431.22 1267.37 1447.55Z" fill="#E57D61"/>
<path d="M1087.31 1846.82C1095.07 1851.54 1102.29 1852.75 1107.41 1850.21C1107.41 1850.21 1115.69 1830.94 1137.21 1828.95C1137.21 1828.95 1139.4 1823.85 1139.63 1813.68C1139.77 1807.75 1139.27 1800.14 1137.29 1790.81C1128.51 1749.5 1172.73 1713.05 1198.69 1702.21C1223.08 1692 1239.14 1669.93 1249.61 1645.18C1261.32 1617.46 1266.01 1586.37 1267.47 1564.85C1267.47 1564.85 1240.77 1558.96 1191.2 1575.36C1189.1 1576.06 1186.96 1576.79 1184.77 1577.57C1131.06 1596.7 1046.93 1649.34 1044.09 1738.67C1042.24 1796.71 1066.65 1834.25 1087.31 1846.82Z" fill="#3A72AA"/>
<path d="M1300.51 1464.75C1301.74 1461.08 1295.96 1459.23 1294.83 1462.93C1293.6 1466.6 1299.38 1468.45 1300.51 1464.75Z" fill="#C16256"/>
<path d="M1324.57 1456.58C1325.8 1452.92 1320.01 1451.07 1318.89 1454.77C1317.66 1458.44 1323.44 1460.28 1324.57 1456.58Z" fill="#C16256"/>
<path d="M1319.36 1483.68C1317.94 1483.77 1315.07 1484.5 1315.07 1482.46C1315.16 1481.84 1315.74 1481.42 1316.35 1481.51C1320.32 1482.24 1328.98 1478.16 1324.19 1476.21C1317.33 1473.81 1311.16 1462.55 1310.9 1462.07C1310.19 1460.81 1312.2 1459.7 1312.88 1461C1312.94 1461.11 1318.89 1471.97 1324.93 1474.08C1332.52 1477.76 1324.73 1482.74 1319.36 1483.68Z" fill="#C16256"/>
<path d="M1407.73 2374.41C1405.74 2385.4 1404.47 2391.88 1404.3 2392.81C1373.88 2402.23 1339.59 2394.23 1339.59 2394.23C1339.59 2394.22 1339.58 2394.22 1339.58 2394.21C1339.25 2393.67 1338.91 2393.04 1338.59 2392.43C1300.95 2315.71 1308.34 2068.76 1296.71 2002.46C1296.76 2064.69 1272.86 2307.78 1246.69 2392.72C1227.22 2404.28 1188.56 2394.18 1181.68 2392.45C1145.02 2245.68 1175.95 2234.61 1149 2064.91C1134.42 1950.59 1144.08 1878.35 1199.57 1806.36C1268.06 1821.6 1331.11 1830.25 1393.92 1810.41C1393.92 1810.41 1420.49 1860.88 1426.9 1918.39C1447.22 2100.5 1440.07 2214.4 1407.73 2374.41Z" fill="#1D3F70"/>
<path d="M1408.16 1843.24C1406.89 1843.74 1338.62 1870.01 1178.7 1837.07C1188.58 1815.42 1198.53 1804.23 1198.53 1804.23C1292.17 1828.52 1393.92 1810.41 1393.92 1810.41C1393.92 1810.41 1406.08 1829.47 1408.16 1843.24Z" fill="#103663"/>
<path d="M1190.5 2377.73C1179.41 2328.18 1174.83 2252.14 1179.85 2196.8C1182.77 2164.64 1180.2 2143.36 1176.33 2111.16C1162.71 2027.52 1157.89 1890.65 1207.57 1824.03C1209.78 1820.92 1205.01 1817.8 1202.92 1820.7C1152.34 1888.36 1156.7 2026.32 1170.64 2111.85C1182.38 2193.58 1161.11 2300.27 1185.25 2376.61C1180.26 2375.43 1177.35 2374.4 1177.35 2374.4C1177.35 2374.4 1180.18 2386.18 1181.68 2392.45C1181.68 2392.45 1226.37 2405.14 1246.69 2392.72C1246.69 2392.72 1249.35 2385.49 1251.92 2373.61C1228.29 2382.51 1204.64 2380.43 1190.5 2377.73Z" fill="#103663"/>
<path d="M1345.21 2377.49C1334.35 2348.8 1319.81 2208.46 1322.92 2172.8C1326.03 2137.14 1324.99 2065.6 1322.92 2033.52C1320.85 2001.42 1296.71 2002.46 1296.71 2002.46C1307.98 2066.53 1301.42 2302.33 1335.53 2385.55C1336.88 2389.05 1338.25 2391.98 1339.6 2394.23C1339.6 2394.23 1373.88 2402.23 1404.31 2392.81C1404.31 2392.81 1405.63 2386.02 1407.74 2374.41C1383.07 2383.03 1359.44 2380.55 1345.21 2377.49Z" fill="#103663"/>
<path d="M1296.72 2005.33C1294.05 2005.43 1292.78 2001.66 1295.03 2000.14C1295.23 2000 1314.41 1985.75 1318.85 1958.27C1319.1 1956.71 1320.57 1955.65 1322.13 1955.9C1323.69 1956.15 1324.75 1957.62 1324.5 1959.19C1318.82 1990.41 1299.79 2004.42 1296.72 2005.33Z" fill="#103663"/>
<path d="M1344.46 1854.16L1307.35 1855.95C1301.18 1856.25 1295.94 1851.49 1295.64 1845.32C1295.81 1835.89 1290.29 1815.65 1305.37 1814.98L1342.48 1813.19C1348.64 1812.89 1353.89 1817.65 1354.19 1823.82C1354.02 1833.25 1359.54 1853.5 1344.46 1854.16Z" fill="#28507F"/>
<path d="M1177 2487.87C1177 2496.69 1184.15 2503.83 1192.96 2503.83H1234.53C1243.35 2503.83 1250.49 2496.69 1250.49 2487.87H1177Z" fill="#D64343"/>
<path d="M1345.68 2487.87C1345.41 2496.61 1352.43 2503.83 1361.17 2503.83H1467.48C1476.21 2503.85 1483.23 2496.59 1482.98 2487.87H1345.68Z" fill="#D64343"/>
<path d="M1173.22 1847.83C1180.98 1854.74 1190.81 1859.46 1190.82 1859.53C1203.25 1862.92 1215.84 1865.63 1228.55 1867.77C1232.64 1868.36 1232.01 1874.8 1227.84 1874.53C1215.27 1873.99 1202.69 1872.89 1190.22 1871.17C1190.2 1871.23 1190.17 1871.29 1190.15 1871.35C1202.14 1877.53 1214.49 1883.06 1227.22 1887.52C1240.93 1903.8 1188.58 1882.09 1184.42 1880.61C1184.4 1880.64 1184.37 1880.66 1184.35 1880.68C1194.64 1888.4 1205.89 1894.87 1217.67 1900.06C1229.42 1917.65 1178.93 1891.54 1175.11 1888.55C1175.07 1888.58 1175.03 1888.6 1174.99 1888.63C1182.19 1895.87 1190.31 1902.19 1198.68 1908.04C1207.36 1925.97 1166.72 1897.2 1163.56 1894.09C1160.02 1893.08 1142.1 1880.1 1127.56 1862.28C1122.8 1856.44 1138.3 1841.54 1145.6 1840.27C1158.36 1838.45 1166.47 1839.78 1177.09 1839.95L1173.22 1847.83Z" fill="#F99370"/>
<path d="M1191.2 1575.36C1198.94 1588.13 1212.5 1602.7 1225.45 1616.83C1234.54 1626.77 1243.34 1636.47 1249.61 1645.18C1253.99 1651.27 1257.14 1656.89 1258.27 1661.72C1264.38 1688.02 1299.85 1689.24 1306.59 1681.28C1313.02 1673.7 1320.54 1665.55 1334.39 1669.09C1335.04 1669.25 1335.68 1669.44 1336.37 1669.66C1351.49 1674.56 1361.6 1652.54 1355.05 1642.14C1348.47 1631.76 1345.71 1621.97 1350.7 1606.63C1355.69 1591.29 1329.88 1573.33 1329.51 1572.99C1321.91 1571.35 1317.26 1570.99 1317.26 1570.99C1317.26 1570.99 1330.18 1593.39 1334.24 1610.58C1338.32 1625.87 1337.73 1640.66 1328.97 1649.1C1323.47 1654.4 1315.99 1656.63 1305.12 1654.15C1274.48 1645.81 1269.66 1574.57 1267.46 1564.85C1267.46 1564.85 1240.77 1558.96 1191.2 1575.36Z" fill="#23659B"/>
<path d="M1286.54 1406.13C1276.46 1376.41 1192.86 1335.16 1162.39 1424.89C1138.95 1493.91 1068.65 1563.25 1155.73 1590.03C1178.99 1597.19 1145.98 1634.95 1168.86 1646.69C1191.73 1658.44 1216.67 1639.72 1223.87 1675.61C1231.08 1711.49 1250.37 1721.52 1267.46 1716.17C1287.55 1709.9 1331.1 1661.92 1290.8 1629.55C1261.6 1606.1 1293.25 1577.76 1268.47 1541.95C1254.2 1521.33 1236.99 1510.88 1236.99 1510.88L1238.01 1482.15C1232.79 1445.91 1294.05 1439.16 1286.54 1406.13Z" fill="#8C4225"/>
<path d="M1217.53 1500.55C1225.89 1521.86 1251.93 1511.8 1243.78 1490.41C1235.43 1469.1 1209.38 1479.16 1217.53 1500.55Z" fill="#F99370"/>
<path d="M1225.28 1503.98C1224.8 1504.06 1224.31 1503.82 1224.09 1503.37C1216.78 1490.11 1223.47 1483 1233.34 1485.3C1234.77 1485.59 1234.29 1487.83 1232.86 1487.5C1224.4 1485.53 1220.01 1491.31 1226.12 1502.37C1226.45 1503.04 1226.01 1503.87 1225.28 1503.98Z" fill="#C16256"/>
<path d="M1235.42 1500.74C1233.36 1500.8 1230.92 1492.83 1222.19 1493.35C1221.57 1493.41 1221.02 1492.95 1220.96 1492.33C1220.91 1491.71 1221.35 1491.15 1221.98 1491.1C1230.65 1490.42 1238.71 1499.71 1235.42 1500.74Z" fill="#C16256"/>
<path d="M1087.31 1846.82C1095.07 1851.54 1102.29 1852.75 1107.41 1850.21C1107.41 1850.21 1115.69 1830.94 1137.21 1828.95C1137.21 1828.95 1139.4 1823.85 1139.63 1813.68C1135.32 1811.34 1129.66 1810.21 1123.75 1815.19C1112.13 1824.98 1118.6 1829.18 1102.68 1834.57C1094.02 1837.5 1089.07 1841.81 1087.31 1846.82Z" fill="#23659B"/>
<path d="M1461.33 1915.63C1474.73 1924.08 1482.17 1923.37 1482.17 1923.37C1491.94 1901.28 1511.78 1899.43 1511.78 1899.43C1513.83 1894.28 1514.57 1888.73 1514.34 1882.85C1508.1 1882.21 1501.53 1883.52 1496.75 1889.5C1484.52 1904.78 1481.45 1904.78 1468.62 1907.23C1464.22 1908.07 1462.16 1911.5 1461.33 1915.63Z" fill="#23659B"/>
<path d="M1321.56 1693.36C1321.56 1696.31 1323.96 1698.7 1326.91 1698.7C1329.86 1698.7 1332.25 1696.31 1332.25 1693.36C1332.25 1690.41 1329.86 1688.02 1326.91 1688.02C1323.95 1688.02 1321.56 1690.41 1321.56 1693.36Z" fill="#23659B"/>
<path d="M1323.52 1716.17C1323.52 1719.12 1325.91 1721.51 1328.86 1721.51C1331.81 1721.51 1334.21 1719.12 1334.21 1716.17C1334.21 1713.22 1331.81 1710.83 1328.86 1710.83C1325.91 1710.83 1323.52 1713.22 1323.52 1716.17Z" fill="#23659B"/>
<path d="M1312.44 1500.26C1311.48 1500.26 1310.49 1500.12 1309.51 1499.83C1307.53 1499.24 1305.82 1498.11 1304.7 1496.65C1303.5 1495.1 1303.11 1493.35 1303.59 1491.73C1304.07 1490.11 1305.36 1488.86 1307.21 1488.2C1308.94 1487.59 1310.99 1487.58 1312.98 1488.17C1314.96 1488.76 1316.67 1489.89 1317.79 1491.35C1318.99 1492.9 1319.38 1494.65 1318.9 1496.27C1318.42 1497.89 1317.13 1499.14 1315.28 1499.8C1314.4 1500.11 1313.44 1500.26 1312.44 1500.26ZM1310.05 1489.85C1309.29 1489.85 1308.57 1489.96 1307.91 1490.2C1306.71 1490.62 1305.9 1491.38 1305.62 1492.33C1305.33 1493.28 1305.6 1494.36 1306.37 1495.37C1307.22 1496.48 1308.55 1497.34 1310.12 1497.81C1311.68 1498.27 1313.26 1498.27 1314.58 1497.81C1315.78 1497.38 1316.59 1496.63 1316.87 1495.67C1317.16 1494.72 1316.89 1493.64 1316.12 1492.63C1315.27 1491.53 1313.94 1490.66 1312.38 1490.2C1311.59 1489.96 1310.81 1489.85 1310.05 1489.85Z" fill="#C16256"/>
<path d="M1287.08 1461.97C1286.73 1461.97 1286.39 1461.79 1286.19 1461.48C1285.87 1460.99 1286.01 1460.34 1286.51 1460.02C1286.59 1459.97 1295 1454.52 1298.14 1447.5C1298.38 1446.97 1299.01 1446.73 1299.54 1446.97C1300.07 1447.21 1300.31 1447.83 1300.07 1448.37C1296.67 1455.97 1288.01 1461.57 1287.65 1461.8C1287.47 1461.91 1287.27 1461.97 1287.08 1461.97Z" fill="#C16256"/>
<path d="M1324.74 1449.41C1324.72 1449.41 1324.69 1449.41 1324.67 1449.41C1314.59 1448.77 1309.45 1446.89 1309.24 1446.81C1308.69 1446.6 1308.41 1446 1308.62 1445.45C1308.82 1444.9 1309.43 1444.62 1309.98 1444.83C1310.03 1444.85 1315.08 1446.69 1324.81 1447.3C1325.39 1447.34 1325.83 1447.84 1325.79 1448.42C1325.76 1448.98 1325.29 1449.41 1324.74 1449.41Z" fill="#C16256"/>
<path d="M2467.55 2876.54H1979.66V2938.47H2467.55V2876.54Z" fill="#FF877F"/>
<path d="M2417.79 2938.47H1929.9V3000.4H2417.79V2938.47Z" fill="#FF877F"/>
<path d="M1911.24 2814.61H2399.12V2752.68H1911.24V2814.61Z" fill="#FF877F"/>
<path d="M1961 2876.54H2448.89V2814.61H1961V2876.54Z" fill="#FF877F"/>
<path d="M1961 2752.66H2448.89V2690.73H1961V2752.66Z" fill="#FF877F"/>
<path d="M2071.09 2876.54H2041.87V2938.47H2071.09V2876.54Z" fill="#F9B233"/>
<path d="M2182.51 2876.54H2153.28V2938.47H2182.51V2876.54Z" fill="#F9B233"/>
<path d="M2293.93 2876.54H2264.7V2938.47H2293.93V2876.54Z" fill="#F9B233"/>
<path d="M2405.35 2876.54H2376.12V2938.47H2405.35V2876.54Z" fill="#F9B233"/>
<path d="M2021.33 2938.47H1992.1V3000.4H2021.33V2938.47Z" fill="#F9B233"/>
<path d="M2132.74 2938.47H2103.52V3000.4H2132.74V2938.47Z" fill="#F9B233"/>
<path d="M2244.16 2938.47H2214.94V3000.4H2244.16V2938.47Z" fill="#F9B233"/>
<path d="M2355.58 2938.47H2326.36V3000.4H2355.58V2938.47Z" fill="#F9B233"/>
<path d="M2307.7 2814.61H2336.92V2752.68H2307.7V2814.61Z" fill="#F9B233"/>
<path d="M2196.28 2814.61H2225.5V2752.68H2196.28V2814.61Z" fill="#F9B233"/>
<path d="M2084.86 2814.61H2114.08V2752.68H2084.86V2814.61Z" fill="#F9B233"/>
<path d="M1973.44 2814.61H2002.66V2752.68H1973.44V2814.61Z" fill="#F9B233"/>
<path d="M2357.46 2876.54H2386.68V2814.61H2357.46V2876.54Z" fill="#F9B233"/>
<path d="M2246.04 2876.54H2275.27V2814.61H2246.04V2876.54Z" fill="#F9B233"/>
<path d="M2134.62 2876.54H2163.85V2814.61H2134.62V2876.54Z" fill="#F9B233"/>
<path d="M2023.2 2876.54H2052.43V2814.61H2023.2V2876.54Z" fill="#F9B233"/>
<path d="M2357.46 2752.66H2386.68V2690.73H2357.46V2752.66Z" fill="#F9B233"/>
<path d="M2246.04 2752.66H2275.27V2690.73H2246.04V2752.66Z" fill="#F9B233"/>
<path d="M2134.62 2752.66H2163.85V2690.73H2134.62V2752.66Z" fill="#F9B233"/>
<path d="M2023.2 2752.66H2052.43V2690.73H2023.2V2752.66Z" fill="#F9B233"/>
<path d="M1882.58 2381.09H2370.47V2319.16H1882.58V2381.09Z" fill="#FF877F"/>
<path d="M1932.34 2443.02H2420.23V2381.09H1932.34V2443.02Z" fill="#FF877F"/>
<path d="M2438.89 2195.31H1951V2257.23H2438.89V2195.31Z" fill="#FF877F"/>
<path d="M2389.13 2257.23H1901.24V2319.16H2389.13V2257.23Z" fill="#FF877F"/>
<path d="M1919.9 2504.95H2407.79V2443.02H1919.9V2504.95Z" fill="#FF877F"/>
<path d="M1882.58 2566.88H2370.47V2504.95H1882.58V2566.88Z" fill="#FF877F"/>
<path d="M1870.14 2628.8H2358.03V2566.88H1870.14V2628.8Z" fill="#FF877F"/>
<path d="M1932.34 2690.73H2420.23V2628.8H1932.34V2690.73Z" fill="#FF877F"/>
<path d="M2279.04 2381.09H2308.26V2319.16H2279.04V2381.09Z" fill="#F9B233"/>
<path d="M2167.62 2381.09H2196.84V2319.16H2167.62V2381.09Z" fill="#F9B233"/>
<path d="M2056.2 2381.09H2085.43V2319.16H2056.2V2381.09Z" fill="#F9B233"/>
<path d="M1944.78 2381.09H1974.01V2319.16H1944.78V2381.09Z" fill="#F9B233"/>
<path d="M2328.8 2443.02H2358.03V2381.09H2328.8V2443.02Z" fill="#F9B233"/>
<path d="M2217.38 2443.02H2246.61V2381.09H2217.38V2443.02Z" fill="#F9B233"/>
<path d="M2105.97 2443.02H2135.19V2381.09H2105.97V2443.02Z" fill="#F9B233"/>
<path d="M1994.55 2443.02H2023.77V2381.09H1994.55V2443.02Z" fill="#F9B233"/>
<path d="M2042.43 2195.31H2013.21V2257.23H2042.43V2195.31Z" fill="#F9B233"/>
<path d="M2153.85 2195.31H2124.63V2257.23H2153.85V2195.31Z" fill="#F9B233"/>
<path d="M2265.27 2195.31H2236.04V2257.23H2265.27V2195.31Z" fill="#F9B233"/>
<path d="M2376.69 2195.31H2347.46V2257.23H2376.69V2195.31Z" fill="#F9B233"/>
<path d="M1992.67 2257.23H1963.45V2319.16H1992.67V2257.23Z" fill="#F9B233"/>
<path d="M2104.09 2257.23H2074.86V2319.16H2104.09V2257.23Z" fill="#F9B233"/>
<path d="M2215.51 2257.23H2186.28V2319.16H2215.51V2257.23Z" fill="#F9B233"/>
<path d="M2326.92 2257.23H2297.7V2319.16H2326.92V2257.23Z" fill="#F9B233"/>
<path d="M2316.36 2504.95H2345.58V2443.02H2316.36V2504.95Z" fill="#F9B233"/>
<path d="M2204.94 2504.95H2234.17V2443.02H2204.94V2504.95Z" fill="#F9B233"/>
<path d="M2093.53 2504.95H2122.75V2443.02H2093.53V2504.95Z" fill="#F9B233"/>
<path d="M1982.11 2504.95H2011.33V2443.02H1982.11V2504.95Z" fill="#F9B233"/>
<path d="M2279.04 2566.88H2308.26V2504.95H2279.04V2566.88Z" fill="#F9B233"/>
<path d="M2167.62 2566.88H2196.84V2504.95H2167.62V2566.88Z" fill="#F9B233"/>
<path d="M2056.2 2566.88H2085.43V2504.95H2056.2V2566.88Z" fill="#F9B233"/>
<path d="M1944.78 2566.88H1974.01V2504.95H1944.78V2566.88Z" fill="#F9B233"/>
<path d="M2266.6 2628.8H2295.82V2566.88H2266.6V2628.8Z" fill="#F9B233"/>
<path d="M2155.18 2628.8H2184.4V2566.88H2155.18V2628.8Z" fill="#F9B233"/>
<path d="M2043.76 2628.8H2072.98V2566.88H2043.76V2628.8Z" fill="#F9B233"/>
<path d="M1932.34 2628.8H1961.57V2566.88H1932.34V2628.8Z" fill="#F9B233"/>
<path d="M2328.8 2690.73H2358.03V2628.8H2328.8V2690.73Z" fill="#F9B233"/>
<path d="M2217.38 2690.73H2246.61V2628.8H2217.38V2690.73Z" fill="#F9B233"/>
<path d="M2105.97 2690.73H2135.19V2628.8H2105.97V2690.73Z" fill="#F9B233"/>
<path d="M1994.55 2690.73H2023.77V2628.8H1994.55V2690.73Z" fill="#F9B233"/>
<path d="M2308.46 913.004L2307.49 896.35L2343.72 895.257C2343.72 895.257 2345.05 907.731 2346.35 913.041C2346.35 913.041 2331.63 926.29 2308.46 913.004Z" fill="#F99370"/>
<path d="M1944.11 911.35C1944.11 911.35 1945.27 903.471 1945.83 897.865L1982.57 894.433L1982.01 911.313C1982.01 911.313 1962.63 922.507 1944.11 911.35Z" fill="#F99370"/>
<path d="M1981.11 2196.31H2087.29C2096.56 2195.94 2096.49 2186.5 2094.78 2179.17C2088.93 2152.78 2099.27 2092.18 2101.18 2065.04C2101.69 2060.07 2097.79 2055.75 2092.79 2055.75H2045.93C2040.85 2055.75 2036.92 2060.19 2037.55 2065.23L2046.07 2133.1C2049.34 2164.52 2016.79 2167.14 1995.41 2171.46C1987.01 2173.57 1978.23 2176.84 1974.14 2183.11C1970.31 2188.71 1974.32 2196.31 1981.11 2196.31Z" fill="#F99370"/>
<path d="M2098.82 2185.3C2098.54 2190.5 2095.96 2196.44 2089.92 2196.31H1979.78C1974.09 2196.32 1970.05 2190.62 1972.08 2185.3C1976.35 2173.29 1991.54 2155.4 2043.58 2152.46C2051.06 2153.19 2068.09 2155.74 2092.76 2152.39C2092.76 2152.39 2101.23 2165.68 2098.82 2185.3Z" fill="#1D3F70"/>
<path d="M1972.08 2185.3H2098.82C2098.36 2189.17 2097.29 2192.92 2095.35 2196.31H1979.78C1974.17 2196.31 1970.15 2190.78 1972.01 2185.49C1972.03 2185.43 1972.05 2185.37 1972.08 2185.3Z" fill="#395B96"/>
<path d="M2219.37 2188.65L2283.89 2189.51C2283.89 2181.54 2283.23 2178.64 2279.71 2172.47C2266.75 2155.27 2282.22 2078.33 2281.77 2058.23C2284.77 2052.73 2225.74 2057.05 2224.8 2055.75C2223.47 2055.75 2222.42 2056.88 2222.53 2058.21L2229.51 2146.13C2232.64 2162.82 2219.82 2172.91 2219.37 2188.65Z" fill="#F99370"/>
<path d="M2275.44 2196.31H2228.37C2222.45 2196.31 2217.67 2191.4 2217.92 2185.49C2217.93 2185.43 2217.93 2185.37 2217.93 2185.3C2218.52 2172.37 2224 2152.65 2251.9 2152.39C2279.9 2152.15 2285.32 2172.22 2285.89 2185.3C2285.89 2185.38 2285.89 2185.45 2285.89 2185.53C2286.12 2191.43 2281.35 2196.31 2275.44 2196.31Z" fill="#1D3F70"/>
<path d="M2275.44 2196.31H2228.37C2222.45 2196.31 2217.67 2191.4 2217.92 2185.49L2217.93 2185.3H2285.89C2285.89 2185.38 2285.89 2185.45 2285.89 2185.53C2286.12 2191.43 2281.35 2196.31 2275.44 2196.31Z" fill="#395B96"/>
<path d="M2293.51 2135.66C2293.51 2135.66 2240.44 2147.84 2213.1 2134.75C2213.1 2134.75 2211.97 2128.22 2209.99 2116.55C2198.39 2047.95 2157.65 1745.63 2145.6 1598.83C2145.6 1598.83 2117.56 2028.73 2111.72 2116.55C2111 2127.38 2110.61 2133.86 2110.66 2134.75C2110.66 2134.75 2104.11 2136.95 2094.44 2138.91C2077.21 2142.4 2050.11 2145.16 2032.59 2133.46C2032.59 2133.46 2031.91 2127.51 2030.81 2116.55C2022.89 2037.87 1979.39 1737.68 2024.65 1492.07C2024.65 1492.07 2185.07 1506.8 2283.84 1478.6C2283.84 1478.6 2310.77 1722.34 2292.94 2116.55C2292.43 2127.92 2293.34 2134.71 2293.51 2135.66Z" fill="#1D3F70"/>
<path d="M2095.54 2121.22C2100.86 2046.42 2121.47 1700.93 2124.92 1657.36C2128.89 1607.25 2145.6 1598.83 2145.6 1598.83C2145.6 1598.83 2110.66 2134.62 2110.67 2134.75C2110.67 2134.75 2104.11 2136.94 2094.44 2138.91C2077.21 2142.4 2050.12 2145.16 2032.59 2133.46C2032.59 2133.46 2031.91 2127.51 2030.81 2116.55C2030.81 2116.55 2059.22 2128.88 2095.54 2121.22Z" fill="#10325B"/>
<path d="M2054.18 2126.31C2034.73 1953.72 2039.27 1793.65 2046.5 1689.76C2054.33 1577.19 2066.93 1504.44 2067.06 1503.72L2071.96 1504.58C2071.83 1505.3 2059.26 1577.84 2051.45 1690.19C2044.24 1793.85 2039.72 1953.57 2059.12 2125.75L2054.18 2126.31Z" fill="#10325B"/>
<path d="M2249.43 2128.92C2218.94 1816.6 2207.62 1513.07 2207.51 1510.04L2212.48 1509.86C2212.59 1512.88 2223.9 1816.27 2254.38 2128.44L2249.43 2128.92Z" fill="#10325B"/>
<path d="M2109.28 1169.44L2036.72 1291.9C2001.09 1252.54 1977.1 1210.59 1961.27 1169.48C1919.93 1062.22 1933.97 960.57 1941.07 924.85C1942.8 916.137 1944.12 911.353 1944.12 911.353C1960.99 920.24 1982.01 911.316 1982.01 911.316C1981.97 915.667 1982.02 919.954 1982.16 924.167C1986.86 1070.04 2092.82 1139.43 2109.28 1169.44Z" fill="#3A72AA"/>
<path d="M2128.88 1176.22C2126.26 1153.48 2129.84 1120.6 2133.01 1107.17C2138.73 1080.54 2181 1090.85 2173.98 1117.02C2172.61 1116.16 2168.25 1164.41 2171.26 1177.8C2210.93 1189.68 2091.62 1228.77 2128.88 1176.22Z" fill="#F99370"/>
<path d="M2174.38 1114.82C2174.33 1115.13 2174.3 1115.45 2174.23 1115.75C2174.16 1116.18 2174.07 1116.6 2173.97 1117.02C2172.99 1116.37 2170.24 1142.99 2170.22 1162.31C2152.04 1170.56 2131.77 1166.93 2128.07 1166.17C2127.26 1145.75 2130.44 1120.43 2132.09 1110.96C2132.58 1108.74 2132.94 1107.44 2133 1107.17C2133.15 1106.57 2133.32 1105.98 2133.52 1105.4C2135.54 1099.34 2140.14 1094.74 2145.76 1092.52C2145.77 1092.52 2145.77 1092.52 2145.77 1092.52C2149.68 1090.99 2154.06 1090.61 2158.45 1091.66C2162.79 1092.72 2166.48 1095.04 2169.23 1098.14C2169.36 1098.26 2169.47 1098.4 2169.58 1098.52C2173.29 1102.93 2175.18 1108.8 2174.38 1114.82Z" fill="#E57D61"/>
<path d="M2293.51 2135.66C2293.51 2135.66 2240.44 2147.84 2213.1 2134.75C2213.1 2134.75 2211.97 2128.22 2209.99 2116.55C2209.99 2116.55 2246.16 2126.45 2292.94 2116.55C2293.15 2127.93 2293.34 2134.71 2293.51 2135.66Z" fill="#10325B"/>
<path d="M2095.33 1085.7C2095.33 1085.7 2091.25 1063.32 2095.15 1046.54L2109.16 1050.25L2095.33 1085.7Z" fill="#1D3F70"/>
<path d="M2108 1151.06C2126.24 1163.43 2150.52 1163.13 2168.43 1155.36C2174.04 1153.03 2179.19 1149.87 2183.52 1145.8H2183.53C2185 1144.43 2186.35 1142.98 2187.61 1141.42L2187.64 1141.42C2244.54 1055.5 2124.37 957.472 2100.69 1068.7C2091.53 1100.51 2068.65 1121.16 2108 1151.06Z" fill="#F99370"/>
<path d="M2127.07 1086.8C2126.07 1085.54 2126.29 1083.71 2127.55 1082.72C2128.81 1081.72 2130.64 1081.94 2131.64 1083.2C2132.63 1084.46 2132.42 1086.29 2131.16 1087.29C2129.89 1088.28 2128.06 1088.07 2127.07 1086.8Z" fill="#C16256"/>
<path d="M2102.25 1087.58C2101.25 1086.32 2101.47 1084.49 2102.73 1083.5C2103.99 1082.5 2105.82 1082.72 2106.82 1083.98C2107.82 1085.24 2107.6 1087.07 2106.34 1088.07C2105.08 1089.06 2103.24 1088.85 2102.25 1087.58Z" fill="#C16256"/>
<path d="M2114.63 1110.81C2116.35 1110.67 2118.04 1110.24 2119.39 1109.48C2119.92 1109.19 2120.11 1108.52 2119.81 1107.99C2119.52 1107.45 2118.84 1107.27 2118.32 1107.56C2114.93 1109.44 2109.43 1108.66 2108.4 1107.16C2108.04 1106.64 2108.7 1105.91 2109.32 1105.4C2114.78 1100.85 2116.57 1088.45 2116.64 1087.92C2116.73 1087.32 2116.31 1086.76 2115.7 1086.68C2115.08 1086.59 2114.54 1087.02 2114.46 1087.62C2114.44 1087.73 2112.72 1099.7 2107.91 1103.7C2105.29 1105.88 2106.11 1107.72 2106.58 1108.41C2107.82 1110.21 2111.27 1111.07 2114.63 1110.81Z" fill="#C16256"/>
<path d="M2102.58 1060.96C2116.44 1049.7 2146.01 1051.53 2159.78 1048.66C2159.78 1048.66 2161.56 1072.83 2188.72 1084.87C2195.06 1106.15 2200.52 1114.91 2183.52 1145.8H2183.53C2185 1144.43 2186.35 1142.98 2187.61 1141.42L2187.64 1141.42C2242.56 1059.36 2129.94 960.509 2102.58 1060.96Z" fill="#E57D61"/>
<path d="M2081.49 1016.31C2086.88 997.005 2111.35 982.211 2138.44 999.334C2159.3 1012.52 2178.2 1008.61 2181.32 1026.25C2219.67 1035.2 2209.95 1077.41 2209.95 1077.41L2191.91 1078.84C2168.53 1066.57 2164.36 1042.5 2164.36 1042.5L2164.36 1042.5C2159.91 1043.61 2155.15 1044.37 2150.75 1044.13C2137.11 1043.41 2117.6 1045.64 2104.05 1053.94C2090.49 1062.25 2075.46 1037.88 2081.49 1016.31Z" fill="#1D3F70"/>
<path d="M2215.3 1091.11C2215.2 1100.54 2208.96 1108.12 2201.37 1108.05C2193.77 1107.97 2187.69 1100.26 2187.79 1090.83C2187.89 1081.4 2194.13 1073.82 2201.72 1073.9C2209.32 1073.97 2215.4 1081.68 2215.3 1091.11Z" fill="#F99370"/>
<path d="M2195.6 1082.58C2195.86 1082.41 2202.03 1078.5 2206.48 1081.23C2207.62 1081.92 2208.49 1082.99 2209.14 1084.38C2209.15 1084.38 2209.15 1084.39 2209.15 1084.39C2209.21 1084.52 2209.28 1084.63 2209.34 1084.77C2209.34 1084.77 2209.34 1084.77 2209.34 1084.77C2210.43 1087.39 2210.74 1091.12 2210.26 1095.93C2210.21 1096.47 2209.78 1096.88 2209.25 1096.92C2209.19 1096.93 2209.13 1096.92 2209.06 1096.92C2208.45 1096.86 2208.01 1096.32 2208.07 1095.71C2208.46 1091.81 2208.28 1088.74 2207.61 1086.52C2201.6 1088.88 2199.87 1096.48 2199.86 1096.56C2199.75 1097.05 2199.34 1097.4 2198.86 1097.44C2198.76 1097.44 2198.66 1097.44 2198.55 1097.41C2197.95 1097.29 2197.57 1096.71 2197.69 1096.11C2197.78 1095.73 2199.62 1087.26 2206.66 1084.45C2206.28 1083.89 2205.85 1083.42 2205.34 1083.11C2202.07 1081.1 2196.84 1084.4 2196.8 1084.43C2196.28 1084.76 2195.6 1084.61 2195.27 1084.1C2194.94 1083.59 2195.09 1082.91 2195.6 1082.58Z" fill="#C16256"/>
<path d="M2024.65 1492.07C2024.65 1492.07 2027.62 1500.67 2049.2 1511.68C2070.78 1522.69 2128.85 1530.8 2128.85 1530.8C2128.85 1530.8 2136.16 1525.31 2140.59 1516.55C2140.59 1516.55 2143.15 1525.25 2151.71 1530.8C2151.71 1530.8 2215.91 1532.83 2285.5 1492.07C2285.5 1492.07 2290.02 1489.39 2283.85 1478.6L2024.65 1492.07Z" fill="#F4D4BE"/>
<path d="M2024.65 1492.07C2024.65 1492.07 2161.89 1535.24 2283.84 1478.6C2283.84 1478.6 2294.69 1460 2269.94 1373.64C2260.86 1341.95 2265.48 1296.8 2263.01 1281.14C2252.74 1216.21 2203.82 1180.35 2181.18 1171.14L2171.08 1176.22C2161.88 1197.85 2144.88 1199.64 2135.82 1195.34C2124.96 1190.18 2128.52 1177.58 2128.85 1176.24C2113.72 1180.88 2109.28 1169.44 2109.28 1169.44C2084.7 1189.96 2042.8 1252.34 2034.51 1301.84C2026.93 1347.1 2017.28 1445.87 2024.65 1492.07Z" fill="#3A72AA"/>
<path d="M2109.28 1169.44C2109.28 1169.44 2103.12 1201.68 2122.06 1211.84C2122.06 1211.84 2131.07 1210.78 2137.77 1202.94C2137.77 1202.94 2140.97 1210.57 2150.51 1213.53C2150.51 1213.53 2182.01 1204.64 2181.18 1171.14C2181.18 1171.14 2176.13 1171.14 2171.08 1176.22C2171.08 1176.22 2159.84 1189.63 2141.64 1189.41C2129.79 1189.28 2128.85 1176.24 2128.85 1176.24C2128.85 1176.24 2122.65 1170.77 2109.28 1169.44Z" fill="#F4D4BE"/>
<path d="M2112.94 1072.57C2112.55 1072.72 2112.09 1072.69 2111.71 1072.44C2107.46 1069.77 2102.79 1074.9 2102.74 1074.95C2102.23 1075.53 2101.35 1075.57 2100.77 1075.06C2100.2 1074.55 2100.15 1073.67 2100.66 1073.1C2102.82 1070.69 2108.22 1066.96 2113.19 1070.09C2113.84 1070.5 2114.04 1071.36 2113.63 1072.01C2113.46 1072.27 2113.22 1072.47 2112.94 1072.57Z" fill="#C16256"/>
<path d="M2136.93 1075.14C2136.32 1075.37 2135.62 1075.15 2135.26 1074.58C2133.92 1072.44 2132.3 1071.15 2130.43 1070.75C2127.51 1070.13 2124.81 1071.87 2124.78 1071.89C2124.15 1072.31 2123.28 1072.15 2122.85 1071.51C2122.42 1070.87 2122.59 1070.01 2123.23 1069.58C2123.38 1069.48 2126.91 1067.15 2131.02 1068.03C2133.64 1068.59 2135.87 1070.29 2137.62 1073.1C2138.03 1073.75 2137.83 1074.61 2137.18 1075.02C2137.09 1075.07 2137.01 1075.11 2136.93 1075.14Z" fill="#C16256"/>
<path d="M2337.56 1147.27V1147.28C2323.59 1191.6 2300.77 1237.7 2264.53 1281.15C2261.07 1285.33 2257.46 1289.46 2253.73 1293.59L2181.17 1171.13C2197.62 1141.14 2303.42 1071.83 2308.29 926.202C2308.44 921.864 2308.49 917.465 2308.45 913.003C2308.45 913.003 2329.46 921.926 2346.35 913.039C2346.35 913.039 2347.46 917.078 2348.98 924.486C2355.4 955.758 2369.14 1047 2337.56 1147.27Z" fill="#3A72AA"/>
<path d="M2053.8 1246.65C2053.41 1247.31 2041.03 1268.27 2036.72 1291.9C2001.09 1252.54 1977.1 1210.59 1961.27 1169.48C1962.16 1171.11 1991.16 1223.26 2013.02 1240.01C2034.85 1256.73 2053.18 1246.98 2053.8 1246.65Z" fill="#23659B"/>
<path d="M2337.56 1147.28C2323.59 1191.6 2300.77 1237.7 2264.53 1281.15H2263C2262.12 1256.39 2244.36 1229.26 2244.36 1229.26C2281.5 1256.71 2337.56 1147.28 2337.56 1147.28Z" fill="#23659B"/>
<path d="M1982.01 911.313C1981.97 915.664 1982.02 919.951 1982.16 924.164C1960.02 936.22 1941.07 924.848 1941.07 924.848C1942.8 916.136 1944.11 911.352 1944.11 911.352C1960.99 920.237 1982.01 911.313 1982.01 911.313Z" fill="#23659B"/>
<path d="M2348.99 924.487C2331.92 939.426 2308.29 926.203 2308.29 926.203C2308.44 921.865 2308.49 917.466 2308.46 913.004C2308.46 913.004 2329.46 921.927 2346.35 913.04C2346.35 913.04 2347.46 917.079 2348.99 924.487Z" fill="#23659B"/>
<path d="M2307.03 839.764C2307.03 839.764 2357.53 845.988 2344.79 903.99L2309.78 907.087L2307.03 839.764Z" fill="#F99370"/>
<path d="M1994.03 823.511C1994.03 823.511 1937.83 823.511 1944.76 906.754L1985.84 893.51L1994.03 823.511Z" fill="#F99370"/>
<path d="M2309.66 841.06C2395.31 755.418 2395.31 616.565 2309.66 530.923C2224.02 445.281 2085.17 445.281 1999.53 530.923C1913.89 616.565 1913.89 755.418 1999.53 841.06C2085.17 926.701 2224.02 926.701 2309.66 841.06Z" fill="#FF8982"/>
<path d="M2109.21 471.375C2203.99 451.254 2304.12 496.136 2350.11 586.609C2404.99 694.578 2361.96 826.594 2253.99 881.476C2236.49 890.37 2218.35 896.697 2200.02 900.587C2105.24 920.702 2005.11 875.827 1959.12 785.352C1904.24 677.383 1947.27 545.367 2055.24 490.485C2072.74 481.591 2090.88 475.266 2109.21 471.375ZM2101.87 436.725L2101.87 436.727C2080.18 441.331 2059.1 448.793 2039.19 458.912C1978.54 489.741 1933.52 542.347 1912.44 607.035C1891.35 671.723 1896.71 740.751 1927.54 801.404C1979.74 904.091 2094.81 959.124 2207.37 935.236C2229.04 930.637 2250.13 923.175 2270.04 913.053C2395.24 849.41 2445.33 695.768 2381.69 570.561C2329.49 467.872 2214.43 412.837 2101.87 436.725Z" fill="#F39200"/>
<path d="M2291.04 684.22C2250.26 596.628 2118.55 676.947 2086.88 640.947C2071.6 602.76 2172.24 575.918 2185.59 579.004C2205.36 578.44 2196.4 544.452 2198.1 532.791C2195.75 503.933 2135.61 529.03 2116.32 535.715C2094.14 486.946 2094.23 499.496 2052.35 519.483C2033.67 528.492 2057.56 555.713 2061.34 567.116C1955.54 655.041 2036.33 747.511 2155.1 712.422C2206.12 703.565 2218.1 712.406 2223.1 722.225C2235.04 769.451 2144.27 793.997 2109.72 793.496C2102.28 793.356 2095.81 800.045 2096.17 807.466L2097.12 840.156C2100.15 869.587 2168.8 843.463 2192.68 834.498C2215.68 884.237 2214.14 873.143 2257.92 851.953C2276.83 842.897 2252.02 814.604 2248.33 803.137C2299.46 763.8 2307.1 715.814 2291.04 684.22Z" fill="#4345E8"/>
<path d="M2310.19 903.647C2299.77 893.337 2295.22 877.827 2297.27 863.491C2297.79 857.957 2306.38 858.258 2306.54 863.768C2306.73 874.388 2314.23 884.113 2322.8 890.412C2330.69 896.604 2317.89 910.063 2310.19 903.647Z" fill="#F99370"/>
<path d="M1976.33 886.73C1993.65 880.348 1990.69 863.237 1998.23 864.653C2009.22 875.013 1992.12 900.946 1980.92 907.048C1967.58 915.714 1960.47 886.817 1976.33 886.73Z" fill="#F99370"/>
<path d="M2112.65 1123.1C2111.61 1123.1 2110.98 1123.03 2110.95 1123.03C2110.26 1122.95 2109.78 1122.33 2109.86 1121.65C2109.95 1120.97 2110.57 1120.48 2111.25 1120.56C2111.75 1120.62 2123.38 1121.89 2129.14 1111.67C2129.48 1111.07 2130.23 1110.86 2130.84 1111.19C2131.43 1111.53 2131.65 1112.29 2131.31 1112.89C2126.11 1122.11 2116.53 1123.1 2112.65 1123.1Z" fill="#C16256"/>
</g>
<defs>
<clipPath id="clip0_11_2">
<rect width="3483" height="3483" fill="white"/>
</clipPath>
</defs>
</svg>
