<svg xmlns="http://www.w3.org/2000/svg" xmlns:xlink="http://www.w3.org/1999/xlink" xml:space="preserve" viewBox="0 0 2475 1650">
  <linearGradient id="a" x1="201.8" x2="2362.4" y1="810" y2="810" gradientUnits="userSpaceOnUse">
    <stop offset="0" stop-color="#dae3fe"/>
    <stop offset="1" stop-color="#e9effd"/>
  </linearGradient>
  <path fill="url(#a)" d="M2301 881c-37-39-82-77-93-131-20-93 65-172 93-262a220 220 0 0 0-187-286c-110-10-219 65-328 43-87-17-156-95-244-103-104-10-191 78-290 111-119 39-248-2-365-47s-240-96-364-74a342 342 0 0 0-270 286c-19 139 134 251 4 418-40 52-67 124-50 188 18 63 92 102 93 166 0 51-47 92-51 143-3 44 28 84 66 105 38 20 82 25 124 30 0 0 421 29 637 25l1025-21c35-1 71-2 104-15s62-40 67-76c9-60-53-112-48-172 8-78 115-107 135-182 14-53-20-106-58-146z"/>
  <path fill="#bdd0fb" d="M721 1306c-77 16-177-69-209-161-33-96 28-135 27-268 0-150-78-172-130-375-12-45-79-310 5-359 77-46 294 86 332 254 27 120-57 170-25 310 28 122 102 124 131 242 34 144-29 337-131 357z"/>
  <linearGradient id="b" x1="1311.6" x2="1117.9" y1="397.6" y2="1337.1" gradientTransform="matrix(-1 0 0 1 1861 0)" gradientUnits="userSpaceOnUse">
    <stop offset="0" stop-color="#09005d"/>
    <stop offset="1" stop-color="#1a0f91"/>
  </linearGradient>
  <path fill="url(#b)" d="M716 1343c21-162-20-411-58-592-41-196-88-356-88-357l-7 1c0 2 47 162 88 357 38 180 79 429 58 590l7 1z"/>
  <path fill="#bdd0fb" d="M553 1403c102-53 137-235 79-295-40-40-96 2-150-39-69-53-18-153-73-282-46-111-157-215-222-193-68 22-103 188-45 288 37 65 95 68 108 129 14 70-56 102-56 170-1 122 224 292 359 222z"/>
  <linearGradient id="c" x1="1517.9" x2="1389.2" y1="831" y2="1455.1" gradientTransform="matrix(-1 0 0 1 1861 0)" gradientUnits="userSpaceOnUse">
    <stop offset="0" stop-color="#4042e2"/>
    <stop offset="1" stop-color="#4f52ff"/>
  </linearGradient>
  <path fill="url(#c)" d="m498 1450 2-1c2-1 2-3 1-5a2189 2189 0 0 1-175-605 4 4 0 1 0-8 1 2198 2198 0 0 0 180 610z"/>
  <linearGradient id="d" x1="141.7" x2="222.4" y1="773.6" y2="773.6" gradientUnits="userSpaceOnUse">
    <stop offset="0" stop-color="#dae3fe"/>
    <stop offset="1" stop-color="#e9effd"/>
  </linearGradient>
  <path fill="url(#d)" d="M220 923a2 2 0 0 0 2-3c-43-55-90-137-73-218 10-49 39-74 39-74a2 2 0 1 0-3-3c-1 1-29 26-40 76-9 45-4 121 74 221l1 1z"/>
  <path fill="#f0f0f0" d="m562 1379 2-1c65-96 87-170 66-220a96 96 0 0 0-68-53 2 2 0 0 0 0 4s46 8 64 51c21 49-1 121-66 216a2 2 0 0 0 2 3z"/>
  <linearGradient id="e" x1="1242.9" x2="942.9" y1="1251.1" y2="2457.2" gradientUnits="userSpaceOnUse">
    <stop offset="0" stop-color="#09005d"/>
    <stop offset="1" stop-color="#1a0f91"/>
  </linearGradient>
  <path fill="url(#e)" d="M475 418c-50 1-90 42-90 92v829c0 68 55 124 123 126 303 7 1362 26 1650 22 50-1 90-40 91-90 6-192 15-656-19-871-7-45-45-79-91-80-253-8-1376-34-1664-28z"/>
  <linearGradient id="f" x1="422.8" x2="2230.8" y1="1387.6" y2="427.6" gradientUnits="userSpaceOnUse">
    <stop offset="0" stop-color="#fe7062"/>
    <stop offset="1" stop-color="#ff928e"/>
  </linearGradient>
  <path fill="url(#f)" d="M437 506v787c0 40 32 73 72 73l1608 20c39 1 72-31 72-70l2-781c0-28-22-52-50-52L495 449c-32 0-58 25-58 57z"/>
  <linearGradient id="g" x1="435.3" x2="2202.7" y1="1401.2" y2="1401.2" gradientUnits="userSpaceOnUse">
    <stop offset="0" stop-color="#dae3fe"/>
    <stop offset="1" stop-color="#e9effd"/>
  </linearGradient>
  <path fill="url(#g)" d="m2201 1418-1764-30-2-2 2-2 1764 30a2 2 0 0 1 0 4z"/>
  <defs>
    <path id="h" d="M437 506v787c0 40 32 73 72 73l1608 20c39 1 72-31 72-70l2-781c0-28-22-276-50-277L495 225c-32-1-58 249-58 281z"/>
  </defs>
  <clipPath id="i">
    <use xlink:href="#h" overflow="visible"/>
  </clipPath>
  <g clip-path="url(#i)">
    <linearGradient id="j" x1="2270.6" x2="1926.3" y1="774" y2="1048.4" gradientUnits="userSpaceOnUse">
      <stop offset="0" stop-color="#4042e2"/>
      <stop offset="1" stop-color="#4f52ff"/>
    </linearGradient>
    <path fill="url(#j)" d="M1939 1060c4 4 116-6 162 6 0 0 36-199-68-207-103-8-140 73-140 73l46 128z"/>
    <path fill="#7d97f4" d="m1791 850 257 9s-94 1-83 120c10 119 63 465-71 465-135 1-137-61-137-61l34-533z"/>
    <linearGradient id="k" x1="2234.4" x2="1748.4" y1="781.5" y2="1171.9" gradientUnits="userSpaceOnUse">
      <stop offset="0" stop-color="#4042e2"/>
      <stop offset="1" stop-color="#4f52ff"/>
    </linearGradient>
    <path fill="url(#k)" d="m1702 794 100-23s66-6 75 53 7 409 4 482c-3 72 4 128 45 138l-296 6 72-656z"/>
    <path fill="#bdd0fb" d="M1666 1456s18-251 134-445c22-36 76-26 82 15 20 120 13 322-216 430z"/>
    <path fill="#dce5fe" d="M1846 1030a591 591 0 0 1-19 111 840 840 0 0 1-57 160l-13 25-14 25a525 525 0 0 1-70 90v-2c23-30 43-61 61-94l13-24 12-25 6-13 6-13 5-13 5-13 10-26a1212 1212 0 0 0 51-189 2 2 0 0 1 4 1z"/>
    <path fill="#91b3fa" d="M1714 1430s124-255 281-272c2-1 5 2 4 5-4 32-36 202-285 267z"/>
    <path fill="#dce5fe" d="M1965 1199a902 902 0 0 1-41 47l-14 15c-19 20-39 40-59 58l-31 28-16 13-8 6-8 7a983 983 0 0 1-70 48l1-2 17-12 8-6 8-7 17-12 16-13 8-6 8-7 16-13 30-28 30-28 15-14 14-15 15-15a1910 1910 0 0 0 41-46 2 2 0 0 1 3 2z"/>
    <path fill="#7d97f4" d="M1500 799s181 10 302-28c0 0-80-6-80 179 0 142 21 412 2 463-18 52-87 121-185 61-98-59-39-675-39-675z"/>
    <linearGradient id="l" x1="1851.1" x2="1423.9" y1="509.3" y2="-378.7" gradientTransform="rotate(3 320 -1830)" gradientUnits="userSpaceOnUse">
      <stop offset="0" stop-color="#53d8ff"/>
      <stop offset=".2" stop-color="#4db9fd"/>
      <stop offset="1" stop-color="#3840f7"/>
    </linearGradient>
    <path fill="url(#l)" d="M1490 334s235 38 267 0c0 0-20-74-92-72-72 1-175 72-175 72z"/>
    <linearGradient id="m" x1="1679.9" x2="455.1" y1="390" y2="1957.4" gradientTransform="rotate(3 320 -1830)" gradientUnits="userSpaceOnUse">
      <stop offset="0" stop-color="#4042e2"/>
      <stop offset="1" stop-color="#4f52ff"/>
    </linearGradient>
    <path fill="url(#m)" d="M847 242c-73 0-130 61-127 134 8 232 26 722 33 961 1 54 42 98 95 104 188 22 613 67 777 54-36-21-58-60-55-102l63-1067c2-38 41-63 76-48 22 9 38 28 48 56-13-46-36-80-92-72 0 0-550-23-818-20z"/>
    <path fill="#91b3fa" d="M742 378c7-60 58-106 119-105l740 9c-42 224-53 684-64 1137-1 27 13 52 37 65 0 0-493-20-704-46-49-6-88-46-93-95-19-196-63-700-35-965z"/>
    <linearGradient id="n" x1="812.4" x2="1481.6" y1="486.4" y2="486.4" gradientUnits="userSpaceOnUse">
      <stop offset="0" stop-color="#dae3fe"/>
      <stop offset="1" stop-color="#e9effd"/>
    </linearGradient>
    <path fill="url(#n)" d="m836 461 623 16c13 1 23 9 23 19-1 9-11 17-24 16l-622-14c-12-1-22-8-23-17l-1-2c-1-10 10-19 24-18z"/>
    <linearGradient id="o" x1="820.4" x2="1270.2" y1="565.5" y2="565.5" gradientUnits="userSpaceOnUse">
      <stop offset="0" stop-color="#dae3fe"/>
      <stop offset="1" stop-color="#e9effd"/>
    </linearGradient>
    <path fill="url(#o)" d="M823 569c2 3 5 4 9 4l427 15c5 0 10-3 10-7l1-21c0-4-4-7-10-8l-415-9c-19-1-30 14-22 26z"/>
    <linearGradient id="p" x1="801.8" x2="1471.1" y1="676.8" y2="676.8" gradientUnits="userSpaceOnUse">
      <stop offset="0" stop-color="#dae3fe"/>
      <stop offset="1" stop-color="#e9effd"/>
    </linearGradient>
    <path fill="url(#p)" d="m825 651 623 17c13 0 24 9 23 18 0 10-11 17-23 17l-623-15c-12 0-22-7-23-16v-3c-1-10 9-18 23-18z"/>
    <linearGradient id="q" x1="809.9" x2="1259.7" y1="755.9" y2="755.9" gradientUnits="userSpaceOnUse">
      <stop offset="0" stop-color="#dae3fe"/>
      <stop offset="1" stop-color="#e9effd"/>
    </linearGradient>
    <path fill="url(#q)" d="M813 760c2 2 5 4 8 4l428 15c5 0 9-3 10-7l1-21c0-4-5-8-10-8l-416-10c-18 0-30 14-21 27z"/>
    <linearGradient id="r" x1="864.1" x2="1361.8" y1="1036" y2="1036" gradientUnits="userSpaceOnUse">
      <stop offset="0" stop-color="#dae3fe"/>
      <stop offset="1" stop-color="#e9effd"/>
    </linearGradient>
    <path fill="url(#r)" d="M864 1106a297 297 0 0 1 88-188l13-12 14-11 14-11 7-5 4-2 2-1 2-2c13-7 32-7 45 5a33 33 0 0 1 9 16l1 6a75 75 0 0 1-2 29l-1 8-4 17a830 830 0 0 1-56 165l-8 15-8 16-4 7-2 4-2 4-11 16c-4 5-9 9-15 13a41 41 0 0 1-26 8l-6-2-11-5c-6-4-11-11-13-17-3-7-4-14-4-21-1-6 1-13 2-19l5-17 3-8 3-9a310 310 0 0 1 80-115l3-3 3-3 7-5 7-6 7-5 14-10 4-2 2-1 1-1 1-1c4-2 7-3 11-3 7-1 15 1 21 7 3 2 6 6 7 10v11l-1 9-3 9-4 16-19 66-10-1c1-8 3-15 7-22l8-9a31 31 0 0 1 23-6l6 1 3 2 2 1a18 18 0 0 0 19-1l1-1 1-1 1-1 7-7 14-15 14-15 7-8 7-4 8 1c3 1 5 3 6 5a13 13 0 0 1 2 10l-1 2-1 2-1 5a215 215 0 0 0-9 39v9l4 7c1 2 4 3 6 4l4 2h4c3 0 5-1 8-3l1-1 2-1 4-4a453 453 0 0 0 74-96l5-9 3-4 1-3h1l-1 1v1l-2 1-4 4a123 123 0 0 0-18 29l-1 2-1 2v1c-2 5-2 11 0 16a22 22 0 0 0 21 12c2 0 5 0 8-2h2l2-2 4-2a263 263 0 0 0 68-60 5 5 0 1 1 8 6 266 266 0 0 1-71 62l-4 3-3 1-2 1-12 3c-4 0-8 0-12-2-8-3-14-9-18-16-3-7-3-16 0-24v-1l1-2 1-2a142 142 0 0 1 25-37l1-1 1-1 1-1a9 9 0 0 1 10 0c3 1 5 5 5 9a9 9 0 0 1-1 3v1l-2 2-2 5-5 9a467 467 0 0 1-77 98l-3 4-3 2-1 1-1 1-12 4-6-1-6-1a27 27 0 0 1-16-19l-1-3v-9a224 224 0 0 1 9-41l2-5 1-2v-4l-2-1c-1-1-2 0-4 1l-7 7-14 15-14 16-7 7-1 1-1 1-2 2-6 3c-8 4-17 3-24-1l-2-2-2-1-4-1-8 1c-5 1-10 5-13 10s-4 11-5 17l-10-1 17-67 4-17 2-8 1-7v-6l-3-4c-2-3-6-4-10-3l-6 2h-1v1l-2 1-4 2-13 10-7 5-6 5-7 6-3 3-3 3a296 296 0 0 0-73 110l-3 8-3 8-4 15c-2 11-2 20 1 28 2 4 4 7 7 9l5 3h5c4 0 8-1 11-4 4-2 8-6 11-10l9-13 1-3 2-4 4-7 8-16 7-15a799 799 0 0 0 54-160l4-17 2-8 1-8v-14c-1-4-2-8-4-10l-4-2-5-2a19 19 0 0 0-12 4l-2 1-3 2-7 4-14 10-12 11-13 11a315 315 0 0 0-92 174 5 5 0 0 1-10-1z"/>
    <path fill="#fff" d="M1377 956a5 5 0 0 1-3-9l50-31a5 5 0 1 1 5 9l-49 30-3 1zm321 247a6025 6025 0 0 0-1-48c1 0 2 1 2 3l2 42c0 2-1 3-3 3z"/>
    <linearGradient id="s" x1="1686.7" x2="1727.4" y1="963.4" y2="963.4" gradientUnits="userSpaceOnUse">
      <stop offset="0" stop-color="#dae3fe"/>
      <stop offset="1" stop-color="#e9effd"/>
    </linearGradient>
    <path fill="url(#s)" d="m1696 1123-3-3-2-70-4-103c-2-89 12-123 25-136 7-7 12-7 13-7a2 2 0 0 1 0 5c-1 0-36 4-33 138a5342 5342 0 0 0 6 173l-2 3z"/>
    <linearGradient id="t" x1="1936.5" x2="1971.3" y1="995.3" y2="995.3" gradientUnits="userSpaceOnUse">
      <stop offset="0" stop-color="#dae3fe"/>
      <stop offset="1" stop-color="#e9effd"/>
    </linearGradient>
    <path fill="url(#t)" d="m1954 1113-3-3c0-1-4-81-13-148-9-69 28-83 30-84a2 2 0 0 1 2 5c-2 0-36 14-27 79a2547 2547 0 0 1 11 151z"/>
  </g>
  <linearGradient id="u" x1="-1873.4" x2="-1804.7" y1="1519.9" y2="1519.9" gradientTransform="matrix(-1 0 0 1 201 0)" gradientUnits="userSpaceOnUse">
    <stop offset="0" stop-color="#4042e2"/>
    <stop offset="1" stop-color="#4f52ff"/>
  </linearGradient>
  <path fill="url(#u)" d="m2008 1517 48 3c10 0 15-1 19-2l-1 1c0 2-1 3-3 3-30 2-54 1-63 0-2 0-3-2-2-3l2-2z"/>
  <linearGradient id="v" x1="-1873.4" x2="-1806.6" y1="1506.5" y2="1506.5" gradientTransform="matrix(-1 0 0 1 201 0)" gradientUnits="userSpaceOnUse">
    <stop offset="0" stop-color="#09005d"/>
    <stop offset="1" stop-color="#1a0f91"/>
  </linearGradient>
  <path fill="url(#v)" d="m2056 1520-48-3c11-15 48-24 48-24h10c8 10 9 20 9 25-4 1-9 2-19 2z"/>
  <linearGradient id="w" x1="-1867" x2="-1847.7" y1="1487.7" y2="1487.7" gradientTransform="matrix(-1 0 0 1 201 0)" gradientUnits="userSpaceOnUse">
    <stop offset="0" stop-color="#ff928e"/>
    <stop offset="1" stop-color="#feb3b1"/>
  </linearGradient>
  <path fill="url(#w)" d="m2068 1476-1 19c0 2-1 4-4 4h-7l-4-4-3-19h19z"/>
  <linearGradient id="x" x1="-2010.3" x2="-1984" y1="1518.5" y2="1518.5" gradientTransform="matrix(-1 0 0 1 201 0)" gradientUnits="userSpaceOnUse">
    <stop offset="0" stop-color="#4042e2"/>
    <stop offset="1" stop-color="#4f52ff"/>
  </linearGradient>
  <path fill="url(#x)" d="M2203 1520c5-1 7-4 8-6 1 3-1 6-4 7-4 2-9 2-13 2-3 0-7-2-9-4 4 2 9 2 18 1z"/>
  <linearGradient id="y" x1="-2010.1" x2="-1971.5" y1="1498.2" y2="1498.2" gradientTransform="matrix(-1 0 0 1 201 0)" gradientUnits="userSpaceOnUse">
    <stop offset="0" stop-color="#09005d"/>
    <stop offset="1" stop-color="#1a0f91"/>
  </linearGradient>
  <path fill="url(#y)" d="M2179 1476h8c13 0 22 27 24 38-1 2-3 5-8 6-9 1-14 1-18-1-7-9-10-23-12-31-2-9 6-12 6-12z"/>
  <linearGradient id="z" x1="-1990" x2="-1966.9" y1="1471.6" y2="1471.6" gradientTransform="matrix(-1 0 0 1 201 0)" gradientUnits="userSpaceOnUse">
    <stop offset="0" stop-color="#ff928e"/>
    <stop offset="1" stop-color="#feb3b1"/>
  </linearGradient>
  <path fill="url(#z)" d="m2186 1458 5 19c1 2-1 5-3 6l-9 2c-2 0-3-1-4-3l-7-20 18-4z"/>
  <linearGradient id="A" x1="2107.6" x2="2128.6" y1="1415.8" y2="1642.8" gradientUnits="userSpaceOnUse">
    <stop offset="0" stop-color="#4042e2"/>
    <stop offset="1" stop-color="#4f52ff"/>
  </linearGradient>
  <path fill="url(#A)" d="M2192 1463c-6 6-25 6-25 6-69-166-98-189-98-189 10 62 2 201 2 201-12 5-26 0-26 0-1-103-17-192-36-263 47-1 72-17 80-23 39 63 103 268 103 268z"/>
  <linearGradient id="B" x1="-1835.8" x2="-1584.8" y1="1108.6" y2="1285.6" gradientTransform="matrix(-1 0 0 1 201 0)" gradientUnits="userSpaceOnUse">
    <stop offset="0" stop-color="#09005d"/>
    <stop offset="1" stop-color="#1a0f91"/>
  </linearGradient>
  <path fill="url(#B)" d="M2077 1004c9 44 6 123 4 159-1 10 6 24 12 34 1 1 0 3-1 4-10 5-42 20-80 22-2 0-4-1-5-4-28-104-60-170-60-170 35-58 130-45 130-45z"/>
  <linearGradient id="C" x1="-1912.1" x2="-1901" y1="1385.9" y2="1363.8" gradientTransform="matrix(-1 0 0 1 201 0)" gradientUnits="userSpaceOnUse">
    <stop offset="0" stop-color="#53d8ff"/>
    <stop offset="1" stop-color="#3840f7"/>
  </linearGradient>
  <path fill="url(#C)" d="M2065 1276a2 2 0 0 0 1-4s-9-15-27-24a2 2 0 0 0-2 4c17 9 26 22 26 23l2 1z"/>
  <linearGradient id="D" x1="-1835.2" x2="-1918.5" y1="967.4" y2="1171.4" gradientTransform="matrix(-1 0 0 1 201 0)" gradientUnits="userSpaceOnUse">
    <stop offset="0" stop-color="#ff928e"/>
    <stop offset="1" stop-color="#feb3b1"/>
  </linearGradient>
  <path fill="url(#D)" d="M2133 1131c-3 20-11 43-28 66l-7-5s8-30 4-64c10-2 22 0 31 3z"/>
  <linearGradient id="E" x1="-1839" x2="-1588" y1="1113" y2="1290" gradientTransform="matrix(-1 0 0 1 201 0)" gradientUnits="userSpaceOnUse">
    <stop offset="0" stop-color="#09005d"/>
    <stop offset="1" stop-color="#1a0f91"/>
  </linearGradient>
  <path fill="url(#E)" d="m2067 1058 10-54s66 50 56 127c-9-3-21-5-31-3-3-24-12-51-35-70z"/>
  <linearGradient id="F" x1="-725.5" x2="-1253.1" y1="1357.4" y2="1816.3" gradientTransform="matrix(-.94 .34 .34 .94 719 35)" gradientUnits="userSpaceOnUse">
    <stop offset="0" stop-color="#09005d"/>
    <stop offset="1" stop-color="#1a0f91"/>
  </linearGradient>
  <path fill="url(#F)" d="m1947 1049 43 43c8 32-4 52-21 63-6-13-14-24-20-30 15-33-2-76-2-76z"/>
  <linearGradient id="G" x1="-794.8" x2="-730" y1="1463.4" y2="1463.4" gradientTransform="matrix(-.94 .34 .34 .94 719 35)" gradientUnits="userSpaceOnUse">
    <stop offset="0" stop-color="#ff928e"/>
    <stop offset="1" stop-color="#feb3b1"/>
  </linearGradient>
  <path fill="url(#G)" d="M1949 1125c6 6 14 17 20 30-41 36-67 5-67 5l8-5c21-5 33-17 39-30z"/>
  <linearGradient id="H" x1="-1792.8" x2="-1793.5" y1="968.2" y2="1089.3" gradientTransform="matrix(-1 0 0 1 201 0)" gradientUnits="userSpaceOnUse">
    <stop offset="0" stop-color="#ff928e"/>
    <stop offset="1" stop-color="#feb3b1"/>
  </linearGradient>
  <path fill="url(#H)" d="m1970 981 12 45c2 5 7 8 12 6l18-8c6-4 8-12 4-17l-25-39-21 13z"/>
  <linearGradient id="I" x1="-2098.4" x2="-2157.9" y1="2251.7" y2="2330.5" gradientTransform="scale(-1 1) rotate(-8 -11106 600)" gradientUnits="userSpaceOnUse">
    <stop offset="0" stop-color="#ff928e"/>
    <stop offset="1" stop-color="#feb3b1"/>
  </linearGradient>
  <path fill="url(#I)" d="m1943 946 10 52 29-7-2-49s-35-9-37 4z"/>
  <linearGradient id="J" x1="-2143.9" x2="-2072.7" y1="2270.7" y2="2270.7" gradientTransform="scale(-1 1) rotate(-8 -11106 600)" gradientUnits="userSpaceOnUse">
    <stop offset="0" stop-color="#09005d"/>
    <stop offset="1" stop-color="#1a0f91"/>
  </linearGradient>
  <path fill="url(#J)" d="m1973 953 4 26v1c-1 2-2 9-9 7s-12-4-16-2c-2 0-3 2-3 4 1 5 3 15 7 24l4 2c6-2 17-5 26-11l1-3v-32c1-5 7-8 10-10l2-2c1-3 3-10-7-13-1-1-3-3-2-5 2-4 2-10-5-13-8-4-13 0-16 3-1 2-3 2-5 1h-3c-2 1-4 0-5-1-2-4-6-8-13-7-13 2-14 17-11 25 3 9 17 5 24 1 6-3 12 0 15 2l2 3z"/>
  <linearGradient id="K" x1="-2185.6" x2="-2137.8" y1="2314.1" y2="2265" gradientTransform="scale(-1 1) rotate(-8 -11106 600)" gradientUnits="userSpaceOnUse">
    <stop offset="0" stop-color="#ff928e"/>
    <stop offset="1" stop-color="#feb3b1"/>
  </linearGradient>
  <path fill="url(#K)" d="M1988 978s-5-14 0-18c6-4 14-2 12 9-2 13-12 9-12 9z"/>
  <linearGradient id="L" x1="2029.5" x2="2022.5" y1="1116.4" y2="1284.4" gradientUnits="userSpaceOnUse">
    <stop offset="0" stop-color="#4042e2"/>
    <stop offset="1" stop-color="#4f52ff"/>
  </linearGradient>
  <path fill="url(#L)" d="M1884 1228c-4 11 2 24 13 28l236 87a22 22 0 0 0 15-41l-236-87c-11-5-24 1-28 13z"/>
  <linearGradient id="M" x1="-3075.6" x2="-3096" y1="-219.5" y2="-123.3" gradientTransform="rotate(-70 57 -2849)" gradientUnits="userSpaceOnUse">
    <stop offset="0" stop-color="#09005d"/>
    <stop offset="1" stop-color="#1a0f91"/>
  </linearGradient>
  <path fill="url(#M)" d="M1441 1010c-1 2 1 5 3 6l30 11 3-9-30-11c-2-1-5 0-6 3z"/>
  <linearGradient id="N" x1="-3088" x2="-3049.8" y1="116.6" y2="-48.1" gradientTransform="rotate(-70 57 -2849)" gradientUnits="userSpaceOnUse">
    <stop offset="0" stop-color="#4042e2"/>
    <stop offset="1" stop-color="#4f52ff"/>
  </linearGradient>
  <path fill="url(#N)" d="M1462 1017c-3 9 1 18 9 22l99 47 37 16 305 113c9 3 18-2 22-11l8-21c3-9-2-19-10-22l-305-113c-13-5-25-9-38-12l-106-29c-9-2-18 2-21 10z"/>
  <linearGradient id="O" x1="-3080.7" x2="-3072.1" y1="-3580.4" y2="-3617.3" gradientTransform="scale(1 -1) rotate(70 -2052 1381)" gradientUnits="userSpaceOnUse">
    <stop offset="0" stop-color="#4042e2"/>
    <stop offset="1" stop-color="#4f52ff"/>
  </linearGradient>
  <path fill="url(#O)" d="M2307 1330c-4 9-8 15-10 15h-28l-10-2-60-22c-2-1-1-9 2-18l8-21c3-9 8-16 10-15l60 22 8 5 22 19c2 1 1 9-2 17z"/>
  <linearGradient id="P" x1="1371.5" x2="1983.5" y1="1144.9" y2="1186.9" gradientUnits="userSpaceOnUse">
    <stop offset="0" stop-color="#09005d"/>
    <stop offset="1" stop-color="#1a0f91"/>
  </linearGradient>
  <path fill="url(#P)" d="M1490 1028c-6 14 1 30 14 36l169 80c20 10 41 19 63 27l478 177c15 5 32-2 38-17l13-37c6-15-2-32-17-38l-479-177c-21-8-42-14-64-20l-180-49c-15-4-30 4-35 18z"/>
  <linearGradient id="Q" x1="-3048.1" x2="-3133.8" y1="486.4" y2="648.1" gradientTransform="rotate(-70 57 -2849)" gradientUnits="userSpaceOnUse">
    <stop offset="0" stop-color="#4042e2"/>
    <stop offset="1" stop-color="#4f52ff"/>
  </linearGradient>
  <path fill="url(#Q)" d="m2179 1231-34 91-14-5 34-91z"/>
  <linearGradient id="R" x1="-1660" x2="-1636.8" y1="1209.2" y2="1209.2" gradientTransform="matrix(-1 0 0 1 201 0)" gradientUnits="userSpaceOnUse">
    <stop offset="0" stop-color="#ff928e"/>
    <stop offset="1" stop-color="#feb3b1"/>
  </linearGradient>
  <path fill="url(#R)" d="M1858 1220c-3 2-11-2-17-5-2-1-4-4-3-7 1-4 4-10 6-10 5-1 25 14 14 22z"/>
  <linearGradient id="S" x1="-1794.2" x2="-1877.6" y1="984.2" y2="1188.2" gradientTransform="matrix(-1 0 0 1 201 0)" gradientUnits="userSpaceOnUse">
    <stop offset="0" stop-color="#ff928e"/>
    <stop offset="1" stop-color="#feb3b1"/>
  </linearGradient>
  <path fill="url(#S)" d="m2101 1191-30-2-13 12s3 4 13 2c9-3 23-3 23-3s13 6 13-6l-6-3z"/>
  <linearGradient id="T" x1="1911.1" x2="1866.1" y1="-344.2" y2="501.9" gradientUnits="userSpaceOnUse">
    <stop offset="0" stop-color="#09005d"/>
    <stop offset="1" stop-color="#1a0f91"/>
  </linearGradient>
  <path fill="url(#T)" d="M2129 326c-1-17-12-33-28-41l-207-98c-13-6-28-6-42 0l-207 98c-16 8-26 24-27 41-20 300 173 409 236 437 12 6 26 6 39 0 63-28 255-137 236-437z"/>
  <linearGradient id="U" x1="1805.7" x2="1864.5" y1="213.9" y2="213.9" gradientUnits="userSpaceOnUse">
    <stop offset="0" stop-color="#dae3fe"/>
    <stop offset="1" stop-color="#e9effd"/>
  </linearGradient>
  <path fill="url(#U)" d="M1811 230a5 5 0 0 1-2-9l48-23a5 5 0 1 1 5 9l-49 23h-2z"/>
  <linearGradient id="V" x1="1628.2" x2="1796.8" y1="311" y2="311" gradientUnits="userSpaceOnUse">
    <stop offset="0" stop-color="#dae3fe"/>
    <stop offset="1" stop-color="#e9effd"/>
  </linearGradient>
  <path fill="url(#V)" d="M1633 392c-2 0-4-2-4-4-1-20-1-40 1-61 0-13 8-25 21-31l139-66a5 5 0 1 1 4 9l-139 66c-9 4-15 13-16 23l-1 59c1 3-2 5-4 5h-1z"/>
  <linearGradient id="W" x1="1783" x2="1964.1" y1="177.4" y2="621.7" gradientUnits="userSpaceOnUse">
    <stop offset="0" stop-color="#4042e2"/>
    <stop offset="1" stop-color="#4f52ff"/>
  </linearGradient>
  <path fill="url(#W)" d="M2079 338c0-5-3-9-7-10l-194-92c-3-2-7-2-10 0l-193 92c-4 1-7 5-7 10-6 112 20 205 77 278 43 55 93 84 123 98 3 2 7 2 10 0 30-14 81-43 124-98 57-73 83-166 77-278z"/>
  <linearGradient id="X" x1="1867.2" x2="1888" y1="320.3" y2="539.2" gradientUnits="userSpaceOnUse">
    <stop offset="0" stop-color="#fe7062"/>
    <stop offset="1" stop-color="#ff928e"/>
  </linearGradient>
  <path fill="url(#X)" d="M1816 458h-19v-77c0-30 22-55 52-59l40-5a60 60 0 0 1 67 60v67h-20v-67a40 40 0 0 0-45-41l-39 5c-21 3-36 20-36 40v77z"/>
  <linearGradient id="Y" x1="1861.1" x2="1914.8" y1="428.3" y2="685.3" gradientUnits="userSpaceOnUse">
    <stop offset="0" stop-color="#fe7062"/>
    <stop offset="1" stop-color="#ff928e"/>
  </linearGradient>
  <path fill="url(#Y)" d="m1791 441 169-9c7-1 13 5 13 11v134c0 7-6 12-12 12h-165c-7 0-12-5-12-11l-4-125c0-6 5-12 11-12z"/>
  <linearGradient id="Z" x1="1842.9" x2="1802.9" y1="675.4" y2="859.4" gradientUnits="userSpaceOnUse">
    <stop offset="0" stop-color="#4042e2"/>
    <stop offset="1" stop-color="#4f52ff"/>
  </linearGradient>
  <path fill="url(#Z)" d="m1904 551-10-29c-2-4-1-8 2-11a28 28 0 0 0-19-47 28 28 0 0 0-19 49c4 3 5 7 4 11l-10 27c-2 6 3 13 10 13h32c7 0 12-7 10-13z"/>
  <linearGradient id="aa" x1="552.2" x2="570.2" y1="1106.5" y2="596.4" gradientUnits="userSpaceOnUse">
    <stop offset="0" stop-color="#09005d"/>
    <stop offset="1" stop-color="#1a0f91"/>
  </linearGradient>
  <path fill="url(#aa)" d="M799 503c-1-16-10-30-24-36l-184-88c-12-5-26-5-37 0l-184 88c-14 6-24 20-25 36-17 266 154 364 210 388 11 5 24 5 35 0 56-24 227-122 209-388z"/>
  <linearGradient id="ab" x1="512.7" x2="564" y1="403.3" y2="403.3" gradientUnits="userSpaceOnUse">
    <stop offset="0" stop-color="#dae3fe"/>
    <stop offset="1" stop-color="#e9effd"/>
  </linearGradient>
  <path fill="url(#ab)" d="M517 418a4 4 0 0 1-2-8l43-21a4 4 0 1 1 4 8l-44 20-1 1z"/>
  <linearGradient id="ac" x1="355.1" x2="503.9" y1="489.5" y2="489.5" gradientUnits="userSpaceOnUse">
    <stop offset="0" stop-color="#dae3fe"/>
    <stop offset="1" stop-color="#e9effd"/>
  </linearGradient>
  <path fill="url(#ac)" d="M359 561c-2 0-4-1-4-3l1-54c1-12 8-22 19-27l123-59a4 4 0 0 1 4 7l-124 59c-8 4-13 11-14 20l-1 53c0 2-1 4-4 4z"/>
  <linearGradient id="ad" x1="447.7" x2="608.5" y1="261.8" y2="656.5" gradientUnits="userSpaceOnUse">
    <stop offset="0" stop-color="#4042e2"/>
    <stop offset="1" stop-color="#4f52ff"/>
  </linearGradient>
  <path fill="url(#ad)" d="M755 513c0-4-3-7-6-9l-172-81c-3-2-6-2-9 0l-172 81c-4 2-6 5-6 9-5 100 18 183 68 247 38 49 83 75 110 88h9c26-13 71-39 110-88 50-64 73-147 68-247z"/>
  <linearGradient id="ae" x1="660.5" x2="393.5" y1="461.8" y2="908.7" gradientUnits="userSpaceOnUse">
    <stop offset="0" stop-color="#fe7062"/>
    <stop offset="1" stop-color="#ff928e"/>
  </linearGradient>
  <path fill="url(#ae)" d="M593 771V639a80 80 0 1 0-34 1v38h-21c-7 0-13 6-13 14s6 14 13 14h21v35h-31c-8 0-14 6-14 13v1c0 7 6 14 14 14h31v2c0 10 7 17 17 17s17-7 17-17zm-69-209a49 49 0 1 1 99 0 49 49 0 0 1-99 0z"/>
  <linearGradient id="af" x1="587.8" x2="540.5" y1="732.8" y2="878" gradientTransform="matrix(-1 0 0 1 1019 0)" gradientUnits="userSpaceOnUse">
    <stop offset="0" stop-color="#ff928e"/>
    <stop offset="1" stop-color="#feb3b1"/>
  </linearGradient>
  <path fill="url(#af)" d="M516 866s64 82-9 165l-28-3s53-84 30-151l-27-2c-5-1-10-3-13-6l-8-8c-3-3 0-7 4-6l51 11z"/>
  <linearGradient id="ag" x1="538" x2="634.5" y1="1355" y2="1355" gradientTransform="matrix(-1 0 0 1 1019 0)" gradientUnits="userSpaceOnUse">
    <stop offset="0" stop-color="#ff928e"/>
    <stop offset="1" stop-color="#feb3b1"/>
  </linearGradient>
  <path fill="url(#ag)" d="M481 1266s-52 112-79 159c0 0-5 29 0 39l5 2-22-1s-2-39 0-42c1-2 4-2 4-2s10-72 36-88l26-89 30 22z"/>
  <linearGradient id="ah" x1="670.6" x2="622.8" y1="1139.1" y2="1449.9" gradientTransform="matrix(-1 0 0 1 1019 0)" gradientUnits="userSpaceOnUse">
    <stop offset="0" stop-color="#53d8ff"/>
    <stop offset="1" stop-color="#3840f7"/>
  </linearGradient>
  <path fill="url(#ah)" d="M416 1471h-26c-3 0-6-2-7-5l-7-36c0-4 2-7 5-8l4-1s5 8 4 15c-2 7-4 25 1 27 4 2 17 3 17 3s9 1 9 5z"/>
  <linearGradient id="ai" x1="569.5" x2="521.7" y1="1123.6" y2="1434.3" gradientTransform="matrix(-1 0 0 1 1019 0)" gradientUnits="userSpaceOnUse">
    <stop offset="0" stop-color="#53d8ff"/>
    <stop offset="1" stop-color="#3840f7"/>
  </linearGradient>
  <path fill="url(#ai)" d="M530 1472c1 1 1 3-1 3-15 0-49 0-53-2-3-1 2-15 8-20l31 10 15 9z"/>
  <linearGradient id="aj" x1="479.4" x2="535.3" y1="1362.2" y2="1362.2" gradientTransform="matrix(-1 0 0 1 1019 0)" gradientUnits="userSpaceOnUse">
    <stop offset="0" stop-color="#ff928e"/>
    <stop offset="1" stop-color="#feb3b1"/>
  </linearGradient>
  <path fill="url(#aj)" d="M539 1259s-33 161-42 193l22 14-20-3c-8 0-15-10-15-10l2-4s9-161 7-179l46-11z"/>
  <linearGradient id="ak" x1="359" x2="468.4" y1="942.8" y2="942.8" gradientTransform="matrix(-1 0 0 1 1019 0)" gradientUnits="userSpaceOnUse">
    <stop offset="0" stop-color="#ff928e"/>
    <stop offset="1" stop-color="#feb3b1"/>
  </linearGradient>
  <path fill="url(#ak)" d="M622 882s5 84-72 127l19 42s69-42 66-156c0-3 2-6 4-9l14-17c6-7 8-15 6-24l-2-7c-1-3-3-4-6-3l-1 1c-5 3-9 7-11 12l-8 16c-2 6-3 7-7 7h-5l-8 2 11 9z"/>
  <linearGradient id="al" x1="478.9" x2="684" y1="1002.3" y2="1408.6" gradientTransform="matrix(-1 0 0 1 1019 0)" gradientUnits="userSpaceOnUse">
    <stop offset="0" stop-color="#cb236d"/>
    <stop offset="1" stop-color="#4c246d"/>
  </linearGradient>
  <path fill="url(#al)" d="M553 1003c-13 3-56 15-83 14l17 94-2 15h54s16-35 28-53c3-5 1-11-1-17l2-2c3-2 4-5 3-8l-13-41c-1-2-3-3-5-2z"/>
  <linearGradient id="am" x1="430" x2="609.3" y1="1109.7" y2="1311.8" gradientTransform="matrix(-1 0 0 1 1019 0)" gradientUnits="userSpaceOnUse">
    <stop offset="0" stop-color="#4042e2"/>
    <stop offset="1" stop-color="#4f52ff"/>
  </linearGradient>
  <path fill="url(#am)" d="m544 1118-1 9s15 46-8 153c0 0-50 14-91-19 0 0 12-101 15-106 16-24 26-29 26-29l1-10s43 8 58 2z"/>
  <linearGradient id="an" x1="-808.5" x2="-942" y1="2830.7" y2="3015.2" gradientTransform="matrix(-1 0 0 1 1019 0)" gradientUnits="userSpaceOnUse">
    <stop offset="0" stop-color="#ff928e"/>
    <stop offset="1" stop-color="#feb3b1"/>
  </linearGradient>
  <path fill="url(#an)" d="m522 1010-11-34-16 1-7 39s26 5 34-6z"/>
  <linearGradient id="ao" x1="-827.6" x2="-961.1" y1="2816.8" y2="3001.3" gradientTransform="matrix(-1 0 0 1 1019 0)" gradientUnits="userSpaceOnUse">
    <stop offset="0" stop-color="#ff928e"/>
    <stop offset="1" stop-color="#feb3b1"/>
  </linearGradient>
  <path fill="url(#ao)" d="M499 921c1 1 35 15 28 50-1 3-2 4-4 5-5 2-16 6-29 5-18-2-29-33-29-42 1-9 23-24 34-18z"/>
  <path fill="#fff" d="M510 995c0-7-2-15-5-21-3-8-2-17 3-23 9-10 12-23 7-35-7-18-31-25-53-16-16 7-26 20-28 33-1 8-5 14-12 19-8 7-15 16-18 27-3 7-7 13-14 17-15 8-27 21-35 38a84 84 0 1 0 152-2c-2-5-3-11-1-17 3-6 4-13 4-20z"/>
</svg>