<svg xmlns="http://www.w3.org/2000/svg" xml:space="preserve" viewBox="0 0 3710 3710"><linearGradient id="a" x1="3573.92" x2="1127.39" y1="4029.53" y2="991.09" gradientUnits="userSpaceOnUse"><stop offset="0" stop-color="#dae3fe"/><stop offset="1" stop-color="#e9effd"/></linearGradient><path fill="url(#a)" d="M2910.68 2824.46c-56.73 58.79-110.41 96.7-152.82 126.65-498.56 352.1-1088.47 249.46-1213.85 224.4-185.14-37.02-543-108.56-801.74-408.04-391.44-453.09-330.49-1166.92-26.86-1638.13 55.54-86.19 348.9-564.57 945.18-641.3 360.86-46.42 781.5 47.22 1086.12 298.42 639.43 527.28 593.9 1592.5 163.97 2038z"/><path fill="#bdd0fb" d="M996.65 1243.76c.26-13.32 11.46-24.04 25.18-24.04h832.25c13.91 0 28.68 11.05 28.68 24.55v1886.35c0 10.08-5.88 19.75-13.23 26.87-7.35 7.11-18.19 11.1-28.57 11.07l-841.37-2.23a40.16 40.16 0 0 1-28.03-11.4 37.52 37.52 0 0 1-11.25-27.28l36.34-1883.89z"/><path fill="#fff" d="m1474.61 1353.4 272.25-.91-.1-33.09-271.95.84zm-.75 121.85 273.37-1.21-.1-33.35-273.06 1.13zm-.75 122.86 274.5-1.51-.1-33.63-274.19 1.43zm-.76 123.88 275.64-1.82-.11-33.91-275.32 1.74zm-.76 124.91 276.78-2.13-.1-34.19-276.47 2.05zm-1.55 252.97 279.11-2.77-.11-34.76-278.79 2.68zm-2.38 387.53 282.67-3.76-.11-35.66-282.34 3.67zm3.15-514.54 277.95-2.45-.11-34.47-277.62 2.36zm-1.56 255.1 280.29-3.1-.11-35.05-279.96 3zm-.79 129.17 281.47-3.42-.11-35.36-281.14 3.34zm-1.6 261.66 283.87-4.11-.11-35.96-283.54 4.01zm-.81 132.51 285.09-4.46-.11-36.27-284.76 4.37zm-.82 133.66 286.32-4.82-.11-36.58-285.99 4.72zm-.83 134.81 287.56-5.18-.11-36.89-287.22 5.07zM1117.67 1354.6l273.96-.92.29-33.19-273.65.84zm-2.23 122.24 275.1-1.22.3-33.46-274.79 1.14zm-2.24 123.25 276.24-1.52.3-33.74-275.92 1.44zm-2.25 124.29 277.38-1.83.31-34.02-277.07 1.74zm-2.28 125.32 278.55-2.15.3-34.3-278.23 2.06zm-4.62 253.8 280.91-2.78.31-34.88-280.58 2.69zm-7.07 388.84 284.51-3.79.32-35.78-284.17 3.7zm9.39-516.27 279.72-2.47.31-34.59-279.4 2.38zm-4.65 255.95 282.09-3.12.32-35.17-281.77 3.02zm-2.36 129.61 283.3-3.45.32-35.48-282.97 3.36zm-4.77 262.55 285.73-4.14.32-36.08-285.4 4.04zm-2.42 132.97 286.97-4.49.32-36.4-286.63 4.4zm-2.44 134.12 288.21-4.85.33-36.7-287.87 4.74zm-2.46 135.29 289.47-5.21.33-37.03-289.12 5.11z" opacity=".52"/><path fill="#bdd0fb" d="M519.07 1764.07c.36-15.4 16.18-28.09 35.57-28.09h733.02c19.65 0 38.95 13.35 38.95 28.96v1395.91c0 7.51-5.45 14.72-12.14 20.02-6.7 5.3-16.61 8.28-26.07 8.26l-766.4-1.66c-9.54-.02-18.88-3.09-25.55-8.5-6.67-5.42-10.43-12.9-10.25-20.48l32.87-1394.42z"/><linearGradient id="b" x1="1058.89" x2="1269.37" y1="1857.84" y2="1857.84" gradientUnits="userSpaceOnUse"><stop offset="0" stop-color="#dae3fe"/><stop offset="1" stop-color="#e9effd"/></linearGradient><path fill="url(#b)" d="m1058.89 1900.48 208.82-.23 1.66-85.05h-209.02z"/><linearGradient id="c" x1="824.83" x2="1034.87" y1="1857.82" y2="1857.82" gradientUnits="userSpaceOnUse"><stop offset="0" stop-color="#dae3fe"/><stop offset="1" stop-color="#e9effd"/></linearGradient><path fill="url(#c)" d="m824.83 1900.43 208.61-.22 1.43-85.01H826.06z"/><linearGradient id="d" x1="591" x2="800.6" y1="1857.79" y2="1857.79" gradientUnits="userSpaceOnUse"><stop offset="0" stop-color="#dae3fe"/><stop offset="1" stop-color="#e9effd"/></linearGradient><path fill="url(#d)" d="m591 1900.39 208.4-.22 1.2-84.97H592z"/><linearGradient id="e" x1="1056.28" x2="1266.39" y1="2010.97" y2="2010.97" gradientUnits="userSpaceOnUse"><stop offset="0" stop-color="#dae3fe"/><stop offset="1" stop-color="#e9effd"/></linearGradient><path fill="url(#e)" d="m1056.28 2053.15 208.46.11 1.65-84.5-208.66-.07z"/><linearGradient id="f" x1="822.63" x2="1032.3" y1="2010.87" y2="2010.87" gradientUnits="userSpaceOnUse"><stop offset="0" stop-color="#dae3fe"/><stop offset="1" stop-color="#e9effd"/></linearGradient><path fill="url(#f)" d="m822.63 2053.03 208.24.11 1.43-84.46-208.45-.07z"/><linearGradient id="g" x1="589.21" x2="798.44" y1="2010.78" y2="2010.78" gradientUnits="userSpaceOnUse"><stop offset="0" stop-color="#dae3fe"/><stop offset="1" stop-color="#e9effd"/></linearGradient><path fill="url(#g)" d="m589.21 2052.91 208.03.11 1.2-84.42-208.24-.07z"/><linearGradient id="h" x1="1053.68" x2="1263.42" y1="2162.78" y2="2162.78" gradientUnits="userSpaceOnUse"><stop offset="0" stop-color="#dae3fe"/><stop offset="1" stop-color="#e9effd"/></linearGradient><path fill="url(#h)" d="m1053.68 2204.78 208.09.17 1.65-84.21-208.29-.14z"/><linearGradient id="i" x1="820.43" x2="1029.74" y1="2162.6" y2="2162.6" gradientUnits="userSpaceOnUse"><stop offset="0" stop-color="#dae3fe"/><stop offset="1" stop-color="#e9effd"/></linearGradient><path fill="url(#i)" d="m820.43 2204.58 207.89.17 1.42-84.16-208.09-.14z"/><linearGradient id="j" x1="587.42" x2="796.29" y1="2162.43" y2="2162.43" gradientUnits="userSpaceOnUse"><stop offset="0" stop-color="#dae3fe"/><stop offset="1" stop-color="#e9effd"/></linearGradient><path fill="url(#j)" d="m587.42 2204.39 207.67.17 1.2-84.12-207.88-.14z"/><linearGradient id="k" x1="1051.09" x2="1260.46" y1="2314.06" y2="2314.06" gradientUnits="userSpaceOnUse"><stop offset="0" stop-color="#dae3fe"/><stop offset="1" stop-color="#e9effd"/></linearGradient><path fill="url(#k)" d="m1051.09 2355.88 207.73.24 1.64-83.92-207.93-.2z"/><linearGradient id="l" x1="818.25" x2="1027.18" y1="2313.81" y2="2313.81" gradientUnits="userSpaceOnUse"><stop offset="0" stop-color="#dae3fe"/><stop offset="1" stop-color="#e9effd"/></linearGradient><path fill="url(#l)" d="m818.25 2355.61 207.52.23 1.41-83.87-207.72-.2z"/><linearGradient id="m" x1="585.63" x2="794.14" y1="2313.56" y2="2313.56" gradientUnits="userSpaceOnUse"><stop offset="0" stop-color="#dae3fe"/><stop offset="1" stop-color="#e9effd"/></linearGradient><path fill="url(#m)" d="m585.63 2355.34 207.32.24 1.19-83.84-207.52-.2z"/><linearGradient id="n" x1="1048.51" x2="1257.51" y1="2464.81" y2="2464.81" gradientUnits="userSpaceOnUse"><stop offset="0" stop-color="#dae3fe"/><stop offset="1" stop-color="#e9effd"/></linearGradient><path fill="url(#n)" d="m1048.51 2506.45 207.37.31 1.63-83.63-207.57-.27z"/><linearGradient id="o" x1="816.07" x2="1024.64" y1="2464.49" y2="2464.49" gradientUnits="userSpaceOnUse"><stop offset="0" stop-color="#dae3fe"/><stop offset="1" stop-color="#e9effd"/></linearGradient><path fill="url(#o)" d="m816.07 2506.11 207.16.31 1.41-83.59-207.36-.27z"/><linearGradient id="p" x1="583.86" x2="792" y1="2464.16" y2="2464.16" gradientUnits="userSpaceOnUse"><stop offset="0" stop-color="#dae3fe"/><stop offset="1" stop-color="#e9effd"/></linearGradient><path fill="url(#p)" d="m583.86 2505.76 206.96.31 1.18-83.54-207.16-.27z"/><linearGradient id="q" x1="1045.93" x2="1254.57" y1="2615.05" y2="2615.05" gradientUnits="userSpaceOnUse"><stop offset="0" stop-color="#dae3fe"/><stop offset="1" stop-color="#e9effd"/></linearGradient><path fill="url(#q)" d="m1045.93 2656.51 207.02.38 1.62-83.34-207.21-.34z"/><linearGradient id="r" x1="813.89" x2="1022.11" y1="2614.65" y2="2614.65" gradientUnits="userSpaceOnUse"><stop offset="0" stop-color="#dae3fe"/><stop offset="1" stop-color="#e9effd"/></linearGradient><path fill="url(#r)" d="m813.89 2656.09 206.81.38 1.41-83.3-207.01-.34z"/><linearGradient id="s" x1="582.09" x2="789.87" y1="2614.25" y2="2614.25" gradientUnits="userSpaceOnUse"><stop offset="0" stop-color="#dae3fe"/><stop offset="1" stop-color="#e9effd"/></linearGradient><path fill="url(#s)" d="m582.09 2655.67 206.6.38 1.18-83.26-206.8-.34z"/><linearGradient id="t" x1="1043.37" x2="1251.65" y1="2764.76" y2="2764.76" gradientUnits="userSpaceOnUse"><stop offset="0" stop-color="#dae3fe"/><stop offset="1" stop-color="#e9effd"/></linearGradient><path fill="url(#t)" d="m1043.37 2806.05 206.65.44 1.63-83.05-206.86-.4z"/><linearGradient id="u" x1="811.73" x2="1019.58" y1="2764.29" y2="2764.29" gradientUnits="userSpaceOnUse"><stop offset="0" stop-color="#dae3fe"/><stop offset="1" stop-color="#e9effd"/></linearGradient><path fill="url(#u)" d="m811.73 2805.56 206.45.44 1.4-83.01-206.65-.4z"/><linearGradient id="v" x1="580.32" x2="787.74" y1="2763.82" y2="2763.82" gradientUnits="userSpaceOnUse"><stop offset="0" stop-color="#dae3fe"/><stop offset="1" stop-color="#e9effd"/></linearGradient><path fill="url(#v)" d="m580.32 2805.07 206.25.44 1.17-82.97-206.44-.41z"/><linearGradient id="w" x1="1040.81" x2="1248.73" y1="2913.97" y2="2913.97" gradientUnits="userSpaceOnUse"><stop offset="0" stop-color="#dae3fe"/><stop offset="1" stop-color="#e9effd"/></linearGradient><path fill="url(#w)" d="m1040.81 2955.08 206.3.5 1.62-82.76-206.5-.47z"/><linearGradient id="x" x1="809.57" x2="1017.06" y1="2913.42" y2="2913.42" gradientUnits="userSpaceOnUse"><stop offset="0" stop-color="#dae3fe"/><stop offset="1" stop-color="#e9effd"/></linearGradient><path fill="url(#x)" d="m809.57 2954.51 206.1.51 1.39-82.73-206.29-.46z"/><linearGradient id="y" x1="578.56" x2="785.63" y1="2912.88" y2="2912.88" gradientUnits="userSpaceOnUse"><stop offset="0" stop-color="#dae3fe"/><stop offset="1" stop-color="#e9effd"/></linearGradient><path fill="url(#y)" d="m578.56 2953.95 205.89.5 1.18-82.68-206.09-.47z"/><linearGradient id="z" x1="1038.27" x2="1245.82" y1="3062.66" y2="3062.66" gradientUnits="userSpaceOnUse"><stop offset="0" stop-color="#dae3fe"/><stop offset="1" stop-color="#e9effd"/></linearGradient><path fill="url(#z)" d="m1038.27 3103.6 205.94.57 1.61-82.49-206.14-.53z"/><linearGradient id="A" x1="807.42" x2="1014.55" y1="3062.04" y2="3062.04" gradientUnits="userSpaceOnUse"><stop offset="0" stop-color="#dae3fe"/><stop offset="1" stop-color="#e9effd"/></linearGradient><path fill="url(#A)" d="m807.42 3102.96 205.74.57 1.39-82.45-205.93-.53z"/><linearGradient id="B" x1="576.81" x2="783.52" y1="3061.42" y2="3061.42" gradientUnits="userSpaceOnUse"><stop offset="0" stop-color="#dae3fe"/><stop offset="1" stop-color="#e9effd"/></linearGradient><path fill="url(#B)" d="m576.81 3102.32 205.54.57 1.17-82.4-205.74-.54z"/><path fill="#bdd0fb" d="M2432.45 1797.4c.36-15.4 16.19-28.08 35.58-28.08h733.01c19.66 0 38.96 13.34 38.96 28.96v1395.9c0 7.52-5.45 14.72-12.14 20.03-6.7 5.3-16.62 8.27-26.07 8.25l-766.4-1.66c-9.54-.02-18.88-3.08-25.55-8.5s-10.43-12.9-10.25-20.48l32.86-1394.41z"/><path fill="#fff" d="m2972.28 1933.81 208.82-.22 1.65-85.06h-209.02zm-234.07-.04 208.61-.22 1.43-85.02h-208.81zm-233.82-.04 208.4-.23 1.2-84.97h-208.6zm465.28 152.76 208.45.1 1.65-84.5-208.65-.07zm-233.66-.13 208.25.11 1.42-84.46-208.45-.07zm-233.42-.11 208.04.1 1.2-84.41-208.24-.07zm464.48 151.86 208.09.17 1.64-84.21-208.29-.13zm-233.25-.19 207.88.17 1.42-84.17-208.08-.13zm-233.02-.2 207.68.17 1.19-84.12-207.88-.14zm463.67 151.49 207.74.24 1.64-83.92-207.94-.2zm-232.84-.27 207.52.24 1.42-83.88-207.73-.2zm-232.61-.27 207.32.24 1.18-83.83-207.51-.21zm462.87 151.12 207.37.3 1.64-83.62-207.57-.27zm-232.44-.35 207.17.31 1.4-83.59-207.36-.27zm-232.21-.34 206.96.31 1.19-83.55-207.16-.27zm462.08 150.75 207.01.37 1.63-83.34-207.21-.34zm-232.04-.42 206.81.37 1.4-83.3-207.01-.33zm-231.81-.42 206.6.37 1.18-83.25-206.8-.34zm461.28 150.38 206.66.44 1.62-83.06-206.85-.4zm-231.63-.5 206.44.44 1.4-83.01-206.64-.4zm-231.41-.49 206.24.44 1.18-82.97-206.44-.4zm460.49 150.01 206.3.51 1.61-82.77-206.49-.47zm-231.24-.56 206.09.5 1.4-82.72-206.29-.47zm-231.01-.57 205.89.51 1.17-82.69-206.08-.46zm459.7 149.65 205.94.57 1.61-82.48-206.14-.54zm-230.84-.64 205.74.57 1.39-82.44-205.94-.53zm-230.61-.64 205.53.57 1.17-82.4-205.73-.53z" opacity=".5"/><path fill="#91b3fa" d="M1703.74 2177.14c-59.82-187.83-175.57-337.52-312.67-425.51-122.56-78.67-210.87-201.18-243.56-342.7a570.5 570.5 0 0 0-12.27-44.7c-71.95-225.9-269.29-364.74-440.77-310.13-171.48 54.62-252.17 282.02-180.22 507.91 14.71 46.2 34.67 88.73 58.58 126.72 76.3 121.23 106.16 266.63 78.08 407.27-25.09 125.68-18.28 267.19 26.57 408 66.9 210.03 203.7 372.38 362.12 454.1 59.92 30.92 113.95 72.5 158.69 122.73 74.35 83.47 179.14 122.71 275.41 92.05 103.86-33.08 168.74-138.25 173.41-260.96 2.65-69.43 18.97-137.5 45.59-201.83 62.82-151.9 71.53-343.05 11.04-532.95z"/><path fill="#fff" d="M831.06 1275.29c69.95 142.15 135.26 286.45 199.05 431.43 15.96 36.23 31.34 72.72 46.83 109.16l23.23 54.66 22.78 54.86c15.04 36.63 30.59 73.06 45.21 109.86l43.88 110.4c28.3 73.98 57.25 147.7 84.17 222.21 13.51 37.23 27.76 74.19 40.51 111.7l38.78 112.32c50.18 150.27 96.6 301.88 135.21 455.55l-6.63 1.74-33.29-113.87-8.26-28.47-8.97-28.27-18.05-56.5-17.94-56.52c-5.94-18.85-12.6-37.48-18.85-56.23-12.78-37.42-25.26-74.93-38.28-112.26-53.05-149-108.09-297.29-166.19-444.42-29.62-73.34-58.6-146.93-88.73-220.07l-22.45-54.91-22.9-54.73c-15.26-36.5-30.5-73-46.13-109.33a15427 15427 0 0 0-93.5-218.15c-31.36-72.64-63.42-145-95.68-217.23l6.2-2.93z" opacity=".57"/><path fill="#7d97f4" d="M2204.2 1803.8c-27.95-205.13-120.37-380.95-245.84-496.82-112.17-103.59-181.18-246.32-189.5-398.62a600.09 600.09 0 0 0-4.62-48.47c-33.62-246.7-212.04-426.09-398.5-400.68-186.46 25.42-310.36 246.01-276.74 492.71 6.87 50.45 19.8 98.07 37.63 141.7 56.87 139.22 61.57 295.03 7.43 435.42-48.39 125.45-66.74 273.06-45.78 426.85 31.26 229.36 143.1 422.1 291.66 535.35 56.19 42.83 104.4 95.63 141.49 155.7 61.64 99.82 162.56 159.4 267.24 145.13 112.93-15.39 198.63-112.41 225.45-238.5 15.17-71.34 44.2-138.78 83.15-200.51 91.95-145.73 135.2-341.87 106.93-549.27z"/><path fill="#fff" d="M1466.8 712.76c46.58 159.72 88 320.81 127.72 482.34 9.95 40.38 19.25 80.9 28.68 121.4l14.14 60.76 13.62 60.87c8.93 40.62 18.42 81.11 26.89 121.83l25.41 122.16c15.9 81.65 32.5 163.16 46.88 245.1 7.24 40.96 15.29 81.77 21.7 122.88l19.82 123.2c24.76 164.54 45.4 329.78 57.63 495.73l-7.14.6-13.89-123.82-3.4-30.95-4.17-30.87-8.47-61.7-8.35-61.72c-2.74-20.58-6.25-41.05-9.34-61.58-6.46-41.02-12.59-82.09-19.3-123.06-27.95-163.73-58.07-327.1-91.55-489.82-17.36-81.23-34.03-162.6-51.96-243.72l-13.28-60.87-13.79-60.76a12267.3 12267.3 0 0 0-27.92-121.45 16267.7 16267.7 0 0 0-57.22-242.6 19875.67 19875.67 0 0 0-59.62-242.04l6.91-1.91z" opacity=".57"/><linearGradient id="C" x1="2741.29" x2="2137.18" y1="-790.18" y2="2733.77" gradientUnits="userSpaceOnUse"><stop offset="0" stop-color="#4042e2"/><stop offset="1" stop-color="#4f52ff"/></linearGradient><path fill="url(#C)" d="M3061.22 3213.66H1433.57a23.03 23.03 0 0 1-23.04-23.03V991.13a23.03 23.03 0 0 1 23.04-23.03h1627.65a23.03 23.03 0 0 1 23.04 23.04v2199.49a23.04 23.04 0 0 1-23.04 23.03z"/><path fill="#7d97f4" d="M2799.32 2917.86H1691.9a76 76 0 0 1-76-76v-1460.4a76 76 0 0 1 76-76h1107.43a76 76 0 0 1 76.01 76v1460.38a76 76 0 0 1-76 76.01z"/><linearGradient id="D" x1="1712" x2="2780.22" y1="2121.9" y2="2121.9" gradientUnits="userSpaceOnUse"><stop offset="0" stop-color="#4042e2"/><stop offset="1" stop-color="#4f52ff"/></linearGradient><path fill="url(#D)" d="M2757.42 2805.7H1734.8a22.8 22.8 0 0 1-22.8-22.81V1460.9a22.8 22.8 0 0 1 22.8-22.8h1022.62a22.8 22.8 0 0 1 22.8 22.8v1322a22.8 22.8 0 0 1-22.8 22.8z"/><linearGradient id="E" x1="2329.3" x2="2654.29" y1="944.24" y2="194.26" gradientUnits="userSpaceOnUse"><stop offset="0" stop-color="#09005d"/><stop offset="1" stop-color="#1a0f91"/></linearGradient><circle cx="2244.34" cy="1140.29" r="50.07" fill="url(#E)"/><linearGradient id="F" x1="2358.84" x2="1627.45" y1="1430.09" y2="6499.4" gradientUnits="userSpaceOnUse"><stop offset="0" stop-color="#febbba"/><stop offset="1" stop-color="#ff928e"/></linearGradient><path fill="url(#F)" d="m2567.82 1948.6-644.17 10.71c-49.03.81-88.92 38.94-88.92 85.15v405.68c0 46.2 39.9 82.07 88.92 80.1l644.17-25.87c46.27-1.86 83.65-39.56 83.65-84.22v-392.07c0-44.67-37.38-80.25-83.65-79.48z"/><linearGradient id="G" x1="2339.66" x2="1608.27" y1="1427.33" y2="6496.63" gradientUnits="userSpaceOnUse"><stop offset="0" stop-color="#febbba"/><stop offset="1" stop-color="#ff928e"/></linearGradient><path fill="url(#G)" d="M2600.43 1875.23c-19.51.3-35.35-14.77-35.35-33.63v-88.79c0-89.07-75.35-161.32-168.62-161.05l-209.85.6c-95.67.28-174.07 74.67-174.07 165.82v90.86c0 19.3-16.61 35.2-37.13 35.5-20.56.31-37.25-15.14-37.25-34.5v-91.14c0-130.1 112.09-235.95 248.45-235.95h209.85c132.5 0 239.21 102.8 239.21 229.17v88.53c0 18.8-15.77 34.29-35.24 34.58z"/><linearGradient id="H" x1="2381.42" x2="3453.61" y1="2006.62" y2="-125.15" gradientUnits="userSpaceOnUse"><stop offset="0" stop-color="#fe7062"/><stop offset="1" stop-color="#ff928e"/></linearGradient><path fill="url(#H)" d="M2349.95 2173.43c0-45.08-39.35-80.48-87.2-77.23-42.3 2.88-77.3 36.76-79.58 77.21-1.77 31.4 15.48 58.53 41.7 72.26 11.16 5.83 16.7 18.13 14.53 30.3l-18.39 103.22c-2.34 13.14 8.22 24.69 22.13 24.2l47.26-1.7c13.83-.5 24.32-12.75 22-25.68l-18.38-102.26c-2.2-12.2 4.15-24.3 15.33-31 24.33-14.54 40.6-40.33 40.6-69.32z"/><linearGradient id="I" x1="-1483.02" x2="-1364.41" y1="3175.36" y2="3175.36" gradientTransform="translate(2420.6)" gradientUnits="userSpaceOnUse"><stop offset="0" stop-color="#09005d"/><stop offset="1" stop-color="#1a0f91"/></linearGradient><path fill="url(#I)" d="M1056.18 3217.59a10.2 10.2 0 0 0-.27-2.68c-13.36-52.96-79.66-85.95-79.66-85.95l-26.27 2.06c-15.1 46.68-13.16 75.3-10.74 88.06.07.36.18.7.27 1.04 21.67 1.94 66.28 3.2 116.67-2.53z"/><path fill="#91b3fa" d="M939.51 3220.12c1.17 4.26 4.32 7.58 8.34 8.42 30.83 6.48 79.83 1.27 100.4-1.42 4.54-.6 7.86-4.8 7.93-9.53-50.39 5.73-95 4.47-116.67 2.53z"/><linearGradient id="J" x1="-1450.03" x2="-1472.69" y1="3040.34" y2="3238.05" gradientTransform="translate(2420.6)" gradientUnits="userSpaceOnUse"><stop offset="0" stop-color="#febbba"/><stop offset="1" stop-color="#ff928e"/></linearGradient><path fill="url(#J)" d="m939.42 3091.9 11.12 53.56c.82 3.92 3.83 6.86 7.49 7.2 4.47.42 10.83.67 17.24-.27 5.74-.84 9.73-6.68 8.72-12.94l-7.74-47.56h-36.83z"/><path fill="#91b3fa" d="M1169.96 3219.44c-29.01-.8-44.02-4.23-51.78-7.4-.02 2.89 0 5.82.1 8.87.1 3.25 2.5 5.84 5.46 5.82l159.31-1.03c5.09-.03 8.06-5.93 5.86-10.59-20.9 1.73-74.1 5.59-118.95 4.33z"/><linearGradient id="K" x1="-1302.42" x2="-1131.69" y1="3178.37" y2="3178.37" gradientTransform="translate(2420.6)" gradientUnits="userSpaceOnUse"><stop offset="0" stop-color="#09005d"/><stop offset="1" stop-color="#1a0f91"/></linearGradient><path fill="url(#K)" d="M1288.9 3215.11c-.19-.4-.35-.82-.63-1.2-14.07-19.66-49.9-58.8-120.71-75.78l-33.97-1.08s-15.13 26.3-15.41 75c7.76 3.16 22.76 6.58 51.78 7.4 44.86 1.25 98.06-2.61 118.94-4.34z"/><linearGradient id="L" x1="-1158.21" x2="-1180.86" y1="2928.46" y2="3126.18" gradientTransform="rotate(-4 2116.97 -33695.86)" gradientUnits="userSpaceOnUse"><stop offset="0" stop-color="#febbba"/><stop offset="1" stop-color="#ff928e"/></linearGradient><path fill="url(#L)" d="M1125.78 3087.15c.54 2.5 7.6 40.62 10.34 55.4.65 3.5 3.39 6.09 6.64 6.27 5.82.32 15.2.36 23.27-1.83 4.35-1.18 7.28-5.62 6.97-10.54l-3.8-60.29-43.42 11z"/><linearGradient id="M" x1="-1281.69" x2="-1047.2" y1="3226.86" y2="2108.71" gradientTransform="matrix(-1 0 0 1 -160.96 0)" gradientUnits="userSpaceOnUse"><stop offset="0" stop-color="#09005d"/><stop offset="1" stop-color="#1a0f91"/></linearGradient><path fill="url(#M)" d="M1100.04 2383.4s46.73 321.1 80.45 703.2c.63 7.12-5.04 13.31-12.03 14.78-10.3 2.17-25.45 4.75-37.98 4.4a14.07 14.07 0 0 1-13.42-11.75c-11.48-67.37-93.46-428.94-114.97-508.52 0 0-24.72 338.03-16.82 513.4a8.3 8.3 0 0 1-7.33 8.64 139.8 139.8 0 0 1-30.5-.08 11.13 11.13 0 0 1-9.9-9.45c-8.19-57.01-55.28-396.4-53.28-640.88.11-13.79 16.17-127.07 16.17-127.07l199.6 53.34z"/><linearGradient id="N" x1="1360.22" x2="842.09" y1="1699.07" y2="2270.68" gradientUnits="userSpaceOnUse"><stop offset="0" stop-color="#4042e2"/><stop offset="1" stop-color="#4f52ff"/></linearGradient><path fill="url(#N)" d="m1118.15 1843.43 6.25 168.02a462.1 462.1 0 0 0 50.8 14.43c10.08-32.45 32.27-72.26 50.44-101.87-66.76-23.6-107.5-80.58-107.5-80.58z"/><linearGradient id="O" x1="1259.49" x2="504.21" y1="1730.81" y2="3117.07" gradientUnits="userSpaceOnUse"><stop offset="0" stop-color="#4042e2"/><stop offset="1" stop-color="#4f52ff"/></linearGradient><path fill="url(#O)" d="M893.41 2401.91a13.22 13.22 0 0 1-8.68-11.13c-6.21-60.29-36.3-434.1 153.65-587.86 0 0 10.9-28.5 100.43 41.56 89.54 70.05 41.6 143.49 20.16 244.77-25.94 122.56-71.45 222.75-51.31 298.17a10.46 10.46 0 0 1-6.4 12.53c-69.56 25.64-138.84 26.49-207.85 1.96z"/><linearGradient id="P" x1="-1359.65" x2="-1307.04" y1="1887.96" y2="1744.28" gradientTransform="translate(2420.6)" gradientUnits="userSpaceOnUse"><stop offset="0" stop-color="#febbba"/><stop offset="1" stop-color="#ff928e"/></linearGradient><path fill="url(#P)" d="M1112.47 1690.92c-.06 5.32-75.9 113.05-75.9 113.05s13.61 26.82 78.6 48.59l56.1-115.35-58.8-46.29z"/><linearGradient id="Q" x1="1106.48" x2="1082.03" y1="1424.83" y2="1611.51" gradientUnits="userSpaceOnUse"><stop offset="0" stop-color="#4042e2"/><stop offset="1" stop-color="#4f52ff"/></linearGradient><path fill="url(#Q)" d="M1074.9 2059.56c-.47 0-.95-.13-1.38-.42-60.59-40.94-89.1-107.02-89.37-107.68a2.46 2.46 0 0 1 4.53-1.93c.28.65 28.25 65.43 87.6 105.53a2.46 2.46 0 0 1-1.38 4.5z"/><linearGradient id="R" x1="1149.23" x2="1124.79" y1="1430.43" y2="1617.1" gradientUnits="userSpaceOnUse"><stop offset="0" stop-color="#4042e2"/><stop offset="1" stop-color="#4f52ff"/></linearGradient><path fill="url(#R)" d="M1165.15 1967.97c-.8 0-1.6-.4-2.07-1.13-.18-.28-18.7-29.1-53.95-92.23-10.84-19.4-25.1-31.7-42.35-36.53-28.58-7.99-56.13 7.33-56.4 7.49a2.46 2.46 0 0 1-2.43-4.28c1.18-.68 29.52-16.53 60.11-7.97 18.6 5.19 33.86 18.27 45.37 38.89 35.17 62.97 53.61 91.68 53.8 91.97a2.46 2.46 0 0 1-2.08 3.8z"/><linearGradient id="S" x1="-1230.33" x2="-1543.83" y1="1672.43" y2="1922.12" gradientTransform="translate(2420.6)" gradientUnits="userSpaceOnUse"><stop offset="0" stop-color="#febbba"/><stop offset="1" stop-color="#ff928e"/></linearGradient><path fill="url(#S)" d="M1172.2 1629.19s26.98 62 28.8 94.54c1.8 32.54 8.82 53.65-28.8 60.2-37.63 6.56-69.33-12.19-86.5-44.6 0 0-26.9-49.95-20.87-70.4 6.04-20.46 107.36-39.74 107.36-39.74z"/><linearGradient id="T" x1="-1351.36" x2="-1207.67" y1="1590.29" y2="1775.29" gradientTransform="translate(2420.6)" gradientUnits="userSpaceOnUse"><stop offset="0" stop-color="#09005d"/><stop offset="1" stop-color="#1a0f91"/></linearGradient><path fill="url(#T)" d="m1098.56 1716.02 2.14-.94a5.17 5.17 0 0 0 2.52-7.1c-5.3-10.25-15.65-33.74-2.28-39.22 17.22-7.06 85.43-20.97 100.14-45.17 14.15-23.26 1.62-53.29-17.22-61.83a2.6 2.6 0 0 0-3.4 1.1l-1.56 2.98a2.56 2.56 0 0 1-4.72-.49 2.54 2.54 0 0 0-4.6-.66c-4.53 7.24-16.74 18.98-49.4 25.01-46.42 8.57-77.1 27.35-77.87 59.43a2.56 2.56 0 0 1-3.95 2.1c-3.43-2.08-8.92-3.06-16.25 3.1-12.74 10.72-7.53 38.52 20.42 61.4 1.33 1.08 1.32 3.15-.12 4.09-5.07 3.3-12.62 11.14 6.95 21.6 20.24 10.82 35.35 9.94 41.17 8.98a2.55 2.55 0 0 0 2.07-3.08l-6.21-28.19c-.36-1.6.86-3.1 2.5-3.1h9.67z"/><linearGradient id="U" x1="-1261.88" x2="-1416.17" y1="1658.75" y2="1776.8" gradientTransform="translate(2420.6)" gradientUnits="userSpaceOnUse"><stop offset="0" stop-color="#febbba"/><stop offset="1" stop-color="#ff928e"/></linearGradient><path fill="url(#U)" d="M1099.73 1721.97s-10.3-39.6-28.05-28.5c-17.76 11.1 9.2 44.38 23.48 45.86l4.57-17.36z"/><linearGradient id="V" x1="-1684.83" x2="-1358.17" y1="1736.74" y2="2018.91" gradientTransform="matrix(-1 0 0 1 -160.96 0)" gradientUnits="userSpaceOnUse"><stop offset="0" stop-color="#febbba"/><stop offset="1" stop-color="#ff928e"/></linearGradient><path fill="url(#V)" d="M1449.2 1830.8s-13.53-24-12.67-35.65c.86-11.65-6.4-28.76 1.32-27.5 7.73 1.27 9.32.24 11.42 14.22 2.1 13.98 26.48 75.06-.08 48.92z"/><linearGradient id="W" x1="-1691.64" x2="-1373.67" y1="1763.05" y2="2037.72" gradientTransform="matrix(-1 0 0 1 -160.96 0)" gradientUnits="userSpaceOnUse"><stop offset="0" stop-color="#febbba"/><stop offset="1" stop-color="#ff928e"/></linearGradient><path fill="url(#W)" d="m1451.74 1792.66-.31 47.91c-91.57 98.87-165.7 104.69-225.8 83.44-18.17 29.6-40.35 69.42-50.43 101.87 244.54 53.9 302.12-170.9 302.12-170.9 33.12-13.72 39.8-21.74 38.38-30.73l-63.96-31.6z"/><linearGradient id="X" x1="-1696.92" x2="-1370.26" y1="1750.74" y2="2032.91" gradientTransform="matrix(-1 0 0 1 -160.96 0)" gradientUnits="userSpaceOnUse"><stop offset="0" stop-color="#febbba"/><stop offset="1" stop-color="#ff928e"/></linearGradient><path fill="url(#X)" d="M1522.16 1745.13c-7.82-3.18-23.11-32.34-26.04-22.74s1.24 22.74 0 26.81c-1.24 4.08-20.3 51.01-16.5 61.44 2.75 7.52 17.9 6.4 20.2 18.71.77 4.09 4.03 7.02 7.82 7.02s7.05-2.92 7.82-7c.31-1.64 14.52-81.07 6.7-84.24z"/><linearGradient id="Y" x1="527.5" x2="-61.15" y1="1846.21" y2="3081.1" gradientTransform="rotate(-63 272.93 1020.1)" gradientUnits="userSpaceOnUse"><stop offset="0" stop-color="#e1473d"/><stop offset="1" stop-color="#e9605a"/></linearGradient><path fill="url(#Y)" d="M1272.56 1645.34c-61.75 122.13-12.8 271.19 109.33 332.94 99.27 50.18 216.32 27.24 289.83-48.69l424.33 214.55a23.07 23.07 0 0 0 22.21-.77l41.5-24.72c.72-.43 1.39-.9 2.04-1.39l.54-.43c.48-.38.95-.78 1.4-1.2l.44-.43a22.9 22.9 0 0 0 1.57-1.7l.02-.03a23.07 23.07 0 0 0 3.61-23.2l-33.72-84.53c-2.08-5.22-6-9.5-11.02-12.04l-42.5-21.49-11.25 22.25-36.51-18.46 11.25-22.25-34.16-17.27-10.35 20.47-44.37-22.44 10.34-20.46-16.53-8.36-5.32 10.53-37.2-18.8 5.32-10.54-28.93-14.63-11.25 22.25-20.67-10.45 11.25-22.25-17.91-9.05-11.25 22.24-35.82-18.11 11.25-22.25-50.35-25.45-21.57-10.9c17.57-104.21-33.34-212.08-132.6-262.27-122.14-61.75-271.2-12.8-332.95 109.33zm144.58 16.87a50.18 50.18 0 1 1-45.29 89.56 50.18 50.18 0 0 1 45.29-89.56z"/><linearGradient id="Z" x1="4105.23" x2="3760.26" y1=".99" y2="687.37" gradientTransform="rotate(-15 8188.1 8567.44)" gradientUnits="userSpaceOnUse"><stop offset="0" stop-color="#fe7062"/><stop offset="1" stop-color="#ff928e"/></linearGradient><path fill="url(#Z)" d="m1616.51 1720.18 201.16 101.7-11.25 22.25 35.82 18.1 11.25-22.24 17.9 9.06-11.24 22.25 20.67 10.44 11.24-22.24 28.94 14.63-5.33 10.53 37.2 18.81 5.33-10.53 16.53 8.36-10.35 20.46 44.38 22.44 10.35-20.47 34.15 17.27-11.24 22.25 36.5 18.46 11.26-22.25 42.5 21.5a23.07 23.07 0 0 1 11.02 12.03l33.72 84.54a23.07 23.07 0 0 1-9.62 28.36l-41.5 24.73a23.07 23.07 0 0 1-22.22.76l-512.23-258.98 25.06-152.22z"/><linearGradient id="aa" x1="81.22" x2="590.69" y1="2178.5" y2="3373.43" gradientTransform="rotate(-63 272.93 1020.1)" gradientUnits="userSpaceOnUse"><stop offset="0" stop-color="#ff9085"/><stop offset="1" stop-color="#fb6fbb"/></linearGradient><path fill="url(#aa)" d="M1389.53 1965.52c122.13 61.75 271.19 12.8 332.94-109.33 61.75-122.12 12.8-271.19-109.33-332.93-122.13-61.75-271.2-12.8-332.94 109.33-61.75 122.12-12.8 271.18 109.33 332.93zm-10.04-226.5a50.18 50.18 0 1 1 45.29-89.57 50.18 50.18 0 0 1-45.29 89.56z"/><linearGradient id="ab" x1="1802.69" x2="2116.04" y1="1673.7" y2="877.01" gradientUnits="userSpaceOnUse"><stop offset="0" stop-color="#fe7062"/><stop offset="1" stop-color="#ff928e"/></linearGradient><path fill="url(#ab)" d="m1679.36 1916.84 424.33 214.54a23.07 23.07 0 0 0 22.21-.76l41.5-24.73a23.02 23.02 0 0 0 11.03-16.84c-38.67-41.9-406.29-202.43-420.04-235.47-4.9-11.75-5.73-29.55 8.93-57.15l-21.57-10.9c17.57-104.21-33.34-212.08-132.61-262.27-122.13-61.75-271.19-12.8-332.94 109.33-61.75 122.12-12.8 271.19 109.33 332.93 99.26 50.2 216.32 27.25 289.83-48.68zm-254.59-267.38a50.18 50.18 0 1 1-45.28 89.55 50.18 50.18 0 0 1 45.28-89.55z"/><linearGradient id="ac" x1="1975.29" x2="1921.96" y1="826.09" y2="929.43" gradientUnits="userSpaceOnUse"><stop offset="0" stop-color="#fe7062"/><stop offset="1" stop-color="#ff928e"/></linearGradient><path fill="url(#ac)" d="M1411.47 1922.12c98.16 49.63 217.97 10.3 267.6-87.87 49.63-98.16 10.29-217.96-87.87-267.6-98.17-49.62-217.97-10.28-267.6 87.88-49.63 98.16-10.29 217.96 87.87 267.6zm-31.98-183.1a50.18 50.18 0 1 1 45.29-89.57 50.18 50.18 0 0 1-45.29 89.56z"/><linearGradient id="ad" x1="-820.42" x2="-1214.69" y1="4045.73" y2="4730.8" gradientTransform="rotate(-19 -6050.15 -3555.22)" gradientUnits="userSpaceOnUse"><stop offset="0" stop-color="#febbba"/><stop offset="1" stop-color="#ff928e"/></linearGradient><path fill="url(#ad)" d="M1074.9 2059.56s233.35 78.12 363.87-21.26a37 37 0 0 1 28.36-7.21l49.86 8.12a39.88 39.88 0 0 0 45.38-30.87c2.57-11.82 3.81-24.75 1.19-35.85l-94.14-5.68 2.7-12.22s-41.61 10.18-42.45 42.73c0 0-97.6 63.93-275.6-35.3 0 0-69.32 54.25-79.17 97.54z"/><path fill="#91b3fa" d="M2877.24 889.66a9.84 9.84 0 0 1-9.43-10.24c.43-10.55.41-21.28-.06-31.9a9.84 9.84 0 0 1 9.2-10.25l.2-.02a9.85 9.85 0 0 1 10.27 9.4c.5 11.17.52 22.47.06 33.58a9.84 9.84 0 0 1-10.24 9.43zm-15.32-93.62a376.56 376.56 0 0 0-7.07-31.1 9.85 9.85 0 0 1 19-5.17 397.2 397.2 0 0 1 7.44 32.72 9.85 9.85 0 0 1-19.37 3.55zm-24.13-79.99a371.98 371.98 0 0 0-13.83-28.72 9.85 9.85 0 0 1 17.36-9.3 391.55 391.55 0 0 1 14.56 30.26 9.85 9.85 0 0 1-18.1 7.76zm-41.41-72.58a373.7 373.7 0 0 0-19.9-24.92 9.85 9.85 0 0 1 14.84-12.94 395.9 395.9 0 0 1 20.96 26.24 9.85 9.85 0 0 1-15.9 11.62zm-56.55-61.55a378.16 378.16 0 0 0-24.93-19.9 9.85 9.85 0 0 1 11.62-15.89 398.46 398.46 0 0 1 26.23 20.94 9.84 9.84 0 1 1-12.92 14.85zm-68.76-47.5a377.5 377.5 0 0 0-28.7-13.88 9.85 9.85 0 0 1 7.8-18.08 396.65 396.65 0 0 1 30.22 14.62 9.85 9.85 0 0 1-9.32 17.34zm-365.57-4.58a9.85 9.85 0 0 1 4.05-13.32 391.75 391.75 0 0 1 30.3-14.5 9.84 9.84 0 1 1 7.73 18.1 371.17 371.17 0 0 0-28.76 13.78 9.85 9.85 0 0 1-13.32-4.06zm288.04-26.48a371.62 371.62 0 0 0-31.06-7.13 9.85 9.85 0 0 1 3.58-19.36 391.57 391.57 0 0 1 32.71 7.51 9.85 9.85 0 0 1-5.23 18.99zm-209.1-7.15a9.85 9.85 0 0 1 6.94-12.07 398.77 398.77 0 0 1 32.75-7.38 9.85 9.85 0 0 1 3.51 19.38 377.77 377.77 0 0 0-31.13 7.01 9.85 9.85 0 0 1-12.07-6.94zm126.6-5.8c-10.57-.45-21.3-.46-31.9 0a9.84 9.84 0 0 1-1.04-19.67h.21c11.15-.48 22.44-.48 33.57 0a9.85 9.85 0 0 1-.85 19.67zM2257 572.95a9.8 9.8 0 0 0 5.5-2.11c3.97-3.16 8.07-6.28 12.2-9.3a9.84 9.84 0 1 0-11.6-15.9 398.37 398.37 0 0 0-12.85 9.78 9.85 9.85 0 0 0 6.75 17.53zm-143.53 263.63c4.74-.3 8.7-4 9.17-8.89.48-5.05 1.08-10.18 1.77-15.24a9.85 9.85 0 1 0-19.5-2.68 397.55 397.55 0 0 0-1.88 16.04 9.85 9.85 0 0 0 10.44 10.77zm386.21 420.31a9.85 9.85 0 1 1-.28-19.7c10.35-.14 20.86-.73 31.34-1.75a9.85 9.85 0 0 1 1.91 19.6 406.45 406.45 0 0 1-32.97 1.85zm74.05-17.97a9.84 9.84 0 0 1 7.3-11.85 377.1 377.1 0 0 0 30.22-8.5 9.84 9.84 0 1 1 6.13 18.7 394.5 394.5 0 0 1-31.8 8.96 9.85 9.85 0 0 1-11.85-7.31zm-127.62 15.06a392.08 392.08 0 0 1-32.59-5.42 9.85 9.85 0 0 1 4.06-19.27 370.86 370.86 0 0 0 30.94 5.15 9.85 9.85 0 0 1-2.4 19.54zm207.84-41.4a9.84 9.84 0 0 1 4.53-13.17 373.1 373.1 0 0 0 27.6-14.95 9.84 9.84 0 1 1 10.1 16.9 392.43 392.43 0 0 1-29.06 15.74 9.84 9.84 0 0 1-13.17-4.53zm-292 21.36c-10.3-3.7-20.6-7.89-30.59-12.45a9.84 9.84 0 1 1 8.19-17.91 372.05 372.05 0 0 0 29.05 11.83 9.85 9.85 0 1 1-6.65 18.53zm-77.74-38.01a397.78 397.78 0 0 1-27.13-18.83 9.85 9.85 0 0 1 11.9-15.7c8.3 6.3 16.97 12.31 25.77 17.9a9.85 9.85 0 0 1-10.54 16.63zm-67.6-54.05a397.39 397.39 0 0 1-22.39-24.29 9.85 9.85 0 0 1 15.03-12.73 376.6 376.6 0 0 0 21.27 23.08 9.84 9.84 0 1 1-13.9 13.94zm-54.2-67.52a391.91 391.91 0 0 1-16.53-28.61 9.85 9.85 0 1 1 17.46-9.12 372.07 372.07 0 0 0 15.7 27.18 9.84 9.84 0 1 1-16.63 10.56zm-38.06-77.8c-3.7-10.32-7-20.93-9.8-31.54a9.85 9.85 0 0 1 19.02-5.05 373.76 373.76 0 0 0 9.32 29.95 9.84 9.84 0 1 1-18.54 6.63zm-20.03-84.19a399.5 399.5 0 0 1-2.73-32.9 9.73 9.73 0 0 1 9.43-10.25 9.84 9.84 0 0 1 10.24 9.42 380.5 380.5 0 0 0 2.6 31.29 9.84 9.84 0 0 1-19.54 2.44zm630.58 260.35a9.8 9.8 0 0 0 5.54-2.14c4.16-3.33 8.32-6.82 12.38-10.36a9.84 9.84 0 1 0-12.94-14.84 376.96 376.96 0 0 1-11.76 9.84 9.84 9.84 0 0 0 6.79 17.5z" opacity=".3"/><path fill="#91b3fa" d="M2753.5 1004.97a4.6 4.6 0 0 0 .02-5.35l-32.44-45.65a243.96 243.96 0 0 0 17.92-76.99l49.21-26.65a4.6 4.6 0 0 0 2.35-4.8l-10.99-66.27a4.6 4.6 0 0 0-3.77-3.79l-55.18-9.34a243.93 243.93 0 0 0-41.81-67.08l15.96-53.68a4.6 4.6 0 0 0-1.74-5.05l-54.63-39.1a4.6 4.6 0 0 0-5.34 0l-45.66 32.43a243.94 243.94 0 0 0-76.98-17.92l-26.66-49.21a4.6 4.6 0 0 0-4.8-2.35l-66.27 10.99a4.6 4.6 0 0 0-3.78 3.77l-9.35 55.19a243.93 243.93 0 0 0-67.07 41.8l-53.69-15.96a4.6 4.6 0 0 0-5.05 1.74l-39.1 54.63a4.6 4.6 0 0 0 0 5.34l32.43 45.66a243.9 243.9 0 0 0-17.91 76.98l-49.22 26.66a4.6 4.6 0 0 0-2.35 4.8l11 66.27a4.6 4.6 0 0 0 3.76 3.78l55.19 9.35a243.97 243.97 0 0 0 41.8 67.08l-15.95 53.68a4.6 4.6 0 0 0 1.73 5.05l54.63 39.1a4.6 4.6 0 0 0 5.35 0l45.65-32.43a243.96 243.96 0 0 0 76.99 17.92l26.65 49.21a4.6 4.6 0 0 0 4.8 2.35l66.27-11a4.6 4.6 0 0 0 3.79-3.76l9.34-55.19a244 244 0 0 0 67.08-41.8l53.68 15.95a4.6 4.6 0 0 0 5.06-1.73l39.09-54.63z"/><path fill="#bdd0fb" d="M2488.49 927.94a67.6 67.6 0 0 1-61.7-72.89 67.07 67.07 0 0 1 23.66-45.94 67.06 67.06 0 0 1 49.23-15.76 67.6 67.6 0 0 1 61.7 72.9c-2.81 33.75-30.12 59.7-62.97 61.8a70 70 0 0 1-9.92-.1zm-27.86-106.8a51.43 51.43 0 0 0-18.14 35.22 51.83 51.83 0 0 0 47.3 55.88 51.82 51.82 0 0 0 55.89-47.3 51.83 51.83 0 0 0-54.99-55.96 51.39 51.39 0 0 0-30.06 12.15z"/><path fill="#bdd0fb" d="M2503.2 1025.46a169.22 169.22 0 0 0 22.28-2.9 167.6 167.6 0 0 0 25.59-7.25l.34-.13.95-.36 1.87-.73a3.94 3.94 0 1 0-2.9-7.32 158.99 158.99 0 0 1-32.46 8.98c-55.29 9.18-108.74-11.66-143.67-50.55a157.19 157.19 0 0 1-38.24-79.6c-.9-5.4-1.5-10.79-1.85-16.17a156.94 156.94 0 0 1 29.26-101.73 157.12 157.12 0 0 1 102.75-64c86.07-14.27 167.63 44.12 181.9 130.15a157.66 157.66 0 0 1-8.82 83.79 3.91 3.91 0 0 0 2.21 5.1c2.03.8 4.32-.19 5.11-2.22a165.56 165.56 0 0 0 9.27-87.96c-14.98-90.32-100.67-151.6-190.96-136.64a164.94 164.94 0 0 0-107.87 67.19 164.77 164.77 0 0 0-30.71 106.8c.36 5.65 1 11.32 1.94 16.98a164.96 164.96 0 0 0 67.19 107.87 164.8 164.8 0 0 0 106.82 30.7z"/><path fill="#91b3fa" d="M3230.02 1127.3a6.08 6.08 0 0 0 5.54-4.73 259.86 259.86 0 0 0 2.97-15.27 6.08 6.08 0 0 0-12-1.97c-.8 4.86-1.75 9.76-2.83 14.57a6.08 6.08 0 0 0 6.32 7.4zm5.45-46.37a6.08 6.08 0 0 1-5.84-6.31 252.74 252.74 0 0 0-.73-30.88 6.08 6.08 0 0 1 5.55-6.57c3.18-.14 6.29 2.2 6.57 5.55a264 264 0 0 1 .75 32.36 6.08 6.08 0 0 1-6.3 5.85zm-11.04-67.75a252.07 252.07 0 0 0-8.16-29.77 6.08 6.08 0 1 1 11.5-3.93 263.91 263.91 0 0 1 8.56 31.21 6.09 6.09 0 0 1-11.9 2.5zm-19.95-58.31a249.8 249.8 0 0 0-15.24-26.87 6.08 6.08 0 0 1 10.19-6.64 262.49 262.49 0 0 1 15.98 28.17 6.08 6.08 0 0 1-10.93 5.34zm-33.68-51.64a250.93 250.93 0 0 0-21.34-22.31 6.08 6.08 0 0 1 8.25-8.94c7.9 7.3 15.42 15.17 22.38 23.4a6.09 6.09 0 0 1-9.29 7.85zm-45.26-41.85c-8.34-6-17.12-11.53-26.12-16.46a6.08 6.08 0 0 1 5.85-10.66 265.9 265.9 0 0 1 27.38 17.25 6.08 6.08 0 0 1-7.1 9.87zm-54.05-29.6a249.3 249.3 0 0 0-29.31-9.58 6.08 6.08 0 1 1 3.05-11.77 261.8 261.8 0 0 1 30.75 10.05 6.08 6.08 0 0 1-4.49 11.3zm-59.61-15.46a249.9 249.9 0 0 0-30.8-2.1 6.08 6.08 0 0 1 .07-12.16c10.8.07 21.66.8 32.3 2.2a6.08 6.08 0 0 1-1.57 12.06zm-99.38.61a6.08 6.08 0 0 1 4.46-7.34 264.42 264.42 0 0 1 31.88-5.73c3.3-.48 6.35 2 6.73 5.35.4 3.34-2 6.35-5.34 6.74a252.05 252.05 0 0 0-30.39 5.45 6.08 6.08 0 0 1-7.35-4.47zm79.8 510.12c-10.59.53-21.3.42-31.84-.32a6.08 6.08 0 0 1 .87-12.13c10.04.7 20.26.8 30.36.3a6.08 6.08 0 1 1 .6 12.15zm24.63-8.48a6.08 6.08 0 0 1 4.96-7.02 256 256 0 0 0 29.58-6.94 6.08 6.08 0 0 1 3.48 11.66 265.75 265.75 0 0 1-31 7.26 6.08 6.08 0 0 1-7.02-4.96zm-88.04 3.97a263.77 263.77 0 0 1-30.82-8 6.08 6.08 0 0 1 3.76-11.57 252.25 252.25 0 0 0 29.4 7.64 6.08 6.08 0 1 1-2.34 11.93zm147.97-20.39a6.08 6.08 0 0 1 3.12-8.01 249.56 249.56 0 0 0 27.02-13.87 6.1 6.1 0 0 1 6.2 10.46 260.9 260.9 0 0 1-28.33 14.55 6.09 6.09 0 0 1-8.01-3.13zm-208.4.7c-9.58-4.48-19-9.58-27.98-15.18a6.08 6.08 0 0 1 6.44-10.33 250.22 250.22 0 0 0 26.69 14.48 6.08 6.08 0 0 1-5.14 11.03zm-53.93-33.62a265.85 265.85 0 0 1-23.55-21.44 6.08 6.08 0 1 1 8.71-8.48 254.16 254.16 0 0 0 22.47 20.45 6.08 6.08 0 1 1-7.63 9.47zm-44.35-45.57a262.68 262.68 0 0 1-17.72-26.47 6.08 6.08 0 0 1 10.5-6.14c5.08 8.7 10.77 17.2 16.9 25.24a6.08 6.08 0 0 1-9.68 7.37zm366.29 50.26a6.05 6.05 0 0 0 3.33-1.26 265.1 265.1 0 0 0 12.01-9.86 6.09 6.09 0 0 0-8-9.17c-3.67 3.2-7.52 6.37-11.45 9.41a6.08 6.08 0 0 0 4.11 10.88z" opacity=".3"/><path fill="#91b3fa" d="M3152.6 1159.29c.77-1.07.77-2.5.01-3.58l-21.7-30.55a163.23 163.23 0 0 0 11.99-51.51l32.93-17.84a3.08 3.08 0 0 0 1.57-3.21l-7.35-44.35a3.08 3.08 0 0 0-2.53-2.53l-36.92-6.25a163.23 163.23 0 0 0-27.98-44.89l10.68-35.92a3.08 3.08 0 0 0-1.16-3.38l-36.56-26.16a3.08 3.08 0 0 0-3.57 0l-30.55 21.7a163.24 163.24 0 0 0-51.52-12l-17.83-32.92a3.08 3.08 0 0 0-3.22-1.58l-44.34 7.36a3.08 3.08 0 0 0-2.53 2.52l-6.26 36.93a163.19 163.19 0 0 0-44.88 27.98l-35.92-10.68a3.08 3.08 0 0 0-3.38 1.16l-26.16 36.56a3.08 3.08 0 0 0 0 3.57l21.7 30.55a163.23 163.23 0 0 0-12 51.52l-32.93 17.83a3.08 3.08 0 0 0-1.57 3.21l7.36 44.35a3.08 3.08 0 0 0 2.52 2.53l36.93 6.25a163.25 163.25 0 0 0 27.98 44.89l-10.68 35.92a3.08 3.08 0 0 0 1.16 3.38l36.55 26.16c1.07.77 2.5.77 3.58 0l30.55-21.7a163.26 163.26 0 0 0 51.51 12l17.84 32.93a3.08 3.08 0 0 0 3.21 1.57l44.35-7.36a3.08 3.08 0 0 0 2.53-2.52l6.25-36.93a163.23 163.23 0 0 0 44.89-27.98l35.92 10.69a3.1 3.1 0 0 0 3.38-1.16l26.16-36.56z"/><path fill="#bdd0fb" d="M2975.2 1108.55a45.67 45.67 0 0 1-31.3-16.12 45.68 45.68 0 0 1-10.73-33.52 46.06 46.06 0 0 1 49.65-42.03 46.05 46.05 0 0 1 42.03 49.64 45.7 45.7 0 0 1-16.12 31.3 45.66 45.66 0 0 1-33.53 10.73zm-29.9-48.64c-.76 9 2.05 17.77 7.89 24.67a33.63 33.63 0 0 0 23.02 11.86 33.7 33.7 0 0 0 24.66-7.9 33.6 33.6 0 0 0 11.86-23.02 33.88 33.88 0 0 0-35.88-36.57 33.89 33.89 0 0 0-31.56 30.96z"/><path fill="#bdd0fb" d="M2985.45 1176.43a115.2 115.2 0 0 0 34.1-7.45l.97-.39a6.08 6.08 0 1 0-4.47-11.3 102.68 102.68 0 0 1-21 5.81h-.01l-1.19.19c-17.04 2.66-34.1.97-49.92-4.7a102.94 102.94 0 0 1-24.47-12.69l-.19-.13-.56-.4a101.72 101.72 0 0 1-41.43-66.52 101.63 101.63 0 0 1 17.74-76.33 101.72 101.72 0 0 1 66.51-41.43 101.82 101.82 0 0 1 76.34 17.74 101.72 101.72 0 0 1 41.42 66.52 102.3 102.3 0 0 1-5.7 54.23 6.08 6.08 0 1 0 11.31 4.46 114.28 114.28 0 0 0 6.4-60.68 113.8 113.8 0 0 0-46.36-74.42 113.7 113.7 0 0 0-85.4-19.85 113.77 113.77 0 0 0-74.41 46.35 113.66 113.66 0 0 0-19.85 85.4c9.7 58.44 62.28 99.26 120.17 95.59z"/></svg>