<svg xmlns="http://www.w3.org/2000/svg" xml:space="preserve" viewBox="0 0 2475 1650">
  <linearGradient id="a" x1="3775.34" x2="553.69" y1="771.02" y2="730.74" gradientTransform="rotate(4 446.86 3419.03)" gradientUnits="userSpaceOnUse">
    <stop offset="0" stop-color="#dae3fe"/>
    <stop offset="1" stop-color="#e9effd"/>
  </linearGradient>
  <path fill="url(#a)" d="M409.64 143.35c-158.72 60.07-285.3 241.12-266.9 381.15 16.86 128.4 146.39 152.14 166.03 297.53 22.42 165.91-133.56 228.86-99.78 326.99 49.7 144.38 397.38 37.11 891.26 233.33 112.35 44.63 165.02 78.26 279.86 94.76 190.39 27.36 241.6-36.91 501.55-53.69 271.7-17.53 386.69 41.65 436.74-28.98 44.64-62.98-36.83-124.12-35.1-310.57 1.43-153.05 56.87-171.92 62.31-322.23 1.77-48.89 7.51-207.62-91.41-357.84-88.67-134.65-246.34-239.57-414.07-256-244.66-23.95-284.9 162.48-548.64 202.87-396.9 60.77-589.53-317.95-881.85-207.32z"/>
  <path fill="#bdd0fb" d="M1968.06 583.35c-13.9-28.96-23.84-59.28-26.16-92.28-5.85-83.17 42.5-159.76 78.02-231.37 32.64-65.81 56.9-163.88-53.24-155.15-87.76 6.95-190.93 94.4-202.7 185.6-13.93 107.93 38.62 244.03-23.68 342.07-87.15 137.16-150.01 105.73-150.01 337.18 0 98.9 54.78 153.44 117.52 183.49a262.58 262.58 0 0 0 296.03-48.1c69.7-67.46 111.15-164.44 97.14-261.8-14.16-98.34-91.29-172.91-132.92-259.64z"/>
  <path fill="#7d97f4" d="M1894.43 1327.49a3.07 3.07 0 0 1-2.98-2.33c-54.59-217.9-84.3-415.44-88.32-587.11-3.22-137.47 9.95-258.78 39.13-360.57 49.83-173.86 128-229.7 131.3-231.98a3.07 3.07 0 0 1 3.5 5.04c-.8.56-79.99 57.32-129.13 229.45-45.42 159.09-73.7 451.95 49.48 943.68a3.07 3.07 0 0 1-2.98 3.82z"/>
  <path fill="#bdd0fb" d="M2055.5 339.35a36.75 36.75 0 0 0-13.87-.94c-27.45 3.16-38.72 32.11-46.79 54.74-6.9 19.39-15.04 42.92-10.97 63.92 4.41 22.7 28.53 41.22 46.02 18.17 19.89-26.2 49.73-66.43 49.9-101.16.1-17.25-9.6-30.74-24.29-34.73zm203.22 815.06c11.23-73.97-15.66-158.9-29.08-237.12-7.1-41.36-10.37-82.4-3.73-124.07 6.6-41.43 26.07-86.24 8.12-127.52-36.16-83.15-122.14-45.3-171.39 17.3-57.15 72.64-72.77 191.35-94.48 282.75-13.08 55.1-32.8 111.63-39.7 167.78-11.43 93.03 9.6 157.61 54.1 201.23a134.67 134.67 0 0 0 159.9 21.43c47.16-26.27 98.14-82.44 116.26-201.78z"/>
  <path fill="#91b3fa" d="M2062.03 1497.86a3.07 3.07 0 0 1-3.03-2.56c-.19-1.12-18.88-113.93-19.37-269.63-.45-143.74 14.96-354.52 90.94-542.4a3.08 3.08 0 0 1 5.7 2.3c-75.61 186.96-90.95 396.9-90.5 540.08.5 155.2 19.1 267.52 19.3 268.63a3.07 3.07 0 0 1-3.04 3.58z"/>
  <path fill="#bdd0fb" d="M786.63 1490.57c-164.67 42.5-466.46-363.45-382.46-551.24 38.65-86.4 147.78-101.63 150.32-184.46 2.75-89.75-124.15-111.74-141.54-222.04-16.03-101.65 66.25-244.47 175.65-250.34 84.94-4.55 173.1 74.16 188.44 157.59 22.35 121.53-122.29 185.37-98.3 294.89 20.42 93.2 134.16 88.08 206.96 186.19 126.88 171 39 533.78-99.07 569.41z"/>
  <path fill="#fff" d="M575.6 1357.3a657.47 657.47 0 0 1-51.58-59.77c-4.05-5.19-7.9-10.54-11.82-15.84-1.95-2.66-3.82-5.38-5.73-8.06-1.9-2.7-3.82-5.38-5.65-8.12a749.15 749.15 0 0 1-21.38-33.32 632.72 632.72 0 0 1-36.69-70.29 491.75 491.75 0 0 1-14.8-36.93l-1.66-4.69-1.55-4.73c-1.02-3.17-2.09-6.31-3.06-9.5l-2.8-9.58c-.97-3.18-1.72-6.43-2.58-9.65-3.27-12.92-6.06-26.02-7.81-39.33-1.8-13.3-2.6-26.8-2.21-40.34.4-13.54 2.09-27.16 5.61-40.47 1.7-6.66 4.04-13.19 6.73-19.58a126.91 126.91 0 0 1 9.8-18.33c7.5-11.64 16.73-21.93 26.67-31.04a247.26 247.26 0 0 1 15.34-13.02 386.7 386.7 0 0 1 15.93-11.91c21.37-15.45 43.2-29.4 61.96-47.54l2.37 2.04c-7.74 10.84-17.17 20.42-26.93 29.38a570.66 570.66 0 0 1-14.99 13c-5.03 4.26-10.17 8.32-15.19 12.5-10.03 8.34-19.98 16.58-29.05 25.51a187 187 0 0 0-12.93 13.84 134.3 134.3 0 0 0-11.13 15c-13.65 20.67-19.36 45.82-20.22 71.07-.8 25.35 2.78 51 8.86 76.03.8 3.13 1.47 6.28 2.36 9.38l2.6 9.33c.9 3.1 1.9 6.18 2.85 9.27l1.45 4.63 1.57 4.6c2.03 6.13 4.27 12.21 6.5 18.3 1.14 3.03 2.36 6.04 3.53 9.06a256.4 256.4 0 0 0 3.68 9.01c9.96 23.98 21.67 47.25 34.31 70.02a795.16 795.16 0 0 0 89.94 127.94l-2.3 2.12z" opacity=".47"/>
  <linearGradient id="b" x1="615.62" x2="778.76" y1="584.57" y2="584.57" gradientUnits="userSpaceOnUse">
    <stop offset="0" stop-color="#dae3fe"/>
    <stop offset="1" stop-color="#e9effd"/>
  </linearGradient>
  <path fill="url(#b)" d="M616.16 306.03a141.48 141.48 0 0 1 21.72 5.12c7.09 2.31 14 5.14 20.7 8.4a188.18 188.18 0 0 1 37.5 24.28c22.9 19.14 41.95 43.32 53.67 71.2a152.77 152.77 0 0 1 7.18 21.54c.82 3.7 1.68 7.4 2.14 11.2l.83 5.67.38 5.72c.59 7.63.04 15.3-.81 22.89-.3 1.88-.65 3.76-.98 5.64-.35 1.88-.6 3.78-1.12 5.6-.94 3.7-1.78 7.42-3.05 11-4.65 14.47-11.34 28.06-18.89 40.9-7.52 12.88-15.77 25.17-24.05 37.33-8.26 12.16-16.5 24.23-24.03 36.65-7.51 12.41-14.33 25.18-19.6 38.5-5.28 13.31-8.9 27.22-10.15 41.38a136.77 136.77 0 0 0 2.92 42.42 123.44 123.44 0 0 0 16.25 39.27c7.64 12.05 17.5 22.66 28.48 32.04 10.96 9.43 23.16 17.5 35.61 25.16 6.22 3.84 12.57 7.51 18.9 11.23l19 11.23-1.55 2.71c-12.94-6.94-25.98-13.7-38.82-21-12.81-7.3-25.5-15.08-37.16-24.45-11.66-9.33-22.25-20.28-30.68-32.86a128.13 128.13 0 0 1-18.1-41.41 142.39 142.39 0 0 1-3.8-45.1c1.17-15.14 4.9-30 10.3-44.05 5.37-14.08 12.4-27.37 20.06-40.1 7.68-12.75 15.97-24.99 24.18-37.17 8.2-12.19 16.39-24.28 23.74-36.75 7.39-12.45 13.78-25.38 18.18-38.9 1.2-3.35 1.99-6.8 2.91-10.22.51-1.7.76-3.45 1.1-5.18.32-1.73.68-3.46.97-5.2.85-7 1.45-14.04.99-21.08l-.28-5.29-.72-5.25c-.38-3.51-1.15-6.98-1.87-10.45a154.75 154.75 0 0 0-6.42-20.37 171.3 171.3 0 0 0-20.9-37.5 195.05 195.05 0 0 0-29.1-31.94A184.3 184.3 0 0 0 656.33 324c-6.39-3.4-13-6.39-19.8-8.88a138.55 138.55 0 0 0-20.9-6.03l.54-3.07z"/>
  <linearGradient id="c" x1="580.56" x2="761.69" y1="939.07" y2="939.07" gradientUnits="userSpaceOnUse">
    <stop offset="0" stop-color="#dae3fe"/>
    <stop offset="1" stop-color="#e9effd"/>
  </linearGradient>
  <path fill="url(#c)" d="M583.68 448.7a17866.92 17866.92 0 0 0 33.5 247.2 10468.3 10468.3 0 0 0 38.14 246.28c6.89 40.95 14.42 81.78 21.94 122.62 3.94 20.38 7.78 40.78 12 61.1 3.98 20.38 8.3 40.68 12.53 61l6.7 30.41c2.18 10.16 4.49 20.27 6.81 30.4 2.36 10.1 4.53 20.26 7.05 30.33l7.28 30.28a3761.54 3761.54 0 0 0 32 120.49 1.56 1.56 0 0 1-2.97.97c-14.38-39.1-27.14-78.8-39.05-118.75a2550.5 2550.5 0 0 1-16.82-60.22c-5.57-20.1-10.46-40.35-15.52-60.58-19.74-81-36.16-162.78-50.4-244.9-3.5-20.53-7.09-41.06-10.25-61.65a3903.91 3903.91 0 0 1-9.35-61.79l-4.34-30.94-4.07-30.98-3.92-30.99a1944.34 1944.34 0 0 1-3.7-31.02l-3.44-31.05-3.3-31.06a5269.42 5269.42 0 0 1-5.78-62.2c-3.44-41.51-6.55-83.04-8.16-124.7a1.56 1.56 0 0 1 3.12-.26v.02z"/>
  <linearGradient id="d" x1="2496.3" x2="2164.3" y1="266.84" y2="702.84" gradientUnits="userSpaceOnUse">
    <stop offset="0" stop-color="#fe7062"/>
    <stop offset="1" stop-color="#ff928e"/>
  </linearGradient>
  <path fill="url(#d)" d="M1630.31 879.23h323.82v624.5h-323.82z"/>
  <linearGradient id="e" x1="2367.53" x2="2183.53" y1="206.09" y2="402.09" gradientUnits="userSpaceOnUse">
    <stop offset="0" stop-color="#09005d"/>
    <stop offset="1" stop-color="#1a0f91"/>
  </linearGradient>
  <path fill="url(#e)" d="M1997.5 933.2h-382.62v-266l300.7-15.42 96.98 257.81a16.61 16.61 0 0 1-15.07 23.6z"/>
  <linearGradient id="f" x1="1893.41" x2="1445.41" y1="459.7" y2="1159.7" gradientUnits="userSpaceOnUse">
    <stop offset="0" stop-color="#09005d"/>
    <stop offset="1" stop-color="#1a0f91"/>
  </linearGradient>
  <path fill="url(#f)" d="m1915.57 655.64-285.26 15.42v-30.84l266.56-15.42a18.7 18.7 0 0 1 18.7 18.7v12.14z"/>
  <g opacity=".89">
    <linearGradient id="g" x1="1933.83" x2="1860.33" y1="522.69" y2="872.17" gradientUnits="userSpaceOnUse">
      <stop offset="0" stop-color="#ff928e"/>
      <stop offset="1" stop-color="#feb3b1"/>
    </linearGradient>
    <path fill="url(#g)" d="M1884.57 1334.11h-182.79c-.62 0-1.12-.5-1.12-1.12v-283.02c0-.62.5-1.12 1.12-1.12h182.8c.61 0 1.12.5 1.12 1.12v283.02c0 .62-.5 1.12-1.13 1.12z"/>
    <g opacity=".9">
      <linearGradient id="h" x1="1751.9" x2="1746.06" y1="775.13" y2="2107.29" gradientUnits="userSpaceOnUse">
        <stop offset="0" stop-color="#e1473d"/>
        <stop offset="1" stop-color="#e9605a"/>
      </linearGradient>
      <path fill="url(#h)" d="M1785.37 1318.7h-70.6a.62.62 0 0 1-.62-.63v-253.18c0-.35.28-.62.63-.62h70.59c.34 0 .62.27.62.62v253.18c0 .34-.28.62-.62.62z"/>
      <linearGradient id="i" x1="1838.11" x2="1832.27" y1="775.5" y2="2107.66" gradientUnits="userSpaceOnUse">
        <stop offset="0" stop-color="#e1473d"/>
        <stop offset="1" stop-color="#e9605a"/>
      </linearGradient>
      <path fill="url(#i)" d="M1871.58 1318.7h-70.6a.62.62 0 0 1-.62-.63v-253.18c0-.35.28-.62.63-.62h70.6a.6.6 0 0 1 .61.62v253.18c0 .34-.28.62-.62.62z"/>
    </g>
  </g>
  <linearGradient id="j" x1="1219.58" x2="2257.68" y1="1154.04" y2="232.94" gradientUnits="userSpaceOnUse">
    <stop offset="0" stop-color="#fe7062"/>
    <stop offset="1" stop-color="#ff928e"/>
  </linearGradient>
  <path fill="url(#j)" d="M776.37 792.49h899.76v711.24H776.37z"/>
  <linearGradient id="k" x1="1895.54" x2="1695.54" y1="-466.43" y2="-122.43" gradientUnits="userSpaceOnUse">
    <stop offset="0" stop-color="#09005d"/>
    <stop offset="1" stop-color="#1a0f91"/>
  </linearGradient>
  <path fill="url(#k)" d="M1654.85 447.47H775.89l-97.38 334.64a27.55 27.55 0 0 0 3.58 23.03l10.02 15a29.14 29.14 0 0 0 24.26 12.83h995.13c11.32 0 21.6-6.42 26.31-16.44l9.63-20.45a27.5 27.5 0 0 0 1.57-19.3l-94.16-329.31z"/>
  <linearGradient id="l" x1="1404.45" x2="876.45" y1="135.86" y2="979.86" gradientUnits="userSpaceOnUse">
    <stop offset="0" stop-color="#09005d"/>
    <stop offset="1" stop-color="#1a0f91"/>
  </linearGradient>
  <path fill="url(#l)" d="M1656.83 447.47h-883.3V432.3c0-5.73 4.73-10.4 10.62-10.5l861.73-12.72c6.02-.09 10.95 4.64 10.95 10.5v27.89z"/>
  <linearGradient id="m" x1="1383.8" x2="1299.79" y1="983.47" y2="1217.49" gradientUnits="userSpaceOnUse">
    <stop offset="0" stop-color="#e1473d"/>
    <stop offset="1" stop-color="#e9605a"/>
  </linearGradient>
  <path fill="url(#m)" d="M1344.55 1503.73h-278.97v-44.15a3.17 3.17 0 0 1 3.17-3.17h272.63a3.17 3.17 0 0 1 3.17 3.17v44.15z"/>
  <linearGradient id="n" x1="1138.78" x2="697.74" y1="1364.32" y2="1979.38" gradientUnits="userSpaceOnUse">
    <stop offset="0" stop-color="#e1473d"/>
    <stop offset="1" stop-color="#e9605a"/>
  </linearGradient>
  <path fill="url(#n)" d="M1300.27 1456.4h-190.41v-367.89c0-1.96 1.6-3.56 3.56-3.56h183.29c1.96 0 3.56 1.6 3.56 3.56v367.9z"/>
  <linearGradient id="o" x1="1131.99" x2="1639.99" y1="1155.71" y2="355.71" gradientUnits="userSpaceOnUse">
    <stop offset="0" stop-color="#ff928e"/>
    <stop offset="1" stop-color="#feb3b1"/>
  </linearGradient>
  <path fill="url(#o)" d="M1286.82 1059.95H1123.3a13.44 13.44 0 0 1-13.44-13.44v-11.74c0-7.07 5.47-12.93 12.51-13.42L1285.9 1010a13.44 13.44 0 0 1 14.38 13.4v23.1c0 7.43-6.02 13.45-13.45 13.45z"/>
  <linearGradient id="p" x1="1503.51" x2="1711.51" y1="622.82" y2="-213.18" gradientUnits="userSpaceOnUse">
    <stop offset="0" stop-color="#e1473d"/>
    <stop offset="1" stop-color="#e9605a"/>
  </linearGradient>
  <path fill="url(#p)" d="M1451.47 894.94h-1.8c-47.03 0-88.2 33.3-88.2 80.32v84.7h90V894.93z" opacity=".9"/>
  <linearGradient id="q" x1="1552.1" x2="1760.1" y1="634.91" y2="-201.09" gradientUnits="userSpaceOnUse">
    <stop offset="0" stop-color="#e1473d"/>
    <stop offset="1" stop-color="#e9605a"/>
  </linearGradient>
  <path fill="url(#q)" d="M1361.47 1084.96v249.15c0 8.4 9.85 21.4 18.24 21.4h71.76v-270.55h-90z" opacity=".9"/>
  <linearGradient id="r" x1="1598.81" x2="1806.81" y1="646.53" y2="-189.47" gradientUnits="userSpaceOnUse">
    <stop offset="0" stop-color="#e1473d"/>
    <stop offset="1" stop-color="#e9605a"/>
  </linearGradient>
  <path fill="url(#r)" d="M1476.05 894.94h-4.57v165.01h90v-84.69c0-47.02-38.4-80.32-85.43-80.32z" opacity=".9"/>
  <linearGradient id="s" x1="1653.45" x2="1861.45" y1="660.12" y2="-175.88" gradientUnits="userSpaceOnUse">
    <stop offset="0" stop-color="#e1473d"/>
    <stop offset="1" stop-color="#e9605a"/>
  </linearGradient>
  <path fill="url(#s)" d="M1471.48 1355.51H1546c8.39 0 15.47-13 15.47-21.4v-249.15h-90v270.55z" opacity=".9"/>
  <linearGradient id="t" x1="1036.66" x2="1244.66" y1="506.66" y2="-329.34" gradientUnits="userSpaceOnUse">
    <stop offset="0" stop-color="#e1473d"/>
    <stop offset="1" stop-color="#e9605a"/>
  </linearGradient>
  <path fill="url(#t)" d="M955.73 894.94h-1.8c-47.04 0-88.2 33.3-88.2 80.32v84.7h90V894.93z" opacity=".9"/>
  <linearGradient id="u" x1="1085.26" x2="1293.26" y1="518.75" y2="-317.25" gradientUnits="userSpaceOnUse">
    <stop offset="0" stop-color="#e1473d"/>
    <stop offset="1" stop-color="#e9605a"/>
  </linearGradient>
  <path fill="url(#u)" d="M865.72 1084.96v249.15c0 8.4 9.85 21.4 18.24 21.4h71.77v-270.55h-90z" opacity=".9"/>
  <linearGradient id="v" x1="1131.97" x2="1339.97" y1="530.37" y2="-305.63" gradientUnits="userSpaceOnUse">
    <stop offset="0" stop-color="#e1473d"/>
    <stop offset="1" stop-color="#e9605a"/>
  </linearGradient>
  <path fill="url(#v)" d="M980.3 894.94h-4.57v165.01h90v-84.69c0-47.02-38.4-80.32-85.43-80.32z" opacity=".9"/>
  <linearGradient id="w" x1="1186.61" x2="1394.61" y1="543.97" y2="-292.03" gradientUnits="userSpaceOnUse">
    <stop offset="0" stop-color="#e1473d"/>
    <stop offset="1" stop-color="#e9605a"/>
  </linearGradient>
  <path fill="url(#w)" d="M975.73 1355.51h74.53c8.4 0 15.48-13 15.48-21.4v-249.15h-90v270.55z" opacity=".9"/>
  <path fill="#91b3fa" d="M1020.63 793.53H745.56a21.14 21.14 0 0 1-17.08-8.55 21.14 21.14 0 0 1-3.38-18.8l78.58-266.68c.16-.55.74-.88 1.3-.7.54.15.86.73.7 1.29L727.1 766.77a19.08 19.08 0 0 0 3.05 16.96 19.08 19.08 0 0 0 15.4 7.72h275.08a1.04 1.04 0 1 1 0 2.08z"/>
  <linearGradient id="x" x1="1132.51" x2="1196" y1="1232.95" y2="1232.95" gradientUnits="userSpaceOnUse">
    <stop offset="0" stop-color="#ff928e"/>
    <stop offset="1" stop-color="#feb3b1"/>
  </linearGradient>
  <path fill="url(#x)" d="M1178.62 1356.55h-28.73a17.4 17.4 0 0 1-17.38-17.37v-212.45a17.4 17.4 0 0 1 17.38-17.38h28.73a17.4 17.4 0 0 1 17.38 17.38v212.45a17.4 17.4 0 0 1-17.38 17.37zm-28.73-245.12c-8.44 0-15.3 6.86-15.3 15.3v212.44a15.3 15.3 0 0 0 15.3 15.3h28.73c8.44 0 15.3-6.86 15.3-15.3v-212.44c0-8.44-6.87-15.3-15.3-15.3h-28.73z"/>
  <linearGradient id="y" x1="1212.7" x2="1276.2" y1="1232.95" y2="1232.95" gradientUnits="userSpaceOnUse">
    <stop offset="0" stop-color="#ff928e"/>
    <stop offset="1" stop-color="#feb3b1"/>
  </linearGradient>
  <path fill="url(#y)" d="M1258.82 1356.55h-28.74a17.4 17.4 0 0 1-17.38-17.37v-212.45a17.4 17.4 0 0 1 17.38-17.38h28.74a17.4 17.4 0 0 1 17.38 17.38v212.45a17.4 17.4 0 0 1-17.38 17.37zm-28.74-245.12c-8.43 0-15.3 6.86-15.3 15.3v212.44a15.3 15.3 0 0 0 15.3 15.3h28.74c8.43 0 15.29-6.86 15.29-15.3v-212.44c0-8.44-6.86-15.3-15.3-15.3h-28.73z"/>
  <linearGradient id="z" x1="1132.51" x2="1196" y1="1398.58" y2="1398.58" gradientUnits="userSpaceOnUse">
    <stop offset="0" stop-color="#ff928e"/>
    <stop offset="1" stop-color="#feb3b1"/>
  </linearGradient>
  <path fill="url(#z)" d="M1178.62 1428.18h-28.73a17.4 17.4 0 0 1-17.38-17.38v-24.44a17.4 17.4 0 0 1 17.38-17.37h28.73a17.4 17.4 0 0 1 17.38 17.37v24.44a17.4 17.4 0 0 1-17.38 17.38zm-28.73-57.1a15.3 15.3 0 0 0-15.3 15.28v24.44a15.3 15.3 0 0 0 15.3 15.3h28.73c8.44 0 15.3-6.87 15.3-15.3v-24.44a15.3 15.3 0 0 0-15.3-15.29h-28.73z"/>
  <linearGradient id="A" x1="1212.7" x2="1276.2" y1="1398.58" y2="1398.58" gradientUnits="userSpaceOnUse">
    <stop offset="0" stop-color="#ff928e"/>
    <stop offset="1" stop-color="#feb3b1"/>
  </linearGradient>
  <path fill="url(#A)" d="M1258.82 1428.18h-28.74a17.4 17.4 0 0 1-17.38-17.38v-24.44a17.4 17.4 0 0 1 17.38-17.37h28.74a17.4 17.4 0 0 1 17.38 17.37v24.44a17.4 17.4 0 0 1-17.38 17.38zm-28.74-57.1a15.3 15.3 0 0 0-15.3 15.28v24.44a15.3 15.3 0 0 0 15.3 15.3h28.74c8.43 0 15.29-6.87 15.29-15.3v-24.44a15.3 15.3 0 0 0-15.3-15.29h-28.73z"/>
  <linearGradient id="B" x1="1372.56" x2="1396.57" y1="308.16" y2="539.18" gradientUnits="userSpaceOnUse">
    <stop offset="0" stop-color="#ff928e"/>
    <stop offset="1" stop-color="#feb3b1"/>
  </linearGradient>
  <path fill="url(#B)" d="M1569.27 1371.07H1352.6a22.56 22.56 0 0 1-22.53-22.53V973.41c0-59.32 48.27-107.59 107.59-107.59h46.55c59.33 0 107.59 48.27 107.59 107.59v375.13a22.56 22.56 0 0 1-22.53 22.53zm-131.61-503.16c-58.17 0-105.5 47.33-105.5 105.5v375.13a20.47 20.47 0 0 0 20.44 20.45h216.67a20.47 20.47 0 0 0 20.44-20.45V973.41c0-58.17-47.32-105.5-105.5-105.5h-46.55z"/>
  <linearGradient id="C" x1="882.21" x2="906.21" y1="359.1" y2="590.12" gradientUnits="userSpaceOnUse">
    <stop offset="0" stop-color="#ff928e"/>
    <stop offset="1" stop-color="#feb3b1"/>
  </linearGradient>
  <path fill="url(#C)" d="M1073.62 1371.07H856.96a22.56 22.56 0 0 1-22.53-22.53V973.41c0-59.32 48.26-107.59 107.58-107.59h46.56c59.32 0 107.58 48.27 107.58 107.59v375.13a22.56 22.56 0 0 1-22.53 22.53zm-131.6-503.16c-58.18 0-105.5 47.33-105.5 105.5v375.13a20.47 20.47 0 0 0 20.44 20.45h216.66a20.47 20.47 0 0 0 20.45-20.45V973.41c0-58.17-47.33-105.5-105.5-105.5H942z"/>
  <path fill="#91b3fa" d="M1684.92 715.5c-.45 0-.86-.3-1-.74l-61.1-201.96a32.59 32.59 0 0 0-31.08-23.27c-159.99-1.26-257.95-1.2-262.05.14-.53.17-1.13-.1-1.33-.62-.2-.53.04-1.1.56-1.32 4.9-2.01 166.78-1.04 262.84-.28a34.67 34.67 0 0 1 33.05 24.74l61.11 201.96a1.04 1.04 0 0 1-1 1.35z"/>
  <path fill="#7d97f4" d="M1670.41 1438.95s57.88-260.48-19.93-224.63c-77.81 35.84-7.87 217.68 0 229.05 7.87 11.37 15.4 17.9 19.93-4.41z"/>
  <path fill="#91b3fa" d="M1664.6 1446.08s-25.22-180.26 46.95-166.47c72.17 13.8-37.14 164.96-37.84 171.46-.7 6.5-9.1-5-9.1-5zm-9.25.97s-17.16-160.44-72.64-134.45c-55.48 25.99 64.4 135.07 66.32 140.54 1.92 5.47 6.32-6.1 6.32-6.1z"/>
  <g opacity=".7">
    <linearGradient id="D" x1="1646.39" x2="1676.42" y1="1233.75" y2="1233.75" gradientUnits="userSpaceOnUse">
      <stop offset="0" stop-color="#dae3fe"/>
      <stop offset="1" stop-color="#e9effd"/>
    </linearGradient>
    <path fill="url(#D)" d="M1675.4 1243.75c-.45 0-.85-.28-.99-.73-2.3-7.75-6.14-12.96-11.38-15.48-7.4-3.56-15.15-.5-15.23-.47a1.03 1.03 0 0 1-.77-1.9c.35-.14 8.68-3.43 16.89.52 5.78 2.79 9.97 8.42 12.46 16.75a1.02 1.02 0 0 1-.99 1.31z"/>
    <linearGradient id="E" x1="1674.37" x2="1727.36" y1="1354.53" y2="1354.53" gradientUnits="userSpaceOnUse">
      <stop offset="0" stop-color="#dae3fe"/>
      <stop offset="1" stop-color="#e9effd"/>
    </linearGradient>
    <path fill="url(#E)" d="M1675.4 1422.33c-.2 0-.39-.06-.56-.17-.48-.3-.61-.94-.3-1.42.27-.42 27.7-43.02 45.82-82.33 5.63-12.22 6.46-22.89 2.46-31.72-6.01-13.3-21.06-17.91-21.21-17.95a1.02 1.02 0 0 1 .58-1.97c.66.2 16.1 4.93 22.5 19.07 4.25 9.4 3.42 20.65-2.47 33.42-18.18 39.46-45.69 82.17-45.97 82.6-.2.3-.52.47-.86.47z"/>
    <linearGradient id="F" x1="1580.68" x2="1641.8" y1="1370.38" y2="1370.38" gradientUnits="userSpaceOnUse">
      <stop offset="0" stop-color="#dae3fe"/>
      <stop offset="1" stop-color="#e9effd"/>
    </linearGradient>
    <path fill="url(#F)" d="M1640.77 1421.8c-.48 0-.91-.36-1-.85-.03-.17-3.3-17.86-19.21-66.1-6.12-18.58-14.3-30-23.66-33a17.38 17.38 0 0 0-14.6 2 1.02 1.02 0 0 1-1.2-1.66c.3-.21 7.26-5.22 16.39-2.3 10.16 3.25 18.58 14.8 25.01 34.32 15.97 48.42 19.25 66.2 19.28 66.38a1.02 1.02 0 0 1-1 1.2z"/>
  </g>
  <linearGradient id="G" x1="1927.44" x2="1769.94" y1="1064.05" y2="1296.54" gradientUnits="userSpaceOnUse">
    <stop offset="0" stop-color="#09005d"/>
    <stop offset="1" stop-color="#1a0f91"/>
  </linearGradient>
  <path fill="url(#G)" d="m1609.2 1438.33 15.72 56.08a20.1 20.1 0 0 0 19.21 14.68l35.51.27a20.1 20.1 0 0 0 20.1-17.6l7.4-58.82-97.93 5.39z"/>
  <linearGradient id="H" x1="1707.29" x2="1623.29" y1="1261.91" y2="1560.4" gradientUnits="userSpaceOnUse">
    <stop offset="0" stop-color="#09005d"/>
    <stop offset="1" stop-color="#1a0f91"/>
  </linearGradient>
  <path fill="url(#H)" d="m1705.75 1428.9-97.54 1.72c-4.76.09-8.57 4.26-8.54 9.32.03 5.05 3.9 9.11 8.65 9.07l97.44-.93a9.64 9.64 0 0 0 9.41-9.71 9.34 9.34 0 0 0-9.42-9.47z"/>
  <linearGradient id="I" x1="-264.94" x2="71.06" y1="495.05" y2="215.05" gradientTransform="rotate(-1 -131.76 -59426.76)" gradientUnits="userSpaceOnUse">
    <stop offset="0" stop-color="#fe7062"/>
    <stop offset="1" stop-color="#ff928e"/>
  </linearGradient>
  <path fill="url(#I)" d="M586.65 829.35c-62.74 10.98-104.53-29.45-135.57-53.87-40.97-32.24-72.07-15.6-72.07-15.6l44.65 84.43c65.44 61.67 131.07 46.46 172.22 25.3a85.75 85.75 0 0 0-9.23-40.26z"/>
  <linearGradient id="J" x1="-397.74" x2="-692.79" y1="681.03" y2="1058.52" gradientTransform="rotate(-1 -131.76 -59426.76)" gradientUnits="userSpaceOnUse">
    <stop offset="0" stop-color="#ff928e"/>
    <stop offset="1" stop-color="#feb3b1"/>
  </linearGradient>
  <path fill="url(#J)" d="m674.36 788.71-20.65 12.05c-24.73 16.29-46.97 25.07-67.06 28.59a85.75 85.75 0 0 1 9.23 40.26c26.2-13.47 42.48-29.35 42.48-29.35 46.72-30.15 36-51.55 36-51.55z"/>
  <linearGradient id="K" x1="-6362.1" x2="-7010.17" y1="1215.67" y2="1161.67" gradientTransform="scale(-1 1) rotate(65 164.4 1060.3)" gradientUnits="userSpaceOnUse">
    <stop offset="0" stop-color="#4042e2"/>
    <stop offset="1" stop-color="#4f52ff"/>
  </linearGradient>
  <path fill="url(#K)" d="m439.3 1377.52-4.64 24.06c-7.97 41.3 8.14 79.13 35.98 84.5l33.1 6.4c27.85 5.36 56.88-23.76 64.85-65.05l4.64-24.07c.31-1.59.59-3.19.82-4.8l106.89-719.38-72.12-13.91-168.5 707.49a113.4 113.4 0 0 0-1.02 4.76zm33.88 4.57c6-31.09 25.84-53.4 44.32-49.83 18.47 3.56 28.58 31.65 22.58 62.75-6 31.09-25.84 53.4-44.31 49.83-18.47-3.56-28.58-31.65-22.58-62.75z"/>
  <linearGradient id="L" x1="-906.35" x2="-1554.41" y1="-3650.52" y2="-3704.53" gradientTransform="matrix(-.98 -.2 -.2 .98 862.24 4179.15)" gradientUnits="userSpaceOnUse">
    <stop offset="0" stop-color="#4042e2"/>
    <stop offset="1" stop-color="#4f52ff"/>
  </linearGradient>
  <path fill="url(#L)" d="m619.51 414.44-26.94 139.63a32.64 32.64 0 0 0 7.59 27.8l34.37 38.9a32.64 32.64 0 0 0 39.11 7.54l46.38-23.3a32.64 32.64 0 0 0 17.39-22.98l26.95-139.64c4.06-21.06 31.21-27.85 44.32-10.86 31.34 40.63 45.73 94.97 35 150.52-19.37 100.42-111 154.39-207.6 135.75-96.58-18.64-161.55-102.83-142.17-203.25 10.72-55.56 44.3-100.64 88.51-126.7 18.48-10.88 41.16 5.53 37.1 26.59z"/>
  <linearGradient id="M" x1="1113.1" x2="759.06" y1="74.54" y2="464.58" gradientUnits="userSpaceOnUse">
    <stop offset="0" stop-color="#4042e2"/>
    <stop offset="1" stop-color="#4f52ff"/>
  </linearGradient>
  <path fill="url(#M)" d="M632.67 416.98 605.73 556.6a32.64 32.64 0 0 0 7.59 27.8l34.37 38.9a32.63 32.63 0 0 0 39.11 7.54l46.38-23.3a32.64 32.64 0 0 0 17.39-22.98l26.95-139.64c4.06-21.06 31.21-27.85 44.32-10.87 31.34 40.63 45.73 94.97 35 150.53-19.37 100.42-111 154.39-207.6 135.75-96.58-18.65-161.55-102.83-142.17-203.25 10.72-55.56 44.3-100.64 88.51-126.69 18.48-10.89 41.16 5.52 37.1 26.58z"/>
  <linearGradient id="N" x1="1321.62" x2="967.58" y1="263.81" y2="653.85" gradientUnits="userSpaceOnUse">
    <stop offset="0" stop-color="#4042e2"/>
    <stop offset="1" stop-color="#4f52ff"/>
  </linearGradient>
  <path fill="url(#N)" d="m449.8 1379.54-4.64 24.07c-7.97 41.3 8.14 79.13 35.98 84.5l33.1 6.39c27.85 5.37 56.88-23.75 64.85-65.04l4.64-24.07c.3-1.6.58-3.2.82-4.8l106.89-719.38-72.12-13.92-168.5 707.5c-.37 1.57-.71 3.16-1.02 4.75zm33.88 4.58c6-31.09 25.84-53.4 44.32-49.84 18.47 3.57 28.58 31.66 22.58 62.75-6 31.1-25.84 53.4-44.31 49.84-18.48-3.56-28.59-31.66-22.59-62.75z"/>
  <linearGradient id="O" x1="-412.11" x2="-286.56" y1="1646.9" y2="1979.59" gradientTransform="scale(-1 1) rotate(65 164.4 1060.3)" gradientUnits="userSpaceOnUse">
    <stop offset="0" stop-color="#ff928e"/>
    <stop offset="1" stop-color="#feb3b1"/>
  </linearGradient>
  <path fill="url(#O)" d="M677.05 819.86c.77-4.51-.55-9.1-3.54-12.56-5.8-6.7-15.82-15.9-23.09-9.7-10.82 9.23 1.04 40.78 1.04 40.78l12 18.33.17 11.7c6.49-7.61 10.37-26.31 13.42-48.55z"/>
  <linearGradient id="P" x1="-140.76" x2="-51.13" y1="1015.27" y2="1015.27" gradientTransform="rotate(-1 205.32 -18807.75)" gradientUnits="userSpaceOnUse">
    <stop offset="0" stop-color="#ff928e"/>
    <stop offset="1" stop-color="#feb3b1"/>
  </linearGradient>
  <path fill="url(#P)" d="M265.35 971.05c-9.01 9.99-22.39 18.72-31.81 24.19 14.56 17.32 34.14 34.56 59.95 51.31l7.6 16.23 22.84-28.44s-42.33-20.08-58.58-63.29z"/>
  <linearGradient id="Q" x1="16.11" x2="-1.89" y1="1125.85" y2="1325.34" gradientTransform="rotate(-1 205.32 -18807.75)" gradientUnits="userSpaceOnUse">
    <stop offset="0" stop-color="#09005d"/>
    <stop offset="1" stop-color="#1a0f91"/>
  </linearGradient>
  <path fill="url(#Q)" d="M400.43 1499.86c0-.5-.05-1-.18-1.51-8.14-29.87-46.06-47.85-46.06-47.85l-14.86 1.45c-8.06 26.6-6.65 42.8-5.14 50 .04.2.1.4.16.6 12.3.86 37.59 1.1 66.08-2.69z"/>
  <linearGradient id="R" x1="-21.31" x2="29.69" y1="1543.7" y2="1093.73" gradientTransform="rotate(-1 205.32 -18807.75)" gradientUnits="userSpaceOnUse">
    <stop offset="0" stop-color="#4042e2"/>
    <stop offset="1" stop-color="#4f52ff"/>
  </linearGradient>
  <path fill="url(#R)" d="M334.35 1502.54a6.47 6.47 0 0 0 4.81 4.69c17.54 3.34 45.25-.14 56.87-1.89 2.57-.38 4.4-2.8 4.4-5.48-28.5 3.79-53.78 3.55-66.08 2.68z"/>
  <linearGradient id="S" x1="-31.95" x2="-44.79" y1="1399.9" y2="1511.95" gradientTransform="rotate(-1 205.32 -18807.75)" gradientUnits="userSpaceOnUse">
    <stop offset="0" stop-color="#ff928e"/>
    <stop offset="1" stop-color="#feb3b1"/>
  </linearGradient>
  <path fill="url(#S)" d="m332.92 1429.9 6.88 30.22a4.96 4.96 0 0 0 4.32 4c2.54.2 6.15.27 9.76-.33 3.25-.54 5.45-3.9 4.8-7.43l-4.88-26.86-20.88.4z"/>
  <linearGradient id="T" x1="93.77" x2="144.76" y1="1556.75" y2="1106.77" gradientTransform="rotate(-1 205.32 -18807.75)" gradientUnits="userSpaceOnUse">
    <stop offset="0" stop-color="#4042e2"/>
    <stop offset="1" stop-color="#4f52ff"/>
  </linearGradient>
  <path fill="url(#T)" d="M464.92 1499.77c-16.45-.15-25-1.92-29.42-3.64.02 1.64.06 3.3.14 5.02.1 1.84 1.49 3.29 3.16 3.25l90.26-2.29c2.88-.07 4.5-3.45 3.2-6.06-11.82 1.2-41.92 3.96-67.34 3.72z"/>
  <linearGradient id="U" x1="132.49" x2="114.49" y1="1136.35" y2="1335.84" gradientTransform="rotate(-1 205.32 -18807.75)" gradientUnits="userSpaceOnUse">
    <stop offset="0" stop-color="#09005d"/>
    <stop offset="1" stop-color="#1a0f91"/>
  </linearGradient>
  <path fill="url(#U)" d="M532.26 1496.05c-.11-.23-.21-.46-.37-.68-8.18-10.98-28.9-32.78-69.2-41.64l-19.26-.25s-8.3 15.06-7.93 42.65c4.43 1.72 12.97 3.5 29.42 3.64 25.42.24 55.52-2.52 67.34-3.72z"/>
  <linearGradient id="V" x1="72.63" x2="59.79" y1="1411.89" y2="1523.94" gradientTransform="rotate(-1 205.32 -18807.75)" gradientUnits="userSpaceOnUse">
    <stop offset="0" stop-color="#ff928e"/>
    <stop offset="1" stop-color="#feb3b1"/>
  </linearGradient>
  <path fill="url(#V)" d="M439.3 1424.38c.25 1.43 3.3 23.19 4.48 31.62a4.2 4.2 0 0 0 3.6 3.72c3.29.33 8.6.58 13.22-.46 2.5-.56 4.26-3 4.2-5.8l-.64-34.22-24.85 5.14z"/>
  <linearGradient id="W" x1="584.51" x2="176.47" y1="1030.24" y2="1450.28" gradientUnits="userSpaceOnUse">
    <stop offset="0" stop-color="#09005d"/>
    <stop offset="1" stop-color="#1a0f91"/>
  </linearGradient>
  <path fill="url(#W)" d="M416.35 1026.75s49.75 175.55 53.1 397.57a8.6 8.6 0 0 1-6.65 8.5c-5.82 1.34-14.37 2.96-21.47 2.9a7.97 7.97 0 0 1-7.73-6.52c-7.23-38.05-48.64-252.38-70.58-286.89 0 0-10.39 191.79-4.04 291.07a4.7 4.7 0 0 1-4.06 4.97c-3.72.5-9.67.95-17.28.28a6.3 6.3 0 0 1-5.71-5.24c-5.25-32.22-35.56-224-37.05-362.55-.08-7.81 19.87-42.17 19.87-42.17l101.6-1.92z"/>
  <linearGradient id="X" x1="-282.66" x2="53.34" y1="473.79" y2="193.79" gradientTransform="rotate(-1 -131.76 -59426.76)" gradientUnits="userSpaceOnUse">
    <stop offset="0" stop-color="#fe7062"/>
    <stop offset="1" stop-color="#ff928e"/>
  </linearGradient>
  <path fill="url(#X)" d="M476.88 812.02c-7.71-9.3-14.5-19.3-20.22-29.62-7.99-14.42-.44 9.44-2.86-6.97-58.53-40.58-145.08-17.85-178.63-12.97a44.93 44.93 0 0 0-28.1 15.77c-28.19 33.9-89.7 126.4-13.53 217.01 9.42-5.47 22.8-14.2 31.8-24.19-8.67-23.06-9.9-52.71 6.67-89.42a85.14 85.14 0 0 0 2.37 8.5c25.2 74.92 27.66 137.61 27.88 152.06a4.77 4.77 0 0 0 3.08 4.4c31.55 11.96 91.67 3.36 111.85-.04a6.8 6.8 0 0 0 5.54-7.83c-11.29-71.74 37.43-191.04 50.33-220.93.93-2.15 2.23-4.1 3.82-5.76z"/>
  <linearGradient id="Y" x1="-3.57" x2="-52.59" y1="683.62" y2="895.46" gradientTransform="rotate(-1 205.32 -18807.75)" gradientUnits="userSpaceOnUse">
    <stop offset="0" stop-color="#ff928e"/>
    <stop offset="1" stop-color="#feb3b1"/>
  </linearGradient>
  <path fill="url(#Y)" d="m328.13 700.86-4.87 61.77s34.88 9.79 59.77-8.49l-18.79-55.7-36.1 2.42z"/>
  <linearGradient id="Z" x1="623.57" x2="485.56" y1="552.4" y2="615.41" gradientUnits="userSpaceOnUse">
    <stop offset="0" stop-color="#ff928e"/>
    <stop offset="1" stop-color="#feb3b1"/>
  </linearGradient>
  <path fill="url(#Z)" d="M367.05 629.84c.85.77 36.51 67.66 36.51 67.66l-38.62 19.55-43.22-58.37s31.1-41.73 45.33-28.84z"/>
  <linearGradient id="aa" x1="-1452.22" x2="-1348.34" y1="-1302.03" y2="-1302.03" gradientTransform="rotate(-48 1710.18 -2307.84)" gradientUnits="userSpaceOnUse">
    <stop offset="0" stop-color="#2b3582"/>
    <stop offset="1" stop-color="#150e42"/>
  </linearGradient>
  <path fill="url(#aa)" d="M339 660a6.23 6.23 0 0 0 .57 5.44l20.05 32.04c.3.49.66.93 1.09 1.31 2.35 2.11 10.4 8.23 16.35-.42 5.08-7.37 9.85-14.07 15.05-16.9a6.21 6.21 0 0 1 8.44 2.6c3.32 6.3 9.77 19.12 13.9 31.32a6.19 6.19 0 0 1-3.46 7.66c-7.83 3.34-23.32 9.42-37.13 11.6a6.22 6.22 0 0 1-5.93-2.4c-6.1-8.04-23.32-30.53-29.16-36.13-5.42-5.2-15.2-3.01-19.61-1.66a6.25 6.25 0 0 1-4.98-.56c-4.54-2.62-12.5-9.2-5.55-20.74a6.22 6.22 0 0 0-2.09-8.42c-5.07-3.2-10.63-9.3-5.64-19.42 5.06-10.25 14.41-11.33 20.81-10.67a6.46 6.46 0 0 0 6.7-3.9 4.11 4.11 0 0 1 3.16-2.59 6.04 6.04 0 0 0 4.75-7.17c-1.23-5.73-.52-13.2 8.55-18.42 16.65-9.56 31.66 5.23 35.65 17.87 3.99 12.65-14.65 22-26.45 23.72-8.67 1.27-13.25 10.84-15.08 15.83z"/>
  <linearGradient id="ab" x1="-1513.18" x2="-1443.42" y1="-1238.55" y2="-1310.12" gradientTransform="rotate(-48 1710.18 -2307.84)" gradientUnits="userSpaceOnUse">
    <stop offset="0" stop-color="#ff928e"/>
    <stop offset="1" stop-color="#feb3b1"/>
  </linearGradient>
  <path fill="url(#ab)" d="M346.3 707.89s-7.9-21.74-17.45-20.76c-9.56.99-16.92 10.66-4.85 21.16 15.01 13.06 22.3-.4 22.3-.4z"/>
  <linearGradient id="ac" x1="520.36" x2="348.36" y1="641.71" y2="773.71" gradientUnits="userSpaceOnUse">
    <stop offset="0" stop-color="#e1473d"/>
    <stop offset="1" stop-color="#e9605a"/>
  </linearGradient>
  <path fill="url(#ac)" d="M268.75 876.05c-13.27-34.29-9.48-76.08-9.44-76.5l3.48.34c-.04.4-3.74 41.4 9.22 74.9l-3.26 1.26z" opacity=".9"/>
  <linearGradient id="ad" x1="420.02" x2="-51.03" y1="1026.25" y2="1608.31" gradientUnits="userSpaceOnUse">
    <stop offset="0" stop-color="#020039"/>
    <stop offset="1" stop-color="#090056"/>
  </linearGradient>
  <path fill="url(#ad)" d="M361.23 1137.85c-.78.01-1.5-.5-1.72-1.28-4.13-14.78-33.27-30.55-33.56-30.7a1.75 1.75 0 1 1 1.66-3.1c1.25.68 30.74 16.65 35.27 32.86a1.75 1.75 0 0 1-1.65 2.22z"/>
  <linearGradient id="ae" x1="325.01" x2="373.01" y1="564.61" y2="932.61" gradientUnits="userSpaceOnUse">
    <stop offset="0" stop-color="#fe7062"/>
    <stop offset="1" stop-color="#ff928e"/>
  </linearGradient>
  <path fill="url(#ae)" d="m387.13 609.54-89.28 69.54c-1.3 1-3.19.24-3.42-1.38l-.93-6.37s-37.15-37.37 1.02-71.14c38.18-33.78 83.23 4.48 83.23 4.48l8.63 1.72c1.5.3 1.96 2.21.75 3.15z"/>
  <g fill="#7d97f4">
    <path d="m2254.85 1492.12-305.95-590.1a6.78 6.78 0 0 1 12.02-6.23l305.95 590.1a6.78 6.78 0 0 1-12.02 6.23zm-145.35 4.51L1848 895.77a6.78 6.78 0 0 1 12.41-5.4l261.51 600.86a6.72 6.72 0 0 1-6.2 9.47c-2.7 0-5.14-1.6-6.21-4.07z"/>
    <path d="M1903.62 1010.14h106.07a4.23 4.23 0 0 0 0-8.46h-106.07a4.23 4.23 0 0 0 0 8.47zm28.34 65.72h106.08a4.23 4.23 0 0 0 0-8.46h-106.08a4.23 4.23 0 0 0 0 8.46zm37.39 78.68h112.82a4.23 4.23 0 0 0 0-8.46h-112.82a4.23 4.23 0 0 0 0 8.46zm-93.92-208.14h101.2a4.23 4.23 0 0 0 0-8.45h-101.2a4.23 4.23 0 0 0 0 8.46zm131.14 298.67h122.6a4.23 4.23 0 0 0 0-8.46h-122.6a4.23 4.23 0 0 0 0 8.46zm28.81 70.23h131.49a4.23 4.23 0 0 0 0-8.47h-131.5a4.23 4.23 0 0 0 0 8.46z"/>
  </g>
  <linearGradient id="af" x1="2197.11" x2="2168.11" y1="898.53" y2="937.53" gradientUnits="userSpaceOnUse">
    <stop offset="0" stop-color="#ff928e"/>
    <stop offset="1" stop-color="#feb3b1"/>
  </linearGradient>
  <path fill="url(#af)" d="M2147.22 951.11c4.92 5.26 12.18 9.8 17.29 12.64-7.63 9.43-17.95 18.87-31.6 28.1l-3.92 8.78-12.52-15.01s22.47-11.19 30.75-34.5z"/>
  <linearGradient id="ag" x1="-614.03" x2="-956.05" y1="2029.38" y2="1354.38" gradientTransform="matrix(-.75 .67 .67 .75 392.26 520.85)" gradientUnits="userSpaceOnUse">
    <stop offset="0" stop-color="#4042e2"/>
    <stop offset="1" stop-color="#4f52ff"/>
  </linearGradient>
  <path fill="url(#ag)" d="M2115.5 1088.46a13.47 13.47 0 0 0 19.24 1.36l16.3-14.52a13.47 13.47 0 0 0 .87-19.27l-252.55-267.45-20.39 18.16 236.53 281.72zm-22.64-44.36c-13.55-15.22-20.6-31.07-15.74-35.4 4.86-4.32 19.78 4.51 33.34 19.73 13.55 15.22 20.6 31.06 15.74 35.39-4.86 4.33-19.78-4.5-33.34-19.72z"/>
  <linearGradient id="ah" x1="1878.97" x2="1974.5" y1="839.61" y2="839.61" gradientUnits="userSpaceOnUse">
    <stop offset="0" stop-color="#4042e2"/>
    <stop offset="1" stop-color="#4f52ff"/>
  </linearGradient>
  <path fill="url(#ah)" d="m1878.98 806.74 20.38-18.16 75.15 80.21-24.54 21.84z"/>
  <linearGradient id="ai" x1="1795.89" x2="1969.58" y1="790.7" y2="790.7" gradientUnits="userSpaceOnUse">
    <stop offset="0" stop-color="#4042e2"/>
    <stop offset="1" stop-color="#4f52ff"/>
  </linearGradient>
  <path fill="url(#ai)" d="m1819.87 867.03 146.2-130.2a10.46 10.46 0 0 0 .86-14.77l-9.21-10.34-161.83 144.11 9.21 10.35a10.46 10.46 0 0 0 14.77.85z"/>
  <linearGradient id="aj" x1="1836.14" x2="1848.14" y1="546.01" y2="318.01" gradientUnits="userSpaceOnUse">
    <stop offset="0" stop-color="#ff928e"/>
    <stop offset="1" stop-color="#feb3b1"/>
  </linearGradient>
  <path fill="url(#aj)" d="m1795.89 855.83 161.83-144.11c-41.26-44.8-76.02-90.57-96.56-138.46l-29.32 26.1-4.2 34.24-24.53-8.65-37.78 33.65-5.94 30-17.26-9.34-45.44 40.47c9.49 44.6 51.88 90.27 99.2 136.1z"/>
  <linearGradient id="ak" x1="1763.34" x2="1599.34" y1="774.09" y2="1238.09" gradientUnits="userSpaceOnUse">
    <stop offset="0" stop-color="#fe7062"/>
    <stop offset="1" stop-color="#ff928e"/>
  </linearGradient>
  <path fill="url(#ak)" d="M1803.43 835.06c-54-50.85-85.76-107.19-86.08-107.75l1.8-1c.3.56 31.92 56.64 85.69 107.26l-1.4 1.5z"/>
  <linearGradient id="al" x1="1769.28" x2="1605.28" y1="776.2" y2="1240.19" gradientUnits="userSpaceOnUse">
    <stop offset="0" stop-color="#fe7062"/>
    <stop offset="1" stop-color="#ff928e"/>
  </linearGradient>
  <path fill="url(#al)" d="M1812.47 827.06c-46.16-40.72-84.18-108.47-84.56-109.15l1.79-1c.38.68 38.23 68.13 84.13 108.61l-1.36 1.54z"/>
  <linearGradient id="am" x1="1798.87" x2="1634.87" y1="786.65" y2="1250.65" gradientUnits="userSpaceOnUse">
    <stop offset="0" stop-color="#fe7062"/>
    <stop offset="1" stop-color="#ff928e"/>
  </linearGradient>
  <path fill="url(#am)" d="M1860.36 784.52c-52.63-39.24-82.63-110.16-82.92-110.87l1.89-.78c.3.7 30.08 71.11 82.25 110.01l-1.22 1.64z"/>
  <linearGradient id="an" x1="1806.44" x2="1642.44" y1="789.33" y2="1253.33" gradientUnits="userSpaceOnUse">
    <stop offset="0" stop-color="#fe7062"/>
    <stop offset="1" stop-color="#ff928e"/>
  </linearGradient>
  <path fill="url(#an)" d="M1872.93 773.33c-50.3-37.15-82.9-109.85-83.22-110.58l1.87-.83c.33.73 32.7 72.94 82.57 109.76l-1.22 1.65z"/>
  <linearGradient id="ao" x1="1840.33" x2="1676.33" y1="801.31" y2="1265.31" gradientUnits="userSpaceOnUse">
    <stop offset="0" stop-color="#fe7062"/>
    <stop offset="1" stop-color="#ff928e"/>
  </linearGradient>
  <path fill="url(#ao)" d="M1921.96 729.42c-51.87-55.32-72.86-113.63-73.07-114.21l1.93-.68c.2.58 21.07 58.5 72.63 113.5l-1.5 1.4z"/>
  <linearGradient id="ap" x1="-255.21" x2="-260.21" y1="1161.6" y2="1278.1" gradientTransform="matrix(-1 0 0 1 1839.93 0)" gradientUnits="userSpaceOnUse">
    <stop offset="0" stop-color="#09005d"/>
    <stop offset="1" stop-color="#1a0f91"/>
  </linearGradient>
  <path fill="url(#ap)" d="M2080.18 1235.86c0-.27.01-.54.08-.82 4.06-16.08 24.2-26.1 24.2-26.1l7.98.63c4.59 14.17 4 22.87 3.26 26.74l-.08.32c-6.59.58-20.13.97-35.44-.77z"/>
  <linearGradient id="aq" x1="-261.04" x2="-246.54" y1="1276.79" y2="1085.8" gradientTransform="matrix(-1 0 0 1 1839.93 0)" gradientUnits="userSpaceOnUse">
    <stop offset="0" stop-color="#4042e2"/>
    <stop offset="1" stop-color="#4f52ff"/>
  </linearGradient>
  <path fill="url(#aq)" d="M2115.62 1236.63a3.46 3.46 0 0 1-2.54 2.55c-9.36 1.97-24.24.39-30.5-.43-1.37-.18-2.38-1.45-2.4-2.9 15.3 1.75 28.85 1.37 35.44.78z"/>
  <linearGradient id="ar" x1="-266.26" x2="-273.14" y1="1182.02" y2="1242.07" gradientTransform="matrix(-1 0 0 1 1839.93 0)" gradientUnits="userSpaceOnUse">
    <stop offset="0" stop-color="#ff928e"/>
    <stop offset="1" stop-color="#feb3b1"/>
  </linearGradient>
  <path fill="url(#ar)" d="m2115.64 1197.68-3.37 16.27a2.66 2.66 0 0 1-2.28 2.19c-1.36.13-3.29.2-5.23-.08-1.75-.26-2.96-2.03-2.65-3.93l2.35-14.45h11.18z"/>
  <linearGradient id="as" x1="-198.89" x2="-184.39" y1="1281.51" y2="1090.51" gradientTransform="matrix(-1 0 0 1 1839.93 0)" gradientUnits="userSpaceOnUse">
    <stop offset="0" stop-color="#4042e2"/>
    <stop offset="1" stop-color="#4f52ff"/>
  </linearGradient>
  <path fill="url(#as)" d="M2045.62 1236.46c8.81-.24 13.37-1.28 15.73-2.24 0 .87 0 1.76-.03 2.69-.03.98-.76 1.77-1.66 1.77l-48.39-.32c-1.54 0-2.45-1.8-1.78-3.21 6.35.52 22.5 1.7 36.13 1.31z"/>
  <linearGradient id="at" x1="-192.5" x2="-197.5" y1="1164.29" y2="1280.79" gradientTransform="matrix(-1 0 0 1 1839.93 0)" gradientUnits="userSpaceOnUse">
    <stop offset="0" stop-color="#09005d"/>
    <stop offset="1" stop-color="#1a0f91"/>
  </linearGradient>
  <path fill="url(#at)" d="M2009.5 1235.15c.05-.13.1-.25.19-.37 4.27-5.97 15.15-17.86 36.66-23.02l10.32-.32s4.6 7.98 4.68 22.78c-2.36.96-6.92 2-15.73 2.24-13.62.38-29.78-.79-36.13-1.31z"/>
  <linearGradient id="au" x1="-210.2" x2="-217.09" y1="1188.44" y2="1248.5" gradientTransform="matrix(-1 0 0 1 1839.93 0)" gradientUnits="userSpaceOnUse">
    <stop offset="0" stop-color="#ff928e"/>
    <stop offset="1" stop-color="#feb3b1"/>
  </linearGradient>
  <path fill="url(#au)" d="M2058.58 1195.8c-.11.77-1.53 12.46-2.07 17a2.25 2.25 0 0 1-1.9 2.02c-1.76.21-4.6.4-7.09-.1-1.34-.28-2.3-1.57-2.3-3.07v-18.35l13.36 2.5z"/>
  <linearGradient id="av" x1="2176.8" x2="2025.8" y1="985.8" y2="1172.8" gradientUnits="userSpaceOnUse">
    <stop offset="0" stop-color="#09005d"/>
    <stop offset="1" stop-color="#1a0f91"/>
  </linearGradient>
  <path fill="url(#av)" d="M2066.86 982.49s-24.89 94.57-24.44 213.58a4.6 4.6 0 0 0 3.66 4.5c3.13.65 7.73 1.43 11.53 1.33a4.28 4.28 0 0 0 4.08-3.57c3.49-20.46 23.51-135.74 34.92-154.45 0 0 7.5 102.67 5.1 155.93a2.52 2.52 0 0 0 2.23 2.63c2 .23 5.2.4 9.27-.03a3.38 3.38 0 0 0 3-2.87c2.5-17.31 16.8-120.4 16.19-194.65-.04-4.2-11.08-22.4-11.08-22.4h-54.46z"/>
  <linearGradient id="aw" x1="-1030.41" x2="-1067.7" y1="838.57" y2="1203.67" gradientTransform="matrix(-1 0 0 1 1072.16 0)" gradientUnits="userSpaceOnUse">
    <stop offset="0" stop-color="#fe7062"/>
    <stop offset="1" stop-color="#ff928e"/>
  </linearGradient>
  <path fill="url(#aw)" d="M2032.25 868.03a103.47 103.47 0 0 0 10.54-16.08c4.13-7.8 10.08-14.13 11.2-22.95 28-1 67.82 8.16 85.85 10.43a24.08 24.08 0 0 1 15.22 8.17c15.45 17.88 49.35 66.83 9.45 116.15-5.11-2.83-12.37-7.38-17.3-12.64 4.42-12.44 4.78-28.35-4.47-47.85-.32 1.55-.7 3.08-1.18 4.58-12.75 40.4-13.43 74.02-13.4 81.77 0 1.05-.63 2-1.61 2.39-16.78 6.73-49.1 2.72-59.94 1.1a3.65 3.65 0 0 1-3.05-4.13c5.33-38.56-22-102-29.2-117.89a10.58 10.58 0 0 0-2.11-3.05z"/>
  <linearGradient id="ax" x1="-251.05" x2="-277.33" y1="793.49" y2="907.03" gradientTransform="matrix(-1 0 0 1 1839.93 0)" gradientUnits="userSpaceOnUse">
    <stop offset="0" stop-color="#ff928e"/>
    <stop offset="1" stop-color="#feb3b1"/>
  </linearGradient>
  <path fill="url(#ax)" d="m2110.84 802.33 3.23 33.05s-18.59 5.6-32.11-3.94l9.5-30.04 19.38.93z"/>
  <linearGradient id="ay" x1="2309.45" x2="2198.45" y1="741.08" y2="835.08" gradientUnits="userSpaceOnUse">
    <stop offset="0" stop-color="#e1473d"/>
    <stop offset="1" stop-color="#e9605a"/>
  </linearGradient>
  <path fill="url(#ay)" d="M2144.43 900.24c6.77-18.51 4.31-40.87 4.29-41.1l-1.87.22c.03.22 2.43 22.15-4.18 40.23l1.76.65z"/>
  <linearGradient id="az" x1="2171.58" x2="2137.58" y1="796.72" y2="919.72" gradientUnits="userSpaceOnUse">
    <stop offset="0" stop-color="#09005d"/>
    <stop offset="1" stop-color="#1a0f91"/>
  </linearGradient>
  <path fill="url(#az)" d="M2097.53 1041.46c.41 0 .8-.28.9-.7 2.07-7.96 17.52-16.7 17.68-16.8a.94.94 0 1 0-.92-1.63c-.67.37-16.31 9.23-18.57 17.96a.94.94 0 0 0 .9 1.17z"/>
  <linearGradient id="aA" x1="-939.5" x2="-977.33" y1="845.56" y2="1215.98" gradientTransform="matrix(-1 0 0 1 1072.16 0)" gradientUnits="userSpaceOnUse">
    <stop offset="0" stop-color="#fe7062"/>
    <stop offset="1" stop-color="#ff928e"/>
  </linearGradient>
  <path fill="url(#aA)" d="M1958.2 869.6c35 5.25 57.82-16.84 74.82-30.24 22.45-17.7 39.92-9.09 39.92-9.09l-23.94 45.7c-35.75 33.7-72.4 26.22-95.52 15.3-.35-8.83 2-16.22 4.71-21.68z"/>
  <linearGradient id="aB" x1="1971.55" x2="1947.55" y1="799.13" y2="839.13" gradientUnits="userSpaceOnUse">
    <stop offset="0" stop-color="#ff928e"/>
    <stop offset="1" stop-color="#feb3b1"/>
  </linearGradient>
  <path fill="url(#aB)" d="m1909.68 840.2 10.92 14.75c13.92 8.48 26.38 12.96 37.6 14.64a44.57 44.57 0 0 0-4.72 21.67c-14.7-6.95-23.93-15.3-23.93-15.3-26.3-15.68-19.87-35.76-19.87-35.76z"/>
  <linearGradient id="aC" x1="-4399.24" x2="-4382.74" y1="-278.19" y2="-365.69" gradientTransform="scale(-1 1) rotate(-42 -1105.6 -2876.84)" gradientUnits="userSpaceOnUse">
    <stop offset="0" stop-color="#ff928e"/>
    <stop offset="1" stop-color="#feb3b1"/>
  </linearGradient>
  <path fill="url(#aC)" d="M2084.4 773.04s-14.07 26.47-12.27 37.16c1.8 10.69 19.23 9.92 34.45 1.24l10.63-28.58-32.82-9.82z"/>
  <linearGradient id="aD" x1="-4309.31" x2="-4297.14" y1="-860.94" y2="-791.52" gradientTransform="scale(-1 1) rotate(-42 -1105.6 -2876.84)" gradientUnits="userSpaceOnUse">
    <stop offset="0" stop-color="#2b3582"/>
    <stop offset="1" stop-color="#150e42"/>
  </linearGradient>
  <path fill="url(#aD)" d="M2105.9 797.4a1.09 1.09 0 0 1-.47-1.6c1.12-1.71 3.23-5.22 3.9-8.3 0 0 2.53-1.61-6.42-3.76-8.96-2.14-22.33-5.47-25.13-13.1-2.74-7.43 11.94-17.09 23.42-2.19.44.57-6.2-8.46-5.76-9.03 1.88-2.45 6.83-7.53 13.7-4.45 6.42 2.88 7.15 7.6 7.06 9.96-.03.7.6 1.25 1.28 1.11 3.25-.61 11.05-1.15 14.7 6.85 2.99 6.6 1.04 10.32-.73 12.14-.58.6-.33 1.57.46 1.81 2.14.65 1.42-.39 1.14 4.61-.38 6.92-4.64 9.17-6.84 8.85a1.1 1.1 0 0 0-.97.34c-1.88 2.1-10.4 10.96-19.6 12.03-.8.1-1.41-.7-1.15-1.45l3.98-11.58a1.1 1.1 0 0 0-.6-1.36l-1.97-.88z"/>
  <linearGradient id="aE" x1="-4414.85" x2="-4398.35" y1="-281.13" y2="-368.63" gradientTransform="scale(-1 1) rotate(-42 -1105.6 -2876.84)" gradientUnits="userSpaceOnUse">
    <stop offset="0" stop-color="#ff928e"/>
    <stop offset="1" stop-color="#feb3b1"/>
  </linearGradient>
  <path fill="url(#aE)" d="M2104.3 799.05s10.01-6.87 10.74-1.09c.73 5.79-9.01 8.38-13.84 6.23l3.1-5.14z"/>
  <linearGradient id="aF" x1="2104.2" x2="1996.2" y1="782.04" y2="912.04" gradientUnits="userSpaceOnUse">
    <stop offset="0" stop-color="#fe7062"/>
    <stop offset="1" stop-color="#ff928e"/>
  </linearGradient>
  <path fill="url(#aF)" d="m2071.97 762.86 59.39 44.47-1.02-4.04s24.19-25.5.34-45.82c-23.85-20.3-51.08 3.72-51.08 3.72l-7.63 1.67z"/>
  <linearGradient id="aG" x1="545.16" x2="550.56" y1="727.89" y2="727.89" gradientUnits="userSpaceOnUse">
    <stop offset="0" stop-color="#dae3fe"/>
    <stop offset="1" stop-color="#e9effd"/>
  </linearGradient>
  <path fill="url(#aG)" d="m545.32 729.94 3.3-5.18a1.05 1.05 0 1 1 1.77 1.13l-3.35 5.16a1.02 1.02 0 0 1-1.72-1.1z"/>
  <linearGradient id="aH" x1="556.47" x2="562.35" y1="710.98" y2="710.98" gradientUnits="userSpaceOnUse">
    <stop offset="0" stop-color="#dae3fe"/>
    <stop offset="1" stop-color="#e9effd"/>
  </linearGradient>
  <path fill="url(#aH)" d="m556.68 712.83 3.58-4.99a1.15 1.15 0 1 1 1.87 1.34v.01l-3.63 4.96a1.12 1.12 0 0 1-1.82-1.32z"/>
  <linearGradient id="aI" x1="568.7" x2="575.04" y1="694.74" y2="694.74" gradientUnits="userSpaceOnUse">
    <stop offset="0" stop-color="#dae3fe"/>
    <stop offset="1" stop-color="#e9effd"/>
  </linearGradient>
  <path fill="url(#aI)" d="m568.97 696.37 3.85-4.79a1.25 1.25 0 1 1 1.94 1.57l-3.9 4.76a1.22 1.22 0 0 1-1.9-1.54z"/>
  <linearGradient id="aJ" x1="581.8" x2="588.58" y1="679.19" y2="679.19" gradientUnits="userSpaceOnUse">
    <stop offset="0" stop-color="#dae3fe"/>
    <stop offset="1" stop-color="#e9effd"/>
  </linearGradient>
  <path fill="url(#aJ)" d="m582.13 680.6 4.1-4.57a1.35 1.35 0 1 1 2.01 1.8l-4.15 4.54a1.32 1.32 0 0 1-1.96-1.76z"/>
  <linearGradient id="aK" x1="595.71" x2="602.93" y1="664.38" y2="664.38" gradientUnits="userSpaceOnUse">
    <stop offset="0" stop-color="#dae3fe"/>
    <stop offset="1" stop-color="#e9effd"/>
  </linearGradient>
  <path fill="url(#aK)" d="m596.13 665.56 4.33-4.35a1.45 1.45 0 1 1 2.05 2.04l-.01.01-4.38 4.31a1.42 1.42 0 0 1-2-2z"/>
  <linearGradient id="aL" x1="610.39" x2="618.02" y1="650.33" y2="650.33" gradientUnits="userSpaceOnUse">
    <stop offset="0" stop-color="#dae3fe"/>
    <stop offset="1" stop-color="#e9effd"/>
  </linearGradient>
  <path fill="url(#aL)" d="m610.88 651.27 4.56-4.12a1.54 1.54 0 1 1 2.07 2.28l-.01.01-4.6 4.08a1.52 1.52 0 0 1-2.01-2.25z"/>
  <linearGradient id="aM" x1="625.76" x2="633.79" y1="637.04" y2="637.04" gradientUnits="userSpaceOnUse">
    <stop offset="0" stop-color="#dae3fe"/>
    <stop offset="1" stop-color="#e9effd"/>
  </linearGradient>
  <path fill="url(#aM)" d="m626.36 637.74 4.75-3.89a1.64 1.64 0 0 1 2.08 2.55h-.02l-4.78 3.85a1.61 1.61 0 0 1-2.03-2.5z"/>
  <linearGradient id="aN" x1="641.79" x2="650.19" y1="624.55" y2="624.55" gradientUnits="userSpaceOnUse">
    <stop offset="0" stop-color="#dae3fe"/>
    <stop offset="1" stop-color="#e9effd"/>
  </linearGradient>
  <path fill="url(#aN)" d="m642.48 625 4.94-3.65a1.74 1.74 0 1 1 2.07 2.8h-.02l-4.97 3.61a1.71 1.71 0 0 1-2.02-2.76z"/>
  <linearGradient id="aO" x1="658.4" x2="667.17" y1="612.85" y2="612.85" gradientUnits="userSpaceOnUse">
    <stop offset="0" stop-color="#dae3fe"/>
    <stop offset="1" stop-color="#e9effd"/>
  </linearGradient>
  <path fill="url(#aO)" d="m659.2 613.05 5.1-3.41a1.84 1.84 0 1 1 2.05 3.05l-.01.01-5.14 3.37a1.81 1.81 0 0 1-2-3.02z"/>
  <linearGradient id="aP" x1="675.55" x2="684.66" y1="601.94" y2="601.94" gradientUnits="userSpaceOnUse">
    <stop offset="0" stop-color="#dae3fe"/>
    <stop offset="1" stop-color="#e9effd"/>
  </linearGradient>
  <path fill="url(#aP)" d="m676.47 601.9 5.25-3.18a1.94 1.94 0 0 1 2 3.31v.01l-5.3 3.13a1.9 1.9 0 0 1-1.95-3.27z"/>
  <linearGradient id="aQ" x1="693.18" x2="702.63" y1="591.82" y2="591.82" gradientUnits="userSpaceOnUse">
    <stop offset="0" stop-color="#dae3fe"/>
    <stop offset="1" stop-color="#e9effd"/>
  </linearGradient>
  <path fill="url(#aQ)" d="m694.22 591.53 5.4-2.94a2.04 2.04 0 0 1 1.94 3.57l-.01.01-5.42 2.9a2 2 0 0 1-1.9-3.54z"/>
  <linearGradient id="aR" x1="711.24" x2="721.01" y1="582.49" y2="582.49" gradientUnits="userSpaceOnUse">
    <stop offset="0" stop-color="#dae3fe"/>
    <stop offset="1" stop-color="#e9effd"/>
  </linearGradient>
  <path fill="url(#aR)" d="m712.42 581.96 5.51-2.71a2.13 2.13 0 1 1 1.88 3.83h-.01l-5.54 2.66a2.1 2.1 0 0 1-1.84-3.78z"/>
  <linearGradient id="aS" x1="729.7" x2="739.77" y1="573.94" y2="573.94" gradientUnits="userSpaceOnUse">
    <stop offset="0" stop-color="#dae3fe"/>
    <stop offset="1" stop-color="#e9effd"/>
  </linearGradient>
  <path fill="url(#aS)" d="m731.01 573.16 5.62-2.47a2.23 2.23 0 1 1 1.8 4.09h-.02l-5.65 2.43a2.2 2.2 0 0 1-1.75-4.05z"/>
  <linearGradient id="aT" x1="748.49" x2="758.85" y1="566.17" y2="566.17" gradientUnits="userSpaceOnUse">
    <stop offset="0" stop-color="#dae3fe"/>
    <stop offset="1" stop-color="#e9effd"/>
  </linearGradient>
  <path fill="url(#aT)" d="m749.96 565.15 5.71-2.24a2.33 2.33 0 1 1 1.7 4.34h-.01l-5.74 2.2a2.3 2.3 0 0 1-1.66-4.3z"/>
  <linearGradient id="aU" x1="767.61" x2="778.2" y1="559.18" y2="559.18" gradientUnits="userSpaceOnUse">
    <stop offset="0" stop-color="#dae3fe"/>
    <stop offset="1" stop-color="#e9effd"/>
  </linearGradient>
  <path fill="url(#aU)" d="m769.21 557.92 5.81-2a2.4 2.4 0 1 1 1.56 4.54l-5.83 1.97a2.38 2.38 0 0 1-1.54-4.5z"/>
  <linearGradient id="aV" x1="787.02" x2="797.79" y1="552.93" y2="552.93" gradientUnits="userSpaceOnUse">
    <stop offset="0" stop-color="#dae3fe"/>
    <stop offset="1" stop-color="#e9effd"/>
  </linearGradient>
  <path fill="url(#aV)" d="m788.75 551.49 5.88-1.78a2.45 2.45 0 1 1 1.42 4.7h-.01l-5.9 1.75a2.44 2.44 0 0 1-1.39-4.67z"/>
  <linearGradient id="aW" x1="806.66" x2="817.6" y1="547.44" y2="547.44" gradientUnits="userSpaceOnUse">
    <stop offset="0" stop-color="#dae3fe"/>
    <stop offset="1" stop-color="#e9effd"/>
  </linearGradient>
  <path fill="url(#aW)" d="m808.52 545.8 5.94-1.55a2.51 2.51 0 0 1 1.26 4.86l-5.95 1.52a2.5 2.5 0 0 1-1.25-4.83z"/>
  <linearGradient id="aX" x1="826.48" x2="837.6" y1="542.7" y2="542.7" gradientUnits="userSpaceOnUse">
    <stop offset="0" stop-color="#dae3fe"/>
    <stop offset="1" stop-color="#e9effd"/>
  </linearGradient>
  <path fill="url(#aX)" d="m828.48 540.87 6-1.32a2.56 2.56 0 1 1 1.1 5l-6.01 1.3a2.55 2.55 0 0 1-1.1-4.98z"/>
  <linearGradient id="aY" x1="846.49" x2="857.76" y1="538.69" y2="538.69" gradientUnits="userSpaceOnUse">
    <stop offset="0" stop-color="#dae3fe"/>
    <stop offset="1" stop-color="#e9effd"/>
  </linearGradient>
  <path fill="url(#aY)" d="m848.62 536.68 6.04-1.1a2.62 2.62 0 0 1 .95 5.15h-.02l-6.04 1.08a2.6 2.6 0 0 1-.93-5.13z"/>
  <linearGradient id="aZ" x1="866.63" x2="878.04" y1="535.42" y2="535.42" gradientUnits="userSpaceOnUse">
    <stop offset="0" stop-color="#dae3fe"/>
    <stop offset="1" stop-color="#e9effd"/>
  </linearGradient>
  <path fill="url(#aZ)" d="m868.9 533.23 6.08-.89a2.67 2.67 0 1 1 .77 5.3h-.01l-6.08.85a2.66 2.66 0 0 1-.76-5.26z"/>
  <linearGradient id="ba" x1="886.88" x2="898.43" y1="532.87" y2="532.87" gradientUnits="userSpaceOnUse">
    <stop offset="0" stop-color="#dae3fe"/>
    <stop offset="1" stop-color="#e9effd"/>
  </linearGradient>
  <path fill="url(#ba)" d="m889.3 530.51 6.1-.67a2.73 2.73 0 1 1 .6 5.43h-.02l-6.1.64a2.71 2.71 0 0 1-.59-5.4z"/>
  <linearGradient id="bb" x1="907.21" x2="918.89" y1="531.06" y2="531.06" gradientUnits="userSpaceOnUse">
    <stop offset="0" stop-color="#dae3fe"/>
    <stop offset="1" stop-color="#e9effd"/>
  </linearGradient>
  <path fill="url(#bb)" d="m909.77 528.52 6.13-.45a2.78 2.78 0 1 1 .4 5.56l-6.13.42a2.77 2.77 0 0 1-.4-5.52z"/>
  <linearGradient id="bc" x1="927.6" x2="939.4" y1="529.97" y2="529.97" gradientUnits="userSpaceOnUse">
    <stop offset="0" stop-color="#dae3fe"/>
    <stop offset="1" stop-color="#e9effd"/>
  </linearGradient>
  <path fill="url(#bc)" d="m930.31 527.27 6.14-.23a2.84 2.84 0 1 1 .22 5.67h-.02l-6.14.2a2.82 2.82 0 0 1-.2-5.64z"/>
  <linearGradient id="bd" x1="948.01" x2="959.93" y1="529.63" y2="529.63" gradientUnits="userSpaceOnUse">
    <stop offset="0" stop-color="#dae3fe"/>
    <stop offset="1" stop-color="#e9effd"/>
  </linearGradient>
  <path fill="url(#bd)" d="m950.88 526.75 6.15-.02a2.9 2.9 0 1 1 .01 5.8h-.02l-6.14-.03a2.88 2.88 0 0 1 0-5.75z"/>
  <linearGradient id="be" x1="968.43" x2="980.46" y1="530.01" y2="530.01" gradientUnits="userSpaceOnUse">
    <stop offset="0" stop-color="#dae3fe"/>
    <stop offset="1" stop-color="#e9effd"/>
  </linearGradient>
  <path fill="url(#be)" d="m971.47 526.96 6.14.2a2.95 2.95 0 1 1-.2 5.9h-.02l-6.14-.24a2.93 2.93 0 0 1 .22-5.86z"/>
  <linearGradient id="bf" x1="988.83" x2="1000.95" y1="531.12" y2="531.12" gradientUnits="userSpaceOnUse">
    <stop offset="0" stop-color="#dae3fe"/>
    <stop offset="1" stop-color="#e9effd"/>
  </linearGradient>
  <path fill="url(#bf)" d="m992.03 527.9 6.13.44a3 3 0 1 1-.42 6h-.02l-6.12-.47a2.99 2.99 0 0 1 .43-5.96z"/>
  <linearGradient id="bg" x1="1009.18" x2="1021.4" y1="532.98" y2="532.98" gradientUnits="userSpaceOnUse">
    <stop offset="0" stop-color="#dae3fe"/>
    <stop offset="1" stop-color="#e9effd"/>
  </linearGradient>
  <path fill="url(#bg)" d="m1012.55 529.6 6.1.66a3.06 3.06 0 0 1-.64 6.09h-.02l-6.1-.7a3.04 3.04 0 0 1 .66-6.04z"/>
  <linearGradient id="bh" x1="1029.45" x2="1041.75" y1="535.56" y2="535.56" gradientUnits="userSpaceOnUse">
    <stop offset="0" stop-color="#dae3fe"/>
    <stop offset="1" stop-color="#e9effd"/>
  </linearGradient>
  <path fill="url(#bh)" d="m1032.98 532.04 6.08.86a3.12 3.12 0 0 1-.86 6.17h-.02l-6.08-.9a3.1 3.1 0 0 1 .88-6.13z"/>
  <linearGradient id="bi" x1="1049.63" x2="1062.01" y1="538.77" y2="538.77" gradientUnits="userSpaceOnUse">
    <stop offset="0" stop-color="#dae3fe"/>
    <stop offset="1" stop-color="#e9effd"/>
  </linearGradient>
  <path fill="url(#bi)" d="m1053.32 535.13 6.05 1.04a3.17 3.17 0 1 1-1.07 6.25h-.02l-6.05-1.08a3.16 3.16 0 0 1 1.09-6.22z"/>
  <linearGradient id="bj" x1="1069.71" x2="1082.16" y1="542.59" y2="542.59" gradientUnits="userSpaceOnUse">
    <stop offset="0" stop-color="#dae3fe"/>
    <stop offset="1" stop-color="#e9effd"/>
  </linearGradient>
  <path fill="url(#bj)" d="m1073.56 538.82 6.02 1.22a3.23 3.23 0 0 1-1.28 6.32h-.02l-6.01-1.25a3.21 3.21 0 0 1 1.29-6.3z"/>
  <linearGradient id="bk" x1="1089.67" x2="1102.2" y1="547" y2="547" gradientUnits="userSpaceOnUse">
    <stop offset="0" stop-color="#dae3fe"/>
    <stop offset="1" stop-color="#e9effd"/>
  </linearGradient>
  <path fill="url(#bk)" d="m1093.67 543.1 5.99 1.4a3.28 3.28 0 1 1-1.5 6.4v-.01l-5.98-1.42a3.27 3.27 0 0 1 1.5-6.36z"/>
  <linearGradient id="bl" x1="1109.52" x2="1122.05" y1="551.97" y2="551.97" gradientUnits="userSpaceOnUse">
    <stop offset="0" stop-color="#dae3fe"/>
    <stop offset="1" stop-color="#e9effd"/>
  </linearGradient>
  <path fill="url(#bl)" d="m1113.65 548 5.94 1.57a3.3 3.3 0 1 1-1.68 6.38h-.01l-5.94-1.59a3.3 3.3 0 0 1 1.7-6.36z"/>
  <linearGradient id="bm" x1="1129.24" x2="1141.76" y1="557.5" y2="557.5" gradientUnits="userSpaceOnUse">
    <stop offset="0" stop-color="#dae3fe"/>
    <stop offset="1" stop-color="#e9effd"/>
  </linearGradient>
  <path fill="url(#bm)" d="m1133.48 553.45 5.9 1.73a3.32 3.32 0 0 1-1.87 6.37l-5.9-1.75a3.31 3.31 0 0 1 1.87-6.35z"/>
  <linearGradient id="bn" x1="1148.8" x2="1161.32" y1="563.55" y2="563.55" gradientUnits="userSpaceOnUse">
    <stop offset="0" stop-color="#dae3fe"/>
    <stop offset="1" stop-color="#e9effd"/>
  </linearGradient>
  <path fill="url(#bn)" d="m1153.16 559.43 5.84 1.88a3.34 3.34 0 0 1-2.05 6.35l-5.84-1.9a3.33 3.33 0 0 1 2.05-6.33z"/>
  <linearGradient id="bo" x1="1168.21" x2="1180.71" y1="570.1" y2="570.1" gradientUnits="userSpaceOnUse">
    <stop offset="0" stop-color="#dae3fe"/>
    <stop offset="1" stop-color="#e9effd"/>
  </linearGradient>
  <path fill="url(#bo)" d="m1172.67 565.92 5.8 2.03a3.35 3.35 0 1 1-2.23 6.33l-5.8-2.05a3.35 3.35 0 0 1 2.23-6.31z"/>
  <linearGradient id="bp" x1="1187.45" x2="1199.93" y1="577.13" y2="577.13" gradientUnits="userSpaceOnUse">
    <stop offset="0" stop-color="#dae3fe"/>
    <stop offset="1" stop-color="#e9effd"/>
  </linearGradient>
  <path fill="url(#bp)" d="m1192 572.9 5.75 2.17a3.37 3.37 0 0 1-2.39 6.3l-5.74-2.18a3.37 3.37 0 0 1 2.39-6.3z"/>
  <linearGradient id="bq" x1="1206.51" x2="1218.98" y1="584.63" y2="584.63" gradientUnits="userSpaceOnUse">
    <stop offset="0" stop-color="#dae3fe"/>
    <stop offset="1" stop-color="#e9effd"/>
  </linearGradient>
  <path fill="url(#bq)" d="m1211.17 580.33 5.69 2.31a3.4 3.4 0 0 1-2.55 6.29l-5.7-2.33a3.39 3.39 0 0 1 2.56-6.27z"/>
  <linearGradient id="br" x1="1225.4" x2="1237.85" y1="592.56" y2="592.56" gradientUnits="userSpaceOnUse">
    <stop offset="0" stop-color="#dae3fe"/>
    <stop offset="1" stop-color="#e9effd"/>
  </linearGradient>
  <path fill="url(#br)" d="m1230.15 588.21 5.64 2.44a3.41 3.41 0 0 1-2.7 6.26h-.01l-5.63-2.45a3.4 3.4 0 0 1 2.7-6.25z"/>
  <linearGradient id="bs" x1="1244.1" x2="1256.54" y1="600.9" y2="600.9" gradientUnits="userSpaceOnUse">
    <stop offset="0" stop-color="#dae3fe"/>
    <stop offset="1" stop-color="#e9effd"/>
  </linearGradient>
  <path fill="url(#bs)" d="m1248.95 596.5 5.59 2.57a3.43 3.43 0 1 1-2.86 6.23l-5.58-2.57a3.42 3.42 0 0 1 2.85-6.22z"/>
  <linearGradient id="bt" x1="1262.63" x2="1275.05" y1="609.64" y2="609.64" gradientUnits="userSpaceOnUse">
    <stop offset="0" stop-color="#dae3fe"/>
    <stop offset="1" stop-color="#e9effd"/>
  </linearGradient>
  <path fill="url(#bt)" d="m1267.57 605.2 5.53 2.68a3.45 3.45 0 0 1-3 6.2l-5.53-2.68a3.44 3.44 0 0 1 3-6.2z"/>
  <linearGradient id="bu" x1="1280.98" x2="1293.38" y1="618.75" y2="618.75" gradientUnits="userSpaceOnUse">
    <stop offset="0" stop-color="#dae3fe"/>
    <stop offset="1" stop-color="#e9effd"/>
  </linearGradient>
  <path fill="url(#bu)" d="m1286 614.28 5.48 2.78a3.46 3.46 0 1 1-3.14 6.18l-5.47-2.8a3.46 3.46 0 0 1 3.13-6.16z"/>
  <linearGradient id="bv" x1="1299.14" x2="1311.52" y1="628.22" y2="628.22" gradientUnits="userSpaceOnUse">
    <stop offset="0" stop-color="#dae3fe"/>
    <stop offset="1" stop-color="#e9effd"/>
  </linearGradient>
  <path fill="url(#bv)" d="m1304.26 623.7 5.42 2.9a3.48 3.48 0 1 1-3.27 6.14l-5.43-2.9a3.48 3.48 0 0 1 3.28-6.13z"/>
  <linearGradient id="bw" x1="1317.13" x2="1329.49" y1="638.02" y2="638.02" gradientUnits="userSpaceOnUse">
    <stop offset="0" stop-color="#dae3fe"/>
    <stop offset="1" stop-color="#e9effd"/>
  </linearGradient>
  <path fill="url(#bw)" d="m1322.33 633.47 5.36 2.98a3.5 3.5 0 1 1-3.4 6.12l-5.37-3a3.5 3.5 0 0 1 3.4-6.1z"/>
  <linearGradient id="bx" x1="1334.94" x2="1347.28" y1="648.13" y2="648.13" gradientUnits="userSpaceOnUse">
    <stop offset="0" stop-color="#dae3fe"/>
    <stop offset="1" stop-color="#e9effd"/>
  </linearGradient>
  <path fill="url(#bx)" d="m1340.21 643.55 5.32 3.07a3.52 3.52 0 0 1-3.53 6.1v-.01l-5.31-3.08a3.51 3.51 0 0 1 3.52-6.08z"/>
  <linearGradient id="by" x1="1352.58" x2="1364.91" y1="658.54" y2="658.54" gradientUnits="userSpaceOnUse">
    <stop offset="0" stop-color="#dae3fe"/>
    <stop offset="1" stop-color="#e9effd"/>
  </linearGradient>
  <path fill="url(#by)" d="m1357.92 653.93 5.27 3.16a3.54 3.54 0 1 1-3.64 6.07l-5.27-3.18a3.53 3.53 0 0 1 3.64-6.05z"/>
  <linearGradient id="bz" x1="1370.05" x2="1382.38" y1="669.23" y2="669.23" gradientUnits="userSpaceOnUse">
    <stop offset="0" stop-color="#dae3fe"/>
    <stop offset="1" stop-color="#e9effd"/>
  </linearGradient>
  <path fill="url(#bz)" d="m1375.47 664.6 5.23 3.24a3.56 3.56 0 0 1-3.76 6.04l-5.22-3.26a3.55 3.55 0 0 1 3.75-6.03z"/>
  <linearGradient id="bA" x1="1387.36" x2="1399.67" y1="680.19" y2="680.19" gradientUnits="userSpaceOnUse">
    <stop offset="0" stop-color="#dae3fe"/>
    <stop offset="1" stop-color="#e9effd"/>
  </linearGradient>
  <path fill="url(#bA)" d="m1392.86 675.52 5.17 3.32a3.57 3.57 0 0 1-3.86 6.02l-5.17-3.33a3.57 3.57 0 0 1 3.86-6z"/>
  <linearGradient id="bB" x1="1404.51" x2="1416.81" y1="691.39" y2="691.39" gradientUnits="userSpaceOnUse">
    <stop offset="0" stop-color="#dae3fe"/>
    <stop offset="1" stop-color="#e9effd"/>
  </linearGradient>
  <path fill="url(#bB)" d="m1410.08 686.7 5.12 3.4a3.6 3.6 0 1 1-3.97 5.98l-5.12-3.4a3.59 3.59 0 0 1 3.97-5.98z"/>
  <linearGradient id="bC" x1="1421.5" x2="1433.79" y1="702.83" y2="702.83" gradientUnits="userSpaceOnUse">
    <stop offset="0" stop-color="#dae3fe"/>
    <stop offset="1" stop-color="#e9effd"/>
  </linearGradient>
  <path fill="url(#bC)" d="m1427.13 698.12 5.08 3.46a3.61 3.61 0 0 1-4.06 5.96l-5.08-3.47a3.6 3.6 0 0 1 4.07-5.95z"/>
  <linearGradient id="bD" x1="1438.34" x2="1450.62" y1="714.48" y2="714.48" gradientUnits="userSpaceOnUse">
    <stop offset="0" stop-color="#dae3fe"/>
    <stop offset="1" stop-color="#e9effd"/>
  </linearGradient>
  <path fill="url(#bD)" d="m1444.04 709.75 5.03 3.52a3.63 3.63 0 1 1-4.16 5.95l-5.03-3.54a3.62 3.62 0 0 1 4.16-5.93z"/>
  <linearGradient id="bE" x1="1455.04" x2="1467.31" y1="726.34" y2="726.34" gradientUnits="userSpaceOnUse">
    <stop offset="0" stop-color="#dae3fe"/>
    <stop offset="1" stop-color="#e9effd"/>
  </linearGradient>
  <path fill="url(#bE)" d="m1460.8 721.6 5 3.57a3.65 3.65 0 0 1-4.26 5.93l-4.99-3.6a3.64 3.64 0 0 1 4.25-5.9z"/>
  <linearGradient id="bF" x1="1471.6" x2="1483.87" y1="738.39" y2="738.39" gradientUnits="userSpaceOnUse">
    <stop offset="0" stop-color="#dae3fe"/>
    <stop offset="1" stop-color="#e9effd"/>
  </linearGradient>
  <path fill="url(#bF)" d="m1477.42 733.62 4.95 3.64a3.66 3.66 0 1 1-4.34 5.9l-4.95-3.64a3.66 3.66 0 0 1 4.34-5.9z"/>
  <linearGradient id="bG" x1="1488.02" x2="1500.3" y1="750.63" y2="750.63" gradientUnits="userSpaceOnUse">
    <stop offset="0" stop-color="#dae3fe"/>
    <stop offset="1" stop-color="#e9effd"/>
  </linearGradient>
  <path fill="url(#bG)" d="m1493.9 745.84 4.93 3.69a3.68 3.68 0 1 1-4.43 5.89l-4.91-3.7a3.68 3.68 0 0 1 4.42-5.88z"/>
  <linearGradient id="bH" x1="1504.32" x2="1516.59" y1="763.02" y2="763.02" gradientUnits="userSpaceOnUse">
    <stop offset="0" stop-color="#dae3fe"/>
    <stop offset="1" stop-color="#e9effd"/>
  </linearGradient>
  <path fill="url(#bH)" d="m1510.27 758.22 4.88 3.75a3.7 3.7 0 0 1-4.5 5.86h-.01l-4.87-3.75a3.7 3.7 0 1 1 4.5-5.86z"/>
  <linearGradient id="bI" x1="1520.54" x2="1532.74" y1="775.56" y2="775.56" gradientUnits="userSpaceOnUse">
    <stop offset="0" stop-color="#dae3fe"/>
    <stop offset="1" stop-color="#e9effd"/>
  </linearGradient>
  <path fill="url(#bI)" d="m1526.49 770.78 4.84 3.79a3.68 3.68 0 0 1-4.53 5.79l-4.84-3.78a3.68 3.68 0 1 1 4.52-5.8h.01z"/>
  <linearGradient id="bJ" x1="1536.66" x2="1548.79" y1="788.24" y2="788.24" gradientUnits="userSpaceOnUse">
    <stop offset="0" stop-color="#dae3fe"/>
    <stop offset="1" stop-color="#e9effd"/>
  </linearGradient>
  <path fill="url(#bJ)" d="m1542.6 783.46 4.81 3.83a3.66 3.66 0 0 1-4.55 5.73l-4.81-3.82a3.66 3.66 0 0 1 4.55-5.74z"/>
  <linearGradient id="bK" x1="1552.69" x2="1564.76" y1="801.03" y2="801.03" gradientUnits="userSpaceOnUse">
    <stop offset="0" stop-color="#dae3fe"/>
    <stop offset="1" stop-color="#e9effd"/>
  </linearGradient>
  <path fill="url(#bK)" d="m1558.62 796.27 4.79 3.85a3.64 3.64 0 0 1-4.56 5.67l-4.8-3.85a3.64 3.64 0 0 1 4.57-5.68z"/>
  <linearGradient id="bL" x1="1568.65" x2="1580.66" y1="813.91" y2="813.91" gradientUnits="userSpaceOnUse">
    <stop offset="0" stop-color="#dae3fe"/>
    <stop offset="1" stop-color="#e9effd"/>
  </linearGradient>
  <path fill="url(#bL)" d="m1574.56 809.17 4.77 3.88a3.62 3.62 0 0 1-4.57 5.61l-4.77-3.87a3.62 3.62 0 1 1 4.57-5.63z"/>
  <linearGradient id="bM" x1="1584.54" x2="1596.49" y1="826.89" y2="826.89" gradientUnits="userSpaceOnUse">
    <stop offset="0" stop-color="#dae3fe"/>
    <stop offset="1" stop-color="#e9effd"/>
  </linearGradient>
  <path fill="url(#bM)" d="m1590.43 822.16 4.75 3.9a3.6 3.6 0 0 1-4.57 5.56l-4.75-3.9a3.6 3.6 0 1 1 4.57-5.57z"/>
  <linearGradient id="bN" x1="1600.36" x2="1612.26" y1="839.93" y2="839.93" gradientUnits="userSpaceOnUse">
    <stop offset="0" stop-color="#dae3fe"/>
    <stop offset="1" stop-color="#e9effd"/>
  </linearGradient>
  <path fill="url(#bN)" d="m1606.23 835.21 4.73 3.93a3.57 3.57 0 0 1-4.56 5.5l-4.74-3.91a3.58 3.58 0 1 1 4.57-5.52z"/>
  <linearGradient id="bO" x1="1616.14" x2="1627.98" y1="853.03" y2="853.03" gradientUnits="userSpaceOnUse">
    <stop offset="0" stop-color="#dae3fe"/>
    <stop offset="1" stop-color="#e9effd"/>
  </linearGradient>
  <path fill="url(#bO)" d="m1621.99 848.32 4.72 3.95a3.56 3.56 0 0 1-4.56 5.46l-4.73-3.94a3.56 3.56 0 0 1 4.56-5.47z"/>
  <linearGradient id="bP" x1="1631.88" x2="1643.67" y1="866.17" y2="866.17" gradientUnits="userSpaceOnUse">
    <stop offset="0" stop-color="#dae3fe"/>
    <stop offset="1" stop-color="#e9effd"/>
  </linearGradient>
  <path fill="url(#bP)" d="m1637.7 861.48 4.7 3.96a3.54 3.54 0 0 1-4.54 5.42l-4.71-3.95a3.54 3.54 0 1 1 4.54-5.43z"/>
  <linearGradient id="bQ" x1="1647.59" x2="1659.34" y1="879.34" y2="879.34" gradientUnits="userSpaceOnUse">
    <stop offset="0" stop-color="#dae3fe"/>
    <stop offset="1" stop-color="#e9effd"/>
  </linearGradient>
  <path fill="url(#bQ)" d="m1653.38 874.67 4.7 3.96a3.52 3.52 0 0 1-4.52 5.39l-4.71-3.96a3.52 3.52 0 1 1 4.53-5.4z"/>
  <linearGradient id="bR" x1="1663.29" x2="1674.99" y1="892.53" y2="892.53" gradientUnits="userSpaceOnUse">
    <stop offset="0" stop-color="#dae3fe"/>
    <stop offset="1" stop-color="#e9effd"/>
  </linearGradient>
  <path fill="url(#bR)" d="m1669.05 887.87 4.7 3.97a3.5 3.5 0 0 1-4.5 5.35l-4.72-3.96a3.5 3.5 0 0 1 4.51-5.36z"/>
  <linearGradient id="bS" x1="1678.98" x2="1690.64" y1="905.72" y2="905.72" gradientUnits="userSpaceOnUse">
    <stop offset="0" stop-color="#dae3fe"/>
    <stop offset="1" stop-color="#e9effd"/>
  </linearGradient>
  <path fill="url(#bS)" d="m1684.7 901.08 4.7 3.97a3.48 3.48 0 0 1-4.47 5.32l-4.71-3.96a3.48 3.48 0 1 1 4.48-5.33z"/>
  <linearGradient id="bT" x1="1694.68" x2="1706.31" y1="918.9" y2="918.9" gradientUnits="userSpaceOnUse">
    <stop offset="0" stop-color="#dae3fe"/>
    <stop offset="1" stop-color="#e9effd"/>
  </linearGradient>
  <path fill="url(#bT)" d="m1700.37 914.28 4.7 3.96a3.46 3.46 0 0 1-4.44 5.3l-4.71-3.96a3.46 3.46 0 0 1 4.44-5.3z"/>
  <linearGradient id="bU" x1="1710.39" x2="1721.99" y1="932.06" y2="932.06" gradientUnits="userSpaceOnUse">
    <stop offset="0" stop-color="#dae3fe"/>
    <stop offset="1" stop-color="#e9effd"/>
  </linearGradient>
  <path fill="url(#bU)" d="m1716.05 927.45 4.7 3.96a3.44 3.44 0 0 1-4.4 5.27l-4.72-3.94a3.44 3.44 0 1 1 4.4-5.29h.02z"/>
  <linearGradient id="bV" x1="1726.13" x2="1737.7" y1="945.19" y2="945.19" gradientUnits="userSpaceOnUse">
    <stop offset="0" stop-color="#dae3fe"/>
    <stop offset="1" stop-color="#e9effd"/>
  </linearGradient>
  <path fill="url(#bV)" d="m1731.75 940.6 4.72 3.93a3.42 3.42 0 0 1-4.37 5.26l-4.73-3.93a3.42 3.42 0 1 1 4.37-5.27z"/>
  <linearGradient id="bW" x1="1741.92" x2="1753.46" y1="958.26" y2="958.26" gradientUnits="userSpaceOnUse">
    <stop offset="0" stop-color="#dae3fe"/>
    <stop offset="1" stop-color="#e9effd"/>
  </linearGradient>
  <path fill="url(#bW)" d="m1747.5 953.68 4.73 3.93a3.4 3.4 0 0 1-4.33 5.23l-4.74-3.9a3.4 3.4 0 0 1 4.33-5.26z"/>
  <linearGradient id="bX" x1="1757.75" x2="1769.27" y1="971.27" y2="971.27" gradientUnits="userSpaceOnUse">
    <stop offset="0" stop-color="#dae3fe"/>
    <stop offset="1" stop-color="#e9effd"/>
  </linearGradient>
  <path fill="url(#bX)" d="m1763.28 966.71 4.75 3.9a3.38 3.38 0 0 1-4.27 5.23l-4.77-3.9a3.38 3.38 0 1 1 4.28-5.23z"/>
  <linearGradient id="bY" x1="1773.65" x2="1785.15" y1="984.21" y2="984.21" gradientUnits="userSpaceOnUse">
    <stop offset="0" stop-color="#dae3fe"/>
    <stop offset="1" stop-color="#e9effd"/>
  </linearGradient>
  <path fill="url(#bY)" d="m1779.13 979.67 4.78 3.87a3.36 3.36 0 0 1-4.23 5.22l-4.78-3.87a3.36 3.36 0 1 1 4.23-5.23z"/>
  <linearGradient id="bZ" x1="1789.62" x2="1801.1" y1="997.06" y2="997.06" gradientUnits="userSpaceOnUse">
    <stop offset="0" stop-color="#dae3fe"/>
    <stop offset="1" stop-color="#e9effd"/>
  </linearGradient>
  <path fill="url(#bZ)" d="m1795.06 992.53 4.8 3.84a3.34 3.34 0 0 1-4.18 5.22l-4.8-3.84a3.34 3.34 0 1 1 4.17-5.22z"/>
  <linearGradient id="ca" x1="1805.67" x2="1817.14" y1="1009.79" y2="1009.79" gradientUnits="userSpaceOnUse">
    <stop offset="0" stop-color="#dae3fe"/>
    <stop offset="1" stop-color="#e9effd"/>
  </linearGradient>
  <path fill="url(#ca)" d="m1811.05 1005.29 4.83 3.8a3.32 3.32 0 0 1-4.11 5.21l-4.83-3.8a3.32 3.32 0 1 1 4.11-5.22z"/>
  <linearGradient id="cb" x1="1821.81" x2="1833.26" y1="1022.41" y2="1022.41" gradientUnits="userSpaceOnUse">
    <stop offset="0" stop-color="#dae3fe"/>
    <stop offset="1" stop-color="#e9effd"/>
  </linearGradient>
  <path fill="url(#cb)" d="m1827.14 1017.92 4.85 3.77a3.3 3.3 0 0 1-4.04 5.21l-4.86-3.76a3.3 3.3 0 1 1 4.05-5.22z"/>
  <linearGradient id="cc" x1="1838.04" x2="1849.48" y1="1034.89" y2="1034.89" gradientUnits="userSpaceOnUse">
    <stop offset="0" stop-color="#dae3fe"/>
    <stop offset="1" stop-color="#e9effd"/>
  </linearGradient>
  <path fill="url(#cc)" d="m1843.32 1030.42 4.88 3.73a3.27 3.27 0 0 1-3.96 5.2l-4.9-3.7a3.28 3.28 0 1 1 3.97-5.24l.01.01z"/>
  <linearGradient id="cd" x1="1854.42" x2="1865.78" y1="1047.21" y2="1047.21" gradientUnits="userSpaceOnUse">
    <stop offset="0" stop-color="#dae3fe"/>
    <stop offset="1" stop-color="#e9effd"/>
  </linearGradient>
  <path fill="url(#cd)" d="m1859.59 1042.8 4.91 3.69a3.21 3.21 0 0 1-3.84 5.14l-4.93-3.66a3.23 3.23 0 1 1 3.85-5.18l.01.01z"/>
  <linearGradient id="ce" x1="1870.93" x2="1882.2" y1="1059.37" y2="1059.37" gradientUnits="userSpaceOnUse">
    <stop offset="0" stop-color="#dae3fe"/>
    <stop offset="1" stop-color="#e9effd"/>
  </linearGradient>
  <path fill="url(#ce)" d="m1875.97 1055.02 4.95 3.64a3.15 3.15 0 0 1-3.72 5.08l-4.97-3.6a3.17 3.17 0 1 1 3.73-5.13h.01z"/>
  <linearGradient id="cf" x1="1887.56" x2="1898.76" y1="1071.36" y2="1071.36" gradientUnits="userSpaceOnUse">
    <stop offset="0" stop-color="#dae3fe"/>
    <stop offset="1" stop-color="#e9effd"/>
  </linearGradient>
  <path fill="url(#cf)" d="m1892.48 1067.06 4.99 3.58a3.09 3.09 0 0 1-3.59 5.03l-5-3.55a3.1 3.1 0 0 1 3.59-5.07l.01.01z"/>
  <linearGradient id="cg" x1="1904.33" x2="1915.45" y1="1083.15" y2="1083.15" gradientUnits="userSpaceOnUse">
    <stop offset="0" stop-color="#dae3fe"/>
    <stop offset="1" stop-color="#e9effd"/>
  </linearGradient>
  <path fill="url(#cg)" d="m1909.13 1078.91 5.03 3.52a3.03 3.03 0 0 1-3.46 4.98l-5.05-3.5a3.05 3.05 0 0 1 3.46-5h.02z"/>
  <linearGradient id="ch" x1="1921.25" x2="1932.3" y1="1094.74" y2="1094.74" gradientUnits="userSpaceOnUse">
    <stop offset="0" stop-color="#dae3fe"/>
    <stop offset="1" stop-color="#e9effd"/>
  </linearGradient>
  <path fill="url(#ch)" d="m1925.92 1090.55 5.08 3.46a2.97 2.97 0 0 1-3.33 4.92l-5.1-3.43a2.99 2.99 0 0 1 3.34-4.96l.01.01z"/>
  <linearGradient id="ci" x1="1938.33" x2="1949.31" y1="1106.09" y2="1106.09" gradientUnits="userSpaceOnUse">
    <stop offset="0" stop-color="#dae3fe"/>
    <stop offset="1" stop-color="#e9effd"/>
  </linearGradient>
  <path fill="url(#ci)" d="m1942.87 1101.98 5.13 3.38a2.9 2.9 0 0 1-3.19 4.86l-5.15-3.35a2.93 2.93 0 1 1 3.2-4.9z"/>
  <linearGradient id="cj" x1="1955.6" x2="1966.53" y1="1117.13" y2="1117.13" gradientUnits="userSpaceOnUse">
    <stop offset="0" stop-color="#dae3fe"/>
    <stop offset="1" stop-color="#e9effd"/>
  </linearGradient>
  <path fill="url(#cj)" d="m1960 1113.09 5.2 3.27a2.85 2.85 0 0 1-3.02 4.83l-5.22-3.24a2.87 2.87 0 0 1 3.02-4.87h.01z"/>
  <linearGradient id="ck" x1="1973.13" x2="1984.02" y1="1127.75" y2="1127.75" gradientUnits="userSpaceOnUse">
    <stop offset="0" stop-color="#dae3fe"/>
    <stop offset="1" stop-color="#e9effd"/>
  </linearGradient>
  <path fill="url(#ck)" d="m1977.36 1123.8 5.29 3.12a2.79 2.79 0 0 1-2.83 4.8l-5.3-3.09a2.8 2.8 0 0 1 2.83-4.85l.01.01z"/>
  <linearGradient id="cl" x1="1990.96" x2="2001.83" y1="1137.84" y2="1137.84" gradientUnits="userSpaceOnUse">
    <stop offset="0" stop-color="#dae3fe"/>
    <stop offset="1" stop-color="#e9effd"/>
  </linearGradient>
  <path fill="url(#cl)" d="m1995.02 1133.98 5.39 2.95a2.73 2.73 0 0 1-2.6 4.8l-5.41-2.93a2.75 2.75 0 0 1 2.6-4.83h.02z"/>
  <linearGradient id="cm" x1="2009.13" x2="2019.99" y1="1147.29" y2="1147.29" gradientUnits="userSpaceOnUse">
    <stop offset="0" stop-color="#dae3fe"/>
    <stop offset="1" stop-color="#e9effd"/>
  </linearGradient>
  <path fill="url(#cm)" d="m2013.01 1143.54 5.5 2.74a2.67 2.67 0 0 1-2.36 4.78l-5.52-2.71a2.69 2.69 0 0 1 2.37-4.82h.01z"/>
  <linearGradient id="cn" x1="2027.68" x2="2038.54" y1="1155.96" y2="1155.96" gradientUnits="userSpaceOnUse">
    <stop offset="0" stop-color="#dae3fe"/>
    <stop offset="1" stop-color="#e9effd"/>
  </linearGradient>
  <path fill="url(#cn)" d="m2031.37 1152.33 5.62 2.49a2.6 2.6 0 0 1-2.1 4.77l-5.63-2.45a2.63 2.63 0 0 1 2.1-4.81h.01z"/>
  <linearGradient id="co" x1="2046.64" x2="2057.5" y1="1163.7" y2="1163.7" gradientUnits="userSpaceOnUse">
    <stop offset="0" stop-color="#dae3fe"/>
    <stop offset="1" stop-color="#e9effd"/>
  </linearGradient>
  <path fill="url(#co)" d="m2050.11 1160.23 5.75 2.19a2.55 2.55 0 0 1-1.8 4.76l-5.76-2.15a2.57 2.57 0 0 1 1.8-4.8h.01z"/>
  <linearGradient id="cp" x1="2066" x2="2076.87" y1="1170.36" y2="1170.36" gradientUnits="userSpaceOnUse">
    <stop offset="0" stop-color="#dae3fe"/>
    <stop offset="1" stop-color="#e9effd"/>
  </linearGradient>
  <path fill="url(#cp)" d="m2069.25 1167.07 5.87 1.84a2.49 2.49 0 0 1-1.47 4.75l-5.88-1.8a2.5 2.5 0 0 1 1.47-4.8l.01.01z"/>
  <linearGradient id="cq" x1="2085.76" x2="2096.61" y1="1175.76" y2="1175.76" gradientUnits="userSpaceOnUse">
    <stop offset="0" stop-color="#dae3fe"/>
    <stop offset="1" stop-color="#e9effd"/>
  </linearGradient>
  <path fill="url(#cq)" d="m2088.78 1172.68 5.97 1.43a2.43 2.43 0 0 1-1.12 4.73l-5.98-1.4a2.45 2.45 0 0 1 1.11-4.76h.01z"/>
  <linearGradient id="cr" x1="2105.86" x2="2116.68" y1="1179.72" y2="1179.72" gradientUnits="userSpaceOnUse">
    <stop offset="0" stop-color="#dae3fe"/>
    <stop offset="1" stop-color="#e9effd"/>
  </linearGradient>
  <path fill="url(#cr)" d="m2108.63 1176.9 6.06.97a2.37 2.37 0 0 1-.74 4.67l-6.07-.93a2.38 2.38 0 0 1 .73-4.72h.01z"/>
  <linearGradient id="cs" x1="2126.26" x2="2136.94" y1="1182.07" y2="1182.07" gradientUnits="userSpaceOnUse">
    <stop offset="0" stop-color="#dae3fe"/>
    <stop offset="1" stop-color="#e9effd"/>
  </linearGradient>
  <path fill="url(#cs)" d="m2128.73 1179.57 6.12.49a2.26 2.26 0 0 1-.33 4.51l-6.13-.42a2.3 2.3 0 1 1 .32-4.58h.02z"/>
  <linearGradient id="ct" x1="2146.82" x2="2157.3" y1="1182.69" y2="1182.69" gradientUnits="userSpaceOnUse">
    <stop offset="0" stop-color="#dae3fe"/>
    <stop offset="1" stop-color="#e9effd"/>
  </linearGradient>
  <path fill="url(#ct)" d="m2148.97 1180.55 6.14-.1a2.16 2.16 0 0 1 .1 4.3l-6.15.17a2.19 2.19 0 1 1-.12-4.37h.03z"/>
  <linearGradient id="cu" x1="2167.36" x2="2177.57" y1="1181.1" y2="1181.1" gradientUnits="userSpaceOnUse">
    <stop offset="0" stop-color="#dae3fe"/>
    <stop offset="1" stop-color="#e9effd"/>
  </linearGradient>
  <path fill="url(#cu)" d="m2169.17 1179.43 6.1-.78a2.05 2.05 0 0 1 .54 4.06l-6.09.84a2.08 2.08 0 1 1-.57-4.12h.02z"/>
  <linearGradient id="cv" x1="2187.64" x2="2197.53" y1="1177.33" y2="1177.33" gradientUnits="userSpaceOnUse">
    <stop offset="0" stop-color="#dae3fe"/>
    <stop offset="1" stop-color="#e9effd"/>
  </linearGradient>
  <path fill="url(#cv)" d="m2189.16 1176.11 5.98-1.41a1.94 1.94 0 0 1 .91 3.77l-5.96 1.48a1.97 1.97 0 0 1-.95-3.83h.02z"/>
  <linearGradient id="cw" x1="2207.45" x2="2216.94" y1="1171.47" y2="1171.47" gradientUnits="userSpaceOnUse">
    <stop offset="0" stop-color="#dae3fe"/>
    <stop offset="1" stop-color="#e9effd"/>
  </linearGradient>
  <path fill="url(#cw)" d="m2208.7 1170.72 5.8-2.03a1.83 1.83 0 0 1 1.23 3.45l-5.77 2.1a1.87 1.87 0 0 1-1.28-3.51h.02z"/>
  <linearGradient id="cx" x1="2226.58" x2="2235.6" y1="1163.59" y2="1163.59" gradientUnits="userSpaceOnUse">
    <stop offset="0" stop-color="#dae3fe"/>
    <stop offset="1" stop-color="#e9effd"/>
  </linearGradient>
  <path fill="url(#cx)" d="m2227.58 1163.31 5.55-2.63a1.73 1.73 0 0 1 1.5 3.11l-5.52 2.7a1.76 1.76 0 1 1-1.54-3.17h.01z"/>
  <linearGradient id="cy" x1="2244.78" x2="2253.26" y1="1153.71" y2="1153.71" gradientUnits="userSpaceOnUse">
    <stop offset="0" stop-color="#dae3fe"/>
    <stop offset="1" stop-color="#e9effd"/>
  </linearGradient>
  <path fill="url(#cy)" d="m2245.57 1153.92 5.22-3.23a1.62 1.62 0 0 1 1.72 2.74l-5.2 3.3a1.65 1.65 0 0 1-1.76-2.8h.01z"/>
  <linearGradient id="cz" x1="2261.78" x2="2269.62" y1="1141.85" y2="1141.85" gradientUnits="userSpaceOnUse">
    <stop offset="0" stop-color="#dae3fe"/>
    <stop offset="1" stop-color="#e9effd"/>
  </linearGradient>
  <path fill="url(#cz)" d="m2262.36 1142.56 4.8-3.83a1.51 1.51 0 0 1 1.9 2.35l-4.76 3.88a1.54 1.54 0 1 1-1.95-2.4h.01z"/>
  <linearGradient id="cA" x1="2277.24" x2="2284.32" y1="1128.01" y2="1128.01" gradientUnits="userSpaceOnUse">
    <stop offset="0" stop-color="#dae3fe"/>
    <stop offset="1" stop-color="#e9effd"/>
  </linearGradient>
  <path fill="url(#cA)" d="m2277.64 1129.22 4.27-4.42a1.4 1.4 0 0 1 2.03 1.94l-4.22 4.47a1.44 1.44 0 1 1-2.09-1.98h.01z"/>
  <linearGradient id="cB" x1="2290.73" x2="2296.92" y1="1112.25" y2="1112.25" gradientUnits="userSpaceOnUse">
    <stop offset="0" stop-color="#dae3fe"/>
    <stop offset="1" stop-color="#e9effd"/>
  </linearGradient>
  <path fill="url(#cB)" d="m2290.98 1113.96 3.6-4.98a1.3 1.3 0 0 1 2.1 1.5l-3.53 5.03a1.33 1.33 0 0 1-2.18-1.53l.01-.02z"/>
  <linearGradient id="cC" x1="2301.78" x2="2306.93" y1="1094.72" y2="1094.72" gradientUnits="userSpaceOnUse">
    <stop offset="0" stop-color="#dae3fe"/>
    <stop offset="1" stop-color="#e9effd"/>
  </linearGradient>
  <path fill="url(#cC)" d="m2301.91 1096.9 2.77-5.48a1.2 1.2 0 0 1 2.13 1.06l-2.7 5.51a1.22 1.22 0 0 1-2.2-1.07v-.02z"/>
  <linearGradient id="cD" x1="2309.91" x2="2313.89" y1="1075.71" y2="1075.71" gradientUnits="userSpaceOnUse">
    <stop offset="0" stop-color="#dae3fe"/>
    <stop offset="1" stop-color="#e9effd"/>
  </linearGradient>
  <path fill="url(#cD)" d="m2309.96 1078.31 1.8-5.87a1.08 1.08 0 0 1 2.08.62l-1.75 5.9a1.12 1.12 0 1 1-2.13-.64v-.01z"/>
  <linearGradient id="cE" x1="833.28" x2="2053.76" y1="1047.44" y2="1047.44" gradientUnits="userSpaceOnUse">
    <stop offset="0" stop-color="#dae3fe"/>
    <stop offset="1" stop-color="#e9effd"/>
  </linearGradient>
  <path fill="url(#cE)" d="M1908.02 1437.53a2.05 2.05 0 1 1 0-4.1c2.04 0 4.08-.01 6.1-.05h.05a2.05 2.05 0 0 1 .03 4.1c-2.06.04-4.12.05-6.18.05zm-14.33-.29h-.08a319.4 319.4 0 0 1-6.18-.3 2.05 2.05 0 0 1-1.93-2.17 2.08 2.08 0 0 1 2.17-1.92c2.03.12 4.07.22 6.1.3a2.05 2.05 0 0 1-.08 4.1zm34.8-.32a2.05 2.05 0 0 1-.12-4.1c2.03-.11 4.06-.25 6.09-.41a2.03 2.03 0 0 1 2.2 1.88 2.05 2.05 0 0 1-1.88 2.2c-2.05.16-4.1.3-6.17.43h-.12zm-55.23-1.08-.2-.01c-2.05-.2-4.1-.41-6.15-.64a2.05 2.05 0 0 1 .46-4.08c2.03.23 4.05.45 6.08.64a2.05 2.05 0 0 1-.19 4.09zm75.62-.8a2.05 2.05 0 0 1-.25-4.07c2.02-.25 4.04-.52 6.05-.81a2.05 2.05 0 1 1 .58 4.06 330.14 330.14 0 0 1-6.38.83zm-95.95-1.71-.3-.03c-2.04-.3-4.08-.63-6.1-.97a2.05 2.05 0 1 1 .67-4.04c2 .34 4.02.66 6.03.96a2.05 2.05 0 0 1-.3 4.08zm116.17-1.46a2.05 2.05 0 0 1-.38-4.06c2-.38 4-.79 5.98-1.21a2.05 2.05 0 0 1 .85 4c-2.01.43-4.03.84-6.06 1.23a1.7 1.7 0 0 1-.38.04zm-136.33-2.12c-.14 0-.28-.01-.41-.04a405.7 405.7 0 0 1-6.05-1.28 2.05 2.05 0 1 1 .88-4c1.99.44 3.98.86 5.98 1.27a2.05 2.05 0 0 1-.4 4.05zm156.3-2.42a2.05 2.05 0 0 1-.52-4.02c1.97-.52 3.93-1.06 5.88-1.62a2.05 2.05 0 1 1 1.12 3.94c-1.97.56-3.96 1.11-5.95 1.64-.18.04-.36.06-.53.06zm-176.27-2.16c-.16 0-.33-.02-.5-.07-2-.5-4-1.03-5.98-1.57a2.05 2.05 0 0 1 1.08-3.96c1.96.54 3.94 1.06 5.91 1.56a2.05 2.05 0 0 1-.5 4.04zm195.87-3.76a2.05 2.05 0 0 1-.67-3.98c1.93-.66 3.84-1.34 5.75-2.04a2.05 2.05 0 0 1 1.4 3.85 297 297 0 0 1-5.82 2.06 1.9 1.9 0 0 1-.66.11zm-215.58-1.8c-.2 0-.4-.03-.6-.1-1.97-.6-3.93-1.21-5.89-1.85a2.05 2.05 0 1 1 1.26-3.9c1.94.63 3.88 1.25 5.83 1.85a2.05 2.05 0 0 1-.6 4zm234.7-5.52a2.05 2.05 0 0 1-.81-3.93c1.86-.8 3.72-1.62 5.58-2.45a2.05 2.05 0 1 1 1.68 3.73c-1.88.85-3.76 1.68-5.66 2.49-.26.1-.53.16-.8.16zm-254.13-.97c-.23 0-.46-.03-.69-.12-1.94-.7-3.87-1.4-5.8-2.13a2.05 2.05 0 0 1 1.45-3.83c1.9.71 3.82 1.42 5.74 2.11a2.05 2.05 0 0 1-.7 3.97zm-19.1-7.38c-.25 0-.52-.05-.78-.16a467 467 0 0 1-5.68-2.4 2.05 2.05 0 0 1 1.62-3.76c1.87.8 3.75 1.6 5.63 2.38a2.05 2.05 0 0 1-.78 3.94zm291.73-.37a2.05 2.05 0 0 1-.94-3.86c1.8-.94 3.6-1.9 5.38-2.87a2.05 2.05 0 1 1 1.97 3.6c-1.82.99-3.64 1.96-5.47 2.9-.3.16-.62.23-.94.23zm-310.46-7.89c-.3 0-.59-.06-.87-.19-1.86-.87-3.72-1.76-5.57-2.66a2.05 2.05 0 0 1 1.8-3.68c1.82.89 3.66 1.77 5.5 2.63a2.05 2.05 0 0 1-.86 3.9zm-18.34-9.1c-.32 0-.65-.08-.95-.24a470.6 470.6 0 0 1-5.44-2.9 2.05 2.05 0 0 1 1.95-3.6c1.8.97 3.59 1.93 5.4 2.87a2.05 2.05 0 0 1-.96 3.87zm-17.9-9.94c-.35 0-.7-.09-1.03-.28a432.72 432.72 0 0 1-5.3-3.15 2.05 2.05 0 1 1 2.11-3.5l5.25 3.12a2.05 2.05 0 0 1-1.03 3.81zm-17.42-10.74c-.38 0-.77-.1-1.11-.33a531.28 531.28 0 0 1-5.16-3.37 2.05 2.05 0 0 1 2.26-3.42c1.7 1.13 3.4 2.25 5.12 3.35a2.05 2.05 0 0 1-1.11 3.77zm-16.97-11.43c-.4 0-.81-.12-1.17-.37a597.17 597.17 0 0 1-5.02-3.57 2.05 2.05 0 0 1 2.39-3.33 345.3 345.3 0 0 0 4.98 3.54 2.05 2.05 0 0 1-1.18 3.73zm-16.53-12.06c-.43 0-.86-.14-1.23-.42a613.55 613.55 0 0 1-4.9-3.74 2.05 2.05 0 0 1 2.51-3.24 605.6 605.6 0 0 0 4.86 3.72 2.05 2.05 0 0 1-1.24 3.68zm-16.1-12.63c-.45 0-.9-.15-1.29-.46-1.6-1.3-3.18-2.6-4.76-3.91a2.05 2.05 0 0 1 2.62-3.16c1.57 1.3 3.14 2.6 4.73 3.89a2.05 2.05 0 0 1-1.3 3.63zm-15.67-13.18c-.47 0-.95-.17-1.34-.5-1.55-1.35-3.1-2.7-4.63-4.07a2.05 2.05 0 0 1 2.71-3.06l4.6 4.03a2.05 2.05 0 0 1-1.34 3.6zm-15.25-13.67c-.5 0-1-.18-1.39-.54l-4.5-4.2a2.05 2.05 0 1 1 2.8-2.99c1.49 1.4 2.98 2.8 4.48 4.18a2.05 2.05 0 0 1-1.39 3.55zm-14.84-14.11c-.52 0-1.03-.2-1.43-.58a745.89 745.89 0 0 1-4.4-4.33 2.05 2.05 0 0 1 2.9-2.9l4.36 4.3a2.05 2.05 0 0 1-1.43 3.5zm-14.45-14.52c-.53 0-1.06-.21-1.47-.63a717.37 717.37 0 0 1-4.27-4.44 2.05 2.05 0 0 1 2.96-2.83c1.41 1.48 2.83 2.96 4.25 4.42a2.05 2.05 0 0 1-1.47 3.48zm-14.07-14.9c-.55 0-1.1-.22-1.5-.66-1.4-1.5-2.78-3.02-4.17-4.54a2.05 2.05 0 0 1 3.03-2.76l4.15 4.53a2.05 2.05 0 0 1-1.5 3.43zm-13.71-15.22c-.57 0-1.13-.23-1.54-.7a989.72 989.72 0 0 1-4.06-4.63 2.05 2.05 0 0 1 3.1-2.69c1.34 1.55 2.68 3.09 4.03 4.62a2.05 2.05 0 0 1-1.53 3.4zm-13.38-15.51c-.58 0-1.16-.25-1.57-.73l-3.96-4.72a2.05 2.05 0 0 1 3.15-2.62l3.94 4.7a2.05 2.05 0 0 1-1.56 3.37zm-13.07-15.78c-.6 0-1.18-.26-1.59-.76l-3.87-4.8a2.05 2.05 0 1 1 3.2-2.56c1.28 1.6 2.56 3.2 3.85 4.78a2.05 2.05 0 0 1-1.59 3.34zm-12.78-16.02c-.6 0-1.2-.26-1.61-.78l-3.79-4.85a2.05 2.05 0 1 1 3.23-2.52l3.78 4.84a2.05 2.05 0 0 1-1.6 3.32zm-12.52-16.2c-.61 0-1.23-.29-1.63-.82a1914.3 1914.3 0 0 1-3.71-4.9 2.05 2.05 0 0 1 3.27-2.47l3.7 4.9a2.05 2.05 0 0 1-1.63 3.28zm-12.28-16.4c-.63 0-1.25-.29-1.65-.83l-3.65-4.96a2.05 2.05 0 0 1 3.3-2.42l3.65 4.94a2.05 2.05 0 0 1-1.65 3.27zm-12.07-16.55c-.64 0-1.26-.3-1.66-.85l-3.59-4.99a2.05 2.05 0 1 1 3.33-2.38l3.58 4.98a2.05 2.05 0 0 1-1.66 3.24zm-11.88-16.67c-.65 0-1.28-.3-1.68-.87l-3.54-5.02a2.05 2.05 0 1 1 3.36-2.36l3.53 5.02a2.05 2.05 0 0 1-1.67 3.23zm-11.74-16.78c-.64 0-1.28-.3-1.68-.88l-3.5-5.05a2.05 2.05 0 0 1 3.38-2.33l3.49 5.05a2.05 2.05 0 0 1-1.69 3.21zm-11.6-16.86c-.65 0-1.3-.31-1.69-.9l-3.46-5.06a2.05 2.05 0 1 1 3.39-2.3l3.45 5.06a2.05 2.05 0 0 1-1.69 3.2zm-11.5-16.93c-.65 0-1.3-.31-1.7-.9l-3.44-5.1a2.05 2.05 0 0 1 3.4-2.28l3.44 5.09a2.05 2.05 0 0 1-1.7 3.2zm-11.45-16.98c-.66 0-1.3-.32-1.7-.9l-3.43-5.1a2.05 2.05 0 0 1 3.4-2.3l3.43 5.1a2.05 2.05 0 0 1-1.7 3.2zm-11.42-17c-.66 0-1.31-.32-1.7-.91l-3.43-5.1a2.05 2.05 0 0 1 3.4-2.29l3.43 5.1a2.05 2.05 0 0 1-1.7 3.2zm-11.43-17c-.66 0-1.3-.32-1.7-.9l-3.44-5.1a2.05 2.05 0 0 1 3.4-2.3l3.44 5.1a2.05 2.05 0 0 1-1.7 3.2zm-11.47-16.98c-.65 0-1.3-.31-1.7-.9l-3.44-5.08a2.05 2.05 0 0 1 3.39-2.3l3.45 5.09a2.05 2.05 0 0 1-1.7 3.2zm-11.53-16.92c-.65 0-1.3-.31-1.69-.9l-3.47-5.06a2.05 2.05 0 0 1 3.38-2.32l3.47 5.07a2.05 2.05 0 0 1-1.69 3.2zm-11.62-16.86c-.64 0-1.28-.3-1.68-.88l-3.5-5.04a2.05 2.05 0 1 1 3.35-2.34l3.51 5.04a2.05 2.05 0 0 1-1.68 3.22zm-11.74-16.77c-.65 0-1.28-.3-1.68-.87l-3.55-5a2.05 2.05 0 0 1 3.34-2.38l3.56 5.02a2.05 2.05 0 0 1-1.67 3.23zm-11.9-16.66c-.64 0-1.27-.3-1.67-.84l-3.6-4.97a2.05 2.05 0 1 1 3.31-2.41l3.61 4.98a2.05 2.05 0 0 1-1.66 3.24zm-12.1-16.52c-.62 0-1.24-.29-1.64-.83l-3.66-4.92a2.05 2.05 0 1 1 3.28-2.45l3.67 4.93a2.05 2.05 0 0 1-1.64 3.27zm-12.3-16.37c-.61 0-1.22-.27-1.62-.8l-3.73-4.87a2.05 2.05 0 0 1 3.24-2.5l3.74 4.89a2.05 2.05 0 0 1-1.62 3.28zm-12.54-16.17c-.6 0-1.2-.27-1.6-.78l-3.82-4.8a2.05 2.05 0 1 1 3.2-2.56c1.29 1.6 2.56 3.21 3.83 4.82a2.05 2.05 0 0 1-1.6 3.32zm-12.81-15.97c-.6 0-1.18-.25-1.59-.75-1.3-1.58-2.59-3.16-3.9-4.73a2.05 2.05 0 0 1 3.16-2.61c1.31 1.58 2.62 3.16 3.91 4.75a2.05 2.05 0 0 1-1.58 3.34zm-13.11-15.72c-.58 0-1.16-.25-1.56-.72-1.33-1.56-2.65-3.11-3.99-4.65a2.05 2.05 0 0 1 3.1-2.68 614.4 614.4 0 0 1 4.01 4.68 2.05 2.05 0 0 1-1.56 3.37zm-13.43-15.45c-.57 0-1.13-.23-1.54-.69a768.26 768.26 0 0 0-4.08-4.56 2.05 2.05 0 0 1 3.04-2.75l4.1 4.6a2.05 2.05 0 0 1-1.53 3.4zm-13.78-15.14c-.55 0-1.1-.22-1.5-.65l-4.2-4.47a2.05 2.05 0 0 1 2.98-2.82l4.21 4.5a2.05 2.05 0 0 1-1.5 3.44zm-14.15-14.8c-.53 0-1.06-.21-1.46-.62a736.9 736.9 0 0 0-4.31-4.36 2.05 2.05 0 0 1 2.9-2.89 744.7 744.7 0 0 1 4.33 4.38 2.05 2.05 0 0 1-1.46 3.49zm-14.53-14.43c-.52 0-1.03-.2-1.43-.58a844.93 844.93 0 0 0-4.42-4.24 2.05 2.05 0 1 1 2.82-2.97 719 719 0 0 1 4.45 4.27 2.05 2.05 0 0 1-1.42 3.52zm-14.94-14.02c-.5 0-.99-.18-1.38-.54a711.43 711.43 0 0 0-4.55-4.1 2.05 2.05 0 0 1 2.73-3.06c1.54 1.37 3.06 2.75 4.58 4.13a2.05 2.05 0 0 1-1.38 3.57zm-15.36-13.56c-.47 0-.94-.16-1.33-.49a635.25 635.25 0 0 0-4.68-3.95 2.05 2.05 0 0 1 2.62-3.15c1.58 1.32 3.16 2.65 4.72 3.98a2.05 2.05 0 0 1-1.33 3.61zm-15.83-13.01c-.45 0-.9-.15-1.27-.45-1.6-1.26-3.21-2.53-4.83-3.78a2.05 2.05 0 0 1 2.51-3.24l4.86 3.81a2.05 2.05 0 0 1-1.27 3.66zm-16.3-12.44c-.41 0-.84-.13-1.2-.4a563.3 563.3 0 0 0-4.96-3.6 2.05 2.05 0 0 1 2.39-3.33c1.67 1.2 3.34 2.41 5 3.63a2.05 2.05 0 0 1-1.22 3.7zm-16.72-11.83c-.4 0-.8-.11-1.15-.35a489.44 489.44 0 0 0-5.09-3.41 2.05 2.05 0 0 1 2.27-3.42l5.12 3.44a2.05 2.05 0 0 1-1.15 3.74zm-17.16-11.19c-.37 0-.74-.1-1.08-.3a535.35 535.35 0 0 0-5.2-3.23 2.05 2.05 0 1 1 2.12-3.5 520.1 520.1 0 0 1 5.25 3.25 2.05 2.05 0 0 1-1.09 3.78zm-17.57-10.52c-.34 0-.69-.09-1.01-.27a534.9 534.9 0 0 0-5.33-3.01 2.05 2.05 0 0 1 2-3.58c1.8 1 3.58 2.01 5.36 3.03a2.05 2.05 0 0 1-1.01 3.83zm-17.96-9.82a2 2 0 0 1-.94-.23c-1.8-.94-3.62-1.87-5.44-2.8a2.05 2.05 0 0 1 1.85-3.65c1.83.93 3.66 1.87 5.48 2.82a2.05 2.05 0 0 1-.95 3.86zm-18.34-9.07c-.3 0-.6-.06-.87-.2l-5.55-2.55a2.05 2.05 0 0 1 1.69-3.74c1.87.85 3.74 1.71 5.6 2.59a2.05 2.05 0 0 1-.87 3.9zm-18.71-8.29c-.27 0-.53-.05-.8-.15-1.87-.79-3.76-1.56-5.65-2.32a2.05 2.05 0 1 1 1.53-3.8 456 456 0 0 1 5.7 2.34 2.05 2.05 0 0 1-.78 3.93zm-19.06-7.44c-.24 0-.48-.04-.7-.13-1.92-.7-3.84-1.38-5.76-2.05a2.05 2.05 0 1 1 1.35-3.86c1.94.67 3.88 1.36 5.8 2.07a2.05 2.05 0 0 1-.7 3.97zm-19.39-6.55c-.2 0-.4-.03-.6-.1a420 420 0 0 0-5.85-1.77 2.05 2.05 0 1 1 1.16-3.92c1.97.58 3.94 1.17 5.9 1.78a2.05 2.05 0 0 1-.6 4zm-19.67-5.6a2.3 2.3 0 0 1-.52-.06c-1.97-.5-3.94-1-5.92-1.48a2.05 2.05 0 1 1 .96-3.98c2 .48 4 .98 5.99 1.5a2.05 2.05 0 0 1-.51 4.03zm-19.94-4.58c-.14 0-.27-.02-.41-.04-2-.4-4-.8-6-1.17a2.05 2.05 0 1 1 .75-4.02c2.02.37 4.04.76 6.06 1.17a2.05 2.05 0 0 1-.4 4.06zm-128.18-1.88a2.05 2.05 0 0 1-.37-4.06c2.03-.38 4.06-.74 6.09-1.07a2.05 2.05 0 1 1 .67 4.04c-2 .33-4.01.68-6.01 1.06-.13.02-.25.03-.38.03zm108.02-1.63c-.1 0-.2 0-.3-.02-2.01-.3-4.03-.57-6.04-.83a2.05 2.05 0 0 1 .52-4.07c2.04.27 4.08.55 6.11.84a2.05 2.05 0 0 1-.29 4.08zm-87.78-1.45a2.05 2.05 0 0 1-.24-4.09c2.05-.24 4.1-.46 6.15-.67a2.05 2.05 0 1 1 .4 4.08 310.54 310.54 0 0 0-6.3.68zm67.45-.93h-.18c-2.03-.18-4.05-.34-6.08-.48a2.05 2.05 0 0 1-1.9-2.19 2.07 2.07 0 0 1 2.18-1.9c2.06.14 4.11.3 6.16.49a2.05 2.05 0 0 1-.18 4.08zm-47.05-.83a2.05 2.05 0 0 1-.1-4.1c2.05-.1 4.11-.2 6.17-.26a2 2 0 0 1 2.12 1.97 2.05 2.05 0 0 1-1.98 2.12c-2.03.07-4.06.16-6.1.27h-.1zm26.62-.34h-.06a327 327 0 0 0-6.1-.11 2.05 2.05 0 0 1-2.03-2.07c0-1.13.84-2.1 2.06-2.03 2.06.02 4.12.06 6.18.11a2.05 2.05 0 0 1-.05 4.1z"/>
</svg>
