<svg width="3710" height="3430" viewBox="0 0 3710 3430" fill="none" xmlns="http://www.w3.org/2000/svg">
<g clip-path="url(#clip0_6_254)">
<path d="M2901.51 2939.38C2845.13 2997.69 2791.79 3035.3 2749.64 3065.02C2254.2 3414.3 1667.97 3312.48 1543.38 3287.62C1359.4 3250.9 1003.77 3179.93 746.65 2882.84C357.655 2433.37 418.228 1725.24 719.958 1257.8C775.149 1172.29 1066.69 697.727 1659.23 621.62C2017.83 575.562 2435.85 668.456 2738.56 917.648C3373.99 1440.72 3328.75 2497.43 2901.51 2939.38Z" fill="url(#paint0_linear_6_254)"/>
<path d="M701.707 1136.76C702.419 1124.6 719.28 1121.46 724.427 1132.53C774.186 1239.62 913.615 1516.38 1081.57 1648.85C1355.03 1864.53 1575.29 2249.06 1459.3 2483.51C1459.3 2483.51 624.114 2461.2 701.707 1136.76Z" fill="#BDD0FB"/>
<path opacity="0.43" d="M749.574 1293.1C750.444 1296.71 751.455 1299.63 752.401 1302.81L755.399 1312.14L761.6 1330.7C765.818 1343.04 770.228 1355.31 774.639 1367.59C783.549 1392.1 792.768 1416.51 802.216 1440.83C821.202 1489.44 841.525 1537.54 862.581 1585.33C883.57 1633.15 905.92 1680.39 929.279 1727.15C952.679 1773.89 976.761 1820.32 1002.39 1865.95C1053.44 1957.28 1109.6 2045.97 1171.92 2130.41C1203.52 2172.3 1236.25 2213.4 1271.34 2252.54C1306.7 2291.43 1343.77 2328.85 1383.44 2363.45C1384.31 2364.21 1385.63 2364.13 1386.39 2363.28C1387.14 2362.45 1387.08 2361.2 1386.28 2360.44L1386.26 2360.42C1348.12 2324.46 1312.02 2286.56 1277.88 2246.99C1243.63 2207.51 1211.75 2166.11 1181.01 2123.96C1150.29 2081.78 1121.3 2038.39 1093.33 1994.39C1065.36 1950.37 1039.27 1905.23 1013.44 1859.96C962.167 1769.18 915.846 1675.74 872.179 1581.15C850.446 1533.81 829.682 1486.02 809.786 1437.89C799.799 1413.84 790.036 1389.69 780.579 1365.43L766.686 1328.94L759.933 1310.63L756.663 1301.45C755.641 1298.43 754.491 1295.19 753.708 1292.51L753.579 1292.07C753.264 1290.99 752.117 1290.36 751.018 1290.67C749.952 1290.97 749.324 1292.05 749.574 1293.1Z" fill="white"/>
<path d="M1056.25 821.878C1060.28 810.922 1076.62 812.557 1078.26 824.094C1094.16 935.63 1145.18 1226.81 1262.42 1393.31C1453.32 1664.4 1548.55 2076.08 1377.08 2259.98C1377.08 2259.98 617.37 2015.66 1056.25 821.878Z" fill="#91B3FA"/>
<path opacity="0.43" d="M1056.7 978.075C1056.5 981.632 1056.61 984.574 1056.6 987.746L1056.75 997.101L1057.28 1015.79C1057.72 1028.24 1058.35 1040.67 1058.99 1053.11C1060.35 1077.98 1062.02 1102.84 1063.93 1127.67C1067.83 1177.34 1073.11 1226.9 1079.14 1276.37C1085.11 1325.85 1092.48 1375.17 1100.92 1424.31C1109.4 1473.45 1118.59 1522.48 1129.42 1571.2C1150.88 1668.64 1177.77 1765.04 1211.48 1859.18C1228.84 1906.06 1247.45 1952.52 1268.77 1997.82C1290.42 2042.96 1314.03 2087.21 1340.82 2129.57C1341.41 2130.51 1342.67 2130.8 1343.62 2130.21C1344.55 2129.64 1344.86 2128.46 1344.32 2127.53L1344.31 2127.51C1319.33 2084.3 1296.76 2039.86 1276.45 1994.42C1256.01 1949.04 1238.28 1902.53 1221.8 1855.63C1205.34 1808.72 1190.8 1761.16 1177.37 1713.31C1163.95 1665.45 1152.56 1617.06 1141.44 1568.62C1119.62 1471.64 1103.09 1373.54 1089.29 1275.09C1082.5 1225.85 1076.72 1176.46 1071.83 1126.99C1069.34 1102.26 1067.09 1077.5 1065.15 1052.72L1062.53 1015.53L1061.41 996.934L1060.96 987.639C1060.86 984.594 1060.71 981.316 1060.73 978.656L1060.74 978.206C1060.75 977.111 1059.85 976.215 1058.74 976.205C1057.66 976.195 1056.77 977.027 1056.7 978.075Z" fill="white"/>
<g opacity="0.3">
<path d="M2919.78 1088.06C2923.09 1088.57 2925.54 1091.46 2925.37 1094.81C2924.99 1102.16 2924.29 1109.59 2923.27 1116.91C2922.78 1120.47 2919.44 1122.97 2915.82 1122.48C2915.77 1122.48 2915.73 1122.47 2915.69 1122.46C2912.13 1121.92 2909.66 1118.68 2910.15 1115.16C2911.11 1108.2 2911.78 1101.14 2912.14 1094.16C2912.32 1090.57 2915.43 1087.81 2919.09 1087.99C2919.32 1088 2919.55 1088.02 2919.78 1088.06ZM2910.48 1144.01C2910.74 1144.05 2910.99 1144.11 2911.25 1144.18C2914.77 1145.14 2916.83 1148.74 2915.85 1152.2C2913.83 1159.31 2911.48 1166.4 2908.86 1173.29C2907.58 1176.66 2903.79 1178.36 2900.34 1177.11C2896.92 1175.85 2895.18 1172.11 2896.45 1168.74C2898.94 1162.2 2901.17 1155.46 2903.09 1148.7C2904 1145.49 2907.21 1143.51 2910.48 1144.01ZM2888.87 1196.57C2889.6 1196.68 2890.32 1196.91 2891.01 1197.28C2894.22 1198.99 2895.42 1202.94 2893.68 1206.1C2890.1 1212.58 2886.2 1218.98 2882.07 1225.14C2880.06 1228.14 2875.95 1228.96 2872.89 1226.99C2869.84 1225.01 2869 1220.98 2871.01 1217.98C2874.93 1212.13 2878.64 1206.05 2882.03 1199.9C2883.4 1197.41 2886.18 1196.16 2888.87 1196.57ZM2855.84 1243.06C2857.04 1243.25 2858.21 1243.76 2859.19 1244.61C2861.94 1246.98 2862.2 1251.1 2859.79 1253.79C2854.82 1259.33 2849.56 1264.71 2844.14 1269.81C2841.5 1272.29 2837.31 1272.19 2834.78 1269.6C2832.25 1267 2832.34 1262.88 2834.98 1260.4C2840.13 1255.56 2845.13 1250.44 2849.84 1245.19C2851.4 1243.46 2853.68 1242.73 2855.84 1243.06ZM2813.09 1281.15C2814.78 1281.41 2816.36 1282.3 2817.44 1283.77C2819.58 1286.69 2818.91 1290.76 2815.94 1292.86C2809.87 1297.16 2803.53 1301.27 2797.09 1305.06C2793.95 1306.91 2789.88 1305.92 2788 1302.83C2786.12 1299.75 2787.14 1295.75 2790.27 1293.9C2796.4 1290.29 2802.43 1286.39 2808.19 1282.3C2809.66 1281.26 2811.42 1280.9 2813.09 1281.15ZM2762.83 1308.99C2765.01 1309.33 2766.98 1310.73 2767.91 1312.88C2769.34 1316.19 2767.77 1320.01 2764.4 1321.42C2757.5 1324.3 2750.39 1326.92 2743.27 1329.22C2739.79 1330.34 2736.05 1328.48 2734.91 1325.06C2733.77 1321.65 2735.66 1317.97 2739.14 1316.85C2745.91 1314.67 2752.67 1312.17 2759.22 1309.44C2760.4 1308.94 2761.65 1308.81 2762.83 1308.99ZM2520.58 1287.61C2521.49 1287.75 2522.38 1288.07 2523.19 1288.6C2529.14 1292.44 2535.34 1296.07 2541.62 1299.4C2544.84 1301.11 2546.04 1305.06 2544.3 1308.22C2542.57 1311.38 2538.55 1312.56 2535.33 1310.86C2528.72 1307.35 2522.19 1303.52 2515.92 1299.48C2512.86 1297.51 2512.01 1293.47 2514.02 1290.47C2515.49 1288.27 2518.09 1287.23 2520.58 1287.61ZM2707.57 1325.19C2710.28 1325.61 2712.56 1327.67 2713.07 1330.47C2713.72 1334.01 2711.32 1337.4 2707.72 1338.03C2700.34 1339.33 2692.81 1340.33 2685.35 1341.01C2681.7 1341.32 2678.48 1338.7 2678.14 1335.12C2677.81 1331.55 2680.49 1328.38 2684.13 1328.05C2691.22 1327.41 2698.37 1326.46 2705.38 1325.22C2706.12 1325.09 2706.86 1325.08 2707.57 1325.19ZM2572.07 1313.19C2572.51 1313.25 2572.94 1313.36 2573.36 1313.51C2580.04 1315.95 2586.91 1318.13 2593.79 1320C2597.31 1320.96 2599.38 1324.55 2598.4 1328.01C2597.42 1331.47 2593.77 1333.52 2590.25 1332.54C2583.02 1330.57 2575.78 1328.28 2568.76 1325.72C2565.33 1324.47 2563.58 1320.72 2564.85 1317.35C2565.97 1314.4 2569.03 1312.72 2572.07 1313.19ZM2650.02 1328.86C2653.32 1329.36 2655.77 1332.24 2655.61 1335.6C2655.43 1339.19 2652.32 1341.96 2648.67 1341.79C2641.19 1341.43 2633.62 1340.75 2626.18 1339.77C2626.14 1339.77 2626.09 1339.76 2626.04 1339.75C2622.49 1339.21 2620.02 1335.97 2620.5 1332.46C2620.99 1328.89 2624.32 1326.39 2627.95 1326.87C2635.01 1327.81 2642.2 1328.45 2649.31 1328.78C2649.55 1328.8 2649.79 1328.82 2650.02 1328.86Z" fill="#91B3FA"/>
<path d="M2484.17 1259.17C2485.46 1259.37 2486.7 1259.94 2487.72 1260.9C2490.19 1263.21 2492.75 1265.52 2495.33 1267.75C2498.07 1270.12 2498.34 1274.24 2495.93 1276.93C2493.51 1279.63 2489.32 1279.9 2486.58 1277.52C2483.87 1275.17 2481.17 1272.75 2478.57 1270.31C2475.93 1267.83 2475.83 1263.71 2478.35 1261.11C2479.91 1259.51 2482.1 1258.86 2484.17 1259.17Z" fill="#91B3FA"/>
</g>
<g opacity="0.3">
<path d="M2404.14 1077.01C2407.3 1077.49 2409.72 1080.17 2409.74 1083.41C2409.75 1086.76 2409.84 1090.17 2410 1093.55C2410.16 1097.14 2407.34 1100.18 2403.68 1100.34C2400.01 1100.51 2396.93 1097.73 2396.76 1094.14C2396.6 1090.59 2396.51 1087 2396.49 1083.46C2396.48 1079.87 2399.43 1076.94 2403.09 1076.93C2403.45 1076.93 2403.8 1076.96 2404.14 1077.01Z" fill="#91B3FA"/>
<path d="M2701.54 825.214C2704.55 825.675 2707.57 826.187 2710.59 826.751C2714.18 827.425 2716.54 830.832 2715.85 834.362C2715.17 837.893 2711.68 840.22 2708.11 839.54C2701.14 838.237 2694.14 837.215 2687.22 836.495C2683.58 836.109 2680.94 832.913 2681.33 829.339C2681.71 825.762 2684.97 823.171 2688.61 823.55C2692.89 823.996 2697.25 824.556 2701.54 825.214ZM2744.41 835.47C2744.78 835.526 2745.14 835.613 2745.51 835.733C2752.51 838.043 2759.5 840.67 2766.26 843.543C2769.62 844.968 2771.17 848.798 2769.72 852.097C2768.27 855.397 2764.36 856.924 2761.01 855.49C2754.58 852.763 2747.95 850.268 2741.29 848.071C2737.82 846.928 2735.96 843.239 2737.12 839.833C2738.16 836.78 2741.28 834.991 2744.41 835.47ZM2653.78 822.318C2656.86 822.79 2659.27 825.363 2659.37 828.541C2659.49 832.135 2656.62 835.138 2652.96 835.253C2645.97 835.469 2638.89 835.984 2631.91 836.784C2628.28 837.196 2624.99 834.644 2624.57 831.075C2624.14 827.503 2626.75 824.271 2630.38 823.855C2637.72 823.013 2645.18 822.47 2652.54 822.242C2652.96 822.23 2653.38 822.256 2653.78 822.318ZM2795.94 858.943C2796.77 859.07 2797.59 859.358 2798.35 859.812C2804.66 863.574 2810.89 867.648 2816.85 871.918C2819.81 874.034 2820.46 878.104 2818.3 881.008C2816.15 883.915 2812.01 884.555 2809.05 882.435C2803.39 878.381 2797.48 874.513 2791.48 870.94C2788.35 869.077 2787.36 865.073 2789.25 862.001C2790.69 859.678 2793.37 858.549 2795.94 858.943ZM2597.61 830.241C2600.14 830.628 2602.32 832.448 2603 835.041C2603.92 838.521 2601.79 842.073 2598.25 842.975C2591.48 844.696 2584.69 846.73 2578.06 849.014C2574.61 850.205 2570.83 848.422 2569.62 845.028C2568.41 841.637 2570.22 837.925 2573.67 836.734C2580.65 834.328 2587.8 832.188 2594.93 830.374C2595.83 830.144 2596.74 830.108 2597.61 830.241ZM2544.56 850.082C2546.58 850.392 2548.43 851.616 2549.44 853.543C2551.11 856.741 2549.82 860.664 2546.57 862.303C2540.33 865.45 2534.15 868.89 2528.2 872.529C2525.1 874.434 2521.01 873.503 2519.08 870.449C2517.14 867.397 2518.09 863.385 2521.2 861.483C2527.45 857.653 2533.96 854.032 2540.53 850.723C2541.82 850.072 2543.23 849.879 2544.56 850.082ZM2497.18 880.816C2498.72 881.052 2500.18 881.817 2501.25 883.088C2503.59 885.85 2503.21 889.955 2500.39 892.252C2494.99 896.661 2489.72 901.34 2484.73 906.164C2482.12 908.682 2477.93 908.651 2475.36 906.084C2472.8 903.521 2472.83 899.402 2475.44 896.881C2480.7 891.806 2486.24 886.879 2491.93 882.24C2493.45 880.998 2495.37 880.538 2497.18 880.816ZM2457.75 920.966C2458.82 921.129 2459.86 921.551 2460.77 922.244C2463.67 924.439 2464.21 928.525 2461.97 931.37C2457.68 936.83 2453.59 942.529 2449.79 948.315C2447.81 951.335 2443.71 952.205 2440.64 950.261C2437.56 948.314 2436.68 944.285 2438.66 941.265C2442.66 935.172 2446.97 929.169 2451.48 923.422C2453.01 921.474 2455.44 920.613 2457.75 920.966ZM2428.25 968.662C2428.85 968.753 2429.44 968.93 2430.02 969.193C2433.34 970.706 2434.78 974.578 2433.24 977.836C2430.29 984.074 2427.57 990.518 2425.16 996.993C2423.91 1000.37 2420.09 1002.1 2416.67 1000.87C2413.23 999.637 2411.46 995.898 2412.72 992.522C2415.26 985.707 2418.12 978.922 2421.22 972.356C2422.49 969.662 2425.4 968.226 2428.25 968.662ZM2410.14 1021.52C2410.27 1021.54 2410.41 1021.57 2410.54 1021.6C2414.11 1022.37 2416.38 1025.84 2415.59 1029.35C2414.49 1034.3 2413.53 1039.35 2412.74 1044.35C2412.45 1046.16 2412.18 1047.98 2411.94 1049.78C2411.45 1053.35 2408.12 1055.85 2404.5 1055.37C2400.82 1054.96 2398.32 1051.62 2398.81 1048.06C2399.07 1046.16 2399.35 1044.26 2399.65 1042.35C2400.48 1037.09 2401.49 1031.78 2402.65 1026.56C2403.41 1023.19 2406.7 1021 2410.14 1021.52Z" fill="#91B3FA"/>
<path d="M2841.05 893.099C2842.35 893.298 2843.61 893.878 2844.62 894.842C2847.21 897.287 2849.78 899.832 2852.29 902.407C2854.81 905.007 2854.72 909.126 2852.07 911.608C2849.43 914.09 2845.24 914 2842.71 911.398C2840.33 908.952 2837.88 906.535 2835.43 904.212C2832.8 901.721 2832.72 897.6 2835.26 895.012C2836.82 893.426 2838.99 892.784 2841.05 893.099Z" fill="#91B3FA"/>
</g>
<path d="M2820.4 966.334C2819.73 965.215 2818.42 964.634 2817.12 964.889L2780.18 972.168C2768.06 959.638 2753.81 948.915 2737.8 940.612L2734.92 903.725C2734.81 902.431 2733.89 901.343 2732.61 901.015L2688.88 889.795C2687.61 889.468 2686.26 889.973 2685.53 891.052L2664.66 921.845C2646.55 921.395 2628.79 923.905 2611.98 929.013L2583.38 904.916C2582.38 904.072 2580.94 903.945 2579.8 904.601L2540.81 927.047C2539.67 927.703 2539.08 928.998 2539.34 930.27L2546.74 966.568C2533.99 978.478 2523.08 992.474 2514.63 1008.21L2477.08 1011.04C2475.77 1011.14 2474.66 1012.05 2474.33 1013.31L2462.91 1056.27C2462.57 1057.53 2463.09 1058.85 2464.19 1059.57L2495.53 1080.08C2495.07 1097.86 2497.62 1115.31 2502.82 1131.83L2478.3 1159.94C2477.44 1160.92 2477.31 1162.33 2477.98 1163.45L2500.82 1201.77C2501.49 1202.89 2502.81 1203.47 2504.1 1203.21L2541.04 1195.93C2553.17 1208.47 2567.41 1219.19 2583.42 1227.49L2586.31 1264.38C2586.41 1265.67 2587.33 1266.76 2588.61 1267.09L2632.34 1278.31C2633.62 1278.64 2634.96 1278.13 2635.7 1277.05L2656.57 1246.26C2674.67 1246.71 2692.43 1244.2 2709.24 1239.09L2737.84 1263.19C2738.84 1264.03 2740.28 1264.16 2741.42 1263.5L2780.42 1241.06C2781.55 1240.4 2782.15 1239.11 2781.89 1237.83L2774.48 1201.54C2787.23 1189.63 2798.14 1175.63 2806.59 1159.89L2844.14 1157.06C2845.45 1156.96 2846.56 1156.05 2846.9 1154.8L2858.31 1111.83C2858.65 1110.58 2858.13 1109.25 2857.04 1108.53L2825.7 1088.03C2826.15 1070.24 2823.6 1052.79 2818.4 1036.27L2842.93 1008.17C2843.79 1007.18 2843.91 1005.77 2843.25 1004.65L2820.4 966.334Z" fill="#91B3FA"/>
<path d="M2667.63 1039.95C2689.51 1043.29 2706.22 1062.02 2706.04 1084.41C2705.83 1109.02 2685.29 1128.88 2660.24 1128.68C2648.1 1128.59 2636.74 1123.85 2628.23 1115.35C2619.72 1106.85 2615.09 1095.61 2615.19 1083.68C2615.39 1059.07 2635.93 1039.21 2660.98 1039.41C2663.24 1039.43 2665.46 1039.62 2667.63 1039.95ZM2655.18 1117.86C2656.87 1118.12 2658.59 1118.26 2660.33 1118.27C2679.53 1118.43 2695.28 1103.2 2695.44 1084.33C2695.6 1065.46 2680.11 1049.97 2660.9 1049.83C2641.69 1049.67 2625.94 1064.9 2625.78 1083.77C2625.71 1092.91 2629.26 1101.53 2635.78 1108.05C2641.09 1113.35 2647.84 1116.74 2655.18 1117.86Z" fill="#BDD0FB"/>
<path d="M2676.81 976.105C2680.57 976.68 2684.32 977.444 2688.05 978.4C2689.22 978.701 2690.39 979.021 2691.55 979.359C2697.29 981.028 2702.89 983.141 2708.25 985.667C2708.32 985.702 2708.4 985.736 2708.47 985.771C2708.68 985.869 2708.88 985.968 2709.09 986.069C2709.49 986.262 2709.89 986.459 2710.29 986.657C2711.34 987.178 2711.89 988.293 2711.72 989.379C2711.68 989.642 2711.59 989.904 2711.46 990.155C2710.8 991.438 2709.21 991.948 2707.9 991.303C2701.18 987.968 2694.05 985.322 2686.71 983.44C2650.23 974.073 2613.14 984.577 2587.36 1008.08C2573.02 1021.15 2562.17 1038.24 2556.87 1058.18C2555.94 1061.67 2555.2 1065.19 2554.64 1068.71C2550.89 1092.41 2555.51 1116.46 2568.02 1137.44C2582.38 1161.53 2605.44 1178.69 2632.94 1185.75C2689.73 1200.31 2747.95 1166.78 2762.77 1111.01C2763.69 1107.57 2764.42 1104.1 2764.97 1100.61C2767.37 1085.49 2766.37 1070.02 2761.99 1055.32C2761.87 1054.94 2761.85 1054.56 2761.91 1054.19C2762.07 1053.23 2762.77 1052.39 2763.79 1052.09C2765.19 1051.69 2766.66 1052.48 2767.07 1053.86C2771.67 1069.3 2772.72 1085.53 2770.21 1101.41C2769.63 1105.07 2768.86 1108.71 2767.9 1112.32C2752.34 1170.88 2691.18 1206.07 2631.6 1190.78C2602.73 1183.38 2578.53 1165.37 2563.45 1140.07C2550.31 1118.05 2545.47 1092.8 2549.41 1067.92C2549.99 1064.22 2550.77 1060.53 2551.75 1056.86C2559.29 1028.5 2577.62 1004.71 2603.36 989.893C2625.78 976.99 2651.48 972.229 2676.81 976.105Z" fill="#BDD0FB"/>
<g opacity="0.3">
<path d="M3169.97 952.77C3171.72 953.038 3173.15 954.405 3173.4 956.218C3173.85 959.601 3174.21 963.044 3174.45 966.451C3174.61 968.664 3172.92 970.585 3170.66 970.745C3168.41 970.912 3166.45 969.235 3166.29 967.021C3166.06 963.775 3165.72 960.494 3165.29 957.266C3164.99 955.067 3166.57 953.048 3168.81 952.756C3169.2 952.705 3169.6 952.712 3169.97 952.77Z" fill="#91B3FA"/>
<path d="M3171.2 983.667C3173.25 983.98 3174.77 985.773 3174.66 987.85C3174.34 993.717 3173.71 999.635 3172.79 1005.44C3172.6 1006.66 3172.39 1007.88 3172.17 1009.11C3171.78 1011.3 3169.55 1012.65 3167.43 1012.37C3165.2 1011.98 3163.72 1009.89 3164.11 1007.71C3164.33 1006.54 3164.53 1005.37 3164.71 1004.2C3165.59 998.668 3166.18 993.023 3166.49 987.428C3166.61 985.209 3168.53 983.51 3170.79 983.625C3170.93 983.633 3171.07 983.646 3171.2 983.667ZM3163.78 1024.76C3163.97 1024.79 3164.17 1024.83 3164.36 1024.89C3166.52 1025.54 3167.73 1027.79 3167.07 1029.91C3164.95 1036.72 3162.37 1043.46 3159.42 1049.94C3158.5 1051.97 3156.07 1052.87 3154.02 1051.97C3151.96 1051.06 3151.03 1048.69 3151.96 1046.66C3154.77 1040.48 3157.22 1034.05 3159.25 1027.55C3159.85 1025.62 3161.8 1024.46 3163.78 1024.76ZM3146.44 1062.86C3146.95 1062.94 3147.46 1063.11 3147.93 1063.39C3149.86 1064.54 3150.48 1067.02 3149.31 1068.91C3145.55 1074.99 3141.37 1080.91 3136.88 1086.5C3135.47 1088.24 3132.91 1088.54 3131.13 1087.16C3129.36 1085.78 3129.06 1083.25 3130.46 1081.51C3134.74 1076.18 3138.73 1070.54 3142.31 1064.74C3143.2 1063.31 3144.85 1062.61 3146.44 1062.86ZM3120.09 1095.6C3120.93 1095.73 3121.73 1096.11 3122.37 1096.75C3123.96 1098.33 3123.94 1100.88 3122.33 1102.44C3117.17 1107.44 3111.64 1112.17 3105.91 1116.49C3104.11 1117.84 3101.54 1117.51 3100.17 1115.75C3098.79 1113.99 3099.13 1111.47 3100.93 1110.11C3106.39 1105.99 3111.66 1101.48 3116.59 1096.71C3117.55 1095.78 3118.86 1095.41 3120.09 1095.6ZM3086.41 1121.03C3087.58 1121.21 3088.66 1121.88 3089.31 1122.96C3090.45 1124.87 3089.8 1127.34 3087.86 1128.47C3081.62 1132.08 3075.09 1135.34 3068.46 1138.17C3066.39 1139.06 3063.98 1138.13 3063.08 1136.09C3062.18 1134.05 3063.13 1131.69 3065.2 1130.8C3071.53 1128.1 3077.75 1124.98 3083.71 1121.54C3084.55 1121.05 3085.51 1120.89 3086.41 1121.03ZM3047.47 1137.65C3048.98 1137.88 3050.3 1138.95 3050.77 1140.49C3051.4 1142.62 3050.16 1144.85 3048 1145.48C3041.05 1147.49 3033.91 1149.1 3026.78 1150.25C3024.54 1150.6 3022.45 1149.12 3022.08 1146.93C3021.72 1144.74 3023.23 1142.67 3025.46 1142.31C3032.26 1141.22 3039.06 1139.69 3045.68 1137.77C3046.28 1137.59 3046.89 1137.56 3047.47 1137.65ZM3005.59 1144.41C3007.48 1144.7 3008.96 1146.28 3009.04 1148.23C3009.13 1150.45 3007.37 1152.31 3005.11 1152.4C2997.9 1152.68 2990.58 1152.51 2983.34 1151.91C2981.09 1151.68 2979.42 1149.77 2979.61 1147.56C2979.8 1145.35 2981.78 1143.71 2984.03 1143.89C2990.93 1144.47 2997.92 1144.63 3004.8 1144.37C3005.07 1144.36 3005.33 1144.37 3005.59 1144.41ZM2942.75 1135.31C2942.98 1135.35 2943.22 1135.41 2943.45 1135.49C2949.09 1137.39 2954.94 1139.02 2960.83 1140.33C2961.72 1140.53 2962.6 1140.72 2963.48 1140.9C2965.69 1141.36 2967.1 1143.49 2966.64 1145.66C2966.18 1147.84 2963.99 1149.29 2961.8 1148.77C2960.86 1148.58 2959.93 1148.38 2959 1148.17C2952.84 1146.79 2946.71 1145.08 2940.8 1143.09C2938.66 1142.37 2937.52 1140.08 2938.25 1137.98C2938.91 1136.11 2940.82 1135.02 2942.75 1135.31Z" fill="#91B3FA"/>
</g>
<g opacity="0.3">
<path d="M3022.99 806.998C3025.2 807.336 3026.72 809.357 3026.41 811.537C3026.09 813.734 3024.02 815.263 3021.78 814.949C3015.05 814.006 3008.2 813.458 3001.42 813.324C2999.18 813.259 2997.37 811.444 2997.42 809.223C2997.46 807.001 2999.33 805.241 3001.59 805.284C3008.7 805.43 3015.88 806.001 3022.93 806.989C3022.95 806.992 3022.97 806.995 3022.99 806.998ZM3043.5 811.116C3043.64 811.139 3043.78 811.168 3043.93 811.206C3050.81 813.013 3057.65 815.252 3064.25 817.855C3066.35 818.685 3067.37 821.021 3066.53 823.082C3065.69 825.146 3063.29 826.134 3061.21 825.319C3054.9 822.833 3048.38 820.698 3041.81 818.971C3039.63 818.399 3038.34 816.194 3038.92 814.051C3039.47 812.045 3041.46 810.804 3043.5 811.116ZM2981.23 806.17C2983.02 806.444 2984.47 807.874 2984.67 809.731C2984.9 811.934 2983.26 813.909 2981.02 814.137C2974.25 814.825 2967.46 815.921 2960.85 817.4C2958.64 817.885 2956.46 816.537 2955.96 814.371C2955.46 812.209 2956.84 810.052 2959.04 809.56C2965.97 808.01 2973.08 806.862 2980.18 806.143C2980.54 806.108 2980.89 806.118 2981.23 806.17ZM3082.27 826.433C3082.73 826.504 3083.19 826.652 3083.62 826.885C3089.86 830.267 3095.95 834.064 3101.72 838.168C3103.55 839.469 3103.96 841.983 3102.63 843.782C3101.31 845.573 3098.75 845.977 3096.92 844.68C3091.42 840.768 3085.62 837.151 3079.67 833.924C3077.69 832.851 3076.97 830.406 3078.06 828.463C3078.92 826.944 3080.62 826.181 3082.27 826.433ZM2940.5 815.285C2941.94 815.504 2943.2 816.465 2943.73 817.896C2944.49 819.988 2943.39 822.289 2941.26 823.04C2934.88 825.296 2928.56 827.962 2922.5 830.967C2920.48 831.969 2918.02 831.167 2917 829.184C2915.99 827.201 2916.8 824.783 2918.82 823.785C2925.18 820.639 2931.8 817.842 2938.49 815.474C2939.16 815.238 2939.85 815.185 2940.5 815.285ZM2903.19 833.734C2904.29 833.902 2905.31 834.502 2905.97 835.478C2907.22 837.326 2906.71 839.822 2904.83 841.052C2899.17 844.758 2893.68 848.833 2888.53 853.161C2886.81 854.606 2884.23 854.406 2882.76 852.719C2881.29 851.031 2881.5 848.496 2883.21 847.054C2888.61 842.514 2894.36 838.241 2900.3 834.358C2901.18 833.78 2902.22 833.584 2903.19 833.734ZM2871.45 860.436C2872.22 860.553 2872.97 860.886 2873.58 861.445C2875.25 862.943 2875.36 865.487 2873.83 867.125C2869.23 872.05 2864.91 877.299 2860.97 882.723C2859.66 884.525 2857.1 884.947 2855.26 883.657C2853.42 882.367 2853 879.859 2854.31 878.05C2858.44 872.365 2862.98 866.859 2867.8 861.689C2868.76 860.661 2870.15 860.236 2871.45 860.436Z" fill="#91B3FA"/>
<path d="M3116.27 850.629C3117.05 850.747 3117.81 851.089 3118.43 851.657C3120.99 854.001 3123.5 856.43 3125.87 858.874C3127.43 860.48 3127.38 863.026 3125.74 864.559C3124.11 866.085 3121.52 866.03 3119.96 864.429C3117.69 862.095 3115.3 859.779 3112.85 857.542C3111.2 856.03 3111.11 853.485 3112.65 851.862C3113.61 850.849 3114.98 850.43 3116.27 850.629Z" fill="#91B3FA"/>
</g>
<path d="M3104.78 901.423C3104.34 900.674 3103.45 900.285 3102.59 900.456L3077.87 905.327C3069.76 896.942 3060.23 889.767 3049.51 884.211L3047.58 859.527C3047.51 858.661 3046.89 857.933 3046.04 857.713L3016.78 850.205C3015.92 849.986 3015.02 850.324 3014.53 851.046L3000.57 871.652C2988.45 871.35 2976.57 873.029 2965.32 876.447L2946.18 860.323C2945.51 859.758 2944.55 859.673 2943.78 860.112L2917.69 875.133C2916.93 875.572 2916.53 876.438 2916.71 877.289L2921.66 901.578C2913.13 909.549 2905.83 918.914 2900.17 929.443L2875.05 931.338C2874.17 931.405 2873.43 932.013 2873.2 932.853L2865.56 961.604C2865.34 962.444 2865.68 963.331 2866.42 963.812L2887.39 977.534C2887.08 989.436 2888.79 1001.11 2892.27 1012.16L2875.86 1030.97C2875.29 1031.63 2875.2 1032.58 2875.65 1033.32L2890.93 1058.96C2891.38 1059.71 2892.26 1060.1 2893.13 1059.93L2917.85 1055.06C2925.96 1063.44 2935.49 1070.62 2946.21 1076.18L2948.13 1100.86C2948.2 1101.72 2948.82 1102.45 2949.68 1102.67L2978.94 1110.18C2979.79 1110.4 2980.69 1110.06 2981.18 1109.34L2995.15 1088.73C3007.26 1089.04 3019.15 1087.36 3030.4 1083.94L3049.53 1100.06C3050.21 1100.63 3051.17 1100.71 3051.93 1100.27L3078.02 1085.25C3078.79 1084.81 3079.18 1083.95 3079.01 1083.1L3074.05 1058.81C3082.58 1050.84 3089.89 1041.47 3095.54 1030.94L3120.66 1029.05C3121.54 1028.98 3122.28 1028.37 3122.51 1027.53L3130.15 998.783C3130.37 997.943 3130.03 997.056 3129.29 996.574L3108.32 982.852C3108.63 970.95 3106.92 959.273 3103.44 948.221L3119.85 929.415C3120.43 928.756 3120.51 927.811 3120.07 927.061L3104.78 901.423Z" fill="#91B3FA"/>
<path d="M3002.69 950.156C3009.21 951.153 3015.21 954.165 3019.92 958.87C3025.71 964.66 3028.87 972.321 3028.8 980.443C3028.66 997.202 3014.67 1010.73 2997.61 1010.6C2980.52 1010.43 2966.78 996.707 2966.92 979.944C2966.98 971.823 2970.26 964.213 2976.16 958.52C2982.05 952.823 2989.85 949.722 2998.11 949.791C2999.66 949.803 3001.19 949.926 3002.69 950.156ZM2994.34 1002.29C2995.43 1002.46 2996.54 1002.55 2997.68 1002.56C3010.23 1002.66 3020.52 992.706 3020.62 980.375C3020.67 974.404 3018.35 968.765 3014.09 964.509C3009.82 960.25 3004.12 957.884 2998.04 957.828C2991.97 957.78 2986.23 960.06 2981.9 964.248C2977.56 968.44 2975.15 974.036 2975.1 980.012C2975 991.228 2983.38 1000.61 2994.34 1002.29Z" fill="#BDD0FB"/>
<path d="M3009.13 905.727C3011.69 906.118 3014.25 906.64 3016.8 907.294C3021.88 908.595 3026.83 910.405 3031.52 912.679C3031.73 912.783 3031.94 912.887 3032.15 912.991C3033.77 913.795 3034.61 915.517 3034.35 917.193C3034.28 917.6 3034.15 918.006 3033.95 918.392C3032.94 920.374 3030.47 921.157 3028.46 920.165C3024.1 918.001 3019.48 916.289 3014.74 915.075H3014.74C3014.48 915.007 3014.21 914.943 3013.95 914.88C3002.7 912.105 2991.17 912.192 2980.22 914.967C2974.28 916.473 2968.51 918.776 2963.05 921.854C2963.01 921.879 2962.96 921.905 2962.92 921.929C2962.78 922.008 2962.65 922.082 2962.51 922.161C2946.64 931.301 2935.33 945.965 2930.69 963.457C2930.08 965.721 2929.6 967.995 2929.24 970.276C2926.81 985.62 2929.8 1001.19 2937.9 1014.77C2947.2 1030.37 2962.13 1041.47 2979.93 1046.04C2997.72 1050.6 3016.27 1048.09 3032.15 1038.95C3048.03 1029.81 3059.33 1015.15 3063.98 997.658C3064.57 995.432 3065.04 993.185 3065.4 990.927C3066.95 981.137 3066.3 971.127 3063.47 961.612C3063.3 961.025 3063.26 960.432 3063.35 959.866C3063.59 958.376 3064.68 957.076 3066.25 956.625C3068.42 956.008 3070.69 957.222 3071.32 959.357C3074.49 970.004 3075.22 981.206 3073.49 992.157C3073.09 994.686 3072.56 997.198 3071.9 999.688C3066.69 1019.26 3054.05 1035.67 3036.28 1045.89C3018.52 1056.11 2997.78 1058.95 2977.86 1053.82C2957.94 1048.71 2941.24 1036.29 2930.84 1018.83C2921.78 1003.64 2918.43 986.222 2921.15 969.055C2921.56 966.506 2922.09 963.959 2922.77 961.428C2932.84 923.539 2970.57 899.826 3009.13 905.727Z" fill="#BDD0FB"/>
<path d="M2152.15 3355.87H1295.93V2117.31C1295.93 2095.37 1314.03 2077.59 1336.36 2077.59H2111.73C2134.05 2077.59 2152.15 2095.37 2152.15 2117.31L2152.15 3355.87Z" fill="url(#paint1_linear_6_254)"/>
<path d="M1934.65 3355.87H1078.43V2117.31C1078.43 2095.37 1096.53 2077.59 1118.85 2077.59H1894.23C1916.55 2077.59 1934.65 2095.37 1934.65 2117.31L1934.65 3355.87Z" fill="url(#paint2_linear_6_254)"/>
<path opacity="0.43" d="M1135.84 2316.89C1133.03 2316.89 1130.74 2314.65 1130.74 2311.89V2221.2C1130.74 2172.55 1177.63 2132.97 1235.26 2132.97H1399.7C1402.51 2132.97 1404.79 2135.21 1404.79 2137.97C1404.79 2140.74 1402.51 2142.98 1399.7 2142.98H1235.26C1183.25 2142.98 1140.93 2178.07 1140.93 2221.2V2311.89C1140.93 2314.65 1138.65 2316.89 1135.84 2316.89Z" fill="white"/>
<path opacity="0.43" d="M1135.84 2413.05C1133.03 2413.05 1130.74 2410.81 1130.74 2408.05V2371.1C1130.74 2368.34 1133.03 2366.1 1135.84 2366.1C1138.65 2366.1 1140.93 2368.34 1140.93 2371.1V2408.05C1140.93 2410.81 1138.65 2413.05 1135.84 2413.05Z" fill="white"/>
<path d="M1276.31 3358.27H647.791V2495.14C647.791 2473.2 665.89 2455.42 688.215 2455.42H1235.88C1258.21 2455.42 1276.3 2473.2 1276.3 2495.14L1276.31 3358.27Z" fill="#7D97F4"/>
<path d="M1091.02 3358.27H462.504V2495.14C462.504 2473.2 480.603 2455.42 502.928 2455.42H1050.59C1072.92 2455.42 1091.02 2473.2 1091.02 2495.14V3358.27Z" fill="#91B3FA"/>
<path d="M514.387 2713.14C511.576 2713.14 509.295 2710.9 509.295 2708.13V2601.13C509.295 2544.23 556.41 2497.94 614.322 2497.94H779.585C782.396 2497.94 784.677 2500.18 784.677 2502.94C784.677 2505.71 782.396 2507.95 779.585 2507.95H614.322C562.025 2507.95 519.478 2549.75 519.478 2601.14V2708.14C519.479 2710.9 517.198 2713.14 514.387 2713.14Z" fill="#BDD0FB"/>
<path d="M514.387 2826.59C511.576 2826.59 509.295 2824.35 509.295 2821.59V2777.99C509.295 2775.23 511.576 2772.99 514.387 2772.99C517.198 2772.99 519.479 2775.23 519.479 2777.99V2821.59C519.479 2824.35 517.198 2826.59 514.387 2826.59Z" fill="#BDD0FB"/>
<path d="M1987.94 2093.78C1988.83 2093.78 1989.74 2093.73 1990.65 2093.63C2003.54 2092.17 2012.79 2080.73 2011.3 2068.06L1863.86 807.333C1862.38 794.678 1850.71 785.606 1837.84 787.043C1824.95 788.496 1815.71 799.941 1817.19 812.608L1964.63 2073.34C1966.01 2085.1 1976.17 2093.78 1987.94 2093.78Z" fill="#7D97F4"/>
<path d="M1177.42 2093.78C1188.17 2093.78 1197.87 2086.49 1200.32 2075.75L1488.01 815.019C1490.84 802.583 1482.88 790.237 1470.23 787.448C1457.59 784.681 1445.01 792.48 1442.17 804.921L1154.48 2065.65C1151.64 2078.08 1159.6 2090.43 1172.26 2093.22C1173.99 2093.6 1175.72 2093.78 1177.42 2093.78Z" fill="#7D97F4"/>
<path d="M1663.26 2093.78C1676.24 2093.78 1686.75 2083.44 1686.75 2070.7V1448.51C1686.75 1435.76 1676.24 1425.43 1663.26 1425.43C1650.29 1425.43 1639.77 1435.76 1639.77 1448.51V2070.7C1639.77 2083.44 1650.29 2093.78 1663.26 2093.78Z" fill="#7D97F4"/>
<path d="M2133.35 668.923L2050.77 1690.99C2049.02 1712.6 2030.38 1729.11 2008.32 1728.58L1145.77 1707.91C1120.63 1707.31 1101.78 1685.07 1105.74 1660.66L1270.86 641.525C1274.13 621.345 1292.08 606.644 1312.87 607.118L2092.88 624.862C2116.74 625.404 2135.24 645.542 2133.35 668.923Z" fill="url(#paint3_linear_6_254)"/>
<path opacity="0.97" d="M2061.15 652.995L1337.83 636.542C1317.04 636.069 1299.09 650.77 1295.82 670.951L1140.01 1632.62C1136.06 1657.03 1154.9 1679.27 1180.05 1679.87L1981.25 1699.07C2003.31 1699.6 2021.95 1683.09 2023.69 1661.48L2101.62 697.057C2103.51 673.675 2085.02 653.538 2061.15 652.995Z" fill="white"/>
<path d="M1685.48 717.739L2050.03 737.716C2053.77 737.922 2056.59 741.12 2056.27 744.785L2055.77 750.538C2055.46 754.09 2052.3 756.74 2048.68 756.483L1684.63 730.754C1680.94 730.493 1678.18 727.316 1678.49 723.693C1678.8 720.179 1681.89 717.542 1685.48 717.739Z" fill="#91B3FA"/>
<path d="M1675.88 753.645L1675.66 756.098C1675.35 759.685 1678.06 762.844 1681.71 763.152L2045.33 793.815C2048.98 794.124 2052.19 791.464 2052.51 787.877L2052.72 785.424C2053.04 781.837 2050.33 778.678 2046.68 778.371L1683.06 747.706C1679.41 747.398 1676.19 750.058 1675.88 753.645Z" fill="#91B3FA"/>
<path d="M1783.44 794.981L1783.35 796.057C1783.04 799.645 1785.74 802.804 1789.4 803.111L2042.65 824.468C2046.3 824.776 2049.52 822.117 2049.83 818.528L2050.27 813.47C2050.59 809.842 2047.82 806.662 2044.12 806.409L1790.52 789.033C1786.9 788.786 1783.75 791.434 1783.44 794.981Z" fill="#91B3FA"/>
<path d="M1680.09 1503.46C1680.02 1498.75 1675.43 1494.37 1667.41 1490.57C1676.71 1486.31 1682.02 1481.44 1681.95 1476.31C1681.75 1460.79 1632.58 1448.83 1572.13 1449.6C1511.68 1450.37 1462.84 1463.58 1463.05 1479.11C1463.11 1483.82 1467.7 1488.19 1475.72 1491.99C1466.43 1496.25 1461.12 1501.12 1461.18 1506.25C1461.25 1510.96 1465.84 1515.34 1473.86 1519.14C1464.56 1523.4 1459.25 1528.27 1459.32 1533.4C1459.38 1538.11 1463.97 1542.49 1471.99 1546.28C1462.7 1550.54 1457.38 1555.42 1457.45 1560.55C1457.54 1567.41 1467.22 1573.58 1483.21 1578.26C1482.65 1583.29 1482.39 1588.83 1482.47 1594.97C1482.87 1623.57 1513.91 1648.04 1556.98 1650.9C1600.06 1653.76 1639.44 1625.82 1641.83 1597.31C1642.41 1590.32 1642.53 1584.14 1642.26 1578.63C1663.34 1573.23 1676.46 1565.81 1676.35 1557.75C1676.29 1553.04 1671.7 1548.66 1663.68 1544.87C1672.97 1540.61 1678.29 1535.73 1678.22 1530.6C1678.16 1525.89 1673.57 1521.52 1665.55 1517.72C1674.84 1513.46 1680.15 1508.59 1680.09 1503.46Z" fill="url(#paint4_linear_6_254)"/>
<path d="M1534.68 1587.84C1516.82 1586.66 1500.57 1584.28 1487.25 1580.85C1486.48 1580.65 1486.02 1579.87 1486.22 1579.11C1486.42 1578.35 1487.21 1577.9 1487.98 1578.1C1508.83 1583.47 1536.99 1586.22 1567.26 1585.83C1592.02 1585.52 1615.33 1583.14 1634.65 1578.97C1635.44 1578.8 1636.21 1579.28 1636.38 1580.05C1636.55 1580.82 1636.06 1581.57 1635.28 1581.74C1615.76 1585.96 1592.26 1588.36 1567.29 1588.68C1556.05 1588.82 1545.09 1588.53 1534.68 1587.84Z" fill="#7D97F4"/>
<path d="M1536.85 1560.69C1513.65 1559.15 1493.06 1555.63 1478.72 1550.57C1477.97 1550.3 1477.58 1549.49 1477.85 1548.75C1478.12 1548.01 1478.95 1547.63 1479.7 1547.89C1500.14 1555.11 1533.57 1559.14 1569.12 1558.69C1604.29 1558.24 1637.4 1553.43 1657.68 1545.82C1658.42 1545.54 1659.26 1545.91 1659.54 1546.64C1659.83 1547.38 1659.45 1548.2 1658.71 1548.48C1638.13 1556.2 1604.65 1561.08 1569.16 1561.53C1558.08 1561.67 1547.2 1561.38 1536.85 1560.69Z" fill="#7D97F4"/>
<path d="M1538.42 1533.55C1513.37 1531.88 1491.62 1527.91 1477.2 1522.15C1476.46 1521.86 1476.1 1521.03 1476.4 1520.3C1476.7 1519.57 1477.54 1519.22 1478.28 1519.52C1498.36 1527.53 1533.01 1532.03 1570.99 1531.54C1606.16 1531.09 1639.26 1526.28 1659.54 1518.68C1660.29 1518.4 1661.12 1518.77 1661.41 1519.5C1661.69 1520.23 1661.32 1521.05 1660.57 1521.33C1639.99 1529.05 1606.52 1533.93 1571.03 1534.39C1559.78 1534.53 1548.81 1534.24 1538.42 1533.55Z" fill="#7D97F4"/>
<path d="M1540.48 1506.4C1520.61 1505.08 1502.64 1502.3 1488.8 1498.3C1488.04 1498.08 1487.6 1497.29 1487.83 1496.54C1488.05 1495.79 1488.86 1495.35 1489.62 1495.58C1510.43 1501.59 1540.77 1504.81 1572.86 1504.4C1607.71 1503.95 1640.64 1499.21 1660.95 1491.7C1661.7 1491.42 1662.53 1491.8 1662.81 1492.53C1663.1 1493.27 1662.72 1494.09 1661.97 1494.36C1641.37 1501.98 1608.07 1506.79 1572.9 1507.24C1561.78 1507.38 1550.87 1507.09 1540.48 1506.4Z" fill="#7D97F4"/>
<path d="M1431.44 1349.3C1425.88 1323.4 1415.11 1298.83 1399.83 1277.04C1367.09 1230.34 1314.9 1136.33 1316.17 1012.83C1318.02 833.202 1485.69 754.337 1632.24 776.281C1778.78 798.226 1916.8 915.703 1889.43 1081.11C1872.6 1182.89 1808.91 1256.71 1762.4 1298.44C1732.86 1324.94 1710.8 1358.34 1697.55 1395.42C1681.33 1440.8 1646.34 1496.38 1572.36 1495C1476.62 1493.21 1443 1403.19 1431.44 1349.3Z" fill="url(#paint5_linear_6_254)"/>
<path d="M1599.19 1460.94L1673.41 1134.8C1674.95 1128.06 1678.67 1123.71 1681.73 1125.09C1684.79 1126.47 1686.03 1133.05 1684.5 1139.78C1684.46 1139.96 1684.4 1140.18 1684.36 1140.36L1603.17 1462.96C1602.56 1465.39 1601.18 1466.85 1600.1 1466.24C1599.04 1465.64 1598.65 1463.29 1599.19 1460.94Z" fill="url(#paint6_linear_6_254)"/>
<path d="M1545.48 1460L1516.57 1127.02C1515.97 1120.14 1512.87 1115.34 1509.65 1116.3C1506.43 1117.26 1504.3 1123.61 1504.9 1130.49C1504.92 1130.67 1504.94 1130.9 1504.96 1131.08L1541.25 1461.48C1541.52 1463.97 1542.69 1465.6 1543.85 1465.13C1544.97 1464.68 1545.68 1462.4 1545.48 1460Z" fill="url(#paint7_linear_6_254)"/>
<path d="M1674.99 1106.48C1673.82 1104.32 1670.84 1103.35 1668.34 1104.3L1638.72 1115.58L1630.67 1087.01C1630.24 1085.52 1629.11 1084.15 1627.41 1083.33C1624.2 1081.77 1620.17 1082.7 1618.41 1085.41L1618.35 1085.5L1591.83 1126.24L1574.05 1064.56L1574.02 1064.46C1573.59 1062.95 1572.55 1061.56 1570.96 1060.56C1567.42 1058.35 1562.5 1058.97 1559.97 1061.94L1523.89 1104.41C1522.42 1106.15 1522.71 1108.63 1524.66 1110.12C1526.75 1111.71 1529.91 1111.58 1531.74 1109.84L1563 1079.9L1585.23 1138.93L1585.24 1138.98C1585.6 1139.92 1586.34 1140.78 1587.4 1141.35C1589.78 1142.65 1592.9 1142.07 1594.37 1140.07L1622.36 1101.92L1630.48 1122.69L1630.55 1122.88C1630.61 1123.03 1630.68 1123.17 1630.76 1123.32C1631.93 1125.48 1634.9 1126.45 1637.4 1125.5L1672.57 1112.11C1675.07 1111.15 1676.16 1108.63 1674.99 1106.48Z" fill="white"/>
<path opacity="0.69" d="M1766.26 1258.68C1764.34 1258.55 1762.45 1257.84 1760.88 1256.53C1756.99 1253.27 1756.52 1247.52 1759.84 1243.7C1769.35 1232.73 1778.16 1221.33 1786.03 1209.82C1788.88 1205.65 1794.63 1204.54 1798.88 1207.34C1803.13 1210.14 1804.26 1215.79 1801.41 1219.96C1793.15 1232.05 1783.91 1244.01 1773.93 1255.5C1771.95 1257.78 1769.08 1258.87 1766.26 1258.68Z" fill="white"/>
<path opacity="0.69" d="M1813.6 1189.96C1812.37 1189.88 1811.14 1189.55 1809.98 1188.96C1805.43 1186.65 1803.65 1181.16 1806 1176.7C1868.42 1058.05 1828.96 952.539 1828.55 951.485C1826.74 946.787 1829.15 941.534 1833.93 939.75C1838.72 937.975 1844.06 940.336 1845.87 945.034C1847.65 949.637 1888.63 1059.26 1822.46 1185.05C1820.71 1188.38 1817.17 1190.2 1813.6 1189.96Z" fill="white"/>
<path d="M1165.94 1385.11C1166.91 1388.14 1155.68 1392.75 1149.07 1380.36C1148.84 1374.43 1145.16 1349 1148.77 1344.16C1168 1318.4 1205.28 1286.11 1205.28 1286.11C1211.58 1292.22 1206.39 1298.22 1206.39 1298.22L1188.31 1316.73C1192.09 1323.45 1196.7 1329.12 1198.87 1337.24C1200.5 1343.4 1199.5 1349.97 1196.34 1355.57C1193.16 1361.19 1188.83 1368.49 1184.74 1374.21C1176.99 1385.03 1165.94 1385.11 1165.94 1385.11Z" fill="url(#paint8_linear_6_254)"/>
<path d="M1180.4 1328.75L1163.92 1342.47L1158.74 1356.14L1173.44 1372.16C1173.44 1372.16 1178.38 1345.04 1182.05 1339.17C1185.72 1333.3 1183.82 1330.46 1180.4 1328.75Z" fill="url(#paint9_linear_6_254)"/>
<path d="M842.22 2396.03C842.22 2396.03 838.056 2419.19 836.015 2442.11C835.217 2451.07 842.247 2458.85 851.393 2459.22C882.464 2460.5 948.926 2462.97 972.774 2461.92C976.359 2461.77 978.704 2458.16 977.377 2454.88C976.265 2452.14 974.12 2449.92 971.388 2448.68L861.605 2399.11L842.22 2396.03Z" fill="url(#paint10_linear_6_254)"/>
<path d="M838.809 2382.42L842.154 2410.12C842.154 2410.12 861.385 2418.92 874.518 2409.01L866.554 2378.14L838.809 2382.42Z" fill="url(#paint11_linear_6_254)"/>
<path d="M841.323 1861.63C839.878 1868.87 833.568 2222.62 872.052 2381.16C872.68 2383.74 871.345 2386.41 868.84 2387.41C862.938 2389.78 851.365 2393.21 837.497 2393.67C833.202 2393.81 829.352 2391.07 828.14 2387.02C817.139 2350.24 764.425 2165.95 757.548 1989.91C749.864 1793.2 757.548 1983.21 757.548 1983.21L762.055 1861.62L841.323 1861.63Z" fill="url(#paint12_linear_6_254)"/>
<path d="M715.932 2408.11C715.932 2408.11 709.305 2419.8 702.888 2450.87C701.73 2456.48 705.719 2461.85 711.518 2462.41C721.777 2463.4 737.572 2464.67 750.223 2464.59C756.056 2464.55 760.607 2459.56 759.904 2453.87C758.503 2442.53 754.137 2423.93 740.65 2409.43L715.932 2408.11Z" fill="url(#paint13_linear_6_254)"/>
<path d="M710.111 2372.48L717.927 2414.37C717.927 2414.37 725.655 2420.02 740.943 2415.92L737.213 2370.85L710.111 2372.48Z" fill="url(#paint14_linear_6_254)"/>
<path d="M688.996 1872.49C657.52 2059.13 695.824 2333.8 708.742 2387.56C709.533 2390.85 712.236 2393.37 715.631 2393.92C721.397 2394.86 730.891 2395.63 740.25 2392.96C743.474 2392.04 745.74 2389.18 745.872 2385.88C747.605 2342.42 744.486 2075.61 773.814 1970.16C775.3 1964.81 778.621 1960.15 783.217 1956.94L840.141 1917.18L844.505 1852.91L688.996 1872.49Z" fill="url(#paint15_linear_6_254)"/>
<path d="M889.56 1518.83C795.233 1517.3 691.154 1543.17 691.154 1543.17C663.037 1704.36 686.237 1890.3 686.237 1890.3C759.262 1909.11 841.64 1878.79 841.64 1878.79C853.777 1811.42 910.407 1621.79 910.407 1621.79C956.495 1616.17 994.461 1603.11 1025.73 1585.83C1001.88 1558.67 990.635 1524.11 985.752 1503.68C952.401 1513.86 918.654 1519.3 889.56 1518.83Z" fill="url(#paint16_linear_6_254)"/>
<path d="M1168.18 1382.31C1158.92 1371.32 1147.19 1376.52 1147.19 1376.52C1133.31 1434.13 1060.53 1480.85 985.752 1503.68C990.635 1524.11 1001.88 1558.67 1025.73 1585.83C1149.82 1517.28 1168.18 1382.31 1168.18 1382.31Z" fill="url(#paint17_linear_6_254)"/>
<path d="M727.336 1632.91L691.156 1543.17C691.156 1543.17 603.049 1601.99 588.559 1676.56C605.207 1677.77 635.5 1682.02 665.152 1696.73C671.669 1661.52 727.336 1632.91 727.336 1632.91Z" fill="url(#paint18_linear_6_254)"/>
<path d="M794.015 1443.59L764.001 1528.87C763.504 1530.28 764.095 1531.85 765.426 1532.57C773.607 1537.01 803.083 1549.86 838.604 1527.73C842.304 1525.43 844.823 1521.67 845.385 1517.4L855.104 1443.59H794.015Z" fill="url(#paint19_linear_6_254)"/>
<path d="M665.151 1696.73C665.151 1696.73 634.356 1833.24 662.251 1909.98C628.053 1925.56 634.37 1922.62 634.37 1922.62C634.37 1922.62 566.716 1728.4 588.557 1676.56C631.621 1672.07 652.981 1683.44 665.151 1696.73Z" fill="url(#paint20_linear_6_254)"/>
<path d="M662.252 1909.98C662.252 1909.98 679.874 1932.39 678.465 1941.32C677.056 1950.24 676.719 1953.88 676.719 1953.88C676.719 1953.88 667.864 1947.93 668.422 1940.33C669.653 1964.46 677.874 1991.9 670.399 1990.58C662.924 1989.25 624.231 1954.21 632.979 1916.85C652.829 1903.3 658.394 1904.77 662.252 1909.98Z" fill="url(#paint21_linear_6_254)"/>
<path d="M844.832 1357.15C845.815 1358.49 876.494 1463.56 876.494 1463.56L815.065 1479.5L770.93 1384.16C770.93 1384.16 828.374 1334.69 844.832 1357.15Z" fill="url(#paint22_linear_6_254)"/>
<path d="M795.325 1391.22C793.82 1393.57 793.505 1396.46 794.472 1399.08L813.428 1450.3C813.716 1451.08 814.097 1451.8 814.593 1452.47C817.325 1456.16 826.984 1467.2 838.189 1456.81C847.74 1447.95 856.641 1439.93 864.962 1437.51C869.82 1436.1 874.897 1438.94 876.276 1443.73C879.117 1453.59 884.44 1473.62 886.626 1492.07C887.174 1496.69 883.963 1500.93 879.314 1501.82C867.047 1504.18 842.952 1508.09 822.471 1506.99C819.106 1506.81 816.131 1504.83 814.699 1501.83C808.398 1488.65 790.583 1451.75 783.923 1442.1C777.735 1433.13 763.022 1433.26 756.288 1433.85C753.732 1434.07 751.219 1433.25 749.313 1431.56C743.598 1426.5 734.187 1414.81 747.706 1400.63C751.067 1397.11 750.813 1391.51 747.296 1388.13C740.993 1382.09 734.885 1371.83 745.156 1359.06C755.555 1346.13 769.312 1347.41 778.29 1350.27C782.263 1351.53 786.808 1350.22 789.104 1346.8C790.125 1345.27 791.777 1344.12 794.433 1344.1C799.443 1344.06 803.462 1340.33 803.453 1335.41C803.436 1326.97 806.744 1316.63 821.367 1312.01C848.187 1303.54 865.203 1328.92 867.046 1347.96C868.889 1366.99 839.279 1374.56 821.815 1373.43C808.988 1372.61 799.473 1384.72 795.325 1391.22Z" fill="url(#paint23_linear_6_254)"/>
<path d="M791.118 1460.96C791.118 1460.96 786.458 1427.92 772.44 1426.43C758.42 1424.94 744.898 1436.37 758.997 1454.81C776.535 1477.74 791.118 1460.96 791.118 1460.96Z" fill="url(#paint24_linear_6_254)"/>
<path d="M2876.83 3358.27H2097.84V2278.99C2097.84 2257.05 2115.94 2239.27 2138.26 2239.27H2836.4C2858.73 2239.27 2876.83 2257.05 2876.83 2278.99V3358.27Z" fill="#7D97F4"/>
<path d="M2647.18 3358.27H1868.19V2278.99C1868.19 2257.05 1886.29 2239.27 1908.62 2239.27H2606.76C2629.08 2239.27 2647.18 2257.05 2647.18 2278.99L2647.18 3358.27Z" fill="#91B3FA"/>
<path d="M1932.5 2557.49C1929.69 2557.49 1927.41 2555.25 1927.41 2552.48V2419.87C1927.41 2350 1985.25 2293.17 2056.36 2293.17H2261.19C2264 2293.17 2266.28 2295.41 2266.28 2298.17C2266.28 2300.93 2264 2303.17 2261.19 2303.17H2056.36C1990.87 2303.17 1937.59 2355.52 1937.59 2419.87V2552.48C1937.59 2555.25 1935.31 2557.49 1932.5 2557.49Z" fill="#BDD0FB"/>
<path d="M1932.5 2698.1C1929.69 2698.1 1927.41 2695.86 1927.41 2693.1V2639.07C1927.41 2636.3 1929.69 2634.06 1932.5 2634.06C1935.31 2634.06 1937.59 2636.3 1937.59 2639.07V2693.1C1937.59 2695.86 1935.31 2698.1 1932.5 2698.1Z" fill="#BDD0FB"/>
<path d="M3247.5 3358.27H2468.51V2841.89C2468.51 2819.96 2486.61 2802.17 2508.93 2802.17H3207.07C3229.4 2802.17 3247.5 2819.96 3247.5 2841.89V3358.27Z" fill="url(#paint25_linear_6_254)"/>
<path d="M3017.85 3358.27H2238.86V2841.89C2238.86 2819.96 2256.96 2802.17 2279.28 2802.17H2977.42C2999.75 2802.17 3017.85 2819.96 3017.85 2841.89V3358.27Z" fill="url(#paint26_linear_6_254)"/>
<path d="M2294.24 3111.23C2291.43 3111.23 2289.15 3108.99 2289.15 3106.23V2973.61C2289.15 2903.75 2346.99 2846.91 2418.1 2846.91H2622.92C2625.74 2846.91 2628.02 2849.15 2628.02 2851.92C2628.02 2854.68 2625.74 2856.92 2622.92 2856.92H2418.1C2352.61 2856.92 2299.33 2909.27 2299.33 2973.62V3106.23C2299.33 3108.99 2297.05 3111.23 2294.24 3111.23Z" fill="#7D97F4"/>
<path d="M2294.24 3251.85C2291.43 3251.85 2289.15 3249.61 2289.15 3246.84V3192.82C2289.15 3190.05 2291.43 3187.81 2294.24 3187.81C2297.05 3187.81 2299.33 3190.05 2299.33 3192.82V3246.84C2299.33 3249.61 2297.05 3251.85 2294.24 3251.85Z" fill="#7D97F4"/>
<path d="M2880.09 2332.99C2880.09 2332.99 2880.12 2342.6 2911.72 2342C2929.34 2341.67 2962.02 2337.89 2980.48 2364.98C2990.01 2378.96 3007.37 2385.34 3023.66 2380.13C3064.22 2367.15 3132.11 2357.63 3174.35 2417.27C3206.59 2462.79 3190.69 2493.99 3167.29 2513.64C3150.11 2528.08 3146.69 2553.28 3160.63 2570.76C3174.01 2587.54 3179.4 2611.91 3155.25 2645.26C3101.14 2719.99 2961.46 2627.68 2961.46 2627.68L2831.04 2410.31L2880.09 2332.99Z" fill="url(#paint27_linear_6_254)"/>
<path d="M3141.99 2489.84C3141.58 2489.84 3141.16 2489.74 3140.74 2489.53C3140.53 2489.42 3140.45 2489.17 3140.56 2488.96C3140.67 2488.76 3140.93 2488.68 3141.13 2488.79C3142.85 2489.67 3144.73 2487.51 3145.57 2486.1C3156.98 2466.8 3154.52 2439.84 3139.58 2420.54C3130.63 2408.98 3118.56 2401.17 3105.6 2398.55C3096.39 2396.68 3086.91 2397.43 3078 2398.36C3062.89 2399.93 3047.69 2402.25 3032.83 2405.26C3031.61 2405.5 3030.4 2405.75 3029.18 2406C3020.44 2407.81 3011.4 2409.67 3002.33 2409.69C3002.27 2409.69 3002.21 2409.69 3002.16 2409.69C2990.52 2409.69 2980.33 2406.37 2973.45 2400.33C2969.15 2396.57 2965.97 2391.67 2962.89 2386.94C2959.2 2381.26 2955.38 2375.39 2949.67 2371.65C2949.48 2371.52 2949.42 2371.26 2949.56 2371.07C2949.68 2370.88 2949.95 2370.83 2950.14 2370.95C2955.99 2374.79 2959.87 2380.74 2963.61 2386.49C2966.65 2391.18 2969.81 2396.02 2974.01 2399.71C2980.75 2405.61 2990.73 2408.86 3002.16 2408.86C3002.21 2408.86 3002.27 2408.86 3002.33 2408.86C3011.31 2408.84 3020.31 2406.98 3029.01 2405.19C3030.22 2404.94 3031.44 2404.69 3032.65 2404.44C3047.55 2401.43 3062.77 2399.11 3077.91 2397.53C3086.88 2396.6 3096.43 2395.84 3105.77 2397.73C3118.93 2400.4 3131.18 2408.32 3140.25 2420.03C3155.4 2439.6 3157.89 2466.93 3146.3 2486.52C3145.31 2488.19 3143.7 2489.84 3141.99 2489.84Z" fill="white"/>
<path d="M3142.15 2480.52C3142.12 2480.52 3142.09 2480.52 3142.07 2480.51C3141.84 2480.47 3141.69 2480.25 3141.73 2480.02C3144.18 2467.25 3143.18 2455.36 3138.84 2445.63C3133.78 2434.3 3123.82 2425.97 3112.86 2423.89C3112.62 2423.85 3112.47 2423.63 3112.52 2423.41C3112.56 2423.18 3112.79 2423.02 3113.01 2423.08C3124.25 2425.2 3134.45 2433.72 3139.62 2445.3C3144.03 2455.18 3145.05 2467.24 3142.56 2480.18C3142.52 2480.38 3142.35 2480.52 3142.15 2480.52Z" fill="white"/>
<path d="M2522.43 3015.91C2522.75 3015.79 2696 2717.68 2719.42 2689.63C2723.35 2684.91 2729.45 2682.5 2735.62 2683.23L2783.97 2688.89L2840.78 2809.65L2746.14 2755.49C2755.51 2819.13 2633.92 2913.7 2592.23 2948.21C2587.99 2951.71 2587.65 2957.99 2591.47 2961.92L2608.12 2979.04C2580.79 3006.26 2549.25 3023.74 2513.66 3031.82L2522.43 3015.91Z" fill="url(#paint28_linear_6_254)"/>
<path d="M2598.49 2969.8C2598.49 2969.8 2609.11 2973.17 2612.71 2982.47C2614.43 2986.92 2612.57 2991.96 2608.64 2994.73C2591.14 3007.04 2533.44 3046.8 2506.81 3054.59C2504.62 3055.23 2502.55 3053.29 2503.04 3051.1C2504.4 3045.02 2508.82 3032.89 2523.06 3015.12L2521.79 3017.65C2520.17 3020.87 2523.73 3024.21 2526.91 3022.45C2544.72 3012.57 2581 2990.95 2598.49 2969.8Z" fill="url(#paint29_linear_6_254)"/>
<path d="M2589.91 3089.08C2590.2 3088.9 2616.2 3027.36 2616.49 3027.18C2640.32 2884.61 2698.47 2762.5 2715.61 2730.38C2718.5 2724.97 2723.97 2721.41 2730.16 2720.89L2778.69 2716.82L2859.19 2823.78L2755.35 2789.56C2777.63 2850.02 2678.05 2966.81 2644.32 3008.9C2640.9 3013.17 2641.85 3019.38 2646.4 3022.47L2666.23 3035.93C2645.07 3068.02 2617.79 3091.41 2584.6 3106.4L2589.91 3089.08Z" fill="url(#paint30_linear_6_254)"/>
<path d="M2654.9 3028.8C2654.9 3028.8 2666 3029.99 2671.43 3038.38C2674.04 3042.39 2673.26 3047.69 2669.97 3051.19C2655.38 3066.73 2607.05 3117.14 2582.58 3130.06C2580.57 3131.12 2578.14 3129.63 2578.17 3127.4C2578.26 3121.17 2580.09 3108.41 2590.37 3088.17L2589.64 3090.91C2588.72 3094.38 2592.9 3096.95 2595.65 3094.59C2611.05 3081.37 2642.13 3052.99 2654.9 3028.8Z" fill="url(#paint31_linear_6_254)"/>
<path d="M3005.81 2694.29C3005.81 2694.29 3049.71 2758.44 3053.31 2787.7C3056.91 2816.96 3041.17 2827.08 2995.23 2830.81C2858.51 2841.92 2791.11 2801.66 2791.11 2801.66C2781.76 2743.07 2775.11 2728.16 2697 2696.3C2697 2696.3 2795.79 2704.01 2815.68 2696.43C2835.56 2688.85 3005.81 2694.29 3005.81 2694.29Z" fill="url(#paint32_linear_6_254)"/>
<path d="M2887.11 2685.8C2887.11 2685.8 2835.99 2637.97 2810.83 2606.3C2797.23 2589.17 2792.95 2566.63 2799.25 2545.81C2810.73 2507.78 2831.15 2468.4 2833.01 2462.27C2835.86 2452.87 2893.18 2453.26 2893.18 2453.26C2893.18 2453.26 3005.96 2525.18 3050.28 2647.01L3000.51 2662.24C3000.51 2662.24 2971.06 2613.69 2941.97 2582.83C2941.97 2582.83 2992.31 2648.18 2994.09 2674.93L2887.11 2685.8Z" fill="url(#paint33_linear_6_254)"/>
<path d="M2826.08 2409.76C2826.68 2411.71 2841.64 2460.44 2842.81 2461.45C2843.98 2462.46 2875.61 2464.13 2890.5 2454.13L2860.11 2388.07L2826.08 2409.76Z" fill="url(#paint34_linear_6_254)"/>
<path d="M2789.71 2704.67L2828.12 2663.61L2872.48 2675.35C2872.48 2675.35 2924.19 2683.22 2953.79 2675.35C2983.39 2667.47 2983.39 2667.47 2983.39 2667.47L3050.27 2647.01L3060.78 2676.18C3063.45 2683.59 3060.77 2691.81 3054.25 2696.36C3048.46 2700.4 3041.68 2704.84 3037.36 2706.7C3028.55 2710.49 2834.45 2707.9 2834.45 2707.9L2789.71 2704.67Z" fill="url(#paint35_linear_6_254)"/>
<path d="M2916.85 2720.92C2916.72 2720.93 2916.58 2720.93 2916.44 2720.93L2739.78 2720.74C2735.41 2720.74 2731.88 2717.25 2731.88 2712.96C2731.89 2708.67 2735.44 2705.12 2739.8 2705.2L2916.46 2705.39C2920.83 2705.39 2924.37 2708.88 2924.36 2713.17C2924.36 2717.33 2921.03 2720.72 2916.85 2720.92Z" fill="url(#paint36_linear_6_254)"/>
<path d="M2580.97 2563.32H2728.1C2738.95 2563.32 2748.83 2569.47 2753.46 2579.12L2821.48 2720.83H2638.64C2631.64 2720.83 2625.36 2716.63 2622.79 2710.24L2570.04 2579.11C2567 2571.53 2572.68 2563.32 2580.97 2563.32Z" fill="url(#paint37_linear_6_254)"/>
<path d="M2684.62 2635.98C2687.81 2645.71 2685.46 2655.16 2679.36 2657.09C2673.27 2659.02 2665.74 2652.69 2662.55 2642.96C2659.37 2633.22 2661.72 2623.77 2667.82 2621.84C2673.91 2619.92 2681.43 2626.24 2684.62 2635.98Z" fill="url(#paint38_linear_6_254)"/>
<path d="M2797.82 2343.61C2797.82 2343.61 2784.39 2367.26 2793.34 2406.11C2802.29 2444.97 2822.87 2450.31 2837.07 2442.32C2851.27 2434.34 2870.15 2419.43 2875.77 2385.59C2881.39 2351.75 2816.03 2313.82 2797.82 2343.61Z" fill="url(#paint39_linear_6_254)"/>
<path d="M2850.15 2380.82C2850.15 2380.82 2832.24 2327.66 2794.33 2355.92L2790.31 2368.75C2790.31 2368.75 2758.24 2356.25 2772.1 2327.92C2785.96 2299.6 2819.63 2288.42 2852.99 2310.97C2886.35 2333.51 2903.89 2352.28 2899.25 2378.85C2894.61 2405.42 2875.14 2394.25 2875.14 2394.25C2875.14 2394.25 2873.22 2374.18 2863.99 2369.74C2854.76 2365.3 2853.44 2380.21 2853.44 2380.21L2850.15 2380.82Z" fill="url(#paint40_linear_6_254)"/>
<path d="M2858.03 2382.23C2858.03 2382.23 2848.67 2354.95 2865.63 2355.68C2882.58 2356.4 2873.05 2381.81 2868.72 2391L2858.03 2382.23Z" fill="url(#paint41_linear_6_254)"/>
<path d="M2767.99 1993.44C2773.44 2001.37 2795.11 2180.85 2798.5 2247.14C2798.73 2251.62 2795.08 2255.36 2790.52 2255.36C2786.58 2255.36 2783.22 2252.54 2782.62 2248.71L2742.98 1999.15L2767.99 1993.44Z" fill="#91B3FA"/>
<path d="M2593.77 1993.44C2588.32 2001.37 2566.65 2180.85 2563.25 2247.14C2563.03 2251.62 2566.67 2255.36 2571.24 2255.36C2575.18 2255.36 2578.53 2252.54 2579.14 2248.71L2618.78 1999.15L2593.77 1993.44Z" fill="#91B3FA"/>
<path d="M2800.77 1979.43L2800.79 1981.39C2800.92 1995.47 2788.58 2007.02 2773.12 2007.28L2589.91 2010.34C2574.68 2010.59 2561.98 1999.77 2561.24 1985.91L2561.14 1984.12C2560.37 1969.66 2572.87 1957.48 2588.76 1957.21L2772.04 1953.98C2787.72 1953.7 2800.64 1965.14 2800.77 1979.43Z" fill="#7D97F4"/>
<path d="M2444.37 2240.62C2476.94 2240.62 2491.35 2237.87 2497.79 2235.37C2496.54 2240.62 2491.77 2244.77 2485.75 2244.77H2370.54C2366.66 2244.77 2364.21 2241.12 2365.14 2237.82C2378.27 2238.86 2406.17 2240.62 2444.37 2240.62Z" fill="#7D97F4"/>
<path d="M2365.14 2237.82C2365.33 2237.15 2365.6 2236.5 2366.08 2235.89C2374.86 2224.88 2392.49 2207.59 2416.47 2207.92C2451.6 2208.41 2463.85 2212.15 2491.15 2208.14L2497.59 2229.11C2498.25 2231.25 2498.26 2233.38 2497.79 2235.37C2491.34 2237.87 2476.94 2240.62 2444.37 2240.62C2406.17 2240.62 2378.27 2238.86 2365.14 2237.82Z" fill="url(#paint42_linear_6_254)"/>
<path d="M2483.25 2185.53L2491.15 2211.95C2491.15 2211.95 2473.64 2219.78 2458.23 2213.5L2455.21 2190.61L2483.25 2185.53Z" fill="url(#paint43_linear_6_254)"/>
<path d="M2244.46 2223.98C2269.84 2244.02 2282.82 2250.76 2289.43 2252.78C2285.12 2256.09 2278.77 2256.38 2274.08 2252.67L2184.27 2181.77C2181.24 2179.38 2181.65 2175.04 2184.47 2173.05C2194.05 2181.94 2214.68 2200.47 2244.46 2223.98Z" fill="#7D97F4"/>
<path d="M2184.47 2173.05C2185.04 2172.65 2185.67 2172.31 2186.43 2172.14C2200.25 2168.99 2224.96 2166.43 2243.45 2181.45C2270.53 2203.44 2277.7 2213.89 2301.53 2227.57L2293.25 2247.81C2292.4 2249.87 2291.06 2251.53 2289.43 2252.78C2282.82 2250.76 2269.84 2244.02 2244.46 2223.98C2214.68 2200.47 2194.05 2181.94 2184.47 2173.05Z" fill="url(#paint44_linear_6_254)"/>
<path d="M2652.36 1884.53C2652.36 1884.53 2457.39 1900.18 2417.39 1918.68C2377.39 1937.18 2450.03 2196.48 2450.03 2196.48C2450.03 2196.48 2460.92 2201.63 2485.15 2194.22C2485.15 2194.22 2460.3 2002.87 2478.79 1961.38L2689.9 1927.45L2652.36 1884.53Z" fill="url(#paint45_linear_6_254)"/>
<path d="M2320.91 2191.15C2319.1 2192.77 2301.53 2227.57 2301.53 2227.57C2301.53 2227.57 2281.98 2223.41 2277.99 2211.26L2295.59 2179.84L2320.91 2191.15Z" fill="url(#paint46_linear_6_254)"/>
<path d="M2769.8 1882.93C2769.8 1882.93 2776.15 1897.95 2775.89 1917.92C2775.53 1945.53 2752.95 1967.93 2724.88 1969.3L2494.38 1979.63C2489.52 1979.85 2485.4 1983.16 2484.18 1987.8C2478.76 2008.38 2452.29 2071.6 2322.87 2197.74C2319.43 2201.09 2314.06 2201.66 2309.96 2199.12L2291.54 2187.68C2289.61 2186.48 2288.99 2183.99 2290.15 2182.05L2424.35 1956.87C2431.4 1945.44 2442.73 1937.19 2455.91 1933.88L2652.37 1884.53L2769.8 1882.93Z" fill="url(#paint47_linear_6_254)"/>
<path d="M2542.65 1531.18C2542.65 1531.18 2567.34 1574.08 2592.51 1594.86L2540.48 1623.38C2540.48 1623.38 2528.75 1577.97 2501.96 1564.67L2542.65 1531.18Z" fill="url(#paint48_linear_6_254)"/>
<path d="M2773.98 1884.53C2773.98 1884.53 2711.76 1899.43 2652.36 1884.53C2652.36 1884.53 2569.26 1774.76 2537.1 1744.88C2537.1 1744.88 2485.81 1824.4 2371.66 1835.67L2365.29 1821.69C2365.29 1821.69 2456.17 1780.53 2484.15 1717.28C2512.13 1654.03 2523.36 1627.06 2548.82 1610.55C2564.67 1600.28 2574.16 1593.26 2579.07 1589.42C2581.75 1587.32 2585.46 1587.08 2588.39 1588.84C2615.4 1605.01 2742.51 1690.55 2773.98 1884.53Z" fill="url(#paint49_linear_6_254)"/>
<path d="M2378.52 1814.39L2365.67 1811.02L2326.66 1802.15C2321.96 1801.08 2317.02 1801.9 2312.94 1804.42L2279.4 1825.16L2372.04 1825L2378.52 1814.39Z" fill="url(#paint50_linear_6_254)"/>
<path d="M2503.44 1466.86C2503.44 1466.86 2479.44 1506.05 2475.28 1527.72C2471.12 1549.38 2464.43 1562.92 2489.52 1570.64C2514.62 1578.36 2537.94 1568.59 2552.57 1548.37C2552.57 1548.37 2575.43 1517.25 2573.15 1503C2570.87 1488.75 2503.44 1466.86 2503.44 1466.86Z" fill="url(#paint51_linear_6_254)"/>
<path d="M2545.89 1531.6L2542.65 1531.18C2542.65 1531.18 2559.64 1505.95 2548.52 1499.69C2537.4 1493.44 2492.09 1478.08 2484.23 1460.55C2476.64 1443.65 2487.99 1424.55 2501.67 1420.57C2502.53 1420.31 2503.45 1420.82 2503.76 1421.65L2504.56 1423.78C2505.11 1425.24 2507.19 1425.29 2507.82 1423.87C2508.43 1422.52 2510.39 1422.46 2511.01 1423.8C2513.44 1429.06 2520.71 1438.03 2542.5 1444.97C2573.41 1454.82 2592.67 1470.13 2590.3 1491.71C2590.15 1493.08 2591.53 1494.02 2592.81 1493.47C2595.34 1492.37 2599.17 1492.2 2603.62 1496.98C2611.36 1505.29 2605.3 1523.48 2584.17 1536.35C2583.16 1536.96 2582.98 1538.35 2583.88 1539.11C2587.04 1541.77 2591.49 1547.7 2577.19 1552.98C2562.57 1558.39 2554.59 1556.56 2551.64 1555.4C2550.84 1555.09 2550.39 1554.28 2550.55 1553.45L2554.31 1534.54C2554.5 1533.56 2553.82 1532.63 2552.81 1532.5L2545.89 1531.6Z" fill="url(#paint52_linear_6_254)"/>
<path d="M2544.56 1535.49C2544.56 1535.49 2555.15 1509.84 2566.27 1518.85C2577.39 1527.87 2555.99 1547.8 2546.11 1547.53L2544.56 1535.49Z" fill="url(#paint53_linear_6_254)"/>
<path d="M2414.31 1843.01C2414.16 1843.02 2414.01 1843.02 2413.86 1843.02L2215.95 1842.83C2211.06 1842.83 2207.1 1838.93 2207.11 1834.13C2207.11 1829.33 2211.1 1825.37 2215.97 1825.45L2413.88 1825.65C2418.77 1825.65 2422.73 1829.55 2422.72 1834.34C2422.72 1838.99 2418.99 1842.79 2414.31 1843.01Z" fill="url(#paint54_linear_6_254)"/>
<path d="M2139.31 1652.58C2139.38 1652.72 2139.45 1652.85 2139.51 1652.98L2222.78 1829.39C2224.84 1833.75 2222.92 1838.92 2218.49 1840.93C2214.06 1842.95 2208.72 1841.08 2206.74 1836.69L2123.47 1660.29C2121.41 1655.93 2123.33 1650.76 2127.76 1648.74C2132.06 1646.79 2137.13 1648.51 2139.31 1652.58Z" fill="url(#paint55_linear_6_254)"/>
<path d="M2326.19 1852.77C2327.06 1856.29 2409.63 2160.59 2430.57 2237.74C2432.98 2246.63 2426.24 2255.36 2416.98 2255.36C2410.52 2255.36 2404.9 2250.98 2403.33 2244.75L2311.67 1879.58L2326.19 1852.77Z" fill="#7D97F4"/>
<path d="M2280.97 1852.77C2280.11 1856.29 2197.53 2160.59 2176.6 2237.74C2174.18 2246.63 2180.92 2255.36 2190.18 2255.36C2196.64 2255.36 2202.27 2250.98 2203.83 2244.75L2295.5 1879.58L2280.97 1852.77Z" fill="#7D97F4"/>
<path d="M2277.53 1842.82H2328.96V1883.4C2328.96 1889.24 2324.21 1893.96 2318.34 1893.96H2311.29V1985.11C2311.29 1989.53 2307.69 1993.11 2303.25 1993.11C2298.81 1993.11 2295.21 1989.53 2295.21 1985.11V1893.96H2291.63C2283.84 1893.96 2277.53 1887.69 2277.53 1879.95V1842.82Z" fill="#7D97F4"/>
<path d="M2455.42 1833.07H2168.25C2164.24 1833.07 2160.73 1835.78 2159.73 1839.64L2155.72 1855.09C2154.28 1860.65 2158.52 1866.06 2164.29 1866.02L2458.95 1864.34C2464.66 1864.31 2468.83 1858.96 2467.44 1853.45L2463.95 1839.69C2462.96 1835.8 2459.45 1833.07 2455.42 1833.07Z" fill="#7D97F4"/>
</g>
<defs>
<linearGradient id="paint0_linear_6_254" x1="3576.77" y1="4120.58" x2="1174.44" y2="1084.07" gradientUnits="userSpaceOnUse">
<stop stop-color="#DAE3FE"/>
<stop offset="1" stop-color="#E9EFFD"/>
</linearGradient>
<linearGradient id="paint1_linear_6_254" x1="3160.2" y1="1372.9" x2="2467.62" y2="2049.86" gradientUnits="userSpaceOnUse">
<stop stop-color="#FF928E"/>
<stop offset="1" stop-color="#FE7062"/>
</linearGradient>
<linearGradient id="paint2_linear_6_254" x1="1279.06" y1="2980.98" x2="2461.38" y2="1624.65" gradientUnits="userSpaceOnUse">
<stop stop-color="#FF928E"/>
<stop offset="1" stop-color="#FE7062"/>
</linearGradient>
<linearGradient id="paint3_linear_6_254" x1="1105.21" y1="1167.85" x2="2133.48" y2="1167.85" gradientUnits="userSpaceOnUse">
<stop stop-color="#4F52FF"/>
<stop offset="1" stop-color="#4042E2"/>
</linearGradient>
<linearGradient id="paint4_linear_6_254" x1="1575.9" y1="1434.57" x2="1563.57" y2="1607.3" gradientUnits="userSpaceOnUse">
<stop stop-color="#4F52FF"/>
<stop offset="1" stop-color="#4042E2"/>
</linearGradient>
<linearGradient id="paint5_linear_6_254" x1="1498.36" y1="1571.08" x2="1655.84" y2="734.608" gradientUnits="userSpaceOnUse">
<stop stop-color="#FF928E"/>
<stop offset="1" stop-color="#FE7062"/>
</linearGradient>
<linearGradient id="paint6_linear_6_254" x1="1734.4" y1="898.231" x2="1587.1" y2="1556.12" gradientUnits="userSpaceOnUse">
<stop stop-color="#E1473D"/>
<stop offset="1" stop-color="#E9605A"/>
</linearGradient>
<linearGradient id="paint7_linear_6_254" x1="1622.65" y1="873.21" x2="1475.35" y2="1531.1" gradientUnits="userSpaceOnUse">
<stop stop-color="#E1473D"/>
<stop offset="1" stop-color="#E9605A"/>
</linearGradient>
<linearGradient id="paint8_linear_6_254" x1="1193.91" y1="1290.23" x2="1132.85" y2="1467.78" gradientUnits="userSpaceOnUse">
<stop stop-color="#FEBBBA"/>
<stop offset="1" stop-color="#FF928E"/>
</linearGradient>
<linearGradient id="paint9_linear_6_254" x1="1145.51" y1="1403.24" x2="1191.64" y2="1308.53" gradientUnits="userSpaceOnUse">
<stop stop-color="#FEBBBA"/>
<stop offset="1" stop-color="#FF928E"/>
</linearGradient>
<linearGradient id="paint10_linear_6_254" x1="969.299" y1="2364.02" x2="574.933" y2="2800.6" gradientUnits="userSpaceOnUse">
<stop stop-color="#09005D"/>
<stop offset="1" stop-color="#1A0F91"/>
</linearGradient>
<linearGradient id="paint11_linear_6_254" x1="838.809" y1="2395.93" x2="874.518" y2="2395.93" gradientUnits="userSpaceOnUse">
<stop stop-color="#FEBBBA"/>
<stop offset="1" stop-color="#FF928E"/>
</linearGradient>
<linearGradient id="paint12_linear_6_254" x1="1000.95" y1="1878.12" x2="666.626" y2="2339.3" gradientUnits="userSpaceOnUse">
<stop stop-color="#09005D"/>
<stop offset="1" stop-color="#1A0F91"/>
</linearGradient>
<linearGradient id="paint13_linear_6_254" x1="879.11" y1="2282.55" x2="484.746" y2="2719.13" gradientUnits="userSpaceOnUse">
<stop stop-color="#09005D"/>
<stop offset="1" stop-color="#1A0F91"/>
</linearGradient>
<linearGradient id="paint14_linear_6_254" x1="710.112" y1="2394.13" x2="740.944" y2="2394.13" gradientUnits="userSpaceOnUse">
<stop stop-color="#FEBBBA"/>
<stop offset="1" stop-color="#FF928E"/>
</linearGradient>
<linearGradient id="paint15_linear_6_254" x1="939.986" y1="1833.92" x2="605.658" y2="2295.1" gradientUnits="userSpaceOnUse">
<stop stop-color="#09005D"/>
<stop offset="1" stop-color="#1A0F91"/>
</linearGradient>
<linearGradient id="paint16_linear_6_254" x1="-4133.7" y1="10515.4" x2="-3907.41" y2="10095.1" gradientUnits="userSpaceOnUse">
<stop stop-color="#FF928E"/>
<stop offset="1" stop-color="#FE7062"/>
</linearGradient>
<linearGradient id="paint17_linear_6_254" x1="1140.05" y1="1271.72" x2="1079" y2="1449.26" gradientUnits="userSpaceOnUse">
<stop stop-color="#FEBBBA"/>
<stop offset="1" stop-color="#FF928E"/>
</linearGradient>
<linearGradient id="paint18_linear_6_254" x1="-4252.07" y1="10451.7" x2="-4025.78" y2="10031.4" gradientUnits="userSpaceOnUse">
<stop stop-color="#FF928E"/>
<stop offset="1" stop-color="#FE7062"/>
</linearGradient>
<linearGradient id="paint19_linear_6_254" x1="763.827" y1="1491.96" x2="855.106" y2="1491.96" gradientUnits="userSpaceOnUse">
<stop stop-color="#FEBBBA"/>
<stop offset="1" stop-color="#FF928E"/>
</linearGradient>
<linearGradient id="paint20_linear_6_254" x1="687.396" y1="2151.4" x2="615.707" y2="1627.4" gradientUnits="userSpaceOnUse">
<stop stop-color="#FEBBBA"/>
<stop offset="1" stop-color="#FF928E"/>
</linearGradient>
<linearGradient id="paint21_linear_6_254" x1="678.56" y1="2101.03" x2="621.352" y2="1682.87" gradientUnits="userSpaceOnUse">
<stop stop-color="#FEBBBA"/>
<stop offset="1" stop-color="#FF928E"/>
</linearGradient>
<linearGradient id="paint22_linear_6_254" x1="824.939" y1="1372.12" x2="820.181" y2="1580.02" gradientUnits="userSpaceOnUse">
<stop stop-color="#FEBBBA"/>
<stop offset="1" stop-color="#FF928E"/>
</linearGradient>
<linearGradient id="paint23_linear_6_254" x1="769.528" y1="1460.4" x2="891.753" y2="1370.85" gradientUnits="userSpaceOnUse">
<stop stop-color="#09005D"/>
<stop offset="1" stop-color="#1A0F91"/>
</linearGradient>
<linearGradient id="paint24_linear_6_254" x1="751.364" y1="1586.04" x2="772.342" y2="1443.42" gradientUnits="userSpaceOnUse">
<stop stop-color="#FEBBBA"/>
<stop offset="1" stop-color="#FF928E"/>
</linearGradient>
<linearGradient id="paint25_linear_6_254" x1="3621.52" y1="2416.06" x2="2853.96" y2="3119.12" gradientUnits="userSpaceOnUse">
<stop stop-color="#4F52FF"/>
<stop offset="1" stop-color="#4042E2"/>
</linearGradient>
<linearGradient id="paint26_linear_6_254" x1="2994.86" y1="2544.2" x2="1850.95" y2="4322.16" gradientUnits="userSpaceOnUse">
<stop stop-color="#4F52FF"/>
<stop offset="1" stop-color="#4042E2"/>
</linearGradient>
<linearGradient id="paint27_linear_6_254" x1="2767.97" y1="2363.79" x2="3163.52" y2="2571.73" gradientUnits="userSpaceOnUse">
<stop stop-color="#09005D"/>
<stop offset="1" stop-color="#1A0F91"/>
</linearGradient>
<linearGradient id="paint28_linear_6_254" x1="2480.9" y1="2766.19" x2="2751.66" y2="2923.47" gradientUnits="userSpaceOnUse">
<stop stop-color="#FEBBBA"/>
<stop offset="1" stop-color="#FF928E"/>
</linearGradient>
<linearGradient id="paint29_linear_6_254" x1="2516.61" y1="2919.35" x2="2635.99" y2="3213.41" gradientUnits="userSpaceOnUse">
<stop stop-color="#09005D"/>
<stop offset="1" stop-color="#1A0F91"/>
</linearGradient>
<linearGradient id="paint30_linear_6_254" x1="2507.33" y1="2804.39" x2="1582.1" y2="2214.9" gradientUnits="userSpaceOnUse">
<stop stop-color="#FEBBBA"/>
<stop offset="1" stop-color="#FF928E"/>
</linearGradient>
<linearGradient id="paint31_linear_6_254" x1="2564.33" y1="2995.68" x2="2740.74" y2="3260.6" gradientUnits="userSpaceOnUse">
<stop stop-color="#09005D"/>
<stop offset="1" stop-color="#1A0F91"/>
</linearGradient>
<linearGradient id="paint32_linear_6_254" x1="2798.33" y1="2598.95" x2="3125.78" y2="3201.39" gradientUnits="userSpaceOnUse">
<stop stop-color="#09005D"/>
<stop offset="1" stop-color="#1A0F91"/>
</linearGradient>
<linearGradient id="paint33_linear_6_254" x1="2793" y1="2473.65" x2="3425.97" y2="3095.05" gradientUnits="userSpaceOnUse">
<stop stop-color="#FF928E"/>
<stop offset="1" stop-color="#FE7062"/>
</linearGradient>
<linearGradient id="paint34_linear_6_254" x1="2873.64" y1="2528.71" x2="2855.71" y2="2411.61" gradientUnits="userSpaceOnUse">
<stop stop-color="#FEBBBA"/>
<stop offset="1" stop-color="#FF928E"/>
</linearGradient>
<linearGradient id="paint35_linear_6_254" x1="2959.3" y1="2677.89" x2="3231.39" y2="2677.89" gradientUnits="userSpaceOnUse">
<stop stop-color="#FEBBBA"/>
<stop offset="1" stop-color="#FF928E"/>
</linearGradient>
<linearGradient id="paint36_linear_6_254" x1="2946.82" y1="2674.8" x2="2807.07" y2="2721.45" gradientUnits="userSpaceOnUse">
<stop stop-color="#09005D"/>
<stop offset="1" stop-color="#1A0F91"/>
</linearGradient>
<linearGradient id="paint37_linear_6_254" x1="2754.18" y1="2584.45" x2="2655.05" y2="2691.08" gradientUnits="userSpaceOnUse">
<stop stop-color="#09005D"/>
<stop offset="1" stop-color="#1A0F91"/>
</linearGradient>
<linearGradient id="paint38_linear_6_254" x1="2693.12" y1="2610.57" x2="2648.41" y2="2679.1" gradientUnits="userSpaceOnUse">
<stop stop-color="#4F52FF"/>
<stop offset="1" stop-color="#4042E2"/>
</linearGradient>
<linearGradient id="paint39_linear_6_254" x1="2847.8" y1="2478.53" x2="2806.3" y2="2199.95" gradientUnits="userSpaceOnUse">
<stop stop-color="#FEBBBA"/>
<stop offset="1" stop-color="#FF928E"/>
</linearGradient>
<linearGradient id="paint40_linear_6_254" x1="2770.47" y1="2313.59" x2="3183.63" y2="2530.79" gradientUnits="userSpaceOnUse">
<stop stop-color="#09005D"/>
<stop offset="1" stop-color="#1A0F91"/>
</linearGradient>
<linearGradient id="paint41_linear_6_254" x1="2881.68" y1="2473.48" x2="2840.18" y2="2194.91" gradientUnits="userSpaceOnUse">
<stop stop-color="#FEBBBA"/>
<stop offset="1" stop-color="#FF928E"/>
</linearGradient>
<linearGradient id="paint42_linear_6_254" x1="2365.14" y1="2224.27" x2="2498.12" y2="2224.27" gradientUnits="userSpaceOnUse">
<stop stop-color="#09005D"/>
<stop offset="1" stop-color="#1A0F91"/>
</linearGradient>
<linearGradient id="paint43_linear_6_254" x1="2491.15" y1="2200.73" x2="2455.21" y2="2200.73" gradientUnits="userSpaceOnUse">
<stop stop-color="#FEBBBA"/>
<stop offset="1" stop-color="#FF928E"/>
</linearGradient>
<linearGradient id="paint44_linear_6_254" x1="2184.47" y1="2211.26" x2="2301.53" y2="2211.26" gradientUnits="userSpaceOnUse">
<stop stop-color="#09005D"/>
<stop offset="1" stop-color="#1A0F91"/>
</linearGradient>
<linearGradient id="paint45_linear_6_254" x1="2689.9" y1="2041.38" x2="2405.37" y2="2041.38" gradientUnits="userSpaceOnUse">
<stop stop-color="#09005D"/>
<stop offset="1" stop-color="#1A0F91"/>
</linearGradient>
<linearGradient id="paint46_linear_6_254" x1="2320.91" y1="2203.71" x2="2277.99" y2="2203.71" gradientUnits="userSpaceOnUse">
<stop stop-color="#FEBBBA"/>
<stop offset="1" stop-color="#FF928E"/>
</linearGradient>
<linearGradient id="paint47_linear_6_254" x1="2431.45" y1="1924.9" x2="2737.65" y2="2278.23" gradientUnits="userSpaceOnUse">
<stop stop-color="#09005D"/>
<stop offset="1" stop-color="#1A0F91"/>
</linearGradient>
<linearGradient id="paint48_linear_6_254" x1="2559.27" y1="1609.56" x2="2538.74" y2="1556.9" gradientUnits="userSpaceOnUse">
<stop stop-color="#FEBBBA"/>
<stop offset="1" stop-color="#FF928E"/>
</linearGradient>
<linearGradient id="paint49_linear_6_254" x1="2516.84" y1="1941.18" x2="2659.02" y2="1695.52" gradientUnits="userSpaceOnUse">
<stop stop-color="#FF928E"/>
<stop offset="1" stop-color="#FE7062"/>
</linearGradient>
<linearGradient id="paint50_linear_6_254" x1="2378.52" y1="1813.42" x2="2279.4" y2="1813.42" gradientUnits="userSpaceOnUse">
<stop stop-color="#FEBBBA"/>
<stop offset="1" stop-color="#FF928E"/>
</linearGradient>
<linearGradient id="paint51_linear_6_254" x1="2494.67" y1="1502.96" x2="2587.7" y2="1597.4" gradientUnits="userSpaceOnUse">
<stop stop-color="#FEBBBA"/>
<stop offset="1" stop-color="#FF928E"/>
</linearGradient>
<linearGradient id="paint52_linear_6_254" x1="2577.03" y1="1450.04" x2="2467.44" y2="1560.25" gradientUnits="userSpaceOnUse">
<stop stop-color="#09005D"/>
<stop offset="1" stop-color="#1A0F91"/>
</linearGradient>
<linearGradient id="paint53_linear_6_254" x1="2509.98" y1="1487.88" x2="2603.01" y2="1582.31" gradientUnits="userSpaceOnUse">
<stop stop-color="#FEBBBA"/>
<stop offset="1" stop-color="#FF928E"/>
</linearGradient>
<linearGradient id="paint54_linear_6_254" x1="18736.8" y1="-21613" x2="19273.2" y2="-22409.2" gradientUnits="userSpaceOnUse">
<stop stop-color="#09005D"/>
<stop offset="1" stop-color="#1A0F91"/>
</linearGradient>
<linearGradient id="paint55_linear_6_254" x1="-5332.39" y1="497.949" x2="-6289.78" y2="335.005" gradientUnits="userSpaceOnUse">
<stop stop-color="#09005D"/>
<stop offset="1" stop-color="#1A0F91"/>
</linearGradient>
<clipPath id="clip0_6_254">
<rect width="3710" height="3430" fill="white"/>
</clipPath>
</defs>
</svg>
